<?xml version="1.0" encoding="UTF-8"?><svg id="Layer_2" xmlns="http://www.w3.org/2000/svg" xmlns:xlink="http://www.w3.org/1999/xlink" viewBox="0 0 949.13 886.09"><defs><style>.cls-1,.cls-2,.cls-3,.cls-4,.cls-5,.cls-6{fill:none;}.cls-1,.cls-2,.cls-7,.cls-8,.cls-9,.cls-10,.cls-11,.cls-6{stroke-width:3px;}.cls-1,.cls-3,.cls-4,.cls-5,.cls-8{stroke-miterlimit:10;}.cls-1,.cls-3,.cls-7,.cls-8,.cls-9,.cls-10,.cls-11,.cls-6{stroke:#0b1221;}.cls-2{stroke:#afff00;}.cls-2,.cls-7,.cls-9,.cls-10,.cls-11,.cls-6{stroke-linecap:round;stroke-linejoin:round;}.cls-12{clip-path:url(#clippath);}.cls-13{fill:#ff2f8a;}.cls-14{fill:#ff82b9;}.cls-15{fill:#9789c6;}.cls-16{fill:#afff00;}.cls-17,.cls-9{fill:#e2ded8;}.cls-18{fill:#0b1221;}.cls-19,.cls-8{fill:#523aa0;}.cls-20{clip-path:url(#clippath-1);}.cls-21{clip-path:url(#clippath-2);}.cls-4{stroke:#ff2f8a;}.cls-5{stroke:#523aa0;}.cls-7{fill:#d7ff7f;}.cls-10{fill:#3e2c78;}.cls-11{fill:#fff;}</style><clipPath id="clippath"><path class="cls-17" d="M671.52,419.53c-6.31-.9-40.57-1.8-51.39-5.41-10.82-3.61-70.17-1.73-125.69-26.97-36.91-16.78-39.79-38.73-39.79-38.73-1.41,11.83-12.12,17.92-20.23,19.72-5.49,1.22-18.42-.04-33.34-17.77,.17,6.58,1.29,29.36,8.6,43.75,8.62,16.96,12.43,67.27,12.43,67.27l-9.87,11.33s-16.59,16.22-16.82,26.32,36.29,109.8,148.08,114.31c111.79,4.51,129.82-38.77,137.93-64.91,8.11-26.14-20.76-49.17-20.76-49.17-.92-63.6,37.46-84.68,37.46-84.68,0,0-20.31,5.84-26.62,4.93Z"/></clipPath><clipPath id="clippath-1"><path class="cls-17" d="M731.41,248.98c-.39-5.25-19.75-32.49-15.93-40.05s7.89-27.21,7.89-27.21c0,0,3.72-15.62,.73-24.13-2.99-8.51-17.91-37.29-17.91-37.29,0,0-12.12-35.22-13.02-37.93-.9-2.7-14.42-20.73-28.85-30.65-14.42-9.92-24.34-15.33-24.34-15.33,0,0-47.78-18.93-105.48-1.8-57.7,17.13-97.36,65.81-97.36,65.81l-5.92,150.68s-36.46-19.06-54.49-1.94c0,0-20.74,8.97,2.25,63.09,7.43,17.48,15,29.68,22.11,38.14,14.91,17.73,27.84,18.99,33.34,17.77,8.11-1.8,18.82-7.89,20.23-19.72,0,0,12.64,26.53,42.13,39.5,58.29,25.65,112.54,22.59,123.36,26.19,10.82,3.61,45.08,4.51,51.39,5.41,6.31,.9,26.62-4.93,26.62-4.93,0,0,24.49-8.97,27.78-22.3,3.29-13.33,11.41-31.36,11.41-38.57s-5.54-99.49-5.92-104.74Z"/></clipPath><clipPath id="clippath-2"><path class="cls-8" d="M886.96,600.89c-35.75-48.19-186.54-87.05-186.54-87.05,0,0,17.1,9.33,7,51.3-10.1,41.97-60.63,80.06-104.15,83.17-43.53,3.11-124.36,3.89-188.87-51.3-42.19-36.09-51.14-72.51-50.54-94.05h-16.7v-9.46c-39.54,17.77-121.07,54.23-152.34,66.98-41.97,17.1-77.73,37.31-99.49,96.38l-34.83,158.92c-2.88,13.15,5.67,26.09,18.91,28.56,62.15,11.63,240.83,40.26,493.55,40.26,205.18,0,303.64-20.17,347.58-34.41,18.68-6.05,29.97-24.99,26.46-44.3-10.03-55.14-33.29-168.95-60.02-204.98Z"/></clipPath></defs><g id="background_black"><g><g><path class="cls-17" d="M671.52,419.53c-6.31-.9-40.57-1.8-51.39-5.41-10.82-3.61-70.17-1.73-125.69-26.97-36.91-16.78-39.79-38.73-39.79-38.73-1.41,11.83-12.12,17.92-20.23,19.72-5.49,1.22-18.42-.04-33.34-17.77,.17,6.58,1.29,29.36,8.6,43.75,8.62,16.96,12.43,67.27,12.43,67.27l-9.87,11.33s-16.59,16.22-16.82,26.32,36.29,109.8,148.08,114.31c111.79,4.51,129.82-38.77,137.93-64.91,8.11-26.14-20.76-49.17-20.76-49.17-.92-63.6,37.46-84.68,37.46-84.68,0,0-20.31,5.84-26.62,4.93Z"/><g class="cls-12"><g><g><line class="cls-3" x1="312.4" y1="171.92" x2="312.4" y2="628.95"/><line class="cls-3" x1="358.52" y1="171.92" x2="358.52" y2="628.95"/><line class="cls-3" x1="404.63" y1="171.92" x2="404.63" y2="628.95"/><line class="cls-3" x1="450.75" y1="171.92" x2="450.75" y2="628.95"/><line class="cls-3" x1="496.87" y1="171.92" x2="496.87" y2="628.95"/><line class="cls-3" x1="542.99" y1="171.92" x2="542.99" y2="628.95"/><line class="cls-3" x1="589.1" y1="171.92" x2="589.1" y2="628.95"/><line class="cls-3" x1="635.22" y1="171.92" x2="635.22" y2="628.95"/><line class="cls-3" x1="681.34" y1="171.92" x2="681.34" y2="628.95"/><line class="cls-3" x1="727.46" y1="171.92" x2="727.46" y2="628.95"/></g><g><polyline class="cls-3" points="748.44 192.9 680.82 192.9 634.18 192.9 587.55 192.9 540.91 192.9 495.44 192.9 449.97 192.9 403.34 192.9 356.7 192.9 291.41 192.9"/><polyline class="cls-3" points="748.44 239.02 680.95 239.02 634.18 239.02 587.55 239.02 540.91 239.02 495.44 239.02 449.84 239.02 403.34 239.02 356.7 239.02 311.19 239.02 291.41 239.02"/><polyline class="cls-3" points="748.44 285.14 681.08 285.14 634.18 285.14 587.55 285.14 540.91 285.14 495.44 285.14 449.71 285.14 403.34 285.14 356.7 285.14 311.2 285.14 291.41 285.14"/><polyline class="cls-3" points="748.44 331.26 681.21 331.26 634.18 331.26 587.55 331.26 540.91 331.26 495.44 331.26 449.59 331.26 403.34 331.26 356.7 331.26 311.2 331.26 291.41 331.26"/><polyline class="cls-3" points="748.44 377.37 681.34 377.37 634.18 377.37 587.55 377.37 540.91 377.37 495.44 377.37 449.46 377.37 403.34 377.37 356.7 377.37 311.21 377.37 291.41 377.37"/><polyline class="cls-3" points="748.44 423.49 681.47 423.49 634.18 423.49 587.55 423.49 540.91 423.49 495.44 423.49 449.33 423.49 403.34 423.49 356.7 423.49 311.21 423.49 291.41 423.49"/><polyline class="cls-3" points="748.44 469.61 681.6 469.61 634.18 469.61 587.55 469.61 540.91 469.61 495.44 469.61 449.2 469.61 403.34 469.61 356.7 469.61 311.22 469.61 291.41 469.61"/><polyline class="cls-3" points="748.44 515.73 681.73 515.73 634.18 515.73 587.55 515.73 540.91 515.73 495.44 515.73 449.07 515.73 403.34 515.73 356.7 515.73 311.22 515.73 291.41 515.73"/><polyline class="cls-3" points="748.44 561.84 681.86 561.84 634.18 561.84 587.55 561.84 540.91 561.84 495.44 561.84 448.94 561.84 403.34 561.84 356.7 561.84 311.23 561.84 291.41 561.84"/><polyline class="cls-3" points="748.44 607.96 681.99 607.96 634.18 607.96 587.55 607.96 540.91 607.96 495.44 607.96 448.81 607.96 403.34 607.96 356.7 607.96 311.23 607.96 291.41 607.96"/></g></g></g></g><g><path class="cls-17" d="M731.41,248.98c-.39-5.25-19.75-32.49-15.93-40.05s7.89-27.21,7.89-27.21c0,0,3.72-15.62,.73-24.13-2.99-8.51-17.91-37.29-17.91-37.29,0,0-12.12-35.22-13.02-37.93-.9-2.7-14.42-20.73-28.85-30.65-14.42-9.92-24.34-15.33-24.34-15.33,0,0-47.78-18.93-105.48-1.8-57.7,17.13-97.36,65.81-97.36,65.81l-5.92,150.68s-36.46-19.06-54.49-1.94c0,0-20.74,8.97,2.25,63.09,7.43,17.48,15,29.68,22.11,38.14,14.91,17.73,27.84,18.99,33.34,17.77,8.11-1.8,18.82-7.89,20.23-19.72,0,0,12.64,26.53,42.13,39.5,58.29,25.65,112.54,22.59,123.36,26.19,10.82,3.61,45.08,4.51,51.39,5.41,6.31,.9,26.62-4.93,26.62-4.93,0,0,24.49-8.97,27.78-22.3,3.29-13.33,11.41-31.36,11.41-38.57s-5.54-99.49-5.92-104.74Z"/><g class="cls-20"><g><g><polyline class="cls-3" points="381.81 31.28 381.81 51.29 381.81 97.98 381.81 144.66 397.11 189.32 406.62 236.01 415.94 281.69 412.45 329.39 381.81 374.05 381.81 421.76 381.81 468.45 381.81 488.31"/><polyline class="cls-3" points="427.93 31.28 427.93 51.34 427.93 98.09 427.93 144.66 443.23 189.55 455.28 236.13 458.27 281.8 455.16 329.39 427.93 374.17 427.93 421.65 427.93 468.34 427.93 488.31"/><polyline class="cls-3" points="474.05 31.28 474.05 51.4 474.05 98.2 474.05 144.66 489.34 189.78 503.94 236.24 500.59 281.91 497.87 329.39 474.05 374.28 474.05 421.53 474.05 468.22 474.05 488.31"/><polyline class="cls-3" points="520.17 31.28 520.17 51.45 520.17 98.31 520.17 144.66 535.46 190 552.6 236.35 542.92 282.03 540.59 329.39 520.17 374.39 520.17 421.42 520.17 468.11 520.17 488.31"/><polyline class="cls-3" points="566.29 31.28 566.29 51.51 566.29 98.43 566.29 144.66 581.58 190.23 601.26 236.47 585.25 282.14 583.3 329.39 566.29 374.5 566.29 421.31 566.29 468 566.29 488.31"/><polyline class="cls-3" points="612.4 31.28 612.4 51.56 612.4 98.54 612.4 144.67 627.7 190.45 649.92 236.58 627.57 282.25 626.02 329.39 612.4 374.62 612.4 421.19 612.4 467.88 612.4 488.31"/><polyline class="cls-3" points="658.52 31.28 658.52 51.62 658.52 98.65 658.52 144.67 673.81 190.68 698.59 236.69 669.9 282.37 668.73 329.39 658.52 374.73 658.52 421.08 658.52 467.77 658.52 488.31"/><polyline class="cls-3" points="704.64 31.28 704.64 51.67 704.64 98.76 704.64 144.67 719.93 190.9 747.25 236.8 712.22 282.48 711.44 329.39 704.64 374.84 704.64 420.97 704.64 467.66 704.64 488.31"/><polyline class="cls-3" points="750.76 31.28 750.76 51.73 750.76 98.88 750.76 144.67 766.05 191.13 795.91 236.92 754.55 282.59 754.16 329.39 750.76 374.96 750.76 420.86 750.76 467.55 750.76 488.31"/><polyline class="cls-3" points="796.87 31.28 796.87 51.79 796.87 98.99 796.87 144.67 812.17 191.35 844.57 237.03 796.87 282.7 796.87 329.39 796.87 375.07 796.87 420.74 796.87 467.43 796.87 488.31"/></g><g><polyline class="cls-3" points="817.86 52.27 750.24 52.27 703.6 52.27 656.97 44.76 610.33 44.76 568.68 52.27 523.21 52.27 472.75 52.27 426.12 52.27 360.83 52.27"/><polyline class="cls-3" points="817.86 98.39 795.96 98.39 750.37 98.39 703.6 99.24 656.97 92.56 610.33 91.71 568.61 98.39 565.41 98.39 523.15 98.39 518.7 98.39 472.75 98.39 426.12 98.39 380.61 98.39 360.83 98.39"/><polyline class="cls-3" points="817.86 144.5 795.96 144.5 750.5 144.5 703.6 146.2 656.97 140.37 610.33 138.67 568.54 144.5 565.34 144.5 523.09 144.5 518.64 144.5 472.75 144.5 426.12 144.5 380.61 144.5 360.83 144.5"/><polyline class="cls-3" points="817.86 190.62 795.95 190.62 750.63 190.62 703.6 193.17 656.97 188.17 610.33 185.62 568.48 190.62 565.27 190.62 523.03 190.62 518.58 190.62 472.75 190.62 426.12 190.62 380.62 190.62 360.83 190.62"/><polyline class="cls-3" points="817.86 236.74 795.95 236.74 750.76 236.74 703.6 240.14 656.97 235.97 610.33 232.57 568.41 236.74 565.2 236.74 522.97 236.74 518.52 236.74 472.75 236.74 426.12 236.74 380.62 236.74 360.83 236.74"/><polyline class="cls-3" points="817.86 282.86 795.94 282.86 750.88 282.86 703.6 287.11 656.97 283.77 610.33 279.52 568.35 282.86 565.13 282.86 522.91 282.86 518.46 282.86 472.75 282.86 426.12 282.86 380.63 282.86 360.83 282.86"/><polyline class="cls-3" points="817.86 328.97 795.94 328.97 751.01 328.97 703.6 334.07 656.97 331.57 610.33 326.47 568.28 328.97 565.07 328.97 522.85 328.97 518.4 328.97 472.75 328.97 426.12 328.97 380.63 328.97 360.83 328.97"/><polyline class="cls-3" points="817.86 375.09 795.93 375.09 751.14 375.09 703.6 381.04 656.97 379.37 610.33 373.42 568.22 375.09 565 375.09 522.79 375.09 518.34 375.09 472.75 375.09 426.12 375.09 380.64 375.09 360.83 375.09"/><polyline class="cls-3" points="817.86 421.21 795.93 421.21 751.27 421.21 703.6 428.01 656.97 427.18 610.33 420.37 568.15 421.21 564.93 421.21 522.73 421.21 518.28 421.21 472.75 421.21 426.12 421.21 380.64 421.21 360.83 421.21"/><polyline class="cls-3" points="817.86 467.33 795.93 467.33 751.4 467.33 703.6 474.98 656.97 474.98 610.33 467.33 564.86 467.33 518.22 467.33 472.75 467.33 426.12 467.33 380.65 467.33 360.83 467.33"/></g></g></g></g><rect class="cls-16" x="506.88" y="168.35" width="115.42" height="33.81"/><rect class="cls-16" x="640.96" y="384.04" width="115.42" height="33.81"/><rect class="cls-16" x="348.81" y="267.45" width="70.14" height="33.81"/><path class="cls-2" d="M671.55,517.9c-4.75-20.11-22.67-32.9-22.67-32.9,0,0,1.46-16.82,8.41-43.14,6.95-26.32,29.98-39.48,29.98-39.48,13.89-4.02,27.05-15.72,27.78-22.3,.73-6.58,4.75-20.47,8.41-26.69,3.66-6.21,4.02-25.96,3.29-34.37-.73-8.41-1.46-26.32-2.56-34-1.1-7.68-1.1-36.92-3.66-48.26-1.17-5.19-4.19-10.24-7.11-14.17-5.56-7.48-8.6-16.56-8.82-25.88-.06-2.63,0-4.84,.21-6.01,.73-4.02,5.12-12.8,7.68-21.2,2.56-8.41,.73-24.13,.73-24.13,0,0-.37-4.75-4.02-12.06-3.66-7.31-6.22-8.41-6.22-8.41,0,0-5.12-10.24-7.68-16.82-2.56-6.58-6.58-32.17-17.18-45.7-10.6-13.53-39.48-32.54-39.48-32.54,0,0-24.49-17.89-95.22-8.56-70.73,9.33-96.38,45.86-99.49,55.96-3.11,10.1,18.65,51.3,20.21,57.52,1.55,6.22-2.33,20.99-14.77,34.2-12.44,13.21-15.54,31.87-12.44,45.86s2.33,19.43,2.33,19.43l-9.37,5.62c-3.05,1.83-7,1.47-9.56-1.01-4.04-3.93-12.43-8.58-28.84-6.48-26.85,3.42-35.04,8.31-35.04,30.07l3.17,12.35c5.01,14.8,8.47,25.21,8.47,25.21,9.87,38.75,30.71,81.89,30.71,81.89,14.26,26.32,12.43,67.27,12.43,67.27,0,0-3.68,9.54-9.53,14.29-5.85,4.75-15.84,14.31-18.4,13.8"/><path class="cls-6" d="M553.73,196.7s19.74-18.28,29.25-23.76c9.51-5.48,29.61-13.53,37.66,2.56"/><path class="cls-6" d="M686.07,174.77s7.31-7.68,19.38-4.75c12.06,2.92,17.91,11.7,17.91,11.7"/><path class="cls-18" d="M713.86,137.11s-10.97,2.56-20.47,6.95c-9.51,4.39-6.22,8.04-6.22,16.09,0,0-.37,2.92,11.33,.73,11.7-2.19,22.67-4.39,25.59-3.29,0,0-3.29-16.09-10.24-20.47Z"/><path class="cls-6" d="M682.42,162.33s-4.02,4.39-2.56,8.77c1.46,4.39,8.41,13.16,8.41,13.16,0,0,22.3,36.92,23.76,38.39s9.87,12.43,9.51,16.45c-.37,4.02-4.75,17.91-12.8,25.23"/><path class="cls-6" d="M651.34,233.63s-5.12,5.85-4.75,14.62,4.39,17.18,14.99,18.28"/><path class="cls-18" d="M693.75,249.35s-5.48-2.19-15.35,.37c-9.87,2.56-13.53,10.6-9.14,12.06,4.39,1.46,10.97-2.56,17.91-2.92,6.95-.37,11.33-5.85,6.58-9.51Z"/><path class="cls-18" d="M713.86,255.93s-8.04,1.46-10.24,4.02-1.46,5.48,.73,5.85,9.51-8.41,9.51-9.87Z"/><path class="cls-6" d="M640.74,265.43s-19.74,28.88-23.76,35.46-7.49,33.01-7.49,33.01"/><path class="cls-6" d="M711.3,270.18s16.09,28.52,17.18,32.9c1.1,4.39,1.09,29.65,1.09,29.65"/><g><path class="cls-2" d="M633.88,321.01s19.74-5.12,31.81-13.53,20.47-11.33,24.13-5.85c3.66,5.48,7.68-.37,10.6-.37s5.85,9.87,3.66,16.09c0,0-25.96-9.87-70.19,3.66Z"/><path class="cls-2" d="M642.29,319.19s35.1,5.12,43.51,6.22c8.41,1.1,17.18,1.83,18.28,.37,1.1-1.46,0-8.41,0-8.41"/></g><path class="cls-2" d="M394.23,232.37c16.28-2.08,24.66,2.48,28.74,6.39,2.63,2.52,6.65,2.91,9.78,1.03l9.25-5.55s.78-5.44-2.33-19.43,0-32.64,12.44-45.86c12.44-13.21,16.32-27.98,14.77-34.2-1.55-6.22-23.32-47.41-20.21-57.52,3.11-10.1,28.76-46.64,99.49-55.96,70.73-9.33,95.22,8.56,95.22,8.56-6.58-13.89-25.23-21.94-34.37-24.49-9.14-2.56-53.38-10.24-98.34,7.68s-118.45,54.84-146.6,109.68c-28.15,54.84-10.97,118.45-6.95,131.61,.97,3.16,2.38,7.45,3.96,12.13l.54-.32c0-21.76,7.77-30.31,34.62-33.74Z"/><path class="cls-6" d="M698.14,414.59s-36.89,5.26-45.08,3.91c-8.67-1.43-52.94-6.15-70-8.04-13.99-1.55-41.24-7.8-44.3-8.55-17.34-4.23-54.58-19.11-63.62-25.34-10.6-7.31-20.47-28.15-20.47-28.15,0,0-2.19,14.62-12.43,17.55s-24.49,8.04-47.53-27.42c-23.03-35.46-28.15-61.78-26.32-72.02,1.83-10.24,16.11-23.83,34.75-20.9s24.49,10.79,24.49,10.79"/><path class="cls-6" d="M378.57,273.56s5.41-17.08,23.33-11.66c17.91,5.41,26.24,32.07,26.24,32.07"/><path class="cls-6" d="M437.3,294.38s-4.58,5.83-2.5,11.25c2.08,5.41,12.08,15.83,5.41,21.66-6.66,5.83-5.83,1.67-14.58,3.33-8.75,1.67-14.58,6.66-21.24,2.92-6.66-3.75-16.24-17.91-13.75-33.32"/><path class="cls-6" d="M409.39,319.79s-3.75-17.08,.83-24.16c4.58-7.08,10.83-9.58,7.91-20.41"/><path class="cls-18" d="M409.69,394.12s-7.38-30.18-8.63-45.59l-21.34-33.62s10.58,32.69,12.14,37.05c1.56,4.36,17.83,42.16,17.83,42.16"/><circle class="cls-18" cx="624.73" cy="237.32" r="2.5"/><path class="cls-6" d="M737.62,331.24c-.73-8.41-1.46-26.32-2.56-34-1.1-7.68-1.1-36.92-3.66-48.26-1.17-5.19-4.19-10.24-7.11-14.17-5.56-7.48-8.6-16.56-8.82-25.88-.06-2.63,0-4.84,.21-6.01,.73-4.02,5.12-12.8,7.68-21.2,2.56-8.41,.73-24.13,.73-24.13,0,0-.37-4.75-4.02-12.06-3.66-7.31-6.22-8.41-6.22-8.41,0,0-5.12-10.24-7.68-16.82-2.56-6.58-6.58-32.17-17.18-45.7-10.6-13.53-39.48-32.54-39.48-32.54,0,0-24.49-17.89-95.22-8.56-70.73,9.33-96.38,45.86-99.49,55.96-3.11,10.1,18.65,51.3,20.21,57.52,1.55,6.22-2.33,20.99-14.77,34.2-12.44,13.21-15.54,31.87-12.44,45.86s2.33,19.43,2.33,19.43l-9.37,5.62c-3.05,1.83-7,1.47-9.56-1.01-4.04-3.93-12.43-8.58-28.84-6.48-26.85,3.42-35.04,8.31-35.04,30.07l3.17,12.35c5.01,14.8,8.47,25.21,8.47,25.21,9.87,38.75,30.71,81.89,30.71,81.89,14.26,26.32,12.43,67.27,12.43,67.27,0,0-4.02,6.58-9.87,11.33-5.85,4.75-14.26,9.51-16.82,26.32-2.56,16.82,46.43,115.89,165.61,114.43,119.18-1.46,126.13-63.25,121.38-83.35-4.75-20.11-22.67-32.9-22.67-32.9,0,0,1.46-16.82,8.41-43.14,6.95-26.32,29.98-39.48,29.98-39.48,13.89-4.02,27.05-15.72,27.78-22.3,.73-6.58,4.75-20.47,8.41-26.69,3.66-6.21,4.02-25.96,3.29-34.37Z"/><path class="cls-18" d="M663.28,473.31s-7.94,7.41,30.93,8.66c38.87,1.25,81.51,2.51,56.43,6.27s-82.43-2.76-89.95,11.03l2.6-25.96Z"/><path class="cls-18" d="M380.71,162.59s5.02-11.29-33.86-12.54c-38.87-1.25-81.51-2.51-56.43-6.27,25.08-3.76,82.76-5.02,90.28-18.81v37.62Z"/><path class="cls-18" d="M89.58,676.63s13.22-7.67-25.65-8.92c-38.87-1.25-81.51-2.51-56.43-6.27,25.08-3.76,86.22-4.83,93.75-18.62l-11.67,33.81Z"/><path class="cls-18" d="M360.23,176.12s2.21-4.97-14.9-5.52c-17.11-.55-35.87-1.1-24.83-2.76,11.04-1.66,36.42-2.21,39.73-8.28v16.56Z"/><path class="cls-18" d="M100.74,645.38s.27-7.13-16.84-7.68c-17.11-.55-35.87-1.1-24.83-2.76,11.04-1.66,48.07-3.93,51.38-10l-9.71,20.44Z"/><path class="cls-18" d="M720.3,142.08s-2.21,4.97,14.9,5.52c17.11,.55,35.87,1.1,24.83,2.76-11.04,1.66-32.42,1.2-35.73,7.27l-4-15.54Z"/><path class="cls-18" d="M712.95,136.8s-1.27,2.85,8.54,3.16,68.43,2.96,62.11,3.91c-6.33,.95-66.46-1.64-68.35,1.84l-2.29-8.91Z"/><path class="cls-18" d="M630.05,148.72s-2.92-6.27,4.57,.07c6.74,5.7,33.27,6.31,26.95,7.25-6.33,.95-27.32-1.89-29.22,1.59l-2.29-8.91Z"/><path class="cls-18" d="M600.16,178.79s-2.19,4.75,.73,6.22c2.92,1.46,4.75-1.1,4.39-3.29-.37-2.19-2.56-4.39-5.12-2.92Z"/><path class="cls-18" d="M704.96,185.15s-2.19,4.75,.73,6.22c2.92,1.46,4.75-1.1,4.39-3.29s-2.56-4.39-5.12-2.92Z"/><line class="cls-6" x1="644.72" y1="166.02" x2="679.44" y2="228.97"/><rect class="cls-18" x="598.17" y="177.3" width="9.94" height="9.94"/><rect class="cls-18" x="702.75" y="182.89" width="9.94" height="9.94"/><path class="cls-18" d="M402.37,244.59c16.28-2.08,24.66,2.48,28.74,6.39,2.63,2.52,6.65,2.91,9.78,1.03l9.25-5.55s.78-5.44-2.33-19.43,0-32.64,12.44-45.86c12.44-13.21,16.32-27.98,14.77-34.2-1.55-6.22-23.32-47.41-20.21-57.52,3.11-10.1,28.76-46.64,99.49-55.96,70.73-9.33,95.22,8.56,95.22,8.56-6.58-13.89-25.23-21.94-34.37-24.49-9.14-2.56-53.38-10.24-98.34,7.68s-118.45,54.84-146.6,109.68c-28.15,54.84-10.97,118.45-6.95,131.61,.97,3.16,2.38,7.45,3.96,12.13l.54-.32c0-21.76,7.77-30.31,34.62-33.74Z"/><g><rect class="cls-17" x="449.37" y="461.72" width="194.7" height="16.32"/><g><line class="cls-5" x1="475.02" y1="461.72" x2="475.02" y2="479.21"/><line class="cls-4" x1="483.18" y1="461.72" x2="483.18" y2="479.21"/></g><g><line class="cls-5" x1="512.33" y1="461.72" x2="512.33" y2="479.21"/><line class="cls-4" x1="520.49" y1="461.72" x2="520.49" y2="479.21"/></g><g><line class="cls-5" x1="557.8" y1="461.72" x2="557.8" y2="479.21"/><line class="cls-4" x1="565.96" y1="461.72" x2="565.96" y2="479.21"/></g><g><line class="cls-5" x1="606.77" y1="461.72" x2="606.77" y2="479.21"/><line class="cls-4" x1="614.93" y1="461.72" x2="614.93" y2="479.21"/></g></g><g><rect class="cls-17" x="420.55" y="506.54" width="194.7" height="16.32"/><g><line class="cls-5" x1="446.2" y1="506.54" x2="446.2" y2="524.02"/><line class="cls-4" x1="454.36" y1="506.54" x2="454.36" y2="524.02"/></g><g><line class="cls-5" x1="483.51" y1="506.54" x2="483.51" y2="524.02"/><line class="cls-4" x1="491.67" y1="506.54" x2="491.67" y2="524.02"/></g><g><line class="cls-5" x1="528.98" y1="506.54" x2="528.98" y2="524.02"/><line class="cls-4" x1="537.14" y1="506.54" x2="537.14" y2="524.02"/></g><g><line class="cls-5" x1="577.95" y1="506.54" x2="577.95" y2="524.02"/><line class="cls-4" x1="586.11" y1="506.54" x2="586.11" y2="524.02"/></g></g><path class="cls-9" d="M625.02,187.2s-2.71-2.55-6.12-5.75c.02,3.81-.39,7.12-1.14,9.96,5.8-1.95,7.26-4.21,7.26-4.21Z"/><path class="cls-9" d="M581.56,181.74c-6.52,4.34-11.74,8.75-11.74,8.75,0,0,5.91,1.48,13.99,2.53-1.73-4.1-2.26-8.01-2.24-11.28Z"/><path class="cls-11" d="M618.9,181.44c-1.76-1.65-3.71-3.47-5.58-5.22-5.48-5.12-11.33-5.12-21.57-.37-3.4,1.58-6.95,3.72-10.19,5.88-.01,3.26,.51,7.18,2.24,11.28,6.41,.84,14.19,1.41,21.48,.76,5.52-.49,9.55-1.39,12.48-2.38,.75-2.84,1.16-6.14,1.14-9.96Z"/><path class="cls-7" d="M591.75,175.86s-3.29,9.87,4.75,18.28l13.16-1.1s6.58-9.51,.73-18.28c0,0-3.66-3.66-9.87-2.19s-8.77,3.29-8.77,3.29Z"/><rect class="cls-18" x="594.98" y="176.12" width="14.91" height="13.41"/><path class="cls-11" d="M688.27,184.27s4.75-5.12,12.43-5.85c7.68-.73,15.72,.37,17.91,14.62l-2.92,9.87s-8.04,1.1-18.28-4.75l-9.14-13.89Z"/><path class="cls-7" d="M697.41,179.15s-5.48,9.87,0,19.01c0,0,10.24,5.85,16.09,5.12,0,0,5.12-20.11-4.02-24.13,0,0-6.95-1.46-12.06,0Z"/><rect class="cls-18" x="699.77" y="182.34" width="14.91" height="13.41"/><path class="cls-6" d="M641.47,318.08s19.74-5.12,31.81-13.53c12.06-8.41,20.47-11.33,24.13-5.85,3.66,5.48,7.68-.37,10.6-.37s5.85,9.87,3.66,16.09c0,0-25.96-9.87-70.19,3.66Z"/><path class="cls-6" d="M649.88,316.25s35.1,5.12,43.51,6.22c8.41,1.1,17.18,1.83,18.28,.37s0-8.41,0-8.41"/><path class="cls-19" d="M356.81,199.83h-18.98v34.98h20.94c-1.42-10.24-2.35-22.18-1.96-34.98Z"/><path class="cls-13" d="M701.34,536.71v-5.06h-65.29v5.58c19.11-.38,41.4-.63,65.29-.52Z"/><path class="cls-13" d="M372.81,199.83h-16c-.39,12.8,.54,24.74,1.96,34.98h14.04v-34.98Z"/><path class="cls-18" d="M636.72,140.03c-2.29-1.02-21.68-3.8-37.73-5.4v19.78c6.8,.65,21.85,2.41,30.63,3.46,3.88,.46,7.4-2.29,7.92-6.16,.67-4.94,1.04-10.85-.83-11.68Z"/><path class="cls-18" d="M581.51,124.13c-13.16,0-54.11,43.87-54.47,46.06-.37,2.19,5.85,1.1,5.85,1.1,3.66-1.1,16.45-9.87,28.52-15.35s27.79-11.7,36.19-10.97c.41,.04,.88,.08,1.39,.13v-19.78c-7.05-.7-13.46-1.18-17.47-1.18Z"/><path class="cls-14" d="M457.92,372.38v18.65h42.49c-12.43-5.67-21.9-12.62-28.61-18.65h-13.88Z"/><path class="cls-15" d="M532.53,372.38h-60.73c6.71,6.04,16.18,12.98,28.61,18.65h32.12v-18.65Z"/><rect class="cls-18" x="532.22" y="361.89" width="10.78" height="18.65"/><g><path class="cls-19" d="M886.96,600.89c-35.75-48.19-186.54-87.05-186.54-87.05,0,0,17.1,9.33,7,51.3-10.1,41.97-60.63,80.06-104.15,83.17-43.53,3.11-124.36,3.89-188.87-51.3-42.19-36.09-51.14-72.51-50.54-94.05h-16.7v-9.46c-39.54,17.77-121.07,54.23-152.34,66.98-41.97,17.1-77.73,37.31-99.49,96.38l-34.83,158.92c-2.88,13.15,5.67,26.09,18.91,28.56,62.15,11.63,240.83,40.26,493.55,40.26,205.18,0,303.64-20.17,347.58-34.41,18.68-6.05,29.97-24.99,26.46-44.3-10.03-55.14-33.29-168.95-60.02-204.98Z"/><g class="cls-21"><g><g><path class="cls-3" d="M11.38,185.84c205.2-3.5,153.64,743.98,33.68,926.96"/><path class="cls-3" d="M133.02,186.61c139,16.32,111.5,763.54,4.87,926.18"/><path class="cls-3" d="M254.66,187.39c72.8,36.14,69.36,783.09-23.94,925.4"/><path class="cls-3" d="M376.3,188.17c6.61,55.96,27.22,802.64-52.75,924.63"/><path class="cls-3" d="M497.95,188.94c-59.59,75.78-14.92,822.2-81.56,923.85"/><path class="cls-3" d="M619.59,189.72c-125.79,95.6-57.06,841.75-110.37,923.07"/><path class="cls-3" d="M741.23,190.5c-191.98,115.42-99.2,861.3-139.18,922.29"/><path class="cls-3" d="M862.87,191.28c-258.18,135.24-141.34,880.86-167.99,921.52"/><path class="cls-3" d="M984.51,192.05c-324.38,155.06-183.48,900.41-196.8,920.74"/><path class="cls-3" d="M1106.15,192.83c-390.57,174.88-225.62,919.96-225.62,919.96"/></g><g><polyline class="cls-3" points="979.91 179.11 843.79 179.11 749.92 179.11 656.04 179.11 562.17 179.11 470.64 179.11 379.12 179.11 285.24 179.11 191.37 179.11 59.95 179.11"/><polyline class="cls-3" points="979.91 271.94 844.05 271.94 749.92 271.94 656.04 271.94 562.17 271.94 470.64 271.94 378.86 271.94 285.24 271.94 191.37 271.94 99.82 271.94 59.95 271.94"/><polyline class="cls-3" points="979.91 364.77 844.31 364.77 749.92 364.77 656.04 364.77 562.17 364.77 470.64 364.77 378.6 364.77 285.24 364.77 191.37 364.77 99.83 364.77 59.95 364.77"/><polyline class="cls-3" points="979.91 457.6 844.57 457.6 749.92 457.6 656.04 457.6 562.17 457.6 470.64 457.6 378.33 457.6 285.24 457.6 191.37 457.6 99.83 457.6 59.95 457.6"/><polyline class="cls-3" points="979.91 550.43 844.83 550.43 749.92 550.43 656.04 550.43 562.17 550.43 470.64 550.43 378.07 550.43 285.24 550.43 191.37 550.43 99.83 550.43 59.95 550.43"/><polyline class="cls-3" points="979.91 643.26 845.1 643.26 749.92 643.26 656.04 643.26 562.17 643.26 470.64 643.26 377.81 643.26 285.24 643.26 191.37 643.26 99.83 643.26 59.95 643.26"/><polyline class="cls-3" points="979.91 736.09 845.36 736.09 749.92 736.09 656.04 736.09 562.17 736.09 470.64 736.09 377.55 736.09 285.24 736.09 191.37 736.09 99.84 736.09 59.95 736.09"/><polyline class="cls-3" points="979.91 828.93 845.62 828.93 749.92 828.93 656.04 828.93 562.17 828.93 470.64 828.93 377.29 828.93 285.24 828.93 191.37 828.93 99.84 828.93 59.95 828.93"/></g></g></g><path class="cls-1" d="M886.96,600.89c-35.75-48.19-186.54-87.05-186.54-87.05,0,0,17.1,9.33,7,51.3-10.1,41.97-60.63,80.06-104.15,83.17-43.53,3.11-124.36,3.89-188.87-51.3-42.19-36.09-51.14-72.51-50.54-94.05h-16.7v-9.46c-39.54,17.77-121.07,54.23-152.34,66.98-41.97,17.1-77.73,37.31-99.49,96.38l-34.83,158.92c-2.88,13.15,5.67,26.09,18.91,28.56,62.15,11.63,240.83,40.26,493.55,40.26,205.18,0,303.64-20.17,347.58-34.41,18.68-6.05,29.97-24.99,26.46-44.3-10.03-55.14-33.29-168.95-60.02-204.98Z"/></g><path class="cls-10" d="M363.85,502.96c-.6,21.54,8.35,57.96,50.54,94.05,64.51,55.19,145.35,54.41,188.87,51.3,43.53-3.11,94.05-41.19,104.15-83.17,10.1-41.97-7-51.3-7-51.3l-40.67-16.62s17.91,12.8,22.67,32.9c4.75,20.11-2.19,81.89-121.38,83.35-119.18,1.46-168.17-97.61-165.61-114.43,2.56-16.82,10.97-21.57,16.82-26.32,5.85-4.75,9.87-11.33,9.87-11.33,0,0-20.82,8.85-36.49,15.42v26.15h-21.78Z"/><path class="cls-13" d="M385.63,476.81v-12.32h-38.47v29.02c13.53-6.08,22.15-9.97,22.15-9.97,2.06-.77,8.56-3.47,16.32-6.72Z"/><path class="cls-16" d="M363.85,502.96c.32-11.39,3.3-18.62,5.46-19.43,0,0-8.62,3.89-22.15,9.97v9.46h16.7Z"/><path class="cls-17" d="M363.85,502.96h21.78v-26.15c-7.76,3.25-14.26,5.95-16.32,6.72-2.15,.81-5.14,8.04-5.46,19.43Z"/><path class="cls-10" d="M659.75,497.22s6.5,4.65,12.71,12.74h18.45l-31.16-12.74Z"/><path class="cls-16" d="M757.81,531.29h66.2v-21.34h-133.09l9.51,3.89s25.18,6.49,57.39,17.45Z"/><path class="cls-18" d="M672.46,509.95h-39.66v21.34h49.87c-.08-.4-.16-.8-.25-1.17-1.89-7.99-5.86-14.83-9.96-20.17Z"/><path class="cls-13" d="M709.79,531.29h48.02c-32.21-10.96-57.39-17.45-57.39-17.45,0,0,6.95,3.81,9.37,17.45Z"/><path class="cls-19" d="M700.42,513.84l-9.51-3.89h-18.45c4.1,5.34,8.07,12.17,9.96,20.17,.09,.37,.17,.77,.25,1.17h27.12c-2.42-13.64-9.37-17.45-9.37-17.45Z"/><rect class="cls-13" x="105.82" y="679.01" width="219.19" height="22.15"/><rect class="cls-16" x="255.05" y="698.83" width="219.19" height="22.15"/><rect class="cls-18" x="311.01" y="640.53" width="24.01" height="26.76"/><rect class="cls-13" x="813.17" y="551.37" width="24.01" height="26.76"/></g></g></svg>