<?xml version="1.0" encoding="utf-8"?>
<!-- Generator: Adobe Illustrator 27.2.0, SVG Export Plug-In . SVG Version: 6.00 Build 0)  -->
<svg version="1.1" id="Layer_2_00000026143954432351872310000007228439009425148850_"
	 xmlns="http://www.w3.org/2000/svg" xmlns:xlink="http://www.w3.org/1999/xlink" x="0px" y="0px" viewBox="0 0 927.7 866.5"
	 style="enable-background:new 0 0 927.7 866.5;" xml:space="preserve">
<style type="text/css">
	.st0{fill:none;stroke:#92FF00;stroke-width:3;stroke-linecap:round;stroke-linejoin:round;stroke-miterlimit:10;}
	.st1{fill:#254100;stroke:#091222;stroke-linecap:round;stroke-linejoin:round;stroke-miterlimit:10;}
	.st2{fill:#091222;}
	.st3{fill:#091222;stroke:#091222;stroke-width:0.331;stroke-miterlimit:10;}
	.st4{fill:#92FF00;}
	.st5{clip-path:url(#SVGID_00000066507109761533464750000017847273044356676494_);}
	.st6{fill:none;stroke:#091222;stroke-miterlimit:10;}
	.st7{fill:none;stroke:#091222;stroke-width:3;stroke-miterlimit:10;}
	.st8{clip-path:url(#SVGID_00000038374150716531886580000016370339810865282461_);}
	.st9{fill:none;stroke:#091222;stroke-width:3;stroke-linecap:round;stroke-linejoin:round;stroke-miterlimit:10;}
	.st10{fill:#E3DED7;}
	.st11{clip-path:url(#SVGID_00000163066772315832724840000016501483036891441570_);fill:#BCBFC3;}
	.st12{clip-path:url(#SVGID_00000163066772315832724840000016501483036891441570_);}
	.st13{fill:none;stroke:#091222;stroke-width:0.4408;stroke-miterlimit:10;}
	.st14{fill:#091222;stroke:#091222;stroke-linecap:round;stroke-linejoin:round;stroke-miterlimit:10;}
	.st15{clip-path:url(#SVGID_00000149363820039910432080000014715321029136762037_);}
	.st16{fill:#92FF00;stroke:#091222;stroke-width:3;stroke-linecap:round;stroke-linejoin:round;stroke-miterlimit:10;}
	.st17{fill:#254100;stroke:#091222;stroke-width:3;stroke-linecap:round;stroke-linejoin:round;stroke-miterlimit:10;}
	.st18{fill:#4A8000;stroke:#091222;stroke-width:3;stroke-linecap:round;stroke-linejoin:round;stroke-miterlimit:10;}
	.st19{fill:#6DBF00;stroke:#091222;stroke-width:3;stroke-linecap:round;stroke-linejoin:round;stroke-miterlimit:10;}
	.st20{fill:#3A424E;stroke:#091222;stroke-width:3;stroke-miterlimit:10;}
	.st21{fill:none;stroke:#091222;stroke-width:2;stroke-linecap:round;stroke-linejoin:round;stroke-miterlimit:10;}
	.st22{fill:#FFFFFF;stroke:#091222;stroke-width:3;stroke-linecap:round;stroke-linejoin:round;stroke-miterlimit:10;}
	.st23{fill:#5739A4;stroke:#091222;stroke-width:3;stroke-linecap:round;stroke-linejoin:round;stroke-miterlimit:10;}
	.st24{fill:#5739A4;}
	.st25{fill:#FF008A;}
	.st26{fill:#2B1D52;}
	.st27{fill:none;stroke:#5739A4;stroke-miterlimit:10;}
	.st28{fill:none;stroke:#FF008A;stroke-miterlimit:10;}
</style>
<g>
	<path class="st0" d="M866.8,718.8c-12.9-62.7-47-124.4-139.1-156.6c-71.1-24.9-108.9-41.4-120.9-47.6c-3.7-11.3-6.6-19.2-6.6-19.2
		c-0.7,0.8-1.9,1.9-3.2,3c6.7-6,11.4-12.3,14.2-17.8c6.4-12.4,26.1-51.4,31.2-90.8c1.8-13.8,2.4-26.3,2.5-37.5
		c20.2-3.1,23.6-17.2,30.6-32c8.1-17,7-24.8,11.1-26.1s5.7-1,5.7-1l0.3-11c0,0-7.8-1.2-13.1-7.5s-11.5-9.3-22.1-11.4
		c-2-0.4-4.1-0.9-6.4-1.3c0.1-0.2,0.1-0.5,0.2-0.7l0,0c0,0,5.1-7.3,3.7-10.6c-0.5-1.1-1.5-2.7-2.8-4.3v-0.5
		c6.9-19.1-10-71.2-10-71.2h15.3c0,0-16.8-9.2-16.8-11.5s20.7-16.8,20.7-16.8c-3.1-0.8-17.6,0.8-17.6,0.8l24.5-16.1l6.9-10
		l-16.1-6.9l-1.5-10.7l10-10l-1.5-8.4l-8.4-3.1l3.1-6.1l-16.8-3.8l0.8-6.1l-15.3-5.4l5.4-9.2c0,0-6.1-0.8-10,0
		c-3.8,0.8-15.3,1.5-15.3,1.5l19-13.9c0,0-26.8,0.8-29.1-0.8c-2.3-1.5-19.9-3.8-19.9-3.8l9.2-16.8l-39.8,6.1l1.5-11.5
		c-22.2,0-52.8,10-52.8,10l1.5-14.6c-8.4,0-31.4,15.3-31.4,15.3l0.8-10.7c0,0,0,0-3.8,1.5s-16.8,18.4-16.8,18.4l-5.4-20.7
		c-0.8,8.4-29.1,41.4-39.1,54.4s-29.9,31.4-29.9,31.4V84.9c-1.9,1.8-4.4,5-7,8.9c-9.7,14.6-22.1,39.4-22.1,39.4v-7.7
		c0,0,1.5-3.8-5.4,4.6c-6.9,8.4-6.1,18.4-11.5,38.3s-0.8,23-4.6,33.7c-3.8,10.7-12.3,13-12.3,13s12.3,3.8,12.3,8.4
		s3.6,57.1,3.6,57.1s-11.7,1.6-12.1,20.3c-0.4,18.7,8.2,61.1,19.1,74s14,14,23,15.2c0,0,0.2,0.5,0.6,1.5c0.4,0.9,0.9,2.3,1.6,4
		c0.1,0.6,4.6,34.3,4.1,67.4l-0.1,0.1l-0.3-7.3c0,0-18.7,10.9-23.4,24.4c-2.2,6.3-3,19.2-3.3,31.9c-3.2,2.9-25.1,20.8-109.2,50.3
		C134.4,594.7,66,657.9,53.1,720.5S41,830.1,41,830.1s208.8,29.1,398.3,32.6c15.2,0.3,30.5,0.4,45.8,0.2l0.9-0.9
		c28.3,0.3,56-0.3,82.7-1.3c0.1,0,0.2,0,0.3,0c0.1,0.4,0.1,0.5,0.1,0.5l27.4-1.9c155.5-8.6,282.3-31,282.3-31
		S879.7,781.4,866.8,718.8z"/>
	<path class="st1" d="M371.1,456.7l-14.5,12.2l-5.8,42.3c0,0,19.1,9.8,21.4,9.8s18.5-28.4,18.5-28.4l-4.1-35.9H371.1z"/>
	<path class="st2" d="M584.9,485.1c0,0,10.5,14.5,45.4,15.7c34.9,1.1,65.3,0.7,42.8,4.1s-43.8,2.7-49.6,8.9L584.9,485.1z"/>
	<path class="st2" d="M368.1,430.4c0,0,4.2-7.7-27.1-8.3c-34.9-0.7-75-0.2-52.5-3.6s76.1-6.6,82.9-18.9L368.1,430.4z"/>
	<path class="st2" d="M622.1,131.6c0,0-4.3,6.4,30.6,7.6c34.9,1.1,69.6,1.6,47,3.3c-24.1,1.8-64,1.5-70.6,12.6L622.1,131.6z"/>
	<path class="st2" d="M341.3,157.4c0,0,11.9-6.9-23-8s-73.1-2.2-50.6-5.6c22.5-3.4,77.4-4.3,84.1-16.7L341.3,157.4z"/>
	<path class="st2" d="M347.3,219.4c0,0,0.2-6.4-15.1-6.9c-15.3-0.5-111.9-1-102-2.5s122.9-3.5,125.8-9L347.3,219.4z"/>
	<rect x="665.5" y="170.1" class="st2" width="20.4" height="20.4"/>
	<path class="st2" d="M293.6,614c3.5-6.1,50.4-108.3,50.4-108.3l95.8-16.2L610.7,506l53.9,63L643,666.7l-190.2,31.1L293.6,614z"/>
	<path class="st3" d="M599.8,614.6l-4.6-12.3c-18.3,24.4-52,42.9-112.1,39.7c-68.8-3.6-104.1-30.1-121.9-58.8l2.3,23.2
		c0,0,39.6,32.8,60.1,69.7s28,138.1,23.5,172.2c-0.6,4.3-0.7,9.1-1.2,12.7c15.2,0.3,99.2,0.6,130.1-1.8
		C563,799.3,599.8,614.6,599.8,614.6z"/>
	<g>
		<g>
			<path id="SVGID_1_" class="st4" d="M423.6,676.1c-20.5-36.9-60.1-69.7-60.1-69.7l-2.3-23.2c-23-37-17.2-77.6-17.2-77.6
				s-17.5,18.4-109.7,50.7c-92.1,32.3-160.5,95.5-173.4,158.1c-12.9,62.7-12,109.7-12,109.7s207.2,32.5,396.7,36.1
				c0.5-3.6,1-7.6,1.5-11.9C451.5,814.1,444.1,713,423.6,676.1z"/>
		</g>
		<g>
			<g>
				<defs>
					<path id="SVGID_00000155127254914305680030000009866544796923782786_" d="M423.6,676.1c-20.5-36.9-60.1-69.7-60.1-69.7
						l-2.3-23.2c-23-37-17.2-77.6-17.2-77.6s-17.5,18.4-109.7,50.7c-92.1,32.3-160.5,95.5-173.4,158.1c-12.9,62.7-12,109.7-12,109.7
						s207.2,32.5,396.7,36.1c0.5-3.6,1-7.6,1.5-11.9C451.5,814.1,444.1,713,423.6,676.1z"/>
				</defs>
				<clipPath id="SVGID_00000182496743979361583770000004468588428805142173_">
					<use xlink:href="#SVGID_00000155127254914305680030000009866544796923782786_"  style="overflow:visible;"/>
				</clipPath>
				<g style="clip-path:url(#SVGID_00000182496743979361583770000004468588428805142173_);">
					<g>
						<path class="st6" d="M67.8,178.3c101.1,160.9,0,887.5,0,887.5"/>
						<path class="st6" d="M157.3,178.3c71.8,169.2,0,887.5,0,887.5"/>
						<path class="st6" d="M246.9,178.3c42.5,177.4,0,887.5,0,887.5"/>
						<path class="st6" d="M336.4,178.3c13.3,185.6,0,887.5,0,887.5"/>
						<path class="st6" d="M426,178.3c-16,193.8,0,887.5,0,887.5"/>
						<path class="st6" d="M515.6,178.3c-45.3,202.1,0,887.5,0,887.5"/>
						<path class="st6" d="M605.1,178.3c-74.6,210.3,0,887.5,0,887.5"/>
						<path class="st6" d="M694.7,178.3c-103.8,218.5,0,887.5,0,887.5"/>
						<path class="st6" d="M784.2,178.3c-133.1,226.7,0,887.5,0,887.5"/>
						<path class="st6" d="M873.8,178.3c-162.4,234.9,0,887.5,0,887.5"/>
					</g>
					<g>
						<polyline class="st6" points="914.5,261.2 783.2,261.2 692.7,261.2 602.1,261.2 511.5,261.2 423.2,261.2 334.9,261.2 
							244.4,261.2 153.8,261.2 27,261.2 						"/>
						<polyline class="st6" points="914.5,334.5 783.5,334.5 692.7,334.5 602.1,334.5 511.5,334.5 423.2,334.5 334.7,334.5 
							244.4,334.5 153.8,334.5 65.5,334.5 27,334.5 						"/>
						<polyline class="st6" points="914.5,407.8 783.7,407.8 692.7,407.8 602.1,407.8 511.5,407.8 423.2,407.8 334.4,407.8 
							244.4,407.8 153.8,407.8 65.5,407.8 27,407.8 						"/>
						<polyline class="st6" points="914.5,481.1 784,481.1 692.7,481.1 602.1,481.1 511.5,481.1 423.2,481.1 334.2,481.1 
							244.4,481.1 153.8,481.1 65.5,481.1 27,481.1 						"/>
						<polyline class="st6" points="914.5,554.4 784.2,554.4 692.7,554.4 602.1,554.4 511.5,554.4 423.2,554.4 333.9,554.4 
							244.4,554.4 153.8,554.4 65.5,554.4 27,554.4 						"/>
						<polyline class="st6" points="914.5,627.8 784.5,627.8 692.7,627.8 602.1,627.8 511.5,627.8 423.2,627.8 333.7,627.8 
							244.4,627.8 153.8,627.8 65.5,627.8 27,627.8 						"/>
						<polyline class="st6" points="914.5,701.1 784.7,701.1 692.7,701.1 602.1,701.1 511.5,701.1 423.2,701.1 333.4,701.1 
							244.4,701.1 153.8,701.1 65.5,701.1 27,701.1 						"/>
						<polyline class="st6" points="914.5,774.4 785,774.4 692.7,774.4 602.1,774.4 511.5,774.4 423.2,774.4 333.2,774.4 
							244.4,774.4 153.8,774.4 65.5,774.4 27,774.4 						"/>
						<polyline class="st6" points="914.5,847.7 785.2,847.7 692.7,847.7 602.1,847.7 511.5,847.7 423.2,847.7 332.9,847.7 
							244.4,847.7 153.8,847.7 65.5,847.7 27,847.7 						"/>
						<polyline class="st6" points="914.5,921.1 785.5,921.1 692.7,921.1 602.1,921.1 511.5,921.1 423.2,921.1 332.7,921.1 
							244.4,921.1 153.8,921.1 65.5,921.1 27,921.1 						"/>
					</g>
				</g>
			</g>
		</g>
		<g>
			<path id="SVGID_00000113332829971283715440000014771630927374528146_" class="st7" d="M423.6,676.1
				c-20.5-36.9-60.1-69.7-60.1-69.7l-2.3-23.2c-23-37-17.2-77.6-17.2-77.6s-17.5,18.4-109.7,50.7c-92.1,32.3-160.5,95.5-173.4,158.1
				c-12.9,62.7-12,109.7-12,109.7s207.2,32.5,396.7,36.1c0.5-3.6,1-7.6,1.5-11.9C451.5,814.1,444.1,713,423.6,676.1z"/>
		</g>
	</g>
	<g>
		<g>
			<path id="SVGID_00000178194196674613029150000007828617831307047855_" class="st4" d="M874.8,712.7
				c-12.9-62.7-47-124.4-139.1-156.6c-84.4-29.6-121.9-47.2-125-50c4.2,5.4,13.3,58-15.5,96.3l4.6,12.3c0,0-37.8,183.7-24.8,243.6
				c167.8-6.7,311.8-35.8,311.8-35.8S887.7,775.4,874.8,712.7z"/>
		</g>
		<g>
			<g>
				<defs>
					<path id="SVGID_00000163060135999806419370000012903552914277300620_" d="M874.8,712.7c-12.9-62.7-47-124.4-139.1-156.6
						c-84.4-29.6-121.9-47.2-125-50c4.2,5.4,13.3,58-15.5,96.3l4.6,12.3c0,0-37.8,183.7-24.8,243.6c167.8-6.7,311.8-35.8,311.8-35.8
						S887.7,775.4,874.8,712.7z"/>
				</defs>
				<clipPath id="SVGID_00000034082570906252244450000006763627977740920984_">
					<use xlink:href="#SVGID_00000163060135999806419370000012903552914277300620_"  style="overflow:visible;"/>
				</clipPath>
				<g style="clip-path:url(#SVGID_00000034082570906252244450000006763627977740920984_);">
					<g>
						<path class="st6" d="M67.8,178.3c101.1,160.9,0,887.5,0,887.5"/>
						<path class="st6" d="M157.3,178.3c71.8,169.2,0,887.5,0,887.5"/>
						<path class="st6" d="M246.9,178.3c42.5,177.4,0,887.5,0,887.5"/>
						<path class="st6" d="M336.4,178.3c13.3,185.6,0,887.5,0,887.5"/>
						<path class="st6" d="M426,178.3c-16,193.8,0,887.5,0,887.5"/>
						<path class="st6" d="M515.6,178.3c-45.3,202.1,0,887.5,0,887.5"/>
						<path class="st6" d="M605.1,178.3c-74.6,210.3,0,887.5,0,887.5"/>
						<path class="st6" d="M694.7,178.3c-103.8,218.5,0,887.5,0,887.5"/>
						<path class="st6" d="M784.2,178.3c-133.1,226.7,0,887.5,0,887.5"/>
						<path class="st6" d="M873.8,178.3c-162.4,234.9,0,887.5,0,887.5"/>
					</g>
					<g>
						<polyline class="st6" points="914.5,261.2 783.2,261.2 692.7,261.2 602.1,261.2 511.5,261.2 423.2,261.2 334.9,261.2 
							244.4,261.2 153.8,261.2 27,261.2 						"/>
						<polyline class="st6" points="914.5,334.5 783.5,334.5 692.7,334.5 602.1,334.5 511.5,334.5 423.2,334.5 334.7,334.5 
							244.4,334.5 153.8,334.5 65.5,334.5 27,334.5 						"/>
						<polyline class="st6" points="914.5,407.8 783.7,407.8 692.7,407.8 602.1,407.8 511.5,407.8 423.2,407.8 334.4,407.8 
							244.4,407.8 153.8,407.8 65.5,407.8 27,407.8 						"/>
						<polyline class="st6" points="914.5,481.1 784,481.1 692.7,481.1 602.1,481.1 511.5,481.1 423.2,481.1 334.2,481.1 
							244.4,481.1 153.8,481.1 65.5,481.1 27,481.1 						"/>
						<polyline class="st6" points="914.5,554.4 784.2,554.4 692.7,554.4 602.1,554.4 511.5,554.4 423.2,554.4 333.9,554.4 
							244.4,554.4 153.8,554.4 65.5,554.4 27,554.4 						"/>
						<polyline class="st6" points="914.5,627.8 784.5,627.8 692.7,627.8 602.1,627.8 511.5,627.8 423.2,627.8 333.7,627.8 
							244.4,627.8 153.8,627.8 65.5,627.8 27,627.8 						"/>
						<polyline class="st6" points="914.5,701.1 784.7,701.1 692.7,701.1 602.1,701.1 511.5,701.1 423.2,701.1 333.4,701.1 
							244.4,701.1 153.8,701.1 65.5,701.1 27,701.1 						"/>
						<polyline class="st6" points="914.5,774.4 785,774.4 692.7,774.4 602.1,774.4 511.5,774.4 423.2,774.4 333.2,774.4 
							244.4,774.4 153.8,774.4 65.5,774.4 27,774.4 						"/>
						<polyline class="st6" points="914.5,847.7 785.2,847.7 692.7,847.7 602.1,847.7 511.5,847.7 423.2,847.7 332.9,847.7 
							244.4,847.7 153.8,847.7 65.5,847.7 27,847.7 						"/>
						<polyline class="st6" points="914.5,921.1 785.5,921.1 692.7,921.1 602.1,921.1 511.5,921.1 423.2,921.1 332.7,921.1 
							244.4,921.1 153.8,921.1 65.5,921.1 27,921.1 						"/>
					</g>
				</g>
			</g>
		</g>
		<g>
			<path id="SVGID_00000107582825350213501590000015442348720977359030_" class="st9" d="M874.8,712.7
				c-12.9-62.7-47-124.4-139.1-156.6c-84.4-29.6-121.9-47.2-125-50c4.2,5.4,13.3,58-15.5,96.3l4.6,12.3c0,0-37.8,183.7-24.8,243.6
				c167.8-6.7,311.8-35.8,311.8-35.8S887.7,775.4,874.8,712.7z"/>
		</g>
	</g>
	<g>
		<g>
			<path id="SVGID_00000100347910111099235810000006220619798071223957_" class="st10" d="M638,148.6
				c-13.4-25.9-40.6-52.1-117.9-49.8c-77.4,2.3-114.1,46-117.9,57.4c-3.8,11.5,13.8,26.8,6.1,41.4c-7.7,14.6-22.2,49-23.7,80.4
				s-0.8,44.4-4.6,45.2c-3.8,0.8-12.3-12.3-16.1-21.4c-3.8-9.2-16.3-27.9-29.3-27.2c0,0-11.7,1.6-12.1,20.3
				c-0.4,18.7,8.2,61.2,19.1,74c10.9,12.9,14,14,23,15.2c0,0,0.2,0.5,0.6,1.5c0.4,0.9,0.9,2.3,1.6,4c5.4,13.4,20.6,48.1,40.7,66.5
				c28.4,26.1,103.1,59,137.5,58c19.1-0.5,34.4-5.3,46.1-11.9c14.6-8.2,23.7-19,28.3-27.8c6.4-12.4,26.1-51.4,31.2-90.8
				c5.1-39.3,0.8-69.3,2.7-83s4.2-38.2,6.2-45.6l0.9-15.4C660.2,239.7,655.8,183,638,148.6z"/>
		</g>
		<g>
			<g>
				<defs>
					<path id="SVGID_00000049197235956380286170000006636947738030072224_" d="M638,148.6c-13.4-25.9-40.6-52.1-117.9-49.8
						c-77.4,2.3-114.1,46-117.9,57.4c-3.8,11.5,13.8,26.8,6.1,41.4c-7.7,14.6-22.2,49-23.7,80.4s-0.8,44.4-4.6,45.2
						c-3.8,0.8-12.3-12.3-16.1-21.4c-3.8-9.2-16.3-27.9-29.3-27.2c0,0-11.7,1.6-12.1,20.3c-0.4,18.7,8.2,61.2,19.1,74
						c10.9,12.9,14,14,23,15.2c0,0,0.2,0.5,0.6,1.5c0.4,0.9,0.9,2.3,1.6,4c5.4,13.4,20.6,48.1,40.7,66.5
						c28.4,26.1,103.1,59,137.5,58c19.1-0.5,34.4-5.3,46.1-11.9c14.6-8.2,23.7-19,28.3-27.8c6.4-12.4,26.1-51.4,31.2-90.8
						c5.1-39.3,0.8-69.3,2.7-83s4.2-38.2,6.2-45.6l0.9-15.4C660.2,239.7,655.8,183,638,148.6z"/>
				</defs>
				<clipPath id="SVGID_00000031202577954174227320000007813046089040282298_">
					<use xlink:href="#SVGID_00000049197235956380286170000006636947738030072224_"  style="overflow:visible;"/>
				</clipPath>
				<path style="clip-path:url(#SVGID_00000031202577954174227320000007813046089040282298_);fill:#BCBFC3;" d="M589.4,379.5
					c0,0-3.6,3.8-8.2,2.3c-8.1-2.7-8.2-10.8-16.9-8.5c-8.7,2.3-41.2,18.4-46.1,20.5c-4.9,2-11.5,10.2-13.8,15.9s0.8,15.1,2.8,13.6
					c2-1.5,12-16.6,24.8-19.7c12.8-3.1,35.3-8.7,39.4-8.2s8.2,4.4,12.8,3.1c4.6-1.3,10.5-1,13.6,0.5c3.1,1.5,19.9,17,20.9,22.2
					c0,0,0.5,5.9,2.8,5.9c2.3,0,5.4-13.6,3.3-18.4c-2-4.9-14.7-22.9-21.1-28.3c-6.4-5.4-9.7-5.6-11.3-5.1
					C590.9,375.6,589.4,379.5,589.4,379.5z"/>
				<g style="clip-path:url(#SVGID_00000031202577954174227320000007813046089040282298_);">
					<rect x="489.1" y="240.5" class="st4" width="37.1" height="58.3"/>
					<rect x="429.9" y="298" class="st4" width="58.3" height="37.1"/>
					<g>
						<line class="st6" x1="308.1" y1="98.4" x2="308.1" y2="513.1"/>
						<line class="st6" x1="350" y1="98.1" x2="350" y2="512.9"/>
						<line class="st6" x1="391.9" y1="97.9" x2="391.9" y2="512.7"/>
						<line class="st6" x1="433.7" y1="97.7" x2="433.7" y2="512.5"/>
						<line class="st6" x1="475.6" y1="97.5" x2="475.6" y2="512.2"/>
						<line class="st6" x1="517.4" y1="97.3" x2="517.4" y2="512"/>
						<line class="st6" x1="559.3" y1="97" x2="559.3" y2="511.8"/>
						<line class="st6" x1="601.1" y1="96.8" x2="601.1" y2="511.6"/>
						<line class="st6" x1="643" y1="96.6" x2="643" y2="511.3"/>
						<line class="st6" x1="684.8" y1="96.4" x2="684.8" y2="511.1"/>
					</g>
					<g>
						<polyline class="st6" points="703.9,115.4 642.5,115.4 600.2,126.5 557.8,126.5 515.5,117.4 474.3,117.4 433,117.4 
							390.7,117.4 348.4,117.4 289.1,117.4 						"/>
						<polyline class="st6" points="703.9,157.3 642.6,157.3 600.2,168.3 557.8,168.3 515.5,159.3 474.3,159.3 432.9,159.3 
							390.7,159.3 348.4,159.3 307.1,159.3 289.1,159.3 						"/>
						<polyline class="st6" points="703.9,199.1 642.7,199.1 600.2,210.2 557.8,210.2 515.5,201.1 474.3,201.1 432.8,201.1 
							390.7,201.1 348.4,201.1 307.1,201.1 289.1,201.1 						"/>
						<polyline class="st6" points="703.9,241 642.8,241 600.2,252 557.8,252 515.5,243 474.3,243 432.6,243 390.7,243 348.4,243 
							307.1,243 289.1,243 						"/>
						<polyline class="st6" points="703.9,282.8 643,282.8 600.2,293.9 557.8,293.9 515.5,284.8 474.3,284.8 432.5,284.8 
							390.7,284.8 348.4,284.8 307.1,284.8 289.1,284.8 						"/>
						<polyline class="st6" points="703.9,324.7 643.1,324.7 600.2,335.7 557.8,335.7 515.5,326.7 474.3,326.7 432.4,326.7 
							390.7,326.7 348.4,326.7 307.1,326.7 289.1,326.7 						"/>
						<polyline class="st6" points="703.9,366.5 643.2,366.5 600.2,377.6 557.8,377.6 515.5,368.5 474.3,368.5 432.3,368.5 
							390.7,368.5 348.4,368.5 307.1,368.5 289.1,368.5 						"/>
						<polyline class="st6" points="703.9,408.4 643.3,408.4 600.2,419.4 557.8,419.4 515.5,410.4 474.3,410.4 432.2,410.4 
							390.7,410.4 348.4,410.4 307.1,410.4 289.1,410.4 						"/>
						<polyline class="st6" points="703.9,450.2 643.4,450.2 600.2,461.3 557.8,461.3 515.5,452.2 474.3,452.2 432.1,452.2 
							390.7,452.2 348.4,452.2 307.1,452.2 289.1,452.2 						"/>
						<polyline class="st6" points="703.9,492.1 643.6,492.1 600.2,503.1 557.8,503.1 515.5,494.1 474.3,494.1 431.9,494.1 
							390.7,494.1 348.4,494.1 307.1,494.1 289.1,494.1 						"/>
					</g>
				</g>
			</g>
		</g>
		<g>
			<path id="SVGID_00000091704820082467442270000005202705038287134872_" class="st9" d="M638,148.6
				c-13.4-25.9-40.6-52.1-117.9-49.8c-77.4,2.3-114.1,46-117.9,57.4c-3.8,11.5,13.8,26.8,6.1,41.4c-7.7,14.6-22.2,49-23.7,80.4
				s-0.8,44.4-4.6,45.2c-3.8,0.8-12.3-12.3-16.1-21.4c-3.8-9.2-16.3-27.9-29.3-27.2c0,0-11.7,1.6-12.1,20.3
				c-0.4,18.7,8.2,61.2,19.1,74c10.9,12.9,14,14,23,15.2c0,0,0.2,0.5,0.6,1.5c0.4,0.9,0.9,2.3,1.6,4c5.4,13.4,20.6,48.1,40.7,66.5
				c28.4,26.1,103.1,59,137.5,58c19.1-0.5,34.4-5.3,46.1-11.9c14.6-8.2,23.7-19,28.3-27.8c6.4-12.4,26.1-51.4,31.2-90.8
				c5.1-39.3,0.8-69.3,2.7-83s4.2-38.2,6.2-45.6l0.9-15.4C660.2,239.7,655.8,183,638,148.6z"/>
		</g>
	</g>
	<path class="st2" d="M683.2,114.9l-16.1-6.9l-1.5-10.7l10-10l-1.5-8.4l-8.4-3.1l3.1-6.1L652,65.9l0.8-6.1l-15.3-5.4l5.4-9.2
		c0,0-6.1-0.8-10,0c-3.8,0.8-15.3,1.5-15.3,1.5l19.1-13.8c0,0-26.8,0.8-29.1-0.8c-2.3-1.5-19.9-3.8-19.9-3.8l9.2-16.8l-39.8,6.1
		l1.5-11.5c-22.2,0-52.8,10-52.8,10L507,1.5c-8.4,0-31.4,15.3-31.4,15.3l0.8-10.7c0,0,0,0-3.8,1.5C468.7,9.2,455.7,26,455.7,26
		l-5.4-20.7c-0.8,8.4-29.1,41.4-39.1,54.4s-29.9,31.4-29.9,31.4V78.9c-1.9,1.8-4.4,5-7,8.9c-9.7,14.6-22.1,39.4-22.1,39.4v-7.7
		c0,0,1.5-3.8-5.4,4.6s-6.1,18.4-11.5,38.3s-0.8,23-4.6,33.7c-3.8,10.7-12.3,13-12.3,13s12.3,3.8,12.3,8.4c0,4.6,3.6,57.1,3.6,57.1
		c13-0.8,25.5,18,29.3,27.2s12.3,22.2,16.1,21.4c3.8-0.8,3.1-13.8,4.6-45.2s16.1-65.9,23.7-80.4c7.7-14.6-10-29.9-6.1-41.4
		c3.8-11.5,40.6-55.1,117.9-57.4c77.4-2.3,104.6,23.9,117.9,49.8c17.8,34.5,22.2,91.1,22.2,91.1c6.9-19.1-10-71.2-10-71.2h15.3
		c0,0-16.8-9.2-16.8-11.5s20.7-16.8,20.7-16.8c-3.1-0.8-17.6,0.8-17.6,0.8l24.5-16.1L683.2,114.9z"/>
	<path class="st9" d="M361,320.9c0,0-11.7-26.9-23.4-32.7s-10.9,5.8-10.1,14s2.7,17.5,2.7,17.5"/>
	<path class="st9" d="M341.5,299.1c0,0-6.6,40.1-4.3,44.4c2.3,4.3,5.8,7,9.3,6.2"/>
	<path class="st9" d="M349.7,346.6c0,0,7.4-4.7,8.6,1.6s7,5.1,7,5.1s0.4-5.1-1.9-10.5s-6.6-9-3.5-13.6c3.1-4.7,3.1-4.7,3.1-4.7"/>
	<path class="st13" d="M364.5,384"/>
	<g>
		<path class="st0" d="M512.2,420.3c0,0,27.1-5.1,35.4-8.7c8.3-3.7,15.6-1.8,19.8,0.5c4.1,2.3,9.2,1.8,12.4-0.5s9.2-3.2,13.8,1.8
			c4.6,5.1,9.7,8.7,9.7,8.7s-10.6-3.2-17.5-2.8c-4.6,0.3-12.4,3.7-17,3.2s-14.7-2.8-16.6-4.1c-1.8-1.4-12-0.9-20.2,1.1
			C525.2,421.3,512.2,420.3,512.2,420.3z"/>
		<path class="st0" d="M518.1,424c0,0,31.2,13.5,50,12.1c20.1-1.5,35.1-14,35.1-14s-11-4.1-17.5-2.8s-12.9,4.1-17,3.2
			s-10.1-1.4-16.6-4.1c-6.4-2.8-19.8,1.8-28.5,1.8s-11.9,0.5-11.9,0.5L518.1,424z"/>
	</g>
	<path class="st14" d="M590.8,366.8c0,0,5.5-1.3,7.3-2.5s2.5-2.3,3.8-2s-1.3,2.3-3,2.8S590.8,366.8,590.8,366.8z"/>
	<g>
		<g>
			<path id="SVGID_00000011731950237702936190000007732113191458094736_" class="st10" d="M407.3,456.1
				c-20.1-18.5-35.3-53.1-40.7-66.5c0.1,0.8,7.2,54.3,2.6,93c-4.7,39-8.8,51.4-8.8,51.4s24.9,76.4,130.4,82.1
				c105.5,5.7,98.7-98.2,98.7-98.2l1.6-15.6l-0.1-0.1c-11.7,6.6-29.5,6.2-48.6,6.7C508,509.8,435.8,482.2,407.3,456.1z"/>
		</g>
		<g>
			<g>
				<defs>
					<path id="SVGID_00000075871120017883824310000000306928842526762907_" d="M407.3,456.1c-20.1-18.5-35.3-53.1-40.7-66.5
						c0.1,0.8,7.2,54.3,2.6,93c-4.7,39-8.8,51.4-8.8,51.4s24.9,76.4,130.4,82.1c105.5,5.7,98.7-98.2,98.7-98.2l1.6-15.6l-0.1-0.1
						c-11.7,6.6-29.5,6.2-48.6,6.7C508,509.8,435.8,482.2,407.3,456.1z"/>
				</defs>
				<clipPath id="SVGID_00000157296511753960154560000008460787802337490588_">
					<use xlink:href="#SVGID_00000075871120017883824310000000306928842526762907_"  style="overflow:visible;"/>
				</clipPath>
				<g style="clip-path:url(#SVGID_00000157296511753960154560000008460787802337490588_);">
					<g>
						<line class="st6" x1="308.1" y1="338.5" x2="308.1" y2="753.3"/>
						<line class="st6" x1="350" y1="338.5" x2="350" y2="753.3"/>
						<line class="st6" x1="391.9" y1="338.5" x2="391.9" y2="753.3"/>
						<line class="st6" x1="433.7" y1="338.5" x2="433.7" y2="753.3"/>
						<line class="st6" x1="475.6" y1="338.5" x2="475.6" y2="753.3"/>
						<line class="st6" x1="517.4" y1="338.5" x2="517.4" y2="753.3"/>
						<line class="st6" x1="559.3" y1="338.5" x2="559.3" y2="753.3"/>
						<line class="st6" x1="601.1" y1="338.5" x2="601.1" y2="753.3"/>
						<line class="st6" x1="643" y1="338.5" x2="643" y2="753.3"/>
						<line class="st6" x1="684.8" y1="338.5" x2="684.8" y2="753.3"/>
					</g>
					<g>
						<polyline class="st6" points="703.9,357.6 642.5,357.6 600.2,357.6 557.8,357.6 515.5,357.6 474.3,357.6 433,357.6 
							390.7,357.6 348.4,357.6 289.1,357.6 						"/>
						<polyline class="st6" points="703.9,399.4 642.6,399.4 600.2,399.4 557.8,399.4 515.5,399.4 474.3,399.4 432.9,399.4 
							390.7,399.4 348.4,399.4 307.1,399.4 289.1,399.4 						"/>
						<polyline class="st6" points="703.9,441.3 642.7,441.3 600.2,441.3 557.8,441.3 515.5,441.3 474.3,441.3 432.8,441.3 
							390.7,441.3 348.4,441.3 307.1,441.3 289.1,441.3 						"/>
						<polyline class="st6" points="703.9,483.1 642.8,483.1 600.2,483.1 557.8,483.1 515.5,483.1 474.3,483.1 432.6,483.1 
							390.7,483.1 348.4,483.1 307.1,483.1 289.1,483.1 						"/>
						<polyline class="st6" points="703.9,525 643,525 600.2,525 557.8,525 515.5,525 474.3,525 432.5,525 390.7,525 348.4,525 
							307.1,525 289.1,525 						"/>
						<polyline class="st6" points="703.9,566.8 643.1,566.8 600.2,566.8 557.8,566.8 515.5,566.8 474.3,566.8 432.4,566.8 
							390.7,566.8 348.4,566.8 307.1,566.8 289.1,566.8 						"/>
						<polyline class="st6" points="703.9,608.7 643.2,608.7 600.2,608.7 557.8,608.7 515.5,608.7 474.3,608.7 432.3,608.7 
							390.7,608.7 348.4,608.7 307.1,608.7 289.1,608.7 						"/>
						<polyline class="st6" points="703.9,650.5 643.3,650.5 600.2,650.5 557.8,650.5 515.5,650.5 474.3,650.5 432.2,650.5 
							390.7,650.5 348.4,650.5 307.1,650.5 289.1,650.5 						"/>
						<polyline class="st6" points="703.9,692.4 643.4,692.4 600.2,692.4 557.8,692.4 515.5,692.4 474.3,692.4 432.1,692.4 
							390.7,692.4 348.4,692.4 307.1,692.4 289.1,692.4 						"/>
						<polyline class="st6" points="703.9,734.2 643.6,734.2 600.2,734.2 557.8,734.2 515.5,734.2 474.3,734.2 431.9,734.2 
							390.7,734.2 348.4,734.2 307.1,734.2 289.1,734.2 						"/>
					</g>
				</g>
			</g>
		</g>
		<g>
			<path id="SVGID_00000049220296027818796120000017845393981188277167_" class="st9" d="M407.3,456.1
				c-20.1-18.5-35.3-53.1-40.7-66.5c0.1,0.8,7.2,54.3,2.6,93c-4.7,39-8.8,51.4-8.8,51.4s24.9,76.4,130.4,82.1
				c105.5,5.7,98.7-98.2,98.7-98.2l1.6-15.6l-0.1-0.1c-11.7,6.6-29.5,6.2-48.6,6.7C508,509.8,435.8,482.2,407.3,456.1z"/>
		</g>
	</g>
	<path class="st16" d="M608.2,489.3c0,0,16.6,46.8,22.9,74.8s15.6,36.9,16.1,41c0.5,4.2-13-3.1-15.1-9.4s-19.2-39-24.9-41.6
		s-11.9,2.1-11.9,2.1l-11.9,4.7c0,0,6.8-24.9,6.2-34.3c-0.5-9.4,1.4-24.5,1.4-24.5S604.5,493.4,608.2,489.3z"/>
	<path class="st17" d="M447.1,848.3c0,0,3.1-83.1-12.5-130.9s-26.5-71.2-43.6-75.9s-42.1,9.4-43.1-15.6c-1-24.9,3.6-45,3.6-45
		l10-8.9c0,0-10,28.5-8.9,36.2c1,7.8-2.1,24.4,9.4,24.4s35.8-1,46.8,14c10.9,15.1,25.5,43.6,28.6,54.6S454.9,818.6,447.1,848.3z"/>
	<path class="st18" d="M370.8,554.2c0,0,6.8,44.2,13,55.6c6.2,11.4,24.9,23.4,31.7,47.3c0,0-8.8-17.7-23.4-21.8
		c-14.5-4.2-28.1-2.6-30.1-2.6c-2.1,0-14.6-2.4-14.1-10.7s4.2-41.8,4.2-41.8S363.5,572.9,370.8,554.2z"/>
	<path class="st18" d="M583.2,561c0,0-10.4,14.5-6.8,21.8c3.6,7.3,40,40,61.3,51.4s26.8,38.3,26.8,38.3s-7-38.3-19-54.9
		c-11.9-16.6-19.4-35.1-19.4-35.1s-10.4-18.4-14.2-23.7c-2.6-3.6-7.9-9.3-16.2-4.1C587.4,559.9,583.2,561,583.2,561z"/>
	<path class="st19" d="M575.5,858.7c0,0-17.3-67.4,16.6-258.8c0,0,34.3,28.6,42.1,31.7c7.8,3.1,27,22.9,29.6,37.9
		c2.6,15.1,1.6,58.2-4.7,83.6c-6.2,25.5-32.6,102-32.6,102L575.5,858.7z"/>
	<path class="st16" d="M370.2,449.8c0,0-18.7,10.9-23.4,24.4c-4.7,13.5-3.1,57.1-3.6,64.9s4.1,83.9,4.1,83.9s12.6-16.3,31-22.6
		c-6.8-40-12.8-90.4-15.4-104.4s-2.3-23.6,2.1-28.1c2.1-2.1,5.7-7.3,5.7-7.3L370.2,449.8z"/>
	<path class="st2" d="M655.4,283.8c13.5-2.9,31.3-6.7,41.3-8.7l1.6,8.9c-12.9,2-28.5,4.3-43.8,6.6L655.4,283.8z"/>
	<path class="st2" d="M448.1,244.5c0,0,33.7-21.2,41-23.1s56.2,8.2,61.1,9.2c9.5,1.8,12.1,8.1,9.5,12.4c-2.6,4.4-7.3,2.9-17.9,1.1
		c-9.8-1.7-41.4-8.1-54.2-5.9c-12.8,2.2-20.1,5.1-28.2,6.6S442.6,248.5,448.1,244.5z"/>
	<path class="st2" d="M612.8,238.6c0,0-8.4,0.7-5.5,8.1c2.1,5.2,5.9,4.4,16.5,3.7s22.3-2.6,25.3-1.5c2.9,1.1,10.2,6.2,10.2,6.2
		s5.1-7.3,3.7-10.6c-1.5-3.3-7-10.6-13.5-10.6C642.8,233.8,612.8,238.6,612.8,238.6z"/>
	<g>
		<path class="st2" d="M350.8,283.2c2.5-4.6,6.9-13.1,12.3-14.3c5.5-1.3,28-6.1,33.9-7.4c12.8-2.8,38.7-8.3,51.6-10.9l1.6,8.9
			c-23.2,3.5-54.9,8.2-78.2,11.7c-1.6,0.3-7.2,1.1-8.8,1.4c-1,0.3-1.8,0.9-2.8,1.7c-3,2.8-5.8,6.3-8.3,9.8
			C352.1,284,350.8,283.2,350.8,283.2L350.8,283.2z"/>
	</g>
	<path class="st20" d="M561.2,256.2c-3.3-5.5-7-8.1-19.4-12.1s-45-7-54.2-5.9s-20.9,8.8-20.9,8.8l-13.9,4.4l-2.9,4.4
		c0,0-0.4,2.2,7.7,6.6s5.5,11,8.1,30s11.3,31.5,11.3,31.5s9.2,12.4,41.4,13.2c32.2,0.7,39.5-20.5,46.1-35.5s6.6-33.7,6.6-33.7
		C568.5,267.9,564.5,261.7,561.2,256.2z M560.8,292.1c-2.2,15.7-14.3,38.8-34.4,40.6c-20.1,1.8-31.8-3.3-38.1-6.6
		c-6.2-3.3-15-13.5-16.8-42.1s9.2-37.3,9.2-37.3c0.4-0.4,4-2.6,16.1-3.7c12.1-1.1,42.1,3.3,53.4,10.6
		C561.5,260.9,563,276.3,560.8,292.1z"/>
	<path class="st2" d="M561.5,284c0,0-12.8,17.9-18.3,28.2c-5.5,10.2-7.3,17.9-7.3,17.9s5.9-2.2,13.2-11s10.2-19.8,11.7-27.1
		C562.3,284.7,561.5,284,561.5,284z"/>
	<path class="st21" d="M534.4,265c0,0-5.1-15.4-28.2-11.3"/>
	<path class="st22" d="M530.8,270.8c-1.8-1.8-5.9-7-10.6-11.3c-0.5-0.5-1-0.9-1.5-1.2c1.6,1.9,2.5,4.3,2.5,7c0,4.1-2.3,7.8-5.7,9.6
		c8.7-1.1,9.9-1.6,12.3-0.4C530.8,275.9,532.6,272.7,530.8,270.8z"/>
	<path class="st22" d="M499.2,265.3c0-4.6,2.8-8.5,6.8-10.2c-1,0-2,0-3.1,0c-11.2,0.1-21.4,5-25.6,7.4c-1,0.6-1.8,1.2-2.4,1.8
		c-0.9,0.8-0.9,2.3,0.1,3.1l1.9,1.3c0,0,15.8,7.6,29.9,7.1C502.4,274.3,499.2,270.2,499.2,265.3z"/>
	<path class="st16" d="M521.2,265.3c0-2.7-1-5.1-2.5-7c-3.6-2.7-7.2-3.1-12.6-3.2c-4,1.6-6.8,5.6-6.8,10.2c0,4.9,3.2,9.1,7.6,10.5
		c0.8,0,1.5-0.1,2.3-0.1c2.5-0.2,4.6-0.5,6.3-0.7C518.9,273,521.2,269.4,521.2,265.3z"/>
	<path class="st23" d="M565.1,262.3c0,0,8.6-6,20.6-4.4c12.5,1.7,15.5,6.2,16,8.1c0.4,1.9-2.7,3.6-2.7,3.6l-3.4,0.6
		c0,0-0.6-5-11.3-5.6s-13.2,3.2-13.2,3.2S566.4,265.3,565.1,262.3z"/>
	<path class="st20" d="M687.6,268.5c-5.3-6.3-11.5-9.3-22.1-11.4c-9.1-1.8-20.2-4.6-38.5-2.9c-7.7,0.7-15,3.9-20.8,9.1
		c-3.4,3.1-6.7,6-7.3,6.5c-1.2,0.9-3.5,1.6-3.5,1.6s-1.9,17.4-1.6,19.9c0.3,2.5,3.4,6.5,3.8,12.6c0.4,6.2,4.4,24.3,6.6,27.9
		c1.9,3.1,9.4,14.8,38.7,15.1c29.3,0.3,32.6-15.7,40.6-32.7c8.1-17,7-24.8,11.1-26.1c4.1-1.3,5.7-1,5.7-1l0.3-11
		C700.7,276,692.9,274.8,687.6,268.5z M675.2,319.9c-5.3,12.5-9.8,19.5-24.8,21.8s-22.4-1.6-27.6-3.2c-5.1-1.6-12.3-6.3-17-27.9
		s-0.4-32.1,6.3-42.8c6.7-10.7,28-9.4,28-9.4c29.8-0.3,43.4,9.1,44.3,21.8C685.3,293.1,680.5,307.5,675.2,319.9z"/>
	<path class="st22" d="M642.3,278.6c-0.1-0.6-0.4-1.9-1-3.4c-1.6,7.6-6.5,11.7-11.9,9.7c-4.9-1.8-6.2-12.5-2.6-16.8
		c-8.4,1.6-16,7.4-16,7.4s-3.7,4.1-3.5,5.1c0.1,1,5,1,8.9,1.3c4,0.3,10.4,2.8,15.7,3.7s9.7-1,9.7-1S642.8,280.5,642.3,278.6z"/>
	<path class="st16" d="M629.4,285c5.4,2,10.3-2.2,11.9-9.7c-1.3-3.3-4.3-7.7-11-7.5c-1.2,0-2.4,0.2-3.5,0.4
		C623.2,272.5,624.5,283.2,629.4,285z"/>
	<path class="st21" d="M623.9,263.3c0,0,22.2-1.9,23.8,11.7"/>
	<path class="st9" d="M537.4,341.3c0,0-8,11-2.8,20.8c5.3,9.8,15.3,8.3,15.3,8.3"/>
	<path class="st2" d="M575.1,363.4c0,0-10.5-5.3-16.8-5.3s-6.8,3.3-4,3.8s5,1,8,0.8C565.3,362.4,573.6,362.6,575.1,363.4z"/>
	<path class="st9" d="M596.4,297.8c0,0,8.3,43.4,8.5,46.7c0.3,3.3-0.5,12.1-2.6,14.4"/>
	<path class="st9" d="M609.7,355.5c0,0,1.9,6.8-6.1,13.3"/>
	<path class="st2" d="M465.8,248.2c0,0,1.5-1.5,0.5-1.2c-6,1.5-18.6,2.2-18.6,2.2l0.6,10.9c0,0,11.1,2.3,12.2,5.6
		c1.1,3.3,3.1,19.3,4.5,28.1c1.5,8.8,5.3,23.9,11.9,30.1c0,0-9.5-24.2-10.6-40.6s-0.5-21.8-12.9-25.1l-0.6-6.7
		C452.8,251.4,463.6,251.5,465.8,248.2z"/>
	<g>
		<path class="st9" d="M518.5,413.5c0,0,27.1-5.1,35.4-8.7c8.3-3.7,15.6-1.8,19.8,0.5c4.1,2.3,9.2,1.8,12.4-0.5s9.2-3.2,13.8,1.8
			s9.7,8.7,9.7,8.7s-10.6-3.2-17.5-2.8c-4.6,0.3-12.4,3.7-17,3.2s-14.7-2.8-16.6-4.1c-1.8-1.4-12-0.9-20.2,1.1
			C531.5,414.4,518.5,413.5,518.5,413.5z"/>
		<path class="st9" d="M524.4,417.2c0,0,31.2,13.5,50,12.1c20.1-1.5,35.1-14,35.1-14s-11-4.1-17.5-2.8c-6.4,1.4-12.9,4.1-17,3.2
			s-10.1-1.4-16.6-4.1c-6.4-2.8-19.8,1.8-28.5,1.8s-11.9,0.5-11.9,0.5L524.4,417.2z"/>
	</g>
	<g>
		<g>
			<path class="st4" d="M435,490v12.6H311.1c-18.3-5.1-38-9.9-55-12.6H435z"/>
			<path class="st24" d="M211.2,490h45c17,2.6,36.7,7.5,55,12.6h-99.9V490H211.2z"/>
		</g>
		<path class="st4" d="M343.1,605.1h-84.7v11.1c35.8,11.2,65,29.6,84.7,44.6L343.1,605.1L343.1,605.1z"/>
		<path class="st25" d="M343.1,689.8v-29c-19.7-15.1-48.9-33.5-84.7-44.6v73.6H343.1z"/>
		<path class="st26" d="M694.1,634.7v8.4h110.3c-1.7-2.6-3.3-5.4-4.5-8.4H694.1z"/>
		<path class="st25" d="M818.5,634.7h-18.7c1.2,3,2.8,5.8,4.5,8.4h14.2V634.7z"/>
	</g>
	<g>
		<g>
			<path class="st4" d="M378.2,708.5V721h123.9c18.3-5.1,38-9.9,55-12.6L378.2,708.5L378.2,708.5z"/>
			<path class="st24" d="M602,708.5h-45c-17,2.6-36.7,7.5-55,12.6h100V708.5z"/>
		</g>
		<path class="st26" d="M339.2,664v8.4H228.9c1.7-2.6,3.3-5.4,4.5-8.4H339.2z"/>
		<path class="st25" d="M214.7,664h18.7c-1.2,3-2.8,5.8-4.5,8.4h-14.2V664z"/>
	</g>
	<g>
		<rect x="382.2" y="378.3" class="st10" width="123.8" height="14.6"/>
		<g>
			<line class="st27" x1="405.2" y1="378.3" x2="405.2" y2="394"/>
			<line class="st28" x1="412.5" y1="378.3" x2="412.5" y2="394"/>
		</g>
		<g>
			<line class="st27" x1="438.7" y1="378.3" x2="438.7" y2="394"/>
			<line class="st28" x1="446" y1="378.3" x2="446" y2="394"/>
		</g>
		<g>
			<line class="st27" x1="479.5" y1="378.3" x2="479.5" y2="394"/>
			<line class="st28" x1="486.8" y1="378.3" x2="486.8" y2="394"/>
		</g>
	</g>
	<g>
		<rect x="372.1" y="536" class="st10" width="174.7" height="14.6"/>
		<g>
			<line class="st27" x1="395.1" y1="536" x2="395.1" y2="551.7"/>
			<line class="st28" x1="402.5" y1="536" x2="402.5" y2="551.7"/>
		</g>
		<g>
			<line class="st27" x1="428.6" y1="536" x2="428.6" y2="551.7"/>
			<line class="st28" x1="435.9" y1="536" x2="435.9" y2="551.7"/>
		</g>
		<g>
			<line class="st27" x1="469.4" y1="536" x2="469.4" y2="551.7"/>
			<line class="st28" x1="476.7" y1="536" x2="476.7" y2="551.7"/>
		</g>
		<g>
			<line class="st27" x1="513.3" y1="536" x2="513.3" y2="551.7"/>
			<line class="st28" x1="520.7" y1="536" x2="520.7" y2="551.7"/>
		</g>
	</g>
	<g>
		<rect x="412.8" y="559" class="st10" width="174.7" height="14.6"/>
		<g>
			<line class="st27" x1="435.8" y1="559" x2="435.8" y2="574.6"/>
			<line class="st28" x1="443.1" y1="559" x2="443.1" y2="574.6"/>
		</g>
		<g>
			<line class="st27" x1="469.3" y1="559" x2="469.3" y2="574.6"/>
			<line class="st28" x1="476.6" y1="559" x2="476.6" y2="574.6"/>
		</g>
		<g>
			<line class="st27" x1="510.1" y1="559" x2="510.1" y2="574.6"/>
			<line class="st28" x1="517.4" y1="559" x2="517.4" y2="574.6"/>
		</g>
		<g>
			<line class="st27" x1="554" y1="559" x2="554" y2="574.6"/>
			<line class="st28" x1="561.3" y1="559" x2="561.3" y2="574.6"/>
		</g>
	</g>
	<rect x="506.6" y="258.6" class="st2" width="11.7" height="11.7"/>
	<path class="st2" d="M640.5,280.6H630v-10.5h8.1c1.3,0,2.4,1.1,2.4,2.4V280.6z"/>
	<path class="st2" d="M533.1,727c0,0,10.5,14.5,45.4,15.7c34.9,1.1,65.3,0.7,42.8,4.1s-43.8,2.7-49.6,8.9L533.1,727z"/>
	<path class="st9" d="M365.6,376.6c0,0,0.4,5.8-1.2,7.4"/>
</g>
</svg>
