<?xml version="1.0" encoding="UTF-8"?><svg id="Layer_2" xmlns="http://www.w3.org/2000/svg" xmlns:xlink="http://www.w3.org/1999/xlink" viewBox="0 0 938.29 848.92"><defs><style>.cls-1,.cls-2,.cls-3,.cls-4,.cls-5,.cls-6,.cls-7,.cls-8,.cls-9,.cls-10,.cls-11{fill:none;}.cls-2,.cls-3,.cls-12,.cls-11{stroke-width:3px;}.cls-2,.cls-13,.cls-14,.cls-15,.cls-16,.cls-17,.cls-18,.cls-4,.cls-5,.cls-6,.cls-12,.cls-11{stroke:#0b1221;}.cls-2,.cls-6,.cls-7,.cls-8,.cls-12,.cls-9,.cls-10{stroke-miterlimit:10;}.cls-3{stroke:#afff00;}.cls-3,.cls-13,.cls-14,.cls-15,.cls-16,.cls-17,.cls-18,.cls-4,.cls-5,.cls-11{stroke-linecap:round;stroke-linejoin:round;}.cls-19{clip-path:url(#clippath);}.cls-20{fill:#ff2f8a;}.cls-21,.cls-18{fill:#afff00;}.cls-22,.cls-14,.cls-12{fill:#e2ded8;}.cls-23,.cls-13{fill:#0b1221;}.cls-24{fill:#291d50;}.cls-25{fill:#523aa0;}.cls-13,.cls-14,.cls-15,.cls-16,.cls-17,.cls-18,.cls-4{stroke-width:1.01px;}.cls-15{fill:#ff6f07;}.cls-16{fill:#fff;}.cls-17{fill:#bf5305;}.cls-26{clip-path:url(#clippath-1);}.cls-27{clip-path:url(#clippath-2);}.cls-5{stroke-width:1.01px;}.cls-7,.cls-10{stroke:#ff2f8a;}.cls-8,.cls-9{stroke:#523aa0;}.cls-9,.cls-10{stroke-width:.39px;}</style><clipPath id="clippath"><path class="cls-12" d="M585.35,503.07s-.62-3.33-1.18-9.39c-1-10.71-1.84-29.98,1.18-54.58,4.74-38.5,21.12-82.76,21.12-82.76l-.28-.42c-14.08-.04-21.31-6.52-23.22-11.86l-6.17,5.94s-14.89,38.37-17.18,46.39c-2.29,8.02-79.04,58.42-118.55,72.16-24.74,8.6-52.36,11.14-76.31,11.42-10.54,.12-20.38-.19-28.94-.62-3.72,9.39-9.88,24.31-9.88,24.31,0,0-4.74,15.4,2.96,39.68,7.7,24.28,61.01,92.99,121.42,104.24,60.41,11.25,115.5-10.66,135.04-68.71,19.55-58.04,0-75.81,0-75.81Z"/></clipPath><clipPath id="clippath-1"><path class="cls-2" d="M662.59,235.59l-.3-.77c5.78-21.48,14.87-88.39-4.13-128.05-19-39.65-63.61-71.87-112.35-90.87-48.74-19-104.92-9.09-104.92-9.09,0,0-63.61,18.17-96.66,58.65-32.08,39.3-33.8,55.24-36.89,58.4,.07,.02,.13,.03,.2,.05l-.48,.2c.1-.07,.19-.16,.28-.25-2.98-.85-5.94-1.2-7.43-.46-3.05,1.53-8.14,16.78-7.63,23.39,.51,6.61,3.05,10.68,4.58,9.66,0,0,2.12,7.15,2.41,9.17,.29,2.02,1.73,11.56,1.73,11.56l3.47,15.03s-2.31,3.76-3.76,6.94c-1.45,3.18-5.2,17.34-4.05,25.44,1.16,8.09,1.16,10.12,1.16,10.12l-.06-.24c-3.36,4.3-6,8.92-6.3,12.38-.36,4.16-1.4,12.17,.85,19.64l-1.3,1.03s-8.02,37.23-10.31,58.42c-2.29,21.19-2.86,35.51,0,62.43,2.86,26.92,5.15,46.96,7.45,60.71,2.29,13.75,11.45,28.06,38.95,29.78,2.71,.17,5.65,.33,8.71,.49,28.01,1.41,69.63,1.59,105.26-10.8,39.52-13.75,116.26-64.15,118.55-72.16,2.29-8.02,17.18-46.39,17.18-46.39l6.17-5.94c1.91,5.34,9.15,11.82,23.22,11.86,.04,0,.08,0,.12,0,14.16,0,19.14-6.89,29.47-17.61,10.33-10.72,20.67-33.3,25.64-44.4,4.98-11.1,10.72-33.68,4.59-51.67-.9-2.64-2.06-4.84-3.43-6.66Z"/></clipPath><clipPath id="clippath-2"><path class="cls-1" d="M903.98,712.38c-16.04-31.5-39.52-67.01-63-77.89-23.48-10.88-72.74-41.24-83.62-46.39-10.88-5.15-131.15-72.74-131.15-72.74,0,0,8.59,37.23-3.44,76.17-12.03,38.94-40.09,93.93-92.21,111.68-52.12,17.75-89.35,8.02-89.35,8.02l-4.58,5.73s-2.8,4.25-2.06,16.53c-.98-8.9-.43-16.95,6.64-22.25-136.88-18.9-150.05-126-152.92-160.36-1.74-20.84,2.21-42.3,5.59-55.97-.52,.32-1.04,.65-1.58,.99-19.47,12.03-63.87,45.69-122.53,66.72-95.29,34.17-149.03,127.22-158.11,146.33-16.69,35.13-9.74,51.54-9.74,51.54,0,0,112.83,93.93,439.28,87.63,0,0-3.88-53.96-4.16-79.43,1.93,33.23,4.16,79.43,4.16,79.43,297.24,1.15,481.66-89.34,481.66-89.34,0,0-2.86-14.89-18.9-46.39Z"/></clipPath></defs><g id="background_black"><g><path class="cls-3" d="M914.16,709.66c-16.04-31.5-39.52-67.01-63-77.89-23.48-10.88-72.74-41.24-83.62-46.39-10.88-5.15-131.15-72.73-131.15-72.74h0s-33.79-20.05-33.79-20.05c0,0-3.29-.66-8.25-1.63-1-10.71-1.84-29.98,1.18-54.58,4.74-38.5,21.12-82.76,21.12-82.76h0c14.16,0,19.14-6.89,29.47-17.61,10.33-10.72,20.67-33.3,25.64-44.4,4.98-11.1,10.72-33.68,4.59-51.67-.03-.09-.07-.16-.1-.25-.02-.06-.03-.11-.05-.17-.9-2.64-2.06-4.84-3.43-6.66l-.14-.36c7.18-5.18,12.86-65.1,2.85-107.38-1.74-7.53-4.07-14.67-7.14-21.08-19-39.65-63.61-71.87-112.35-90.87-48.74-19-104.92-9.09-104.92-9.09,0,0-63.61,18.18-96.66,58.65-32.08,39.3-33.8,55.24-36.89,58.4-2.98-.85-5.94-1.2-7.43-.46-3.05,1.53-8.14,16.78-7.63,23.39,.2,2.58,.71,4.76,1.35,6.41,1,2.84,2.38,4.28,3.35,3.68,.45,1.55,2.04,7.01,2.28,8.74,.14,.95,.53,3.58,.91,6.09-.06,.04-.12,.07-.18,.11l.2,.03c.42,2.76,.81,5.33,.81,5.33l.08,.34c-.09,.3-.14,.49-.14,.49,0,0,.62,2.06,1.38,4.88l1.77,7.68c.03,.17,.07,.33,.11,.5l.26,1.14s-2.31,3.76-3.76,6.94c-1.45,3.18-5.2,17.34-4.05,25.44,1.16,8.09,1.16,10.12,1.16,10.12l-.06-.24c-3.36,4.3-6,8.92-6.3,12.38-.36,4.16-1.4,12.17,.85,19.64l-1.3,1.03s-8.02,37.23-10.31,58.42c-2.29,21.19-2.86,35.51,0,62.43,2.86,26.92,5.15,46.96,7.45,60.71,2.29,13.75,11.45,28.06,38.95,29.78l-.47,.36-11.97-1.09s-2.71,5.41-20.75,16.77c-.21,.86-.42,1.74-.64,2.65,.21-.91,.43-1.8,.64-2.65-.52,.33-1.04,.65-1.58,.99-19.47,12.03-63.87,45.69-122.53,66.72-95.29,34.17-149.03,127.22-158.11,146.33-16.69,35.13-9.74,51.54-9.74,51.54,0,0,112.83,93.93,439.28,87.63h0c297.24,1.15,481.66-89.34,481.66-89.34,0,0-2.86-14.89-18.9-46.39Z"/><path class="cls-23" d="M299.11,131.3s12.2-2.74-23.66-3.18c-35.86-.45-75.18-.89-52.05-2.24,23.13-1.34,79.53-1.72,86.47-6.64l-10.76,12.06Z"/><path class="cls-23" d="M322.74,142.21s12.2-2.74-23.66-3.18c-35.86-.45-75.18-.89-52.05-2.24,23.13-1.34,79.53-1.72,86.47-6.64l-10.76,12.06Z"/><path class="cls-23" d="M299.23,386.62s12.2-2.74-23.66-3.18c-35.86-.45-75.18-.89-52.05-2.24,23.13-1.34,79.53-1.72,86.47-6.64l-10.76,12.06Z"/><path class="cls-23" d="M668.68,207.1s-12.2-7.07,23.66-8.23c35.86-1.16,75.18-2.31,52.05-5.78s-79.53-4.45-86.47-17.17l10.76,31.19Z"/><path class="cls-23" d="M668.09,218.25s-.25-6.58,15.53-7.09c15.78-.51,33.09-1.02,22.91-2.55-10.18-1.53-44.34-3.62-47.39-9.22l8.96,18.85Z"/><path class="cls-23" d="M592.35,392.47s-12.2-7.07,23.66-8.23c35.86-1.16,75.18-2.31,52.05-5.78s-79.53-4.45-86.47-17.17l10.76,31.19Z"/><path class="cls-23" d="M591.76,403.63s-.25-6.58,15.53-7.09c15.78-.51,33.09-1.02,22.91-2.55-10.18-1.53-44.34-3.62-47.39-9.22l8.96,18.85Z"/><path class="cls-15" d="M441.22,711.24c-136.88-18.9-150.05-126-152.92-160.36-1.74-20.84,2.21-42.3,5.59-55.97-.52,.32-1.04,.65-1.58,.99-19.47,12.03-63.87,45.69-122.53,66.72-95.29,34.17-149.03,127.22-158.11,146.33-16.69,35.13-9.74,51.55-9.74,51.55,0,0,112.83,93.93,439.28,87.63,0,0-5.15-71.59-4.01-88.77,1.15-17.18-9.74-37.8,4.01-48.11Z"/><path class="cls-15" d="M441.22,848.12c297.24,1.15,481.66-89.35,481.66-89.35,0,0-2.86-14.89-18.9-46.39-16.04-31.5-39.52-67.01-63-77.89-23.48-10.88-72.74-41.24-83.62-46.39-10.88-5.15-131.15-72.74-131.15-72.74,0,0,8.59,37.23-3.44,76.17-12.03,38.95-40.09,93.93-92.21,111.68-52.12,17.75-89.35,8.02-89.35,8.02l-4.58,5.73s-3.44,5.15-1.72,20.62c1.72,15.46,6.3,110.54,6.3,110.54Z"/><ellipse class="cls-4" cx="470.71" cy="747.03" rx="16.32" ry="18.61"/><ellipse class="cls-4" cx="464.21" cy="743.71" rx="2.01" ry="2.91"/><ellipse class="cls-4" cx="473.43" cy="741.56" rx="2.01" ry="2.91"/><path class="cls-4" d="M469.49,754.02c0,1.61-.9,2.91-2.01,2.91-1.11,0-2.01-1.3-2.01-2.91s.9-2.91,2.01-2.91,2.01,1.3,2.01,2.91Z"/><ellipse class="cls-4" cx="476.7" cy="751.87" rx="2.01" ry="2.91"/><path class="cls-14" d="M662.59,235.59l-.3-.77c5.78-21.48,14.87-88.39-4.13-128.05-19-39.65-63.61-71.87-112.35-90.87-48.74-19-104.92-9.09-104.92-9.09,0,0-63.61,18.17-96.66,58.65-32.08,39.3-33.8,55.24-36.89,58.4,.07,.02,.13,.03,.2,.05l-.48,.2c.1-.07,.19-.16,.28-.25-2.98-.85-5.94-1.2-7.43-.46-3.05,1.53-8.14,16.78-7.63,23.39,.51,6.61,3.05,10.68,4.58,9.66,0,0,2.12,7.15,2.41,9.17,.29,2.02,1.73,11.56,1.73,11.56l3.47,15.03s-2.31,3.76-3.76,6.94c-1.45,3.18-5.2,17.34-4.05,25.44,1.16,8.09,1.16,10.12,1.16,10.12l-.06-.24c-3.36,4.3-6,8.92-6.3,12.38-.36,4.16-1.4,12.17,.85,19.64l-1.3,1.03s-8.02,37.23-10.31,58.42c-2.29,21.19-2.86,35.51,0,62.43,2.86,26.92,5.15,46.96,7.45,60.71,2.29,13.75,11.45,28.06,38.95,29.78,2.71,.17,5.65,.33,8.71,.49,28.01,1.41,69.63,1.59,105.26-10.8,39.52-13.75,116.26-64.15,118.55-72.16,2.29-8.02,17.18-46.39,17.18-46.39l6.17-5.94c1.91,5.34,9.15,11.82,23.22,11.86,.04,0,.08,0,.12,0,14.16,0,19.14-6.89,29.47-17.61,10.33-10.72,20.67-33.3,25.64-44.4,4.98-11.1,10.72-33.68,4.59-51.67-.9-2.64-2.06-4.84-3.43-6.66Z"/><path class="cls-13" d="M318.88,141.12s-.51-10.68-3.56-13.22c-3.05-2.54-12.2-5.59-15.26-4.07s-8.14,16.78-7.63,23.39c.51,6.61,3.05,10.68,4.58,9.66s7.12-11.19,11.7-11.7c4.58-.51,10.17-4.07,10.17-4.07Z"/><path class="cls-4" d="M329.49,176.75s-12.43-16.19-29.48-4.91"/><path class="cls-4" d="M297.02,156.88s2.12,7.15,2.41,9.17c.29,2.02,1.73,11.56,1.73,11.56,3.76-8.09,8.38-8.38,13.01-5.78,4.62,2.6,17.92,17.92,17.92,17.92"/><path class="cls-4" d="M304.05,182.53s-2.6-2.89-2.89-4.91"/><path class="cls-11" d="M318.88,141.12s18.12,25.22,18.41,31.29c.29,6.07-1.73,13.3-9.83,26.01-8.09,12.72-13.3,21.97-19.66,26.59-6.36,4.62-15.61,15.61-16.19,22.26s-2.89,23.12,9.25,31.51"/><path class="cls-11" d="M367.79,256.71s13.33,19.99-3,36.65"/><g><path class="cls-3" d="M381.31,369.25s-24.66-2.67-30.65-6.66c-6-4-22.32-18.33-27.65-17.99-5.33,.33-6.66,4.33-9.66,2-3-2.33-6.33-7.33-11.66-4-5.33,3.33-7,12.33-5.33,16.66,0,0,7.33-1.67,12.33,.67,5,2.33,3.33,1,16.33,3.67,12.99,2.67,35.32,8.33,43.65,8.66,8.33,.33,12.66-3,12.66-3Z"/><path class="cls-3" d="M296.35,359.25s-8.33,10,10.66,14.99c18.99,5,27.65,6.33,36.65,6,9-.33,21.32-1.67,25.32-3,4-1.33,7.66-5.66,7.66-5.66"/></g><g><path class="cls-11" d="M374.13,363.33s-24.66-2.67-30.65-6.66c-6-4-22.32-18.33-27.65-17.99-5.33,.33-6.66,4.33-9.66,2-3-2.33-6.33-7.33-11.66-4-5.33,3.33-7,12.33-5.33,16.66,0,0,7.33-1.67,12.33,.67s3.33,1,16.33,3.67,35.32,8.33,43.65,8.66c8.33,.33,12.66-3,12.66-3Z"/><path class="cls-11" d="M289.16,353.33s-8.33,10,10.66,14.99c18.99,5,27.65,6.33,36.65,6,9-.33,21.32-1.67,25.32-3,4-1.33,7.66-5.66,7.66-5.66"/></g><path class="cls-11" d="M371.79,299.36s21.66,29.65,22.66,59.97"/><line class="cls-4" x1="306.82" y1="300.69" x2="301.82" y2="330.34"/><line class="cls-11" x1="318.48" y1="303.02" x2="314.48" y2="331.01"/><path class="cls-23" d="M307.33,278.84c.92,.37,1.77-.68,1.24-1.52-2.14-3.4-6.44-9.78-8.68-9.78-2.7,0,1.44,8.92,7.44,11.3Z"/><path class="cls-23" d="M321.71,269.46s3.83,5.74,10.72,9.95c6.89,4.21,18.37,7.65,18.37,1.53,0-6.12-8.42-8.8-15.31-11.1-6.89-2.3-12.63-3.06-13.78-.38Z"/><path class="cls-11" d="M610.3,232.34s8.42-3.44,19.9-4.21c11.48-.77,29.85-3.44,35.98,14.54,6.12,17.99,.38,40.57-4.59,51.67-4.98,11.1-15.31,33.68-25.64,44.4-10.33,10.72-15.31,17.61-29.47,17.61s-21.43-6.51-23.35-11.86"/><path class="cls-11" d="M595.75,275.97s8.04,5.74,5.36,16.84c-2.68,11.1-4.21,23.35,2.68,24.49,6.89,1.15,7.65-4.98,14.93-5.74,7.27-.77,15.69-3.06,20.67-11.1,4.98-8.04,1.15-13.01-4.21-15.69"/><path class="cls-11" d="M607.62,280.56s17.99-35.98,29.47-40.57c11.48-4.59,26.41,.38,20.67,27.94-5.74,27.56-20.67,56.26-29.85,60.47"/><path class="cls-11" d="M624.84,267.55s8.42,6.51,14.93-5.74"/><path class="cls-14" d="M307.54,123.92c-.07-.02-.13-.04-.2-.05-.09,.09-.19,.18-.28,.25l.48-.2Z"/><path class="cls-18" d="M536.29,646.52c44.1-21.76,62.43-62.43,64.72-97.36,2.29-34.92-8.58-53.82-8.59-53.84h0s-3.29-.66-8.25-1.64c.57,6.05,1.18,9.39,1.18,9.39,0,0,19.55,17.77,0,75.81-19.55,58.04-74.63,79.96-135.04,68.71-60.41-11.25-113.72-79.96-121.42-104.24-7.7-24.28-2.96-39.68-2.96-39.68,0,0,6.17-14.92,9.88-24.31,8.56,.43,18.4,.74,28.94,.62-9.19-.27-14.75-.43-14.75-.43l-22.91-.68-.47,.36,.63,.06s-26.92,21.19,12.6,110.54c39.52,89.34,127.13,96.22,127.14,96.22h0s25.2-17.75,69.3-39.52Z"/><path class="cls-17" d="M626.21,515.36l-33.79-20.05h0s10.88,18.91,8.59,53.84c-2.29,34.94-20.62,75.6-64.72,97.36-44.1,21.76-69.3,39.52-69.3,39.52h0l-25.77,25.2s37.23,9.74,89.35-8.02c52.12-17.75,80.18-72.74,92.21-111.68,12.03-38.94,3.44-76.17,3.44-76.17Z"/><path class="cls-17" d="M339.85,589.82c-39.52-89.34-12.6-110.54-12.6-110.54l-.63-.06-11.97-1.09s-2.71,5.41-20.75,16.77c-3.38,13.67-7.33,35.13-5.59,55.97,2.86,34.36,16.04,141.46,152.92,160.36,9.8-7.35,18.7-17,23.02-21.95,1.74-1.99,2.76-3.25,2.76-3.25,0,0-87.63-6.87-127.15-96.22Z"/><g><path class="cls-22" d="M585.35,503.07s-.62-3.33-1.18-9.39c-1-10.71-1.84-29.98,1.18-54.58,4.74-38.5,21.12-82.76,21.12-82.76l-.28-.42c-14.08-.04-21.31-6.52-23.22-11.86l-6.17,5.94s-14.89,38.37-17.18,46.39c-2.29,8.02-79.04,58.42-118.55,72.16-24.74,8.6-52.36,11.14-76.31,11.42-10.54,.12-20.38-.19-28.94-.62-3.72,9.39-9.88,24.31-9.88,24.31,0,0-4.74,15.4,2.96,39.68,7.7,24.28,61.01,92.99,121.42,104.24,60.41,11.25,115.5-10.66,135.04-68.71,19.55-58.04,0-75.81,0-75.81Z"/><g class="cls-19"><g><g><line class="cls-6" x1="253.85" y1="286.92" x2="253.85" y2="713.34"/><line class="cls-6" x1="296.88" y1="286.92" x2="296.88" y2="713.34"/><line class="cls-6" x1="339.91" y1="286.92" x2="339.91" y2="713.34"/><line class="cls-6" x1="382.94" y1="286.92" x2="382.94" y2="713.34"/><line class="cls-6" x1="425.97" y1="286.92" x2="425.97" y2="713.34"/><line class="cls-6" x1="469" y1="286.92" x2="469" y2="713.34"/><line class="cls-6" x1="512.03" y1="286.92" x2="512.03" y2="713.34"/><line class="cls-6" x1="555.06" y1="286.92" x2="555.06" y2="713.34"/><line class="cls-6" x1="598.09" y1="286.92" x2="598.09" y2="713.34"/><line class="cls-6" x1="641.12" y1="286.92" x2="641.12" y2="713.34"/></g><g><polyline class="cls-6" points="660.7 276.97 597.6 282.91 555.84 311.71 518.17 335.38 467.06 357.42 424.64 371.96 382.22 383.69 338.7 377.41 295.19 337.43 234.27 306.5"/><polyline class="cls-6" points="660.7 320 597.72 325.93 555.84 354.74 518.17 378.41 467.06 400.45 424.64 414.99 382.09 426.71 338.7 420.44 295.19 380.46 250.39 356.67 234.27 349.53"/><polyline class="cls-6" points="660.7 363.03 597.84 368.96 555.84 397.77 518.17 421.44 467.06 443.48 424.64 458.02 381.97 469.74 338.7 463.47 295.19 423.49 250.69 398.8 234.27 392.55"/><polyline class="cls-6" points="660.7 406.06 597.97 411.99 555.84 440.8 518.17 464.47 467.06 486.51 424.64 501.05 381.85 512.77 338.7 506.5 295.19 466.51 250.99 440.94 234.27 435.58"/><polyline class="cls-6" points="660.7 449.09 598.09 455.02 555.84 483.83 518.17 507.5 467.06 529.54 424.64 544.07 381.73 555.8 338.7 549.53 295.19 509.54 251.28 483.08 234.27 478.61"/><polyline class="cls-6" points="660.7 492.12 598.21 498.05 555.84 526.86 518.17 550.53 467.06 572.56 424.64 587.1 381.61 598.83 338.7 592.56 295.19 552.57 251.58 525.21 234.27 521.64"/><polyline class="cls-6" points="660.7 535.14 598.33 541.08 555.84 569.88 518.17 593.56 467.06 615.59 424.64 630.13 381.49 641.86 338.7 635.59 295.19 595.6 251.88 567.35 234.27 564.67"/><polyline class="cls-6" points="660.7 578.17 598.45 584.11 555.84 612.91 518.17 636.59 467.06 658.62 424.64 673.16 381.37 684.89 338.7 678.61 295.19 638.63 252.17 609.49 234.27 607.7"/><polyline class="cls-6" points="660.7 621.2 598.57 627.14 555.84 655.94 518.17 679.62 467.06 701.65 424.64 716.19 381.25 727.92 338.7 721.64 295.19 681.66 252.47 651.62 234.27 650.73"/><polyline class="cls-6" points="660.7 664.23 598.69 670.17 555.84 698.97 518.17 722.64 467.06 744.68 424.64 759.22 381.13 770.95 338.7 764.67 295.19 724.69 252.77 693.76 234.27 693.76"/></g></g></g><path class="cls-2" d="M585.35,503.07s-.62-3.33-1.18-9.39c-1-10.71-1.84-29.98,1.18-54.58,4.74-38.5,21.12-82.76,21.12-82.76l-.28-.42c-14.08-.04-21.31-6.52-23.22-11.86l-6.17,5.94s-14.89,38.37-17.18,46.39c-2.29,8.02-79.04,58.42-118.55,72.16-24.74,8.6-52.36,11.14-76.31,11.42-10.54,.12-20.38-.19-28.94-.62-3.72,9.39-9.88,24.31-9.88,24.31,0,0-4.74,15.4,2.96,39.68,7.7,24.28,61.01,92.99,121.42,104.24,60.41,11.25,115.5-10.66,135.04-68.71,19.55-58.04,0-75.81,0-75.81Z"/></g><path class="cls-5" d="M324.99,183.6c0-.68,.42-1.58-.08-2.03-7.49-6.95-8.71-11.3-16.58-10.89-5.76,.3-7.39,7.34-7.39,7.34,0,0,4.06,13.42,4.06,18.71,0,0,10.3,.61,17.57-1.51,1.87-3.56,2.42-7.2,2.42-11.61Z"/><path class="cls-4" d="M330.35,192.65s-7.52,2.89-14.16,3.76c-6.65,.87-13.87,.29-13.87,.29"/><path class="cls-18" d="M308.67,171.26s-4.91,7.52-4.91,15.61c0,8.09,3.77,9.5,6.09,9.26,6.04-.62,11.21-12.42,6.06-23.02,0,0-6.94-2.72-7.23-1.85Z"/><rect class="cls-23" x="306.53" y="176.36" width="6.78" height="12.67"/><path class="cls-11" d="M515.46,618.57s14.21-40.28,29.02-55.08c14.81-14.81,37.31-69.3,37.91-95.36"/><g><rect class="cls-22" x="373.69" y="512.42" width="179.59" height="15.06"/><g><line class="cls-8" x1="397.34" y1="512.42" x2="397.34" y2="528.55"/><line class="cls-7" x1="404.87" y1="512.42" x2="404.87" y2="528.55"/></g><g><line class="cls-8" x1="431.76" y1="512.42" x2="431.76" y2="528.55"/><line class="cls-7" x1="439.29" y1="512.42" x2="439.29" y2="528.55"/></g><g><line class="cls-8" x1="473.7" y1="512.42" x2="473.7" y2="528.55"/><line class="cls-7" x1="481.23" y1="512.42" x2="481.23" y2="528.55"/></g><g><line class="cls-8" x1="518.87" y1="512.42" x2="518.87" y2="528.55"/><line class="cls-7" x1="526.39" y1="512.42" x2="526.39" y2="528.55"/></g></g><path class="cls-23" d="M290.58,526.97s4.31-7.9-27.86-8.55c-35.87-.72-77.12-.19-53.98-3.66,23.13-3.47,78.27-6.75,85.21-19.48l-3.37,31.68Z"/><g><g class="cls-26"><g><g><line class="cls-6" x1="265.58" y1=".98" x2="265.58" y2="485.71"/><line class="cls-6" x1="308.61" y1=".98" x2="305.8" y2="484.85"/><line class="cls-6" x1="351.64" y1=".98" x2="346.01" y2="483.98"/><line class="cls-6" x1="394.67" y1=".98" x2="386.23" y2="483.11"/><line class="cls-6" x1="437.7" y1=".98" x2="426.45" y2="482.24"/><line class="cls-6" x1="480.73" y1=".98" x2="466.67" y2="481.37"/><line class="cls-6" x1="523.76" y1=".98" x2="506.88" y2="480.5"/><line class="cls-6" x1="566.78" y1=".98" x2="547.1" y2="479.63"/><line class="cls-6" x1="609.81" y1=".98" x2="587.32" y2="478.77"/><line class="cls-6" x1="652.84" y1=".98" x2="627.53" y2="477.9"/></g><g><polyline class="cls-6" points="672.42 43.28 609.33 43.28 565.82 43.28 522.3 43.28 478.79 43.28 445.76 41.77 373.44 63.53 326.02 59.62 306.92 43.28 246 43.28"/><polyline class="cls-6" points="672.42 86.31 609.45 86.31 565.82 86.31 522.3 86.31 478.79 86.31 445.76 84.8 397.11 97.97 373.39 104.06 332.22 100.61 326.14 100.1 306.47 85.33 292.65 85.2 265.1 86.31 246 86.31"/><polyline class="cls-6" points="672.42 129.34 609.57 129.34 565.82 129.34 522.3 129.34 478.79 129.34 445.76 127.83 397.07 139.54 373.33 144.58 332.33 141.09 326.27 140.58 306.03 127.39 292.26 127.12 265.03 129.34 246 129.34"/><polyline class="cls-6" points="672.42 172.37 609.69 172.37 565.82 172.37 522.3 172.37 478.79 172.37 445.76 170.86 397.02 181.11 373.28 185.11 332.43 181.57 326.4 181.06 305.59 169.44 291.87 169.04 264.95 172.37 246 172.37"/><polyline class="cls-6" points="672.42 215.4 609.81 215.4 565.82 215.4 522.3 215.4 478.79 215.4 445.76 213.89 396.98 222.68 373.22 225.64 332.53 222.06 326.52 221.54 305.14 211.5 291.48 210.96 264.88 215.4 246 215.4"/><polyline class="cls-6" points="672.42 258.43 609.93 258.43 565.82 258.43 522.3 258.43 478.79 258.43 445.76 256.92 396.94 264.25 373.17 266.16 332.63 262.54 326.65 262.02 304.7 253.55 291.09 252.88 264.8 258.43 246 258.43"/><polyline class="cls-6" points="672.42 301.46 610.06 301.46 565.82 301.46 522.3 301.46 478.79 301.46 445.76 299.94 396.89 305.83 373.11 306.69 332.74 303.02 326.77 302.5 304.26 295.6 290.7 294.8 264.72 301.46 246 301.46"/><polyline class="cls-6" points="672.42 344.48 610.18 344.48 565.82 344.48 522.3 344.48 478.79 344.48 445.76 342.97 396.85 347.4 373.06 347.22 332.84 343.5 326.9 342.98 303.81 337.66 290.31 336.72 264.65 344.48 246 344.48"/><polyline class="cls-6" points="672.42 387.51 610.3 387.51 565.82 387.51 522.3 387.51 478.79 387.51 445.76 386 396.81 388.97 373 387.75 332.94 383.99 327.03 383.46 303.37 379.71 289.92 378.64 264.57 387.51 246 387.51"/><polyline class="cls-6" points="672.42 430.54 610.42 430.54 565.82 430.54 522.3 430.54 478.79 430.54 445.76 429.03 396.76 430.54 333.05 424.47 289.53 420.56 264.49 430.54 246 430.54"/></g></g></g><path class="cls-2" d="M662.59,235.59l-.3-.77c5.78-21.48,14.87-88.39-4.13-128.05-19-39.65-63.61-71.87-112.35-90.87-48.74-19-104.92-9.09-104.92-9.09,0,0-63.61,18.17-96.66,58.65-32.08,39.3-33.8,55.24-36.89,58.4,.07,.02,.13,.03,.2,.05l-.48,.2c.1-.07,.19-.16,.28-.25-2.98-.85-5.94-1.2-7.43-.46-3.05,1.53-8.14,16.78-7.63,23.39,.51,6.61,3.05,10.68,4.58,9.66,0,0,2.12,7.15,2.41,9.17,.29,2.02,1.73,11.56,1.73,11.56l3.47,15.03s-2.31,3.76-3.76,6.94c-1.45,3.18-5.2,17.34-4.05,25.44,1.16,8.09,1.16,10.12,1.16,10.12l-.06-.24c-3.36,4.3-6,8.92-6.3,12.38-.36,4.16-1.4,12.17,.85,19.64l-1.3,1.03s-8.02,37.23-10.31,58.42c-2.29,21.19-2.86,35.51,0,62.43,2.86,26.92,5.15,46.96,7.45,60.71,2.29,13.75,11.45,28.06,38.95,29.78,2.71,.17,5.65,.33,8.71,.49,28.01,1.41,69.63,1.59,105.26-10.8,39.52-13.75,116.26-64.15,118.55-72.16,2.29-8.02,17.18-46.39,17.18-46.39l6.17-5.94c1.91,5.34,9.15,11.82,23.22,11.86,.04,0,.08,0,.12,0,14.16,0,19.14-6.89,29.47-17.61,10.33-10.72,20.67-33.3,25.64-44.4,4.98-11.1,10.72-33.68,4.59-51.67-.9-2.64-2.06-4.84-3.43-6.66Z"/></g><rect class="cls-25" x="150.45" y="553.67" width="24.36" height="24.36"/><rect class="cls-25" x="255.37" y="544.3" width="132.85" height="8.5"/><rect class="cls-23" x="648.48" y="92.4" width="38.19" height="38.19"/><rect class="cls-21" x="727.17" y="570.17" width="38.19" height="38.19"/><g><path class="cls-21" d="M741.76,140.46v12.91h-127.39c-18.77-5.23-39.04-10.19-56.51-12.91h183.9Z"/><path class="cls-25" d="M511.62,140.46h46.24c17.47,2.72,37.74,7.68,56.51,12.91h-102.75v-12.91Z"/><path class="cls-20" d="M574.95,724.17h-60.41v-7.93c25.54-7.97,46.34-21.09,60.41-31.82v39.75Z"/><path class="cls-23" d="M574.95,663.75v20.66c-14.07,10.73-34.88,23.85-60.41,31.82v-52.48h60.41Z"/><path class="cls-24" d="M638.76,491.3v8.6h-113.41c1.78-2.64,3.41-5.54,4.66-8.6h108.75Z"/><path class="cls-20" d="M510.79,491.3h19.22c-1.24,3.06-2.88,5.96-4.66,8.6h-14.57v-8.6Z"/></g><rect class="cls-21" x="392.19" y="173.23" width="92.14" height="44.63"/><path class="cls-4" d="M404.94,172.45s9.93-3.47,25.48,.99c15.55,4.47,41.2,30.28,41.2,30.28"/><path class="cls-4" d="M455.9,198.76c-1.16-1.52-4.35-4.56-8.46-7.93,0,.15,.02,.3,.02,.45,0,5.97-1.97,11.42-5.21,15.63,7.46-.54,8.58-1.2,11.67-1.54,4.47-.5,5.13-2.48,1.99-6.62Z"/><path class="cls-4" d="M408.32,176.7c-1.44,1-2.84,2.5-4.37,4.68-5.46,7.78-5.13,13.9-7.28,15.06,0,0-4.8,4.14-2.81,4.8s4.14-.83,5.29-.33c.66,.28,2.96,2.56,8.77,4.38-2.55-3.95-4.07-8.77-4.07-14,0-5.49,1.67-10.53,4.46-14.58Z"/><path class="cls-16" d="M447.43,190.83c-7.06-5.78-16.83-12.51-23.63-14.08-7.73-1.78-11.78-2.61-15.48-.05-2.79,4.05-4.46,9.09-4.46,14.58s1.52,10.05,4.07,14c4.36,1.36,10.7,2.46,19.85,2.24,6.58-.15,11.15-.37,14.47-.61,3.24-4.21,5.21-9.66,5.21-15.63,0-.15-.02-.3-.02-.45Z"/><path class="cls-18" d="M414.1,175.76s-7.32,4.01-5.45,18.32c1.21,9.25,8.22,11.25,10.81,10.54,10.04-2.74,12.51-22.95,4.34-27.87,0,0-9.37-2-9.7-1Z"/><rect class="cls-23" x="411.01" y="179.86" width="8.47" height="14.78"/><path class="cls-13" d="M398.49,130.1c-4.96-.33-11.08-.17-14.23,4.14,0,0-2.81,10.42,.33,16.38,1.04,1.96,5.29,3.64,18.03,3.81,.64,0,1.25,.01,1.85,.01v-23.5c-2.6-.43-4.73-.75-5.98-.83Z"/><path class="cls-13" d="M454.41,143.5c-3.82-3.68-13.69-6.57-20.93-7.84v22.67c9.99,3.61,25.3,9.28,30.53,12.8,.68,.46,1.41,.92,2.17,1.4v-15.05c-5.21-6.51-9.99-12.27-11.76-13.98Z"/><path class="cls-13" d="M429.26,127.68c-5.2-.49-17.07-2.84-24.79-4.13v23.5c11.33,.03,15.64-1.06,20.99,.98,1.49,.57,4.42,1.61,8.02,2.91v-22.67c-1.55-.27-2.99-.48-4.21-.59Z"/><path class="cls-13" d="M483.86,173.67c.31-.51-9.25-13.03-17.69-23.58v15.05c7.18,4.48,17.24,9.28,17.69,8.53Z"/><g class="cls-27"><g><g><path class="cls-6" d="M2.71,246.6s81.78,459.1,0,765.74"/><path class="cls-6" d="M99.06,246.6s63.64,449.1,0,765.74"/><path class="cls-6" d="M195.41,246.6s45.5,439.11,0,765.74"/><path class="cls-6" d="M291.77,246.6s27.35,429.11,0,765.74"/><path class="cls-6" d="M388.12,246.6s9.21,419.11,0,765.74"/><path class="cls-6" d="M484.48,246.6s-8.93,409.12,0,765.74"/><path class="cls-6" d="M580.83,246.6s-27.08,399.12,0,765.74"/><path class="cls-6" d="M677.18,246.6s-45.22,389.13,0,765.74"/><path class="cls-6" d="M773.54,246.6s-63.36,379.13,0,765.74"/><path class="cls-6" d="M869.89,246.6s-81.51,369.14,0,765.74"/></g><g><polyline class="cls-6" points="905.05 281.77 734.51 281.77 656.37 281.77 578.23 281.77 500.1 281.77 423.91 281.77 347.73 281.77 269.59 281.77 191.46 281.77 -24.55 281.77"/><polyline class="cls-6" points="905.05 359.03 734.72 359.03 656.37 359.03 578.23 359.03 500.1 359.03 423.91 359.03 347.51 359.03 269.59 359.03 191.46 359.03 115.24 359.03 -24.55 359.03"/><polyline class="cls-6" points="905.05 436.3 734.94 436.3 656.37 436.3 578.23 436.3 500.1 436.3 423.91 436.3 347.3 436.3 269.59 436.3 191.46 436.3 115.24 436.3 -24.55 436.3"/><polyline class="cls-6" points="905.05 513.57 735.16 513.57 656.37 513.57 578.23 513.57 500.1 513.57 423.91 513.57 347.08 513.57 269.59 513.57 191.46 513.57 115.25 513.57 -24.55 513.57"/><polyline class="cls-6" points="905.05 590.84 735.37 590.84 656.37 590.84 578.23 590.84 500.1 590.84 423.91 590.84 346.86 590.84 269.59 590.84 191.46 590.84 115.25 590.84 -24.55 590.84"/><polyline class="cls-6" points="905.05 668.11 735.59 668.11 656.37 668.11 578.23 668.11 500.1 668.11 423.91 668.11 346.64 668.11 269.59 668.11 191.46 668.11 115.26 668.11 -24.55 668.11"/><polyline class="cls-6" points="905.05 745.38 735.81 745.38 656.37 745.38 578.23 745.38 500.1 745.38 423.91 745.38 346.43 745.38 269.59 745.38 191.46 745.38 115.26 745.38 -24.55 745.38"/><polyline class="cls-6" points="905.05 822.64 736.03 822.64 656.37 822.64 578.23 822.64 500.1 822.64 423.91 822.64 346.21 822.64 269.59 822.64 191.46 822.64 115.26 822.64 -24.55 822.64"/></g></g></g><g><rect class="cls-22" x="758.69" y="664.72" width="179.59" height="15.06"/><g><line class="cls-9" x1="782.35" y1="664.72" x2="782.35" y2="680.85"/><line class="cls-10" x1="789.88" y1="664.72" x2="789.88" y2="680.85"/></g><g><line class="cls-9" x1="816.77" y1="664.72" x2="816.77" y2="680.85"/><line class="cls-10" x1="824.29" y1="664.72" x2="824.29" y2="680.85"/></g><g><line class="cls-9" x1="858.71" y1="664.72" x2="858.71" y2="680.85"/><line class="cls-10" x1="866.24" y1="664.72" x2="866.24" y2="680.85"/></g><g><line class="cls-9" x1="903.88" y1="664.72" x2="903.88" y2="680.85"/><line class="cls-10" x1="911.4" y1="664.72" x2="911.4" y2="680.85"/></g></g></g></g></svg>