<?xml version="1.0" encoding="utf-8"?>
<!-- Generator: Adobe Illustrator 27.1.1, SVG Export Plug-In . SVG Version: 6.00 Build 0)  -->
<svg version="1.1" id="Layer_2_00000026143954432351872310000007228439009425148850_"
	 xmlns="http://www.w3.org/2000/svg" xmlns:xlink="http://www.w3.org/1999/xlink" x="0px" y="0px" viewBox="0 0 927.7 866.5"
	 style="enable-background:new 0 0 927.7 866.5;" xml:space="preserve">
<style type="text/css">
	.st0{fill:none;stroke:#92FF00;stroke-width:3;stroke-linecap:round;stroke-linejoin:round;stroke-miterlimit:10;}
	.st1{clip-path:url(#SVGID_00000128458156967889442210000009034241421327850650_);}
	.st2{fill:none;stroke:#091222;stroke-miterlimit:10;}
	.st3{clip-path:url(#SVGID_00000000941230456941331520000016388077443297480585_);}
	.st4{fill:#92FF00;}
	.st5{fill:#A9ACB2;}
	.st6{fill:#FFFFFF;stroke:#091222;stroke-width:2;stroke-miterlimit:10;}
	.st7{fill:none;stroke:#091222;stroke-width:2;stroke-linecap:round;stroke-linejoin:round;stroke-miterlimit:10;}
	.st8{fill:#92FF00;stroke:#091222;stroke-width:2;stroke-linecap:round;stroke-linejoin:round;stroke-miterlimit:10;}
	.st9{fill:#091222;}
	.st10{fill:none;stroke:#091222;stroke-width:3;stroke-linecap:round;stroke-linejoin:round;stroke-miterlimit:10;}
	.st11{fill:none;stroke:#091222;stroke-width:3;stroke-miterlimit:10;}
	.st12{fill:#091222;stroke:#091222;stroke-width:3;stroke-linecap:round;stroke-linejoin:round;stroke-miterlimit:10;}
	.st13{fill:none;stroke:#091222;stroke-width:0.3545;stroke-miterlimit:10;}
	.st14{fill:#5739A4;stroke:#091222;stroke-width:3;stroke-linecap:round;stroke-linejoin:round;stroke-miterlimit:10;}
	.st15{fill:#BEB2DC;stroke:#091222;stroke-width:3;stroke-linecap:round;stroke-linejoin:round;stroke-miterlimit:10;}
	.st16{fill:#091222;stroke:#091222;stroke-width:0.3545;stroke-miterlimit:10;}
	.st17{clip-path:url(#SVGID_00000164485234759139425260000006614514056527177374_);}
	.st18{fill:#444B57;stroke:#091222;stroke-width:3;stroke-linecap:round;stroke-linejoin:round;stroke-miterlimit:10;}
	.st19{fill:#FFFFFF;stroke:#091222;stroke-miterlimit:10;}
	.st20{fill:#5739A4;}
	.st21{fill:#FF008A;}
	.st22{fill:#E3DED7;stroke:#091222;stroke-width:3;stroke-linecap:round;stroke-linejoin:round;stroke-miterlimit:10;}
	.st23{fill:#E3DED7;}
	.st24{fill:none;stroke:#5739A4;stroke-miterlimit:10;}
	.st25{fill:none;stroke:#FF008A;stroke-miterlimit:10;}
	.st26{fill:none;stroke:#5739A4;stroke-width:0.3945;stroke-miterlimit:10;}
	.st27{fill:none;stroke:#FF008A;stroke-width:0.3945;stroke-miterlimit:10;}
	.st28{fill:#2B1D52;}
</style>
<g>
	<path class="st0" d="M835.7,611.7c-23.8-48.3-86.1-90.4-120.6-109.1c-22.1-12-84.4-51.1-89.9-54.6c0-0.7,0-1.1,0-1.1l-6.3,1.7
		c6.4-1.9,10.9-4.2,13.8-5.9c5.6-3,9.8-6.5,12.9-10c5.8-6,9.5-13.6,11.3-28c1.8-15.1,2-28,2-37.4c1.2-29.5,0.4-53.9,0.1-47.6
		c0,0,0-18.6-2.1-28.1c-2.1-9.5-8.5-24.4-8.5-24.4c1.6-4.8,8.5-15.4,7.4-20.2c-1.1-4.8-18.6-26.5-21.8-29.7
		c-3.2-3.2-2.7-5.3-2.7-5.3c0.4-0.9,1-2.9,1.3-4c1.4-3.1,4-8.2,4-8.2l2.7-6.4c1.1-1.6,2.9-5.9,4.3-11.5c0,0.3,0,0.4,0,0.4
		s4-15.5,1.3-25.7c-0.9-4.1-2.5-7.9-5.2-11c-12.2-14.3-21.8-51.5-22.8-55.2c-1.1-3.7-11.1-31.8-46.7-61.5
		C534.8-0.7,489.2,1.2,489.2,1.2s-2.5-0.2-11.9,0.4c-0.8,0.1-1.6,0.1-2.6,0.3c-17.8,1.7-72.4,9-111.9,36.1
		c-47.7,32.9-69,70.6-73.2,111.4c-3.5,33.4,0.3,64.5,2.3,73.6l4.9-1c-1.8,0.6-2.9,1.2-2.9,1.2s-19,6-13.8,34.6
		c5.2,28.6,22.9,63.9,54.5,80.5c0,0,15,33.8,19.3,55.6c-0.1-0.3-0.2-0.5-0.2-0.5s-17.5-1.7-23.6,4.6c-6.5,3.5-20.2,29.7-25.6,40.4
		c-2.6,3.5-8.3,7-16.3,10.4l-3.7,1.6c-22.9,9.3-60.3,18.8-92.7,30.8C141.4,500,119.3,518.4,89.1,553C25.2,626,4.2,784.7,4.2,784.7
		c49.5,30.7,245.9,75.8,499.2,77.7c253.2,1.9,388.8-77.7,388.8-77.7C889.6,759.6,859.5,659.9,835.7,611.7z"/>
	<g>
		<defs>
			<path id="SVGID_1_" d="M592,452.1l-0.9-0.4c-26.2-3.1-56.5-11.2-83-17.4c-31.9-7.4-95.1-34.5-109.4-47.3
				c-14.3-12.8-20.2-51.5-18.1-77c2.1-25.5-2.7-52.6-9.6-68c-6.9-15.4-31.9-14.3-31.9-14.3c-14.9-14.9-34-5.3-34-5.3
				s-19,6.1-13.8,34.7c5.2,28.6,22.9,64,54.6,80.6c0,0,18.2,41.1,20.3,61.9c2.1,20.8,4.7,30.2-16.6,43.7c0,0,6.3,19.1,20.8,34.3
				c3.2,3.4,6.9,6.6,11,9.4l19.8,25.5l28.6,42.7c0,0,7.3,4.2,8.3,11.4c1,7.3,2.1,15.1,2.1,15.1s48.4,3.6,72.8-2.6
				c0,0,1-15.1,6.8-20.3c5.7-5.2,16.1-30.2,23.9-35.9c7.8-5.7,17.2-15.6,17.2-18.2c0-2.6-3.6-10.4,1.6-15.6
				C567.6,483.8,592,452.1,592,452.1z"/>
		</defs>
		<use xlink:href="#SVGID_1_"  style="overflow:visible;fill:#E3DED7;"/>
		<clipPath id="SVGID_00000090999440592230162110000015650487543593858949_">
			<use xlink:href="#SVGID_1_"  style="overflow:visible;"/>
		</clipPath>
		<g style="clip-path:url(#SVGID_00000090999440592230162110000015650487543593858949_);">
			<g>
				<line class="st2" x1="287.3" y1="163.7" x2="287.3" y2="592"/>
				<line class="st2" x1="330.5" y1="163.7" x2="330.5" y2="592"/>
				<line class="st2" x1="373.7" y1="163.7" x2="373.7" y2="592"/>
				<line class="st2" x1="416.9" y1="163.7" x2="416.9" y2="592"/>
				<line class="st2" x1="460.2" y1="163.7" x2="460.2" y2="592"/>
				<line class="st2" x1="503.4" y1="163.7" x2="503.4" y2="592"/>
				<line class="st2" x1="546.6" y1="163.7" x2="546.6" y2="592"/>
				<line class="st2" x1="589.8" y1="163.7" x2="589.8" y2="592"/>
				<line class="st2" x1="633.1" y1="163.7" x2="633.1" y2="592"/>
				<line class="st2" x1="676.3" y1="163.7" x2="676.3" y2="592"/>
			</g>
			<g>
				<polyline class="st2" points="696,183.3 632.6,183.3 588.9,183.3 545.1,183.3 501.4,183.3 458.8,183.3 416.2,183.3 372.5,183.3 
					328.8,183.3 267.6,183.3 				"/>
				<polyline class="st2" points="696,226.6 632.7,226.6 588.9,226.6 545.1,226.6 501.4,226.6 458.8,226.6 416.1,226.6 372.5,226.6 
					328.8,226.6 286.1,226.6 267.6,226.6 				"/>
				<polyline class="st2" points="696,269.8 632.8,269.8 588.9,269.8 545.1,269.8 501.4,269.8 458.8,269.8 416,269.8 372.5,269.8 
					328.8,269.8 286.1,269.8 267.6,269.8 				"/>
				<polyline class="st2" points="696,313 632.9,313 588.9,313 545.1,313 501.4,313 458.8,313 415.8,313 372.5,313 328.8,313 
					286.1,313 267.6,313 				"/>
				<polyline class="st2" points="696,356.2 633.1,356.2 588.9,356.2 545.1,356.2 501.4,356.2 458.8,356.2 415.7,356.2 372.5,356.2 
					328.8,356.2 286.1,356.2 267.6,356.2 				"/>
				<polyline class="st2" points="696,399.5 633.2,399.5 588.9,399.5 545.1,399.5 501.4,399.5 458.8,399.5 415.6,399.5 372.5,399.5 
					328.8,399.5 286.1,399.5 267.6,399.5 				"/>
				<polyline class="st2" points="696,442.7 633.3,442.7 588.9,442.7 545.1,442.7 501.4,442.7 458.8,442.7 415.5,442.7 372.5,442.7 
					328.8,442.7 286.1,442.7 267.6,442.7 				"/>
				<polyline class="st2" points="696,485.9 633.4,485.9 588.9,485.9 545.1,485.9 501.4,485.9 458.8,485.9 415.4,485.9 372.5,485.9 
					328.8,485.9 286.2,485.9 267.6,485.9 				"/>
				<polyline class="st2" points="696,529.1 633.5,529.1 588.9,529.1 545.1,529.1 501.4,529.1 458.8,529.1 415.2,529.1 372.5,529.1 
					328.8,529.1 286.2,529.1 267.6,529.1 				"/>
				<polyline class="st2" points="696,572.4 633.7,572.4 588.9,572.4 545.1,572.4 501.4,572.4 458.8,572.4 415.1,572.4 372.5,572.4 
					328.8,572.4 286.2,572.4 267.6,572.4 				"/>
			</g>
		</g>
		<use xlink:href="#SVGID_1_"  style="overflow:visible;fill:none;stroke:#091222;stroke-width:3;stroke-miterlimit:10;"/>
	</g>
	<g>
		<defs>
			<path id="SVGID_00000116212375387163098180000009999399143803079342_" d="M409.9,33.2c-20.7,29.2,12.2,69.6,25,78.6
				c12.8,9,12.8,29.8,3.7,34c-9,4.3-25.5,13.8-31.3,32.9c-5.8,19.1-40.7,53.9-31,79.6c13.2,34.9-12.4,104.7,32.6,136.5
				c13.7,9.7,97.5,47.6,186.9,57.4c57-0.3,67.7-25.9,70.8-37c6.3-42.6,4.7-105.8,4.2-96.2c0,0,0-18.6-2.1-28.2
				c-2.1-9.6-8.5-24.4-8.5-24.4c1.6-4.8,8.5-15.4,7.4-20.2c-1.1-4.8-18.6-26.6-21.8-29.8c-3.2-3.2-2.7-5.3-2.7-5.3s0,0,0.5-2.1
				c0.5-2.1,4.8-10.1,4.8-10.1l2.7-6.4c3.2-4.8,12.8-33.5,0.5-47.8c-12.2-14.3-21.8-51.5-22.8-55.3c-1.1-3.7-11.2-31.9-46.8-61.6
				C546.4-1.9,500.8,0,500.8,0s-2.5-0.2-11.9,0.4c-5.8,0.4-18.5,3.1-27.3,4.6C443,9.5,420.8,17.8,409.9,33.2z"/>
		</defs>
		<use xlink:href="#SVGID_00000116212375387163098180000009999399143803079342_"  style="overflow:visible;fill:#E3DED7;"/>
		<clipPath id="SVGID_00000035493162931705946600000004938794720898867371_">
			<use xlink:href="#SVGID_00000116212375387163098180000009999399143803079342_"  style="overflow:visible;"/>
		</clipPath>
		<g style="clip-path:url(#SVGID_00000035493162931705946600000004938794720898867371_);">
			<rect x="520.7" y="168.1" class="st4" width="40.3" height="63"/>
			<rect x="481.3" y="104.3" class="st4" width="40.3" height="63"/>
			<path class="st5" d="M670.7,352.5c0.5-6.9,0-33.5,0-33.5S658,290.3,644.2,284c0,0-6.4,3.7-11.7,1.6c-5.3-2.1-16.5-3.7-18.1-2.7
				c-1.6,1.1-22.8,17.5-31.9,22.3s-29.2,18.6-27.6,32.4c1.6,13.8-4.3,35.6-4.3,35.6s-27.1-26.6-63.8-40.4
				c-36.7-13.8-70.7-26-77.6-52.6c-2.3-8.7-3.9-20.6-4.9-33.3l-29.6,5.5c4.7,15.7,7.5,37.1,5.7,57.6c-2.1,25.5,3.7,64.3,18.1,77
				c14.3,12.8,77.6,39.8,109.4,47.3c26.5,6.2,56.8,14.2,83,17.4c5.3,0.6,6.8,0.3,11.7,0.4c29.2,1.1,47-4.5,51.2-9.3
				s15.1-17,15.1-39.3C669.2,381.2,670.2,359.4,670.7,352.5z M659.2,386.7c0,0-7.4-7.4-8.5-10.6c-1.1-3.2,2.1-22.2,0-23.3
				c-2.1-1.1-12.2,1.6-22.2,2.6c-10.1,1.1-18,1.6-24.3,5.8c-6.4,4.2,4.2,25.4,4.2,25.4s-4.8,1.6-11.6,1.1
				c-6.9-0.5-18-10.6-20.1-19.1c-2.1-8.5,2.2-25.1,2.2-25.1s11,2.3,14.2,2.3c3.2,0,23.3-1.1,30.2-1.6s21.4-0.7,21.4-0.7
				c8.6-0.7,7.5-6.5,7.5-6.5s2.9,4.1,4.5,6.7c1.6,2.6,7.9,15.9,7.9,25.4C664.5,378.8,659.2,386.7,659.2,386.7z"/>
			<g>
				<line class="st2" x1="252.7" y1="-16.2" x2="309.5" y2="460.3"/>
				<line class="st2" x1="295.9" y1="-16.2" x2="352.7" y2="460.3"/>
				<line class="st2" x1="339.2" y1="-16.2" x2="395.9" y2="460.3"/>
				<line class="st2" x1="382.4" y1="-16.2" x2="439.1" y2="460.3"/>
				<line class="st2" x1="425.6" y1="-16.2" x2="482.4" y2="460.3"/>
				<line class="st2" x1="468.8" y1="-16.2" x2="525.6" y2="460.3"/>
				<line class="st2" x1="512.1" y1="-16.2" x2="568.8" y2="460.3"/>
				<line class="st2" x1="555.3" y1="-16.2" x2="612" y2="460.3"/>
				<line class="st2" x1="598.5" y1="-16.2" x2="655.3" y2="460.3"/>
				<line class="st2" x1="641.7" y1="-16.2" x2="698.5" y2="460.3"/>
			</g>
			<g>
				<polyline class="st2" points="691.3,-2.1 628.9,-8.9 585.2,-9.1 541.5,-1.1 497.8,14.6 455.2,14.6 412.6,14.6 368.8,14.6 
					325.1,14.6 263.9,-1.1 				"/>
				<polyline class="st2" points="691.3,42.2 629,35.3 585.2,35.2 541.5,43.2 497.8,58.9 455.2,58.9 412.4,58.9 368.8,58.9 
					325.1,58.9 281.7,47.2 263.9,43.2 				"/>
				<polyline class="st2" points="691.3,86.4 629.2,79.5 585.2,79.4 541.5,87.4 497.8,103.1 455.2,103.1 412.3,103.1 368.8,103.1 
					325.1,103.1 281.8,91 263.9,87.4 				"/>
				<polyline class="st2" points="691.3,130.7 629.3,123.8 585.2,123.6 541.5,131.7 497.8,147.4 455.2,147.4 412.2,147.4 
					368.8,147.4 325.1,147.4 281.9,134.7 263.9,131.7 				"/>
				<polyline class="st2" points="691.3,174.9 629.4,168 585.2,167.9 541.5,175.9 497.8,191.6 455.2,191.6 412.1,191.6 368.8,191.6 
					325.1,191.6 282,178.4 263.9,175.9 				"/>
				<polyline class="st2" points="691.3,219.1 629.5,212.3 585.2,212.1 541.5,220.1 497.8,235.8 455.2,235.8 411.9,235.8 
					368.8,235.8 325.1,235.8 282.1,222.2 263.9,220.1 				"/>
				<polyline class="st2" points="691.3,263.4 629.6,256.5 585.2,256.4 541.5,264.4 497.8,280.1 455.2,280.1 411.8,280.1 
					368.8,280.1 325.1,280.1 282.2,265.9 263.9,264.4 				"/>
				<polyline class="st2" points="691.3,307.6 629.8,300.7 585.2,300.6 541.5,308.6 497.8,324.3 455.2,324.3 411.7,324.3 
					368.8,324.3 325.1,324.3 282.3,309.6 263.9,308.6 				"/>
				<polyline class="st2" points="691.3,351.9 629.9,345 585.2,344.8 541.5,352.9 497.8,368.6 455.2,368.6 411.6,368.6 368.8,368.6 
					325.1,368.6 282.4,353.4 263.9,352.9 				"/>
				<polyline class="st2" points="691.3,396.1 630,389.2 585.2,389.1 541.5,397.1 497.8,412.8 455.2,412.8 411.5,412.8 368.8,412.8 
					325.1,412.8 282.5,397.1 263.9,397.1 				"/>
			</g>
		</g>
		
			<use xlink:href="#SVGID_00000116212375387163098180000009999399143803079342_"  style="overflow:visible;fill:none;stroke:#091222;stroke-width:3;stroke-miterlimit:10;"/>
	</g>
	<path class="st6" d="M511.3,205.1c0,0,19.9-10.2,28.3-13.3c8.4-3.1,9.4-3.5,11.7-3.3c2.3,0.2,5.3,2.3,6.3,5.9
		c1,3.7,6.1,6.3,5.5,7.4c-0.6,1-6.8,1.4-8.4,2.4s-11.6,2.1-24.1,1.9C518,205.9,511.3,205.1,511.3,205.1z"/>
	<path class="st7" d="M498.2,208.1c0,0,13.7-12.9,34.2-20.3c20.5-7.4,25.4-6.3,28.3,0.8"/>
	<path class="st8" d="M536.8,193.1c0,0-2,8.8,1.9,12.7c0,0,6.6-0.1,10.5-0.7l5.2-1.5c0,0,0.6-3.5,0-7.6c-0.6-4.1-2.9-7.2-2.9-7.2
		s-3.3-0.1-5.6,0.8C544.9,190,536.8,193.1,536.8,193.1z"/>
	<path class="st8" d="M628.8,196.9c0,0,7-3.5,11.7-2.5c4.7,1,4.1,11.9,4.1,11.9s-0.9,3.6-1.5,4.9s0.7,2.7,0.7,2.7L628.8,196.9z"/>
	<path class="st7" d="M623.9,190.4c0,0,16-8.3,23-2.8"/>
	<path class="st9" d="M634.5,154.3c0,0-3.5,10-0.6,14.1s9.6,3.7,15.2,3.5s6.3,9.6,6.3,9.6s4.5-17.4,0.8-27.4c0,0-5.1-1.2-11.3-1.4
		C638.8,152.4,636,152.4,634.5,154.3z"/>
	<path class="st10" d="M584.4,253.2c0,0-13.5,19.7-2,27.6c11.5,8,25.2,2,25.6,1.2"/>
	<path class="st9" d="M641.1,267.5c0,0-13.3-3.3-21.1,1.2s-12.3,10-10.6,10.4c1.6,0.4,10.2-2.9,15.2-5.5c4.9-2.7,6.8-1.4,9.4-1.6
		C636.6,271.8,644,272,641.1,267.5z"/>
	<path class="st9" d="M654.2,269.8c0,0-11.3,7.4-11.9,9c-0.6,1.6,5.5,0,8.4-2.9C653.6,273,656,270.6,654.2,269.8z"/>
	<path class="st10" d="M618.6,177.6c0,0-0.6,5.5,1.2,7.8s9,11.5,9,11.5l14.9,17"/>
	<path class="st11" d="M325.7,238.8c0,0-18.2-7.3-22.9,0.5c-4.7,7.8,0.5,54.1,26,70.2"/>
	<path class="st11" d="M356.4,263.2c0,0-6.2,13-3.1,19.2c3.1,6.2,13.5,16.6,9.4,19.2c-4.2,2.6-12,0-14.6-4.7
		c-2.6-4.7-13,2.6-15.6,1.6c-2.6-1-10.9-6.2-10.9-10.4"/>
	<path class="st12" d="M365.1,392.7c0,0-24.5-2.4-25.6,8.9c-1.1,11.2,10.1,41.6,10.1,41.6s10.8-3.7,16.7-18.5
		S365.1,392.7,365.1,392.7z"/>
	<path class="st13" d="M342.1,397.1C342.1,397.1,342.1,397.1,342.1,397.1C342.1,397.1,342.1,397.1,342.1,397.1z"/>
	<path class="st14" d="M429.7,555.1l-28.6-42.7l-19.8-25.5l7.3,9.8c0,0-14.2-1.3-12.9,11.6c1.3,12.9,11,29.8,9.1,44.7
		c5.8,7.8,55.3,28.6,55.3,28.6s-1-7.8-2.1-15.1C437,559.2,429.7,555.1,429.7,555.1z"/>
	<path class="st13" d="M370.4,477.6l-0.1,0c3.4,3.7,7.1,6.9,11.1,9.3C377.3,484.2,373.6,481,370.4,477.6z"/>
	<path class="st15" d="M388.7,496.7l-7.3-9.8c-4-2.4-7.7-5.7-11.1-9.3c-13-14.2-20.6-34.4-20.6-34.4c-17.4-41.7-7.9-46-7.5-46.2
		c-7.8,2.6-28.5,45.3-28.5,45.3s-1.9,44,13.6,68.6c15.5,24.6,57.6,42.1,57.6,42.1c1.9-14.9-7.8-31.7-9.1-44.7
		C374.5,495.4,388.7,496.7,388.7,496.7z"/>
	<path class="st14" d="M562.4,489c-5.2,5.2-1.6,13-1.6,15.6c0,2.6-9.4,12.5-17.2,18.2c-7.8,5.7-18.2,30.7-23.9,35.9
		C514,563.9,513,579,513,579c26.5-6.4,61.5-29.2,61.5-29.2s-1.9-38.2-3.2-48.5C569.9,490.9,562.4,489,562.4,489z"/>
	<path class="st15" d="M619.6,450.3c0,0,1.4,22.4-7.6,43.8c-9.1,21.4-23.9,45.3-37.5,55.7l-3.2-48.5c0,0-3.4-11.5-8.8-12.2
		l29.7-36.9C592,452.1,609.4,452.3,619.6,450.3z"/>
	<path class="st16" d="M407.2,178.8c5.8-19.1,22.3-28.7,31.3-32.9c9-4.3,9-25-3.7-34c-12.8-9-45.7-49.4-25-78.6
		C420.8,17.8,443,9.5,461.6,5.1c16.8-4,30.6-4.8,30.6-4.8S422.1,4,374.3,36.9c-47.8,32.9-69.1,70.7-73.3,111.6
		c-3.5,33.5,0.3,64.6,2.3,73.7l4.9-1.1c5.9-2,19.7-4.9,31.1,6.5c0,0,25-1.1,31.9,14.3c1.4,3.1,2.6,6.6,3.8,10.4l29.6-5.5
		C402.5,221,403.3,191.6,407.2,178.8z"/>
	<path class="st11" d="M346,337.6c0,0,18.6,8.4,25.1-8.1"/>
	<g>
		<path class="st0" d="M563.9,345.6c0,0,27.8-12.8,37.6-17.7s13.1,4.3,18.3,2.6c5.2-1.6,6.2-3.9,10.5-3.6c4.3,0.3,4.6,8.5,6.2,9.5
			s1.3,2,1.3,2s-2.9,0.7-13.7-1s-30.4,0.7-43.8,4.6C566.8,345.9,563.9,345.6,563.9,345.6z"/>
		<path class="st0" d="M569.1,346.5c0,0,8.2,2.3,29.4,0.3c21.3-2,24.9-2.5,31.1-1.3c4.6,0.3,9.8-4.9,7.5-6.5
			c-4.7-1.9-18.3-2.9-27.1-2c-8.8,1-46.1,8.5-46.1,8.5L569.1,346.5z"/>
	</g>
	<g>
		<defs>
			<path id="SVGID_00000047756561482632962510000016639748760914432932_" d="M316.3,437.3c0,0-27.8,102.3,62,141.2
				c0,0,51.1,27.8,109.5,25.9s102.9-30.1,116.7-43.2c13.8-13.2,30.2-84.5,32.1-114c0,0,67.3,42.4,90.4,54.9
				c34.6,18.7,96.9,60.9,120.8,109.2s54,148.1,56.5,173.2c0,0-135.7,79.7-389.3,77.8c-253.6-1.9-450.3-47-499.8-77.8
				c0,0,21-158.9,85-232c30.3-34.6,52.3-53,102.9-71.8C250,463.2,307.5,451.1,316.3,437.3z"/>
		</defs>
		<use xlink:href="#SVGID_00000047756561482632962510000016639748760914432932_"  style="overflow:visible;fill:#444B57;"/>
		<clipPath id="SVGID_00000175290309761068131610000006295148556594371478_">
			<use xlink:href="#SVGID_00000047756561482632962510000016639748760914432932_"  style="overflow:visible;"/>
		</clipPath>
		<g style="clip-path:url(#SVGID_00000175290309761068131610000006295148556594371478_);">
			<g>
				<path class="st2" d="M53.2,184.2c104.4,166.2,0,916.7,0,916.7"/>
				<path class="st2" d="M145.7,184.2c74.2,174.7,0,916.7,0,916.7"/>
				<path class="st2" d="M238.2,184.2c43.9,183.2,0,916.7,0,916.7"/>
				<path class="st2" d="M330.7,184.2c13.7,191.7,0,916.7,0,916.7"/>
				<path class="st2" d="M423.2,184.2c-16.5,200.2,0,916.7,0,916.7"/>
				<path class="st2" d="M515.7,184.2c-46.8,208.7,0,916.7,0,916.7"/>
				<path class="st2" d="M608.2,184.2c-77,217.2,0,916.7,0,916.7"/>
				<path class="st2" d="M700.7,184.2c-107.2,225.7,0,916.7,0,916.7"/>
				<path class="st2" d="M793.2,184.2c-137.5,234.2,0,916.7,0,916.7"/>
				<path class="st2" d="M885.7,184.2c-167.7,242.7,0,916.7,0,916.7"/>
			</g>
			<g>
				<polyline class="st2" points="927.8,269.8 792.2,269.8 698.6,269.8 605.1,269.8 511.5,269.8 420.3,269.8 329.2,269.8 
					235.6,269.8 142.1,269.8 11.1,269.8 				"/>
				<polyline class="st2" points="927.8,345.5 792.4,345.5 698.6,345.5 605.1,345.5 511.5,345.5 420.3,345.5 328.9,345.5 
					235.6,345.5 142.1,345.5 50.9,345.5 11.1,345.5 				"/>
				<polyline class="st2" points="927.8,421.2 792.7,421.2 698.6,421.2 605.1,421.2 511.5,421.2 420.3,421.2 328.6,421.2 
					235.6,421.2 142.1,421.2 50.9,421.2 11.1,421.2 				"/>
				<polyline class="st2" points="927.8,497 792.9,497 698.6,497 605.1,497 511.5,497 420.3,497 328.4,497 235.6,497 142.1,497 
					50.9,497 11.1,497 				"/>
				<polyline class="st2" points="927.8,572.7 793.2,572.7 698.6,572.7 605.1,572.7 511.5,572.7 420.3,572.7 328.1,572.7 
					235.6,572.7 142.1,572.7 50.9,572.7 11.1,572.7 				"/>
				<polyline class="st2" points="927.8,648.4 793.5,648.4 698.6,648.4 605.1,648.4 511.5,648.4 420.3,648.4 327.9,648.4 
					235.6,648.4 142.1,648.4 50.9,648.4 11.1,648.4 				"/>
				<polyline class="st2" points="927.8,724.2 793.7,724.2 698.6,724.2 605.1,724.2 511.5,724.2 420.3,724.2 327.6,724.2 
					235.6,724.2 142.1,724.2 50.9,724.2 11.1,724.2 				"/>
				<polyline class="st2" points="927.8,799.9 794,799.9 698.6,799.9 605.1,799.9 511.5,799.9 420.3,799.9 327.3,799.9 235.6,799.9 
					142.1,799.9 50.9,799.9 11.1,799.9 				"/>
				<polyline class="st2" points="927.8,875.6 794.2,875.6 698.6,875.6 605.1,875.6 511.5,875.6 420.3,875.6 327.1,875.6 
					235.6,875.6 142.1,875.6 50.9,875.6 11.1,875.6 				"/>
				<polyline class="st2" points="927.8,951.3 794.5,951.3 698.6,951.3 605.1,951.3 511.5,951.3 420.3,951.3 326.8,951.3 
					235.6,951.3 142.1,951.3 50.9,951.3 11.1,951.3 				"/>
			</g>
		</g>
		
			<use xlink:href="#SVGID_00000047756561482632962510000016639748760914432932_"  style="overflow:visible;fill:none;stroke:#091222;stroke-width:3;stroke-miterlimit:10;"/>
	</g>
	<path class="st11" d="M374.9,252.4c4.7,15.7,7.5,37.1,5.7,57.6c-2.1,25.5,1.1,60.9,18.1,76.3c17.5,15.9,85.2,43,117.1,50.4
		c26.5,6.2,38.9,10.8,65.1,13.9c5.3,0.6,10.4,1.1,15.3,1.2c29.2,1.1,44.5-7.1,49.8-10.7c12.5-8.6,19.9-14.9,22.6-37
		c3.1-25.6,1.5-44.7,2-51.7c0.5-6.9-0.1-37.1-0.1-37.1"/>
	<path class="st18" d="M313.6,442.4l-27.2,11.4c0,0-4.4,72.3,69.9,121.8c50.9,33.9,124,53,204.5,20.1
		c81.9-33.4,76.1-149.4,76.1-149.4l-18.5,5.1c0,0,5.6,48.8-44.6,96.1c-14.3,13.5-32,21.9-49.9,27.1c-40.9,12-85,7.3-123.2-11.8
		c-23.9-12-54.5-30.3-64.5-42.4C310.5,488.9,313.6,442.4,313.6,442.4z"/>
	
		<ellipse transform="matrix(0.9581 -0.2863 0.2863 0.9581 -139.4239 138.7082)" class="st19" cx="404.6" cy="546.1" rx="6.5" ry="11.4"/>
	<path class="st9" d="M755.2,518.6c0,0,10.9,15,46.9,16.2c36,1.2,67.4,0.8,44.2,4.3c-23.2,3.5-45.3,2.7-51.2,9.2L755.2,518.6z"/>
	<path class="st9" d="M351.7,425.3c0,0,4.3-7.9-28-8.6c-36-0.7-77.5-0.2-54.2-3.7c23.2-3.5,78.6-6.8,85.6-19.6L351.7,425.3z"/>
	<path class="st9" d="M632.2,99.7c0,0-4.4,6.6,31.6,7.8s71.9,1.7,48.5,3.4c-24.9,1.9-66.1,1.6-72.9,13L632.2,99.7z"/>
	<path class="st9" d="M361.9,81.4c0,0,12.3-7.1-23.8-8.3s-75.5-2.3-52.3-5.8c23.2-3.5,79.9-4.5,86.9-17.3L361.9,81.4z"/>
	<path class="st9" d="M316,188.5c0,0,0.2-6.6-15.6-7.1c-15.9-0.5-115.6-1-105.4-2.6c10.2-1.5,126.9-3.6,130-9.3L316,188.5z"/>
	<rect x="286.5" y="130.1" class="st9" width="21.1" height="21.1"/>
	<g>
		<path class="st20" d="M427.3,5h-17.6v32.4h19.4C427.8,27.9,426.9,16.9,427.3,5z"/>
		<path class="st21" d="M442.1,5h-14.8c-0.4,11.9,0.5,22.9,1.8,32.4h13V5z"/>
	</g>
	<rect x="542.1" y="191.9" class="st9" width="9.8" height="9.8"/>
	<path class="st9" d="M642.8,205.1h-8c-1,0-1.8-0.8-1.8-1.8v-8h9.8V205.1z"/>
	<g>
		<path class="st22" d="M578.9,343.7c0,0,27.8-12.8,37.6-17.7c9.8-4.9,13.1,4.3,18.3,2.6s6.2-3.9,10.5-3.6c4.3,0.3,4.6,8.5,6.2,9.5
			c1.6,1,1.3,2,1.3,2s-2.9,0.7-13.7-1c-10.8-1.6-30.4,0.7-43.8,4.6C581.8,344,578.9,343.7,578.9,343.7z"/>
		<path class="st22" d="M584.1,344.7c0,0,8.2,2.3,29.4,0.3c21.3-2,24.9-2.5,31.1-1.3c4.6,0.3,9.8-4.9,7.5-6.5
			c-4.7-1.9-18.3-2.9-27.1-2c-8.8,1-46.1,8.5-46.1,8.5L584.1,344.7z"/>
	</g>
	<path class="st9" d="M527.9,158.8c-7.2,3.8-23,13.4-26.8,17.2c-3.8,3.8,8.1,1,12-0.5c2.7-1,16.2-3.9,24.2-5.5v-17
		C534.1,154.4,532.2,156.5,527.9,158.8z"/>
	<path class="st9" d="M585.4,149.7c-2.2-0.6-12.4,0.4-23,1.2v17.9h6.7c3.8-0.5,10.2-1.2,12.2-2.1c5.1-2.2,7.1-5.5,7.6-7
		S588.7,150.7,585.4,149.7z"/>
	<path class="st9" d="M547.1,145.2c-4.7,0-7.5,0.6-9.8,1.5v17c3.5-0.7,5.9-1.2,5.9-1.2h19.1v-17.9
		C557.1,144.9,551.7,145.2,547.1,145.2z"/>
	<rect x="357.7" y="443.3" class="st23" width="180.4" height="15.1"/>
	<g>
		<line class="st24" x1="381.4" y1="443.3" x2="381.4" y2="459.5"/>
		<line class="st25" x1="389" y1="443.3" x2="389" y2="459.5"/>
	</g>
	<g>
		<line class="st24" x1="416" y1="443.3" x2="416" y2="459.5"/>
		<line class="st25" x1="423.6" y1="443.3" x2="423.6" y2="459.5"/>
	</g>
	<g>
		<line class="st24" x1="458.1" y1="443.3" x2="458.1" y2="459.5"/>
		<line class="st25" x1="465.7" y1="443.3" x2="465.7" y2="459.5"/>
	</g>
	<g>
		<line class="st24" x1="503.5" y1="443.3" x2="503.5" y2="459.5"/>
		<line class="st25" x1="511.1" y1="443.3" x2="511.1" y2="459.5"/>
	</g>
	<rect x="424.1" y="473.8" class="st23" width="180.4" height="15.1"/>
	<g>
		<line class="st24" x1="447.8" y1="473.8" x2="447.8" y2="490.1"/>
		<line class="st25" x1="455.4" y1="473.8" x2="455.4" y2="490.1"/>
	</g>
	<g>
		<line class="st24" x1="482.4" y1="473.8" x2="482.4" y2="490.1"/>
		<line class="st25" x1="490" y1="473.8" x2="490" y2="490.1"/>
	</g>
	<g>
		<line class="st24" x1="524.5" y1="473.8" x2="524.5" y2="490.1"/>
		<line class="st25" x1="532.1" y1="473.8" x2="532.1" y2="490.1"/>
	</g>
	<g>
		<line class="st24" x1="569.9" y1="473.8" x2="569.9" y2="490.1"/>
		<line class="st25" x1="577.5" y1="473.8" x2="577.5" y2="490.1"/>
	</g>
	<g>
		<rect x="424.1" y="64.9" class="st23" width="180.4" height="15.1"/>
		<g>
			<line class="st26" x1="447.8" y1="64.9" x2="447.8" y2="81.1"/>
			<line class="st27" x1="455.4" y1="64.9" x2="455.4" y2="81.1"/>
		</g>
		<g>
			<line class="st26" x1="482.4" y1="64.9" x2="482.4" y2="81.1"/>
			<line class="st27" x1="490" y1="64.9" x2="490" y2="81.1"/>
		</g>
		<g>
			<line class="st26" x1="524.5" y1="64.9" x2="524.5" y2="81.1"/>
			<line class="st27" x1="532.1" y1="64.9" x2="532.1" y2="81.1"/>
		</g>
		<g>
			<line class="st26" x1="569.9" y1="64.9" x2="569.9" y2="81.1"/>
			<line class="st27" x1="577.5" y1="64.9" x2="577.5" y2="81.1"/>
		</g>
	</g>
	<g>
		<path class="st21" d="M203.7,509.2v-4.7h60.5v5.2C246.5,509.4,225.8,509.1,203.7,509.2z"/>
		<path class="st4" d="M151.3,504.2H90v-19.8h123.3l-8.8,3.6C204.5,488.1,181.2,494.1,151.3,504.2z"/>
		<path class="st9" d="M230.4,484.5h36.7v19.8H221c0.1-0.4,0.2-0.7,0.2-1.1C223,495.7,226.6,489.4,230.4,484.5z"/>
		<path class="st21" d="M195.8,504.2h-44.5c29.8-10.2,53.2-16.2,53.2-16.2S198.1,491.6,195.8,504.2z"/>
		<path class="st20" d="M204.5,488.1l8.8-3.6h17.1c-3.8,4.9-7.5,11.3-9.2,18.7c-0.1,0.3-0.2,0.7-0.2,1.1h-25.1
			C198.1,491.6,204.5,488.1,204.5,488.1z"/>
	</g>
	<g>
		<g>
			<path class="st4" d="M516.5,604.8v13h-128c-18.9-5.3-39.2-10.2-56.8-13H516.5z"/>
			<path class="st20" d="M285.3,604.8h46.5c17.5,2.7,37.9,7.7,56.8,13H285.3V604.8z"/>
		</g>
		<path class="st4" d="M421.5,723.6H334v11.5c37,11.5,67.1,30.5,87.5,46.1V723.6z"/>
		<path class="st21" d="M421.5,811.1v-29.9c-20.4-15.5-50.5-34.5-87.5-46.1v76H421.5z"/>
		<path class="st28" d="M784.1,754.2v8.6H898c-1.8-2.7-3.4-5.6-4.7-8.6H784.1z"/>
		<path class="st21" d="M912.6,754.2h-19.3c1.2,3.1,2.9,6,4.7,8.6h14.6V754.2z"/>
	</g>
</g>
</svg>
