<?xml version="1.0" encoding="utf-8"?>
<!-- Generator: Adobe Illustrator 27.1.1, SVG Export Plug-In . SVG Version: 6.00 Build 0)  -->
<svg version="1.1" id="Layer_2_00000026143954432351872310000007228439009425148850_"
	 xmlns="http://www.w3.org/2000/svg" xmlns:xlink="http://www.w3.org/1999/xlink" x="0px" y="0px" viewBox="0 0 927.7 866.5"
	 style="enable-background:new 0 0 927.7 866.5;" xml:space="preserve">
<style type="text/css">
	.st0{fill:#091222;}
	.st1{clip-path:url(#SVGID_00000043438092728774900120000016039516371495353014_);}
	.st2{fill:none;stroke:#B5B8BC;stroke-miterlimit:10;}
	.st3{fill:#70767F;stroke:#091222;stroke-linecap:round;stroke-linejoin:round;stroke-miterlimit:10;}
	.st4{fill:#212A38;stroke:#091222;stroke-linecap:round;stroke-linejoin:round;stroke-miterlimit:10;}
	.st5{fill:none;stroke:#091222;stroke-linecap:round;stroke-linejoin:round;stroke-miterlimit:10;}
	.st6{fill:#AAA6A1;stroke:#091222;stroke-width:3;stroke-linecap:round;stroke-linejoin:round;stroke-miterlimit:10;}
	.st7{fill:#E3DED7;stroke:#091222;stroke-width:3;stroke-linecap:round;stroke-linejoin:round;stroke-miterlimit:10;}
	.st8{clip-path:url(#SVGID_00000043415433567566444540000012651288426428652199_);}
	.st9{fill:#9DFF19;}
	.st10{fill:#AAA6A1;}
	.st11{fill:none;stroke:#091222;stroke-miterlimit:10;}
	.st12{fill:none;stroke:#091222;stroke-width:3;stroke-linecap:round;stroke-linejoin:round;stroke-miterlimit:10;}
	.st13{fill:#3A424E;stroke:#091222;stroke-width:3;stroke-linecap:round;stroke-linejoin:round;stroke-miterlimit:10;}
	.st14{fill:#091222;stroke:#091222;stroke-linecap:round;stroke-linejoin:round;stroke-miterlimit:10;}
	.st15{fill:#A9ACB2;stroke:#091222;stroke-width:3;stroke-miterlimit:10;}
	.st16{fill:#E3DED7;}
	.st17{fill:#474E59;stroke:#091222;stroke-linecap:round;stroke-linejoin:round;stroke-miterlimit:10;}
	.st18{fill:#92FF00;stroke:#091222;stroke-linecap:round;stroke-linejoin:round;stroke-miterlimit:10;}
	.st19{clip-path:url(#SVGID_00000053514662943990355980000014502308098993396898_);}
	.st20{fill:none;stroke:#92FF00;stroke-width:3;stroke-linecap:round;stroke-linejoin:round;stroke-miterlimit:10;}
	.st21{fill:none;stroke:#091222;stroke-width:2;stroke-linecap:round;stroke-linejoin:round;stroke-miterlimit:10;}
	.st22{fill:#FFFFFF;stroke:#091222;stroke-width:3;stroke-linecap:round;stroke-linejoin:round;stroke-miterlimit:10;}
	.st23{fill:#92FF00;stroke:#091222;stroke-width:3;stroke-linecap:round;stroke-linejoin:round;stroke-miterlimit:10;}
	.st24{fill:#92FF00;}
	.st25{fill:#5739A4;}
	.st26{fill:#FF008A;}
	.st27{fill:#2B1D52;}
	.st28{fill:none;stroke:#5739A4;stroke-miterlimit:10;}
	.st29{fill:none;stroke:#FF008A;stroke-miterlimit:10;}
</style>
<g>
	<path class="st0" d="M184.6,625c0,0,4.1-7.5-26.3-8.1c-33.9-0.7-72.9-0.2-51.1-3.5s74-6.4,80.6-18.4L184.6,625z"/>
	<g>
		<defs>
			<path id="SVGID_1_" d="M610.3,533.3c0,0,39.7,19.4,133.7,50.6c65.1,21.6,108.4,81.4,121.6,138.6c7.6,32.8,16.5,58.4,22.7,74.2
				c3.8,9.6-2.1,20.3-12.3,22.3c-55,10.7-215.4,38.6-386.8,37.2l-0.9,0.8c-179.7,1.4-378.5-22.1-434.6-29.3
				c-7.7-1-12.3-9.1-9.1-16.2c8.2-18.3,7.7-58.2,21.8-95c26.9-69.9,63.5-107.6,158.1-137.1C319,550.1,337,533.3,337,533.3
				s-18.9,116.9,142.8,124.5S616.9,536.7,610.3,533.3z"/>
		</defs>
		<use xlink:href="#SVGID_1_"  style="overflow:visible;fill:#212A38;"/>
		<clipPath id="SVGID_00000181052007974042208810000012350055045221752741_">
			<use xlink:href="#SVGID_1_"  style="overflow:visible;"/>
		</clipPath>
		<g style="clip-path:url(#SVGID_00000181052007974042208810000012350055045221752741_);">
			<g>
				<path class="st2" d="M-58.4,361.6c0,0,327.2,417.3,178.5,588.6"/>
				<path class="st2" d="M58.5,366.6c-18.6,6.9,256.1,421,138.8,583.6"/>
				<path class="st2" d="M175.4,371.5c-37.3,13.9,185.1,424.8,99.2,578.7"/>
				<path class="st2" d="M292.3,376.5c-55.9,20.8,114,428.6,59.5,573.7"/>
				<path class="st2" d="M409.2,381.4c-74.5,27.7,43,432.3,19.8,568.7"/>
				<path class="st2" d="M526,386.4c-93.1,34.6-28.1,436.1-19.8,563.8"/>
				<path class="st2" d="M642.9,391.4c-111.8,41.6-99.2,439.8-59.5,558.8"/>
				<path class="st2" d="M759.8,396.3c-130.4,48.5-170.2,443.6-99.2,553.9"/>
				<path class="st2" d="M876.7,401.3c-149,55.4-241.3,447.3-138.8,548.9"/>
				<path class="st2" d="M993.5,406.2c-167.7,62.3-312.3,451.1-178.5,544"/>
			</g>
			<g>
				<polyline class="st2" points="903,375.6 665.1,375.6 603.7,375.6 542.2,375.6 480.8,375.6 420.8,375.6 360.9,375.6 299.5,375.6 
					238,375.6 -47.5,375.6 				"/>
				<polyline class="st2" points="903,436.4 665.3,436.4 603.7,436.4 542.2,436.4 480.8,436.4 420.8,436.4 360.8,436.4 299.5,436.4 
					238,436.4 178.1,436.4 -47.5,436.4 				"/>
				<polyline class="st2" points="903,497.1 665.5,497.1 603.7,497.1 542.2,497.1 480.8,497.1 420.8,497.1 360.6,497.1 299.5,497.1 
					238,497.1 178.1,497.1 -47.5,497.1 				"/>
				<polyline class="st2" points="903,557.9 665.6,557.9 603.7,557.9 542.2,557.9 480.8,557.9 420.8,557.9 360.4,557.9 299.5,557.9 
					238,557.9 178.1,557.9 -47.5,557.9 				"/>
				<polyline class="st2" points="903,618.7 665.8,618.7 603.7,618.7 542.2,618.7 480.8,618.7 420.8,618.7 360.2,618.7 299.5,618.7 
					238,618.7 178.1,618.7 -47.5,618.7 				"/>
				<polyline class="st2" points="903,679.4 666,679.4 603.7,679.4 542.2,679.4 480.8,679.4 420.8,679.4 360.1,679.4 299.5,679.4 
					238,679.4 178.1,679.4 -47.5,679.4 				"/>
				<polyline class="st2" points="903,740.2 666.1,740.2 603.7,740.2 542.2,740.2 480.8,740.2 420.8,740.2 359.9,740.2 299.5,740.2 
					238,740.2 178.1,740.2 -47.5,740.2 				"/>
				<polyline class="st2" points="903,801 666.3,801 603.7,801 542.2,801 480.8,801 420.8,801 359.7,801 299.5,801 238,801 
					178.1,801 -47.5,801 				"/>
				<polyline class="st2" points="903,861.8 666.5,861.8 603.7,861.8 542.2,861.8 480.8,861.8 420.8,861.8 359.6,861.8 299.5,861.8 
					238,861.8 178.1,861.8 -47.5,861.8 				"/>
				<polyline class="st2" points="903,922.5 666.7,922.5 603.7,922.5 542.2,922.5 480.8,922.5 420.8,922.5 359.4,922.5 299.5,922.5 
					238,922.5 178.1,922.5 -47.5,922.5 				"/>
			</g>
		</g>
		
			<use xlink:href="#SVGID_1_"  style="overflow:visible;fill:none;stroke:#091222;stroke-width:3;stroke-linecap:round;stroke-linejoin:round;stroke-miterlimit:10;"/>
	</g>
	<path class="st0" d="M583.2,498.4c0,0,10.2,14.1,44.1,15.2c33.9,1.1,63.5,0.7,41.6,4c-21.9,3.3-42.6,2.6-48.2,8.7L583.2,498.4z"/>
	<path class="st0" d="M370.4,439.1c0,0,4.1-7.5-26.3-8.1c-33.9-0.7-72.9-0.2-51.1-3.5c21.9-3.3,74-6.4,80.6-18.4L370.4,439.1z"/>
	<path class="st0" d="M327.8,239.7c0,0,11.5-6.7-22.4-7.8c-33.9-1.1-71.1-2.2-49.2-5.5c21.9-3.3,75.2-4.2,81.8-16.2L327.8,239.7z"/>
	<path class="st0" d="M668.8,324.4c0,0-11.5-6.7,22.4-7.8c33.9-1.1,71.1-2.2,49.2-5.5c-21.9-3.3-75.2-4.2-81.8-16.2L668.8,324.4z"/>
	<path class="st0" d="M600.6,43.5c0,0-11.5-6.7,22.4-7.8s71.1-2.2,49.2-5.5S597,26,590.4,14L600.6,43.5z"/>
	<path class="st0" d="M615.1,62.1c0,0-11.5-6.7,22.4-7.8c33.9-1.1,71.1-2.2,49.2-5.5c-21.9-3.3-75.2-4.2-81.8-16.2L615.1,62.1z"/>
	<path class="st3" d="M628.1,530.4c0,0,22.3,10.2,37.9,31.2c15.6,21,40,27.8,44,49.4s11.5,31.8,14.9,42s-3.4,47.4-21,77.9
		c-17.6,30.5-67.7,96.8-190.3,102.9C391.1,839.9,374.9,802,374.9,802"/>
	<path class="st4" d="M636.5,550.1l-17.6-18.4l-111.6,14.1l-141.6-20.7c0.2-6.8,0.4-12.8,0.5-17.7c0.1-8.3,0.1-15.8-0.1-22.5
		l-0.8-1.9c0,0-39.3,23.7-40.6,65c-0.1,2.2-0.1,4.6-0.1,7l-9.5,87l79,83.3c0,0,142,26.7,146.3,28.8c4.3,2.1,76.9-20.3,76.9-20.3
		l35.2-64.1l9.6-51.2L636.5,550.1z"/>
	<path class="st5" d="M373.8,121.7c3.5-0.6,6.2-0.7,6.2-0.7C380,121,377.6,120.9,373.8,121.7z"/>
	<path class="st5" d="M370.2,122.4c0,0.1-0.1,0.1-0.1,0.2c1.3-0.4,2.5-0.7,3.7-1C372.6,121.9,371.4,122.1,370.2,122.4z"/>
	<path class="st6" d="M380,121c0,0-2.7,0-6.2,0.7c-1.1,0.2-2.3,0.5-3.7,1c-11.4,3.6-30.2,14.9-42.2,50.6
		c-14.1,41.7-7.9,62.1-7.9,79.6c0,17.5-0.8,42.5-0.8,42.5s4.2-10.8,10-10c5.8,0.8,5.8,0.8,5.8,0.8l11.7,8.3c0,0,3.8-21.7,7.4-55.2
		c3.7-34.9,9.3-49.2,11.8-75.1C368.4,138.3,380,121,380,121L380,121z"/>
	<path class="st6" d="M693.5,284.1c3.3,10.8,13.9,6.9,13.9,6.9c-5-7.5-1.3-84.8-7.9-118.1c-6.7-33.4-52.9-130.2-96.3-151.9
		c-43.4-21.7-139-32.6-196.6,14.9s-46,91.2-46,91.2c2.6-2.3,6.2-3.7,9.6-4.6c5.2-1.3,9.8-1.4,9.8-1.4
		c20.8-34.2,34.8-48.1,103.2-55.6s116.9,24.2,138.6,60c21.7,35.9,25,78.1,20.9,104.8s0.8,69.2,0.8,77.5c0,1,0.2,2.1,0.4,3.1
		c1.9,7.2,9.6,13.6,9.6,13.6s2.5-9.2,4.2-15.8c0.4-1.4,1.2-2.7,2.3-3.8c4.2-4.4,11-4.3,15.7-0.4c8,6.6,22.8-1.4,22.8-1.4
		S690.2,273.2,693.5,284.1z"/>
	<path class="st7" d="M335,286.1c0,0-10.6-6.1-15.8,9.2c-5.3,15.3,2.4,86.4,4.2,90.7c4.1,9.9,13.1,19.4,26.2,13.1l0.7-1.3
		c-2.9-20.7-5.8-44.6-6.1-52C343.7,332.7,335,286.1,335,286.1z"/>
	<g>
		<defs>
			<path id="SVGID_00000139980179279426934590000008349172894340721317_" d="M642.6,230.2c4.2-26.7,0.8-68.9-20.9-104.8
				c-21.7-35.9-70.2-67.6-138.6-60S400.8,86.8,380,121c0,0-11.6,17.3-14.1,43.1c-2.5,25.8-8.1,40.2-11.8,75.1
				c-3.6,33.5-7.4,55.2-7.4,55.2l-11.7-8.3c0,0,8.7,46.6,9.1,59.7c0.3,7.4,3.2,31.2,6.1,52c2.2,16.2,4.4,30.4,5.2,33.4
				c1.8,6.8,18.1,51,36.1,75.4c18.1,24.4,43.3,39.3,71.3,41.5c28,2.3,70.4-0.9,81.3-4.5c10.8-3.6,35.2-18.5,51.5-43.8
				c16.3-25.3,33.9-59.6,37.5-75.9c3.6-16.3,5.4-49.2,6.3-57.8c0.9-8.2,4.2-51.6,4.5-55.3c-0.3-1-0.4-2-0.4-3.1
				C643.5,299.4,638.5,256.9,642.6,230.2z"/>
		</defs>
		<use xlink:href="#SVGID_00000139980179279426934590000008349172894340721317_"  style="overflow:visible;fill:#E3DED7;"/>
		<clipPath id="SVGID_00000029738647152782592640000009705194673739966624_">
			<use xlink:href="#SVGID_00000139980179279426934590000008349172894340721317_"  style="overflow:visible;"/>
		</clipPath>
		<g style="clip-path:url(#SVGID_00000029738647152782592640000009705194673739966624_);">
			<rect x="370.6" y="184.5" class="st9" width="50.4" height="98.6"/>
			<path class="st10" d="M625,370.2c-2.7,9.5-14,56.9-23.9,69.5c-9.9,12.6-19.9,5.4-21.7,1.4c-1.8-4.1-13.5-29.3-17.6-37.5
				s-23-19.4-28.4-23c-5.4-3.6-17.2-5.9-23-5c-5.9,0.9-15.8,5.4-21.7,5.4c-5.9,0-21.7-7.2-21.7-7.2c-22.6-0.9-46.5,19.4-53.3,32.5
				c-6.8,13.1-21.7,37.5-27.1,35.2c-5.4-2.3-27.5-51.9-28.9-67.3c-1.4-15.4-19-84.9-19-84.9l-0.3-0.5l-3.4-2.8
				c0,0,8.7,46.6,9.1,59.7c0.3,7.4,3.2,31.2,6.1,52c2.2,16.2,4.4,30.4,5.2,33.4c1.8,6.8,18.1,51,36.1,75.4
				c18.1,24.4,43.3,39.3,71.3,41.5c28,2.3,70.4-0.9,81.3-4.5c10.8-3.6,35.2-18.5,51.5-43.8c16.3-25.3,33.9-59.6,37.5-75.9
				c3.6-16.3,5.4-49.2,6.3-57.8c0.9-8.2,4.2-51.6,4.5-55.3C643.9,310.8,627.7,360.7,625,370.2z M542.9,467.4
				c-10.9,1.8-27.6-10.5-32.1-11.9c-4.6-1.4-34.3-3.1-48.4,0.1c-14.1,3.2-21.4,14.5-34.2,12.7c-12.8-1.8-3.2-20.1-3.2-20.1l3.2-4.6
				c0,0,10.5,6.8,25.5,7.8c15.1,0.9,65.2-0.5,67.5-0.9c2.3-0.5,25.1-4.6,25.1-4.6s0,0,4.1,5S553.8,465.6,542.9,467.4z"/>
			<g>
				<line class="st11" x1="272.1" y1="63.8" x2="272.1" y2="551.9"/>
				<line class="st11" x1="321.3" y1="63.8" x2="321.3" y2="551.9"/>
				<line class="st11" x1="370.6" y1="63.8" x2="370.6" y2="551.9"/>
				<line class="st11" x1="419.8" y1="63.8" x2="419.8" y2="551.9"/>
				<line class="st11" x1="469.1" y1="63.8" x2="469.1" y2="551.9"/>
				<line class="st11" x1="518.3" y1="63.8" x2="518.3" y2="551.9"/>
				<line class="st11" x1="567.6" y1="63.8" x2="567.6" y2="551.9"/>
				<line class="st11" x1="616.8" y1="63.8" x2="616.8" y2="551.9"/>
				<line class="st11" x1="666.1" y1="63.8" x2="666.1" y2="551.9"/>
				<line class="st11" x1="715.3" y1="63.8" x2="715.3" y2="551.9"/>
			</g>
			<g>
				<polyline class="st11" points="737.7,86.2 665.5,86.2 615.7,86.2 565.9,86.2 516.1,104.2 467.5,104.2 419,86.2 369.2,86.2 
					319.4,86.2 249.6,86.2 				"/>
				<polyline class="st11" points="737.7,135.5 665.7,135.5 615.7,135.5 565.9,135.5 516.1,153.5 467.5,153.5 418.8,135.5 
					369.2,135.5 319.4,135.5 270.8,135.5 249.6,135.5 				"/>
				<polyline class="st11" points="737.7,184.7 665.8,184.7 615.7,184.7 565.9,184.7 516.1,202.7 467.5,202.7 418.7,184.7 
					369.2,184.7 319.4,184.7 270.8,184.7 249.6,184.7 				"/>
				<polyline class="st11" points="737.7,234 665.9,234 615.7,234 565.9,234 516.1,252 467.5,252 418.6,234 369.2,234 319.4,234 
					270.8,234 249.6,234 				"/>
				<polyline class="st11" points="737.7,283.2 666.1,283.2 615.7,283.2 565.9,283.2 516.1,301.2 467.5,301.2 418.4,283.2 
					369.2,283.2 319.4,283.2 270.8,283.2 249.6,283.2 				"/>
				<polyline class="st11" points="737.7,332.5 666.2,332.5 615.7,332.5 565.9,332.5 516.1,350.5 467.5,350.5 418.3,332.5 
					369.2,332.5 319.4,332.5 270.8,332.5 249.6,332.5 				"/>
				<polyline class="st11" points="737.7,381.7 666.4,381.7 615.7,381.7 565.9,381.7 516.1,399.7 467.5,399.7 418.2,381.7 
					369.2,381.7 319.4,381.7 270.8,381.7 249.6,381.7 				"/>
				<polyline class="st11" points="737.7,431 666.5,431 615.7,431 565.9,431 516.1,449 467.5,449 418,431 369.2,431 319.4,431 
					270.8,431 249.6,431 				"/>
				<polyline class="st11" points="737.7,480.2 666.6,480.2 615.7,480.2 565.9,480.2 516.1,498.2 467.5,498.2 417.9,480.2 
					369.2,480.2 319.4,480.2 270.8,480.2 249.6,480.2 				"/>
				<polyline class="st11" points="737.7,529.5 666.8,529.5 615.7,529.5 565.9,529.5 516.1,547.5 467.5,547.5 417.7,529.5 
					369.2,529.5 319.4,529.5 270.8,529.5 249.6,529.5 				"/>
			</g>
		</g>
		
			<use xlink:href="#SVGID_00000139980179279426934590000008349172894340721317_"  style="overflow:visible;fill:none;stroke:#091222;stroke-miterlimit:10;"/>
	</g>
	<path class="st12" d="M325.6,298.8c0,0,7.7,5.4,4.1,16.3s-10.4,35.7-5.4,47c5,11.3,5,11.3,5,11.3"/>
	<path class="st12" d="M338.7,335.4c0,0-5.4,9-3.2,17.6c2.3,8.6,11.3,12.6,6.3,17.6s-6.8-1.8-6.8-1.8"/>
	<path class="st5" d="M618.5,550.5c0-0.2,0-0.4,0-0.6C618.5,550.1,618.5,550.3,618.5,550.5z"/>
	<path class="st5" d="M618.4,558.6c0-0.2,0-0.4,0-0.6C618.4,558.1,618.4,558.4,618.4,558.6z"/>
	<path class="st5" d="M618.8,570.5c0-0.1,0-0.2,0-0.2C618.8,570.3,618.8,570.4,618.8,570.5z"/>
	<path class="st5" d="M618.4,559.7c0-0.2,0-0.4,0-0.7C618.4,559.3,618.4,559.5,618.4,559.7z"/>
	<path class="st5" d="M611.1,628.5c0-0.2,0.1-0.4,0.1-0.6C611.1,628,611.1,628.2,611.1,628.5z"/>
	<path class="st5" d="M618.4,557.4c0-0.2,0-0.4,0-0.7C618.4,557,618.4,557.2,618.4,557.4z"/>
	<path class="st5" d="M618.2,583.5c0,0,0-0.1,0-0.1C618.2,583.4,618.2,583.5,618.2,583.5z"/>
	<path class="st5" d="M618.4,556.2c0-0.3,0-0.7,0-1C618.4,555.5,618.4,555.9,618.4,556.2z"/>
	<path class="st5" d="M618.4,551.8c0-0.2,0-0.4,0-0.6C618.5,551.4,618.5,551.6,618.4,551.8z"/>
	<path class="st5" d="M618.4,553.2c0-0.2,0-0.4,0-0.6C618.4,552.8,618.4,553,618.4,553.2z"/>
	<path class="st5" d="M618.4,554.5c0-0.2,0-0.4,0-0.7C618.4,554.1,618.4,554.3,618.4,554.5z"/>
	<path class="st5" d="M611.3,627.4c0-0.2,0.1-0.3,0.1-0.5C611.3,627,611.3,627.2,611.3,627.4z"/>
	<path class="st5" d="M618.4,560.8c0-0.2,0-0.4,0-0.7C618.4,560.4,618.4,560.6,618.4,560.8z"/>
	<path class="st5" d="M618.6,566.6c0-0.2,0-0.5,0-0.7C618.6,566.1,618.6,566.4,618.6,566.6z"/>
	<path class="st5" d="M618.7,568.1c0-0.1,0-0.2,0-0.3C618.7,567.8,618.7,567.9,618.7,568.1z"/>
	<path class="st5" d="M618.7,574.6c0-0.1,0-0.2,0-0.3C618.7,574.4,618.7,574.5,618.7,574.6z"/>
	<path class="st5" d="M618.6,565.6c0-0.2,0-0.3,0-0.5C618.6,565.3,618.6,565.5,618.6,565.6z"/>
	<path class="st5" d="M618.8,573.3c0-0.1,0-0.2,0-0.4C618.8,573.1,618.8,573.2,618.8,573.3z"/>
	<path class="st5" d="M618.5,562.1c0-0.3,0-0.6,0-1C618.4,561.5,618.4,561.8,618.5,562.1z"/>
	<path class="st5" d="M618.8,569.3c0-0.1,0-0.3,0-0.4C618.7,569,618.7,569.1,618.8,569.3z"/>
	<path class="st5" d="M618.5,579c0-0.1,0-0.2,0-0.2C618.5,578.8,618.5,578.9,618.5,579z"/>
	<path class="st5" d="M618.5,564.8c0-0.2,0-0.3,0-0.5C618.5,564.5,618.5,564.6,618.5,564.8z"/>
	<path class="st5" d="M618.5,563.1c0-0.2,0-0.4,0-0.7C618.5,562.6,618.5,562.8,618.5,563.1z"/>
	<path class="st5" d="M618.6,577.6c0-0.1,0-0.2,0-0.2C618.6,577.4,618.6,577.5,618.6,577.6z"/>
	<path class="st5" d="M618.5,563.9c0-0.2,0-0.4,0-0.6C618.5,563.6,618.5,563.8,618.5,563.9z"/>
	<path class="st5" d="M618,585C618,585,618,585,618,585C618,585,618,585,618,585z"/>
	<path class="st5" d="M618.8,537c0-0.1,0-0.3,0-0.4C618.8,536.7,618.8,536.8,618.8,537z"/>
	<path class="st5" d="M618.8,535.4c0-0.2,0-0.3,0-0.5C618.8,535.1,618.8,535.3,618.8,535.4z"/>
	<path class="st5" d="M610.3,632.6c0-0.3,0.1-0.5,0.1-0.8C610.4,632.1,610.4,632.4,610.3,632.6z"/>
	<path class="st5" d="M610.5,631.7c0-0.2,0.1-0.5,0.1-0.7C610.6,631.2,610.5,631.4,610.5,631.7z"/>
	<path class="st5" d="M618.7,541c0-0.1,0-0.3,0-0.4C618.7,540.8,618.7,540.9,618.7,541z"/>
	<path class="st5" d="M618.9,533.9c0-0.2,0-0.4,0-0.6C618.9,533.5,618.9,533.7,618.9,533.9z"/>
	<path class="st5" d="M618.6,542.6c0-0.2,0-0.3,0-0.5C618.6,542.2,618.6,542.4,618.6,542.6z"/>
	<path class="st5" d="M610.1,634.3c0-0.2,0.1-0.5,0.1-0.7C610.1,633.8,610.1,634.1,610.1,634.3z"/>
	<path class="st5" d="M610.2,633.4c0-0.2,0.1-0.4,0.1-0.6C610.3,633,610.2,633.2,610.2,633.4z"/>
	<path class="st5" d="M618.9,532.3c0-0.2,0-0.4,0-0.5C618.9,531.9,618.9,532.1,618.9,532.3z"/>
	<path class="st5" d="M618.8,571.7c0,0.1,0,0.2,0,0.2C618.8,571.9,618.8,571.8,618.8,571.7z"/>
	<path class="st5" d="M617.5,589.6C617.5,589.6,617.5,589.7,617.5,589.6C617.5,589.7,617.5,589.7,617.5,589.6
		C617.5,589.6,617.5,589.6,617.5,589.6z"/>
	<path class="st5" d="M610.7,630.7c0-0.2,0.1-0.4,0.1-0.7C610.7,630.2,610.7,630.4,610.7,630.7z"/>
	<path class="st5" d="M610.8,629.7c0.1-0.3,0.1-0.6,0.2-0.9C610.9,629.1,610.9,629.4,610.8,629.7z"/>
	<path class="st5" d="M618.6,545.5c0-0.2,0-0.4,0-0.5C618.6,545.2,618.6,545.3,618.6,545.5z"/>
	<path class="st5" d="M618.5,546.8c0-0.1,0-0.2,0-0.4C618.5,546.6,618.5,546.7,618.5,546.8z"/>
	<path class="st5" d="M618.6,544.1c0-0.2,0-0.4,0-0.6C618.6,543.7,618.6,543.9,618.6,544.1z"/>
	<path class="st5" d="M618.5,549.1c0-0.2,0-0.3,0-0.5C618.5,548.8,618.5,549,618.5,549.1z"/>
	<path class="st5" d="M611.2,627.8c0-0.2,0.1-0.3,0.1-0.5C611.2,627.5,611.2,627.7,611.2,627.8z"/>
	<path class="st5" d="M618.6,577.3c0-0.9,0.1-1.8,0.1-2.7C618.7,575.5,618.7,576.4,618.6,577.3z"/>
	<path class="st5" d="M611,628.8c0-0.1,0-0.3,0.1-0.4C611,628.6,611,628.7,611,628.8z"/>
	<path class="st5" d="M618.7,574.3c0-0.3,0-0.7,0-1C618.8,573.7,618.7,574,618.7,574.3z"/>
	<path class="st5" d="M618.8,573c0-0.3,0-0.7,0-1C618.8,572.3,618.8,572.6,618.8,573z"/>
	<path class="st5" d="M610.2,633.6c0-0.1,0-0.1,0-0.2C610.2,633.5,610.2,633.5,610.2,633.6z"/>
	<path class="st5" d="M618.5,578.7c0-0.4,0-0.8,0.1-1.2C618.6,578,618.6,578.4,618.5,578.7z"/>
	<path class="st5" d="M610.5,631.8c0,0,0-0.1,0-0.1C610.5,631.7,610.5,631.8,610.5,631.8z"/>
	<path class="st5" d="M610.8,630c0-0.1,0-0.2,0-0.3C610.8,629.8,610.8,629.9,610.8,630z"/>
	<path class="st5" d="M618.2,583.4c0.1-1.5,0.2-2.9,0.3-4.4C618.4,580.4,618.3,581.9,618.2,583.4z"/>
	<path class="st5" d="M610.6,630.9c0-0.1,0-0.2,0-0.3C610.6,630.8,610.6,630.9,610.6,630.9z"/>
	<path class="st5" d="M617.5,589.6c0.2-1.6,0.4-3.1,0.5-4.7C617.9,586.5,617.7,588.1,617.5,589.6z"/>
	<path class="st5" d="M611.4,626.9c1.8-9.5,4.6-23.7,6.2-37.2C615.9,603.2,613.1,617.4,611.4,626.9z"/>
	<path class="st5" d="M610.3,632.8c0-0.1,0-0.1,0-0.2C610.3,632.7,610.3,632.7,610.3,632.8z"/>
	<path class="st5" d="M618,584.9c0-0.5,0.1-1,0.1-1.5C618.1,584,618.1,584.5,618,584.9z"/>
	<path class="st5" d="M618.6,542.1c0-0.3,0-0.7,0-1C618.7,541.4,618.6,541.7,618.6,542.1z"/>
	<path class="st5" d="M618.5,546.4c0-0.3,0-0.6,0-0.9C618.5,545.8,618.5,546.1,618.5,546.4z"/>
	<path class="st5" d="M618.5,548.6c0-0.6,0-1.2,0-1.8C618.5,547.4,618.5,548,618.5,548.6z"/>
	<path class="st5" d="M618.6,545c0-0.3,0-0.6,0-0.9C618.6,544.4,618.6,544.7,618.6,545z"/>
	<path class="st5" d="M618.8,570.2c0-0.3,0-0.6,0-0.9C618.8,569.6,618.8,569.9,618.8,570.2z"/>
	<path class="st5" d="M618.5,549.9c0-0.3,0-0.5,0-0.8C618.5,549.4,618.5,549.6,618.5,549.9z"/>
	<path class="st5" d="M618.4,552.5c0-0.2,0-0.5,0-0.7C618.4,552.1,618.4,552.3,618.4,552.5z"/>
	<path class="st5" d="M618.6,543.5c0-0.3,0-0.6,0-0.9C618.6,542.9,618.6,543.2,618.6,543.5z"/>
	<path class="st13" d="M649.8,571c-5.9-25-29.1-50-30.4-51.4c-0.2,4.1-0.3,8.2-0.4,12.1c0-0.9,0.1-1.8,0.1-2.7
		c2.8,7.2,11.1,27.9,22,53.5c13.5,31.8,10.8,60.3,1.4,96.2c-9.5,35.9-38.6,61.6-91.4,61.6c-52.8,0-75.9-24.4-144.9-52.1
		c-65.3-26.3-81-91.3-81.4-133.2l-1.3-0.2c0,0-1.4-16.6,13.8-45.1c-6.1,5.4-39.4,47.2-40.7,51.9c-1.4,4.7-28,38.3-30.6,68.2
		c-2.1,24.8,30,42.1,41.5,94.9c11.5,52.8,2,63,48.1,73.1C401.6,808,523.1,823,575.3,806c52.1-16.9,84-85.3,94.1-128
		C679.6,635.4,655.9,596.8,649.8,571z"/>
	<path class="st5" d="M618.8,570.5c0,0.4,0,0.8,0,1.2C618.8,571.3,618.8,570.9,618.8,570.5z"/>
	<path class="st5" d="M618.9,533.3c0-0.4,0-0.7,0-1.1C618.9,532.6,618.9,533,618.9,533.3z"/>
	<path class="st5" d="M618.4,553.8c0-0.2,0-0.4,0-0.7C618.4,553.4,618.4,553.6,618.4,553.8z"/>
	<path class="st5" d="M618.8,536.6c0-0.4,0-0.7,0-1.1C618.8,535.8,618.8,536.2,618.8,536.6z"/>
	<path class="st5" d="M618.8,535c0-0.4,0-0.7,0-1.1C618.9,534.2,618.8,534.6,618.8,535z"/>
	<path class="st5" d="M618.7,540.7c0-1.2,0.1-2.4,0.1-3.7C618.7,538.2,618.7,539.4,618.7,540.7z"/>
	<path class="st5" d="M618.5,551.2c0-0.2,0-0.5,0-0.8C618.5,550.7,618.5,551,618.5,551.2z"/>
	<path class="st5" d="M618.5,565.1c0-0.1,0-0.2,0-0.3C618.5,564.9,618.5,565,618.5,565.1z"/>
	<path class="st5" d="M618.4,555.2c0-0.2,0-0.5,0-0.7C618.4,554.7,618.4,555,618.4,555.2z"/>
	<path class="st5" d="M618.5,564.3c0-0.1,0-0.2,0-0.3C618.5,564.1,618.5,564.2,618.5,564.3z"/>
	<path class="st5" d="M618.6,565.9c0-0.1,0-0.2,0-0.3C618.6,565.7,618.6,565.8,618.6,565.9z"/>
	<path class="st5" d="M618.7,568.9c0-0.3,0-0.6,0-0.8C618.7,568.3,618.7,568.6,618.7,568.9z"/>
	<path class="st5" d="M618.7,567.7c0-0.4,0-0.8-0.1-1.1C618.7,567,618.7,567.3,618.7,567.7z"/>
	<path class="st5" d="M618.5,563.4c0-0.1,0-0.2,0-0.3C618.5,563.2,618.5,563.3,618.5,563.4z"/>
	<path class="st5" d="M618.4,559c0-0.2,0-0.3,0-0.5C618.4,558.7,618.4,558.9,618.4,559z"/>
	<path class="st5" d="M618.4,557.9c0-0.2,0-0.3,0-0.5C618.4,557.6,618.4,557.8,618.4,557.9z"/>
	<path class="st5" d="M618.4,556.7c0-0.2,0-0.3,0-0.5C618.4,556.4,618.4,556.6,618.4,556.7z"/>
	<path class="st5" d="M618.4,561.2c0-0.1,0-0.2,0-0.4C618.4,560.9,618.4,561,618.4,561.2z"/>
	<path class="st5" d="M618.4,560.1c0-0.1,0-0.3,0-0.4C618.4,559.8,618.4,560,618.4,560.1z"/>
	<path class="st5" d="M618.5,562.4c0-0.1,0-0.2,0-0.3C618.5,562.2,618.5,562.3,618.5,562.4z"/>
	<path class="st14" d="M366,499.2c0,0-24.4,30.5-26.4,55.5c-0.1,0.8-0.1,1.6-0.1,2.4c-0.4,24.9,21.8,59,21.8,59S368,509.4,366,499.2
		z"/>
	<path class="st14" d="M617.5,589.7c-2.1,17.7-6.2,36.7-7.5,44.7c-1.8,11.7-8.6,18.1-19.9,21.2c-11.3,3.2-50.6,10.8-91.7,29.3
		c-41.1,18.5-47,21.2-47,21.2s34.3,11.2,79,17.3c44.7,6.1,73.1-12.9,81.3-16.9c8.1-4.1,21.7-41.3,26.4-61.6
		C642.7,625.7,620.1,593.3,617.5,589.7z"/>
	<path class="st12" d="M294.2,621.1c0,0,5.4,61.6,32.5,104.3c27.1,42.7,19,57.6,19,57.6"/>
	<ellipse class="st15" cx="453.7" cy="731.9" rx="12.5" ry="6.4"/>
	<path class="st12" d="M378.2,688.9c0,0,50.1,46.1,110.4,65.7c60.3,19.6,96.8,18.3,105,17.6"/>
	<path class="st12" d="M627.4,753.9c1.4-2,30.5-33.2,34.5-83.3"/>
	<g>
		<path class="st16" d="M454.5,865.3c6.4-69.7-8.6-130.3-8.8-130.9c-1-4.2,2.2-4.9,6.4-5.9c4.1-1,8.5,0.1,9.5,4.2
			c0.6,2.5,15.4,60.2,8.8,132.5H454.5z"/>
	</g>
	<path class="st15" d="M609.8,739.7c-9.4,0-16.9,7.3-16.9,16.3c0,9,7.6,16.3,16.9,16.3c9.4,0,16.9-7.3,16.9-16.3
		C626.8,746.9,619.2,739.7,609.8,739.7z M609.8,767.6c-5.9,0-10.6-4.8-10.6-10.6s4.7-10.6,10.6-10.6c5.9,0,10.6,4.8,10.6,10.6
		S615.7,767.6,609.8,767.6z"/>
	<g>
		<path class="st16" d="M614.4,861c-0.7-50.7-11.8-101.9-11.9-102.4c-0.9-4.2,1.7-8.3,5.9-9.2c4.1-0.9,8.3,1.7,9.2,5.9
			c0.4,2,13.1,51.7,13.8,104.1L614.4,861z"/>
	</g>
	<path class="st7" d="M659.9,303.6c0,0,7.9-7.1,14.7-1.9c6.8,5.3,11.3,37.9,6.8,50s-16.2,36.8-18.4,44c-2.3,7.1-4.5,12-4.1,21
		c0.4,9-6,15.4-12,15c-6-0.4-11.8-10-13.6-7.8c0,0,6.9-46.3,7.2-67.3c0.4-21,3.6-45.7,3.6-45.7s2.5,9.3,9.6,13.6
		C653.5,324.4,658.4,305.1,659.9,303.6z"/>
	<ellipse transform="matrix(0.968 -0.2509 0.2509 0.968 -82.8996 176.696)" class="st3" cx="651.6" cy="413.5" rx="9.8" ry="15.6"/>
	
		<ellipse transform="matrix(0.968 -0.2509 0.2509 0.968 -83.1089 176.1724)" class="st17" cx="649.4" cy="414.1" rx="5.6" ry="11.6"/>
	<ellipse transform="matrix(0.968 -0.2509 0.2509 0.968 -83.271 175.6183)" class="st14" cx="647.2" cy="414.4" rx="2.4" ry="5.5"/>
	<path class="st12" d="M663.2,319.7c0,0,1.1-9.4,7.9-11.3c6.8-1.9,8.3,29.7,6,39.8c-2.3,10.1-5.3,15.4-5.3,15.4"/>
	<path class="st12" d="M645.3,347.3c0,0,6.8,9.4,4.9,16.9c-1.9,7.5-6,10.1-6.4,16.2c-0.4,6,3.8,8.3,3.8,8.3"/>
	<path class="st12" d="M663.6,352.8c0,0,1.9,25.6-9.4,33.4"/>
	<circle class="st18" cx="650.6" cy="358.9" r="3.8"/>
	<g>
		<defs>
			<path id="SVGID_00000116936358242456740900000014326045928157177535_" d="M595.6,499.8c-16.3,25.3-40.6,40.2-51.5,43.8
				c-10.8,3.6-53.3,6.8-81.3,4.5c-28-2.3-53.3-17.2-71.3-41.5c-10.2-13.7-19.8-33.7-26.5-49.8c0.6,10.6,3.5,64.2-0.1,95.4
				c-4,34.7-3.6,64.1-3.6,64.1s36.4,56,95,58c58.6,2,89.3-13.9,109.2-19.9c19.9-6,39.7-7.9,39.7-7.9s13.7-46.6,13.3-84.3l0.9-42.5
				l1.7-63.8l-0.7,0.2C613.2,470.5,604.2,486.4,595.6,499.8z"/>
		</defs>
		<use xlink:href="#SVGID_00000116936358242456740900000014326045928157177535_"  style="overflow:visible;fill:#E3DED7;"/>
		<clipPath id="SVGID_00000005245370563121635480000003021197993782797456_">
			<use xlink:href="#SVGID_00000116936358242456740900000014326045928157177535_"  style="overflow:visible;"/>
		</clipPath>
		<g style="clip-path:url(#SVGID_00000005245370563121635480000003021197993782797456_);">
			<g>
				<line class="st11" x1="292.3" y1="383.2" x2="292.3" y2="815.1"/>
				<line class="st11" x1="335.8" y1="383.2" x2="335.8" y2="815.1"/>
				<line class="st11" x1="379.4" y1="383.2" x2="379.4" y2="815.1"/>
				<line class="st11" x1="423" y1="383.2" x2="423" y2="815.1"/>
				<line class="st11" x1="466.6" y1="383.2" x2="466.6" y2="815.1"/>
				<line class="st11" x1="510.1" y1="383.2" x2="510.1" y2="815.1"/>
				<line class="st11" x1="553.7" y1="383.2" x2="553.7" y2="815.1"/>
				<line class="st11" x1="597.3" y1="383.2" x2="597.3" y2="815.1"/>
				<line class="st11" x1="640.9" y1="383.2" x2="640.9" y2="815.1"/>
				<line class="st11" x1="684.5" y1="383.2" x2="684.5" y2="815.1"/>
			</g>
			<g>
				<polyline class="st11" points="704.3,403 640.4,403 596.3,403 552.3,403 508.2,403 465.2,403 422.3,403 378.2,403 334.1,403 
					272.4,403 				"/>
				<polyline class="st11" points="704.3,446.6 640.5,446.6 596.3,446.6 552.3,446.6 508.2,446.6 465.2,446.6 422.1,446.6 
					378.2,446.6 334.1,446.6 291.1,446.6 272.4,446.6 				"/>
				<polyline class="st11" points="704.3,490.2 640.6,490.2 596.3,490.2 552.3,490.2 508.2,490.2 465.2,490.2 422,490.2 
					378.2,490.2 334.1,490.2 291.1,490.2 272.4,490.2 				"/>
				<polyline class="st11" points="704.3,533.8 640.8,533.8 596.3,533.8 552.3,533.8 508.2,533.8 465.2,533.8 421.9,533.8 
					378.2,533.8 334.1,533.8 291.1,533.8 272.4,533.8 				"/>
				<polyline class="st11" points="704.3,577.4 640.9,577.4 596.3,577.4 552.3,577.4 508.2,577.4 465.2,577.4 421.8,577.4 
					378.2,577.4 334.1,577.4 291.1,577.4 272.4,577.4 				"/>
				<polyline class="st11" points="704.3,620.9 641,620.9 596.3,620.9 552.3,620.9 508.2,620.9 465.2,620.9 421.6,620.9 
					378.2,620.9 334.1,620.9 291.1,620.9 272.4,620.9 				"/>
				<polyline class="st11" points="704.3,664.5 641.1,664.5 596.3,664.5 552.3,664.5 508.2,664.5 465.2,664.5 421.5,664.5 
					378.2,664.5 334.1,664.5 291.1,664.5 272.4,664.5 				"/>
				<polyline class="st11" points="704.3,708.1 641.2,708.1 596.3,708.1 552.3,708.1 508.2,708.1 465.2,708.1 421.4,708.1 
					378.2,708.1 334.1,708.1 291.1,708.1 272.4,708.1 				"/>
				<polyline class="st11" points="704.3,751.7 641.4,751.7 596.3,751.7 552.3,751.7 508.2,751.7 465.2,751.7 421.3,751.7 
					378.2,751.7 334.1,751.7 291.1,751.7 272.4,751.7 				"/>
				<polyline class="st11" points="704.3,795.2 641.5,795.2 596.3,795.2 552.3,795.2 508.2,795.2 465.2,795.2 421.2,795.2 
					378.2,795.2 334.1,795.2 291.2,795.2 272.4,795.2 				"/>
			</g>
		</g>
		
			<use xlink:href="#SVGID_00000116936358242456740900000014326045928157177535_"  style="overflow:visible;fill:none;stroke:#091222;stroke-width:3;stroke-linecap:round;stroke-linejoin:round;stroke-miterlimit:10;"/>
	</g>
	<g>
		<path class="st20" d="M419.2,433.3c0,0,19,14.4,65,14.9c39.7,0.5,54.2-15.8,54.2-15.8s-16.7,0-24.4-0.5c-7.7-0.5-33.9,0-42,0
			s-45.2,0.9-45.2,0.9L419.2,433.3z"/>
		<path class="st20" d="M416.9,432.8c0,0,15.4-2.3,21.2-7.7c5.9-5.4,21.2-14.4,29.8-10.8s20.3,4.5,25.7,1.4
			c5.4-3.2,14.4-1.4,18.5,2.3s18.5,14.4,27.5,14.9c0,0-34.3-2.3-45.2-0.5s-21.2,0-29.3,0s-23.9-1.4-27.1-0.9
			C435,431.9,416.9,432.8,416.9,432.8z"/>
	</g>
	<g>
		<path class="st7" d="M428.1,434.3c0,0,19,14.4,65,14.9c39.7,0.5,54.2-15.8,54.2-15.8s-16.7,0-24.4-0.5c-7.7-0.5-33.9,0-42,0
			s-45.2,0.9-45.2,0.9L428.1,434.3z"/>
		<path class="st7" d="M425.8,433.8c0,0,15.4-2.3,21.2-7.7c5.9-5.4,21.2-14.4,29.8-10.8c8.6,3.6,20.3,4.5,25.7,1.4
			c5.4-3.2,14.4-1.4,18.5,2.3s18.5,14.4,27.5,14.9c0,0-34.3-2.3-45.2-0.5c-10.8,1.8-21.2,0-29.3,0s-23.9-1.4-27.1-0.9
			S425.8,433.8,425.8,433.8z"/>
	</g>
	<path class="st21" d="M379,261.4c0,0,2.3-10.3,15.6-15.1c13.3-4.7,23.1-5.2,34.3-4.9s16.5,4.7,16.5,4.7"/>
	<path class="st22" d="M440.6,255.1c-1.3-0.9-4.9-3.2-10.4-4.7c5,9.7-1,18.1-3.6,21.7c0.9-0.3,1.8-0.6,3.1-1
		c3.6-1.1,9.7-5.7,13.2-5.3c3.5,0.4,4.9-2.6,4.9-4.3C447.8,259.7,443,256.7,440.6,255.1z"/>
	<path class="st22" d="M403.1,262.5c-0.7-4.4,0.2-8.6,1-11.2c-11.7,4.2-17.1,12.3-17.1,12.3s12.7,8.6,24.7,9.5
		C406.7,271.2,403.9,267.8,403.1,262.5z"/>
	<path class="st23" d="M430.2,250.3c-4.9-1.4-11.3-2.1-19-0.8c-2.5,0.4-4.9,1.1-7,1.8c-0.8,2.5-1.7,6.7-1,11.2
		c0.8,5.3,3.6,8.7,8.5,10.6c0.4,0,0.7,0,1.1,0.1c8.9,0.3,11.4-0.3,13.9-1.2C429.2,268.4,435.2,260,430.2,250.3z"/>
	<path class="st22" d="M562.5,254.7c-4.5,0.8-8,2.2-10.5,3.5c-5.6,3-6.7,3-6.7,3s-9.1,2.1-8.9,5.6c0.3,3.5,6.4,5.1,13.4,5.4
		c3.6,0.1,7,1.5,10.5,3.1c-1.1-2-2.3-5.1-2.4-9.6C557.7,260.7,560.2,257,562.5,254.7z"/>
	<path class="st22" d="M585,256.8c1,2.3,1.8,5.4,1.8,9.7c0.2,7.7-3.1,12-5.7,14.2c6.6,0.2,13.6-0.5,17.2-2.3c5.9-3,5.9-3,5.9-3
		S600.3,262.2,585,256.8z"/>
	<path class="st23" d="M586.9,266.5c-0.1-4.3-0.9-7.4-1.8-9.7c0,0,0,0,0,0c-8.8-3.1-16.5-3.2-22.5-2.1c-2.3,2.3-4.8,6-4.6,11
		c0.1,4.5,1.3,7.6,2.4,9.6c3.3,1.5,6.7,3.2,10.2,4.1c2.8,0.7,6.6,1.2,10.7,1.3C583.8,278.5,587,274.2,586.9,266.5z"/>
	<path class="st21" d="M538.5,256.5c0,0,19.1-12.4,43.2-6.7C605.9,255.5,607,263,607,263"/>
	<path class="st6" d="M534.6,244.2c0,0-6.3-13.1-4.1-15.4c2.3-2.3,24.4-6.3,40.2-5.4c15.8,0.9,42.9,15.8,42.9,15.8
		S584,236,569.9,237C550,238.3,534.6,244.2,534.6,244.2z"/>
	<path class="st0" d="M617.3,240.2c-19.3-4.1-49.2-5.3-71,0.6s-26.5,12.2-26.5,12.2s-18.7-5.6-42.1-3.1c0,0-20.6-25.2-67.6-26.8
		s-81.3,5.9-81.3,5.9l-0.3,19.3c0,0,10.6,6.2,10.3,15.6c-0.3,9.3,3.1,43.3,15.6,57.6s26.5,21.5,51.1,21.8
		c24.6,0.3,42.7-10,56.1-25.2c13.4-15.3,18.1-33.3,18.7-39c0.6-5.6-1.9-13.1,4.1-14.6c5.9-1.6,23.1,0.3,26.5,1.2c3.4,0.9,5.9,5,5,9
		c-0.9,4.1-2.2,7.5-1.9,11.5c0.3,4.1,1.9,23.7,20.6,47.4c18.7,23.7,46.4,25.2,68.6,22.1c22.1-3.1,38-16.2,46.7-42.1
		c8.7-25.9,8.7-35.2,19.9-37.7v-20.9C669.7,255.1,636.6,244.2,617.3,240.2z M471.5,281c-4.4,22.4-20.3,41.4-25.9,45.5
		c-5.6,4.1-29.3,16.8-56.4,10s-39.6-25.9-41.8-44.2c-2.2-18.4-0.9-39.9,11.8-52.7c12.8-12.8,49.2-10.3,49.2-10.3
		c18.1,1.9,30.5,5.9,42.4,10.3C462.8,243.9,475.9,258.5,471.5,281z M647.2,287.5c-0.3,22.7-8.4,35.2-15.3,45.5
		c-6.9,10.3-30.6,27.2-66.5,15.3c-37.4-12.4-40.7-45.5-42.2-56.8c-1.6-11.2-1.2-34.9,16.8-42.7c18.1-7.8,48.6-5.9,48.6-5.9
		C635.7,246.1,647.6,264.8,647.2,287.5z"/>
	<path class="st12" d="M448.4,338.5c0,0-10.4,26.6,12.7,30.3"/>
	<path class="st12" d="M486.5,369.5c0,0-10.9-3.9-13.8-10.7c-1.9-4.5-14.1-10.6-15.8-7.6c-2,3.5,8.5,9.2,15.3,7.9"/>
	<path class="st12" d="M503.9,366.8c0-0.3,2.6-2.5,5.9-4.8c1.8-1.3,3.9-2.6,5.9-3.6c5.4-2.9,8.2-3.6,9.2-2.6c1.1,1.1,2,3.8-4.1,5.9
		c-6,2.1-11,0.6-11,0.6"/>
	<path class="st12" d="M525.2,368.6c0,0,16.5-7.7,9.2-30.2"/>
	<path class="st14" d="M470.7,356.3c0,0-10.2-8.3-13.7-5.1c-3.5,3.2,2.9,7.3,9.2,8.1C472.6,360.1,472.6,357.1,470.7,356.3z"/>
	<path class="st0" d="M511.2,361.6l7.9-4.9c0,0,5.7-2.2,5.9-0.9c0.1,1.3,1.6,4.3-4.1,5.9C514.2,363.5,511.2,361.6,511.2,361.6z"/>
	<path class="st12" d="M430.4,369.7c0,0-23.5,26.6-28.9,45.2"/>
	<path class="st12" d="M545.9,367c0,0,22.1,26.2,25.3,37.9"/>
	<path class="st12" d="M642.6,230.2c4.2-26.7,0.8-68.9-20.9-104.8c-21.7-35.9-70.2-67.6-138.6-60S400.8,86.8,380,121
		c0,0-11.6,17.3-14.1,43.1c-2.5,25.8-8.1,40.2-11.8,75.1c-3.6,33.5-7.4,55.2-7.4,55.2l-11.7-8.3c0,0,8.7,46.6,9.1,59.7
		c0.3,7.4,3.2,31.2,6.1,52c2.2,16.2,4.4,30.4,5.2,33.4c1.8,6.8,18.1,51,36.1,75.4c18.1,24.4,43.3,39.3,71.3,41.5
		c28,2.3,70.4-0.9,81.3-4.5c10.8-3.6,35.2-18.5,51.5-43.8c16.3-25.3,33.9-59.6,37.5-75.9c3.6-16.3,5.4-49.2,6.3-57.8
		c0.9-8.2,4.2-51.6,4.5-55.3c-0.3-1-0.4-2-0.4-3.1C643.5,299.4,638.5,256.9,642.6,230.2z"/>
	<path class="st0" d="M341.9,254.6c0,0,0.2-6.2-14.7-6.7c-14.9-0.5-108.8-1-99.2-2.4c9.6-1.4,119.5-3.4,122.3-8.7L341.9,254.6z"/>
	<rect x="412.3" y="253.8" class="st0" width="12.1" height="12.1"/>
	<rect x="566.8" y="260.4" class="st0" width="12.1" height="12.1"/>
	<g>
		<g>
			<path class="st24" d="M546.4,524.2v13.1h129c19-5.3,39.5-10.3,57.2-13.1H546.4z"/>
			<path class="st25" d="M779.4,524.2h-46.8c-17.7,2.8-38.2,7.8-57.2,13.1h104.1V524.2z"/>
		</g>
		<path class="st24" d="M642.1,644h88.2v11.6c-37.3,11.6-67.7,30.8-88.2,46.5V644z"/>
		<path class="st26" d="M642.1,732.2v-30.2c20.5-15.7,50.9-34.8,88.2-46.5v76.6H642.1z"/>
		<path class="st27" d="M276.7,674.8v8.7H161.8c1.8-2.7,3.5-5.6,4.7-8.7H276.7z"/>
		<path class="st26" d="M147.1,674.8h19.5c-1.3,3.1-2.9,6-4.7,8.7h-14.8V674.8z"/>
	</g>
	<rect x="447" y="568.2" class="st16" width="181.9" height="15.2"/>
	<rect x="489.4" y="592.2" class="st16" width="181.9" height="15.2"/>
	<g>
		<g>
			<line class="st28" x1="471" y1="568.2" x2="471" y2="584.6"/>
			<line class="st29" x1="478.6" y1="568.2" x2="478.6" y2="584.6"/>
		</g>
		<g>
			<line class="st28" x1="505.8" y1="568.2" x2="505.8" y2="584.6"/>
			<line class="st29" x1="513.5" y1="568.2" x2="513.5" y2="584.6"/>
		</g>
		<g>
			<line class="st28" x1="548.3" y1="568.2" x2="548.3" y2="584.6"/>
			<line class="st29" x1="555.9" y1="568.2" x2="555.9" y2="584.6"/>
		</g>
		<g>
			<line class="st28" x1="594.1" y1="568.2" x2="594.1" y2="584.6"/>
			<line class="st29" x1="601.7" y1="568.2" x2="601.7" y2="584.6"/>
		</g>
		<g>
			<line class="st28" x1="513.3" y1="592.2" x2="513.3" y2="608.5"/>
			<line class="st29" x1="520.9" y1="592.2" x2="520.9" y2="608.5"/>
		</g>
		<g>
			<line class="st28" x1="548.2" y1="592.2" x2="548.2" y2="608.5"/>
			<line class="st29" x1="555.8" y1="592.2" x2="555.8" y2="608.5"/>
		</g>
		<g>
			<line class="st28" x1="590.6" y1="592.2" x2="590.6" y2="608.5"/>
			<line class="st29" x1="598.3" y1="592.2" x2="598.3" y2="608.5"/>
		</g>
		<g>
			<line class="st28" x1="636.4" y1="592.2" x2="636.4" y2="608.5"/>
			<line class="st29" x1="644" y1="592.2" x2="644" y2="608.5"/>
		</g>
	</g>
	<path class="st6" d="M464.2,221.2c0,0-13.8-3.7-29.3-6.2v11.4c9.7,2.4,19.4,6.1,27.9,11.5c0,0,5,0.5,6.3-5.9
		C470.5,225.7,469.6,223.4,464.2,221.2z"/>
	<path class="st6" d="M406.9,213.1c-20.8,1.8-36.1,10.4-36.1,10.4s16.6-2.5,37.6-1.1V213C407.8,213,407.3,213,406.9,213.1z"/>
	<path class="st6" d="M408.3,206.8v9.4c8.4,0.6,17.6,1.8,26.6,4v-11.4C425.8,207.4,416.1,206.3,408.3,206.8z"/>
	<path class="st20" d="M883,795.5c-6.2-15.9-15.1-41.4-22.7-74.2c-13.2-57.2-56.6-117-121.6-138.6c-35.6-11.9-63.5-22-84.3-30
		c-13.4-14.4-28.6-22.1-31.1-23.3c-4.8-6.3-8.6-10.4-9.2-11c0,0,0,0,0,0v0l1.7-63.8l-0.7,0.2c-0.2,0.4-0.4,0.7-0.5,1.1
		c6.6-13.3,11.6-25.4,13.4-33.2c1.8-2.2,7.6,7.4,13.6,7.8c2.6,0.2,5.2-0.9,7.4-3c0.5,0,0.9-0.1,1.4-0.2c5.2-1.4,7.7-9.2,5.5-17.5
		c-0.4-1.5-0.9-2.9-1.5-4.2c0.8-3.8,2.1-7.1,3.3-11.2c2.3-7.1,13.9-31.9,18.4-44c3.9-10.3,1.1-36-4.1-46.3
		c8.2,4.5,21.3-2.5,21.3-2.5s-8.3-29.7-5-18.9c3.3,10.8,13.9,6.9,13.9,6.9c-5-7.5-1.3-84.8-7.9-118.1
		c-6.7-33.4-52.9-130.2-96.3-151.9C554.5-2,458.8-12.9,401.3,34.6c-55.7,46-46.7,88.4-46,91c-10.7,6.3-23.6,19.4-32.7,46.3
		c-14.1,41.7-7.9,62.1-7.9,79.6c0,17.5-0.8,42.5-0.8,42.5s0,0,0-0.1c0,0,0,0.1,0,0.1c-5.3,15.3,2.4,86.4,4.2,90.7
		c4.1,9.9,13.1,19.4,26.2,13.1l0.7-1.3c2.2,16.2,4.4,30.4,5.2,33.4c0.8,3,4.3,13.1,9.6,25.6c0.5,7.9,0.3,26.3,0.3,26.3
		s-19.1,11.6-31.2,32.6c0.9-1.9-20.5,21.5-30.9,35.7c-17.1,7.4-42.2,16.9-78.8,28.3C124.6,607.7,88,645.4,61.1,715.3
		c-14.2,36.8-13.6,76.7-21.8,95c-3.2,7.1,1.4,15.2,9.1,16.2c52.7,6.7,401.4,29.3,401.4,29.3l15.9,0.1c0,0,11.5,0,17.3-0.1l0.9-0.8
		c42.8,0.3,125-3.7,125-3.7s17.1,1.5,17-1.2c112.5-8.3,205.6-24.7,244.9-32.3C880.9,815.8,886.8,805.1,883,795.5z"/>
</g>
</svg>
