<?xml version="1.0" encoding="utf-8"?>
<!-- Generator: Adobe Illustrator 27.1.1, SVG Export Plug-In . SVG Version: 6.00 Build 0)  -->
<svg version="1.1" id="Layer_2_00000026143954432351872310000007228439009425148850_"
	 xmlns="http://www.w3.org/2000/svg" xmlns:xlink="http://www.w3.org/1999/xlink" x="0px" y="0px" viewBox="0 0 927.7 866.5"
	 style="enable-background:new 0 0 927.7 866.5;" xml:space="preserve">
<style type="text/css">
	.st0{fill:none;stroke:#92FF00;stroke-width:3;stroke-linecap:round;stroke-linejoin:round;stroke-miterlimit:10;}
	.st1{fill:#E3DED7;stroke:#091222;stroke-width:3;stroke-linecap:round;stroke-linejoin:round;stroke-miterlimit:10;}
	.st2{fill:#091222;}
	.st3{clip-path:url(#SVGID_00000003107212881630118220000001384517958959485368_);}
	.st4{fill:none;stroke:#091222;stroke-miterlimit:10;}
	.st5{clip-path:url(#SVGID_00000093863868250784544670000016039334957829766842_);}
	.st6{fill:none;stroke:#091222;stroke-width:3;stroke-linecap:round;stroke-linejoin:round;stroke-miterlimit:10;}
	.st7{fill:none;stroke:#091222;stroke-width:1.0084;stroke-linecap:round;stroke-linejoin:round;stroke-miterlimit:10;}
	.st8{fill:#7A7F87;stroke:#091222;stroke-miterlimit:10;}
	.st9{fill:#7A7F87;stroke:#091222;stroke-width:3;stroke-linecap:round;stroke-linejoin:round;stroke-miterlimit:10;}
	.st10{clip-path:url(#SVGID_00000052817121429372866360000018267016464779968665_);}
	.st11{fill:#92FF00;}
	.st12{fill:#FF008A;}
	.st13{fill:#5739A4;}
	.st14{fill:none;stroke:#091222;stroke-width:2;stroke-linecap:round;stroke-linejoin:round;stroke-miterlimit:10;}
	.st15{fill:#FFFFFF;stroke:#091222;stroke-width:3;stroke-linecap:round;stroke-linejoin:round;stroke-miterlimit:10;}
	.st16{fill:#92FF00;stroke:#091222;stroke-width:3;stroke-linecap:round;stroke-linejoin:round;stroke-miterlimit:10;}
	.st17{fill:#2B1D52;}
	.st18{fill:#E3DED7;}
	.st19{fill:none;stroke:#5739A4;stroke-miterlimit:10;}
	.st20{fill:none;stroke:#FF008A;stroke-miterlimit:10;}
	.st21{fill:#422B7B;stroke:#091222;stroke-width:1.1835;stroke-linecap:round;stroke-linejoin:round;stroke-miterlimit:10;}
</style>
<g>
	<path class="st0" d="M794.2,584.5c-22.3-41.5-27.1-57.3-83.5-76.5c-36.4-12.4-64.4-19.5-79.7-23c-8.3-1.9-12.9-2.7-13-2.7
		c11.1-17.2,31-46.6,35.8-66.7c5.7-24.2,9.3-48.5,7.8-79.8c-1.4-31.3-2.1-54.9-2.1-54.9c0,0,2.9-32.1,5-44.9
		c1.1-6.4,0.7-14.3,0.8-21.7c0.1-7.5,0.6-14.6,3.5-19.6c5.7-10,9.3-27.1,12.1-43.5l5.7-2.1c0,0-38.5-64.1-87.7-103.3
		C549.7,6.4,516.2,5.7,478.4,5c-37.8-0.7-59.2,2.1-68.4,14.3c-9.3,12.1-8.6,21.4-8.6,21.4S370.8,21.4,338,59.8
		S299.5,161.1,303.1,191s17.1,69.1,17.1,69.1v0l0,0c0,0-13.5-6.4-11.4,12.1c2.1,18.5,10,19.2,11.4,34.9
		c1.4,15.5,11.8,62.1,28.5,70.2c4.1,14.7,8.9,31.8,9.8,38c1.4,9.9,16.6,47.8,36.1,62.1l-4.6-3.1l-3-3.3c0,0-13.4,6.8-33.9,17.3
		c-57.2,29.4-169.4,88.2-198.7,111.3c-39.8,31.5-52,34.1-69.5,78.7S57.4,769,57.4,769s101,75.2,251.4,81.8
		c150.4,6.6,132.5,14,243.1,1.3c110.6-12.7,229.1-32.8,277.2-79.6C829.1,772.5,816.5,626,794.2,584.5z M659.5,280.8l0.3-8.5
		C659.6,277.5,659.5,280.8,659.5,280.8L659.5,280.8L659.5,280.8z"/>
	<path class="st1" d="M357.9,382.7c-17.1-7.1-27.8-54.9-29.2-70.6c-1.4-15.7-9.3-16.4-11.4-34.9s16.6-10.2,16.6-10.2l16.1,23
		l12.6,65.5L357.9,382.7z"/>
	<path class="st2" d="M669,344c0,0-4.7,10.6,31.8,11.8c36.6,1.2,76.7,2.4,53.1,5.9c-23.6,3.5-77.8,4.7-84.9,17.7V344z"/>
	<path class="st2" d="M386.8,490.5c0,0,4.4-8.1-28.4-8.7c-36.6-0.7-78.6-0.2-55-3.7c23.6-3.5,79.8-6.9,86.9-19.9L386.8,490.5z"/>
	<path class="st2" d="M319.3,214.9c0,0,12.4-2.8-24.1-3.2c-36.6-0.5-76.7-0.9-53.1-2.3c23.6-1.4,81.1-1.8,88.2-6.8L319.3,214.9z"/>
	<path class="st2" d="M343.4,226.1c0,0,12.4-2.8-24.1-3.2c-36.6-0.5-76.7-0.9-53.1-2.3c23.6-1.4,81.1-1.8,88.2-6.8L343.4,226.1z"/>
	<path class="st2" d="M542.1,19.4c0,0-7.5,7,29.1,8.1c36.6,1.2,76.7,2.4,53.1,5.9s-77.5-2.6-84.6,10.4L542.1,19.4z"/>
	<g>
		<defs>
			<path id="SVGID_1_" d="M584.5,530.8c-5.7,1.4-47.6,10.8-69.7,7.3c-22.1-3.6-42.8-20-52.7-25.7c-9.2-5.3-38.9-17.1-55-27.3
				l-0.9,0.4c0,0-3,20.9-6.1,22.2l-0.1,0.1c0.4,1,0.9,1.9,1.5,2.9c8.3,14.4,20.1,40.7,74.3,54.7s85.3,5.7,105.4-7.9
				c20.1-13.6,21-27.5,21-27.5l-0.9-9.6l12.4-13.7c0,0,0.1-0.1,0.2-0.2l-0.4-0.1C603.2,517.9,588.8,529.7,584.5,530.8z"/>
		</defs>
		<use xlink:href="#SVGID_1_"  style="overflow:visible;fill:#E3DED7;"/>
		<clipPath id="SVGID_00000127023982230635054340000009683719771587413633_">
			<use xlink:href="#SVGID_1_"  style="overflow:visible;"/>
		</clipPath>
		<g style="clip-path:url(#SVGID_00000127023982230635054340000009683719771587413633_);">
			<g>
				<line class="st4" x1="321.5" y1="321.1" x2="321.5" y2="755.9"/>
				<line class="st4" x1="365.4" y1="321.1" x2="365.4" y2="755.9"/>
				<line class="st4" x1="409.3" y1="321.1" x2="409.3" y2="755.9"/>
				<line class="st4" x1="453.1" y1="321.1" x2="453.1" y2="755.9"/>
				<line class="st4" x1="497" y1="321.1" x2="497" y2="755.9"/>
				<line class="st4" x1="540.9" y1="321.1" x2="540.9" y2="755.9"/>
				<line class="st4" x1="584.8" y1="321.1" x2="584.8" y2="755.9"/>
				<line class="st4" x1="628.6" y1="321.1" x2="628.6" y2="755.9"/>
				<line class="st4" x1="672.5" y1="321.1" x2="672.5" y2="755.9"/>
				<line class="st4" x1="716.4" y1="321.1" x2="716.4" y2="755.9"/>
			</g>
			<g>
				<polyline class="st4" points="736.4,341.1 672,341.1 627.7,341.1 583.3,341.1 538.9,341.1 495.7,341.1 452.4,341.1 408,341.1 
					363.7,341.1 301.5,341.1 				"/>
				<polyline class="st4" points="736.4,384.9 672.1,384.9 627.7,384.9 583.3,384.9 538.9,384.9 495.7,384.9 452.3,384.9 408,384.9 
					363.7,384.9 320.4,384.9 301.5,384.9 				"/>
				<polyline class="st4" points="736.4,428.8 672.3,428.8 627.7,428.8 583.3,428.8 538.9,428.8 495.7,428.8 452.2,428.8 408,428.8 
					363.7,428.8 320.4,428.8 301.5,428.8 				"/>
				<polyline class="st4" points="736.4,472.7 672.4,472.7 627.7,472.7 583.3,472.7 538.9,472.7 495.7,472.7 452,472.7 408,472.7 
					363.7,472.7 320.4,472.7 301.5,472.7 				"/>
				<polyline class="st4" points="736.4,516.6 672.5,516.6 627.7,516.6 583.3,516.6 538.9,516.6 495.7,516.6 451.9,516.6 408,516.6 
					363.7,516.6 320.4,516.6 301.5,516.6 				"/>
				<polyline class="st4" points="736.4,560.4 672.6,560.4 627.7,560.4 583.3,560.4 538.9,560.4 495.7,560.4 451.8,560.4 408,560.4 
					363.7,560.4 320.4,560.4 301.5,560.4 				"/>
				<polyline class="st4" points="736.4,604.3 672.8,604.3 627.7,604.3 583.3,604.3 538.9,604.3 495.7,604.3 451.7,604.3 408,604.3 
					363.7,604.3 320.4,604.3 301.5,604.3 				"/>
				<polyline class="st4" points="736.4,648.2 672.9,648.2 627.7,648.2 583.3,648.2 538.9,648.2 495.7,648.2 451.5,648.2 408,648.2 
					363.7,648.2 320.4,648.2 301.5,648.2 				"/>
				<polyline class="st4" points="736.4,692.1 673,692.1 627.7,692.1 583.3,692.1 538.9,692.1 495.7,692.1 451.4,692.1 408,692.1 
					363.7,692.1 320.4,692.1 301.5,692.1 				"/>
				<polyline class="st4" points="736.4,735.9 673.1,735.9 627.7,735.9 583.3,735.9 538.9,735.9 495.7,735.9 451.3,735.9 408,735.9 
					363.7,735.9 320.4,735.9 301.5,735.9 				"/>
			</g>
		</g>
		<use xlink:href="#SVGID_1_"  style="overflow:visible;fill:none;stroke:#091222;stroke-miterlimit:10;"/>
	</g>
	<g>
		<defs>
			<path id="SVGID_00000116924848729903553470000011217746927625106847_" d="M670.1,340.7c-1.4-31.4-2.1-54.9-2.1-54.9v0l0.3-8.5
				c0.3-13.9,0.1-41.5-4.5-57c-6.4-21.4-15.7-19.2-19.2-31.4c-3.6-12.1-14.3-18.5-27.8-20c-13.5-1.4-38.5,0.7-44.9-9.3
				c-6.4-10-22.8-16.4-35.6-13.5c-12.8,2.9-42.1,0-55.6-7.8c-13.5-7.8-38.5-3.6-38.5-3.6c-24.2,0-32.1,17.1-44.2,34.9
				s-0.7,47-2.9,56.3c-2.1,9.3-15.7,12.8-34.2,20c-18.5,7.1-6.4,29.2-6.4,42.8c0,13.5,1.4,50.6-1.4,51.3c-0.9,0.2-4.8-14-8.3-24.7
				l2.5,9.9c0,0,3.7,27.6,6.5,39c2.9,11.4,12,46.2,13.4,56.2c1.4,10,16.7,48.1,36.4,62.3c1.1,0.8,2.3,1.6,3.5,2.4
				c16.1,10.3,45.8,22,55,27.3c10,5.7,30.6,22.1,52.7,25.7c22.1,3.6,64-5.9,69.7-7.3c4.4-1.1,18.8-12.9,28.8-24.5
				c3.1-3.6,5.8-7.1,7.6-10.3c7.8-13.5,35.6-51.3,41.3-75.6S671.5,372,670.1,340.7z"/>
		</defs>
		<use xlink:href="#SVGID_00000116924848729903553470000011217746927625106847_"  style="overflow:visible;fill:#E3DED7;"/>
		<clipPath id="SVGID_00000111911584554881820850000014916896102204765356_">
			<use xlink:href="#SVGID_00000116924848729903553470000011217746927625106847_"  style="overflow:visible;"/>
		</clipPath>
		<g style="clip-path:url(#SVGID_00000111911584554881820850000014916896102204765356_);">
			<g>
				<line class="st4" x1="306.7" y1="98.7" x2="306.7" y2="533.5"/>
				<line class="st4" x1="350.6" y1="98.7" x2="350.6" y2="533.5"/>
				<line class="st4" x1="394.4" y1="98.7" x2="394.4" y2="533.5"/>
				<line class="st4" x1="438.3" y1="98.7" x2="438.3" y2="533.5"/>
				<line class="st4" x1="482.2" y1="98.7" x2="482.2" y2="533.5"/>
				<line class="st4" x1="526.1" y1="98.7" x2="526.1" y2="533.5"/>
				<line class="st4" x1="569.9" y1="98.7" x2="569.9" y2="533.5"/>
				<line class="st4" x1="613.8" y1="98.7" x2="613.8" y2="533.5"/>
				<line class="st4" x1="657.7" y1="98.7" x2="657.7" y2="533.5"/>
				<line class="st4" x1="701.6" y1="98.7" x2="701.6" y2="533.5"/>
			</g>
			<g>
				<polyline class="st4" points="721.5,118.7 657.2,118.7 612.8,118.7 568.5,118.7 524.1,118.7 480.8,118.7 437.6,118.7 
					393.2,118.7 348.8,118.7 286.7,118.7 				"/>
				<polyline class="st4" points="721.5,162.6 657.3,162.6 612.8,162.6 568.5,162.6 524.1,162.6 480.8,162.6 437.4,162.6 
					393.2,162.6 348.8,162.6 305.5,162.6 286.7,162.6 				"/>
				<polyline class="st4" points="721.5,206.4 657.4,206.4 612.8,206.4 568.5,206.4 524.1,206.4 480.8,206.4 437.3,206.4 
					393.2,206.4 348.8,206.4 305.5,206.4 286.7,206.4 				"/>
				<polyline class="st4" points="721.5,250.3 657.6,250.3 612.8,250.3 568.5,250.3 524.1,250.3 480.8,250.3 437.2,250.3 
					393.2,250.3 348.8,250.3 305.5,250.3 286.7,250.3 				"/>
				<polyline class="st4" points="721.5,294.2 657.7,294.2 612.8,294.2 568.5,294.2 524.1,294.2 480.8,294.2 437.1,294.2 
					393.2,294.2 348.8,294.2 305.6,294.2 286.7,294.2 				"/>
				<polyline class="st4" points="721.5,338.1 657.8,338.1 612.8,338.1 568.5,338.1 524.1,338.1 480.8,338.1 437,338.1 393.2,338.1 
					348.8,338.1 305.6,338.1 286.7,338.1 				"/>
				<polyline class="st4" points="721.5,381.9 657.9,381.9 612.8,381.9 568.5,381.9 524.1,381.9 480.8,381.9 436.8,381.9 
					393.2,381.9 348.8,381.9 305.6,381.9 286.7,381.9 				"/>
				<polyline class="st4" points="721.5,425.8 658.1,425.8 612.8,425.8 568.5,425.8 524.1,425.8 480.8,425.8 436.7,425.8 
					393.2,425.8 348.8,425.8 305.6,425.8 286.7,425.8 				"/>
				<polyline class="st4" points="721.5,469.7 658.2,469.7 612.8,469.7 568.5,469.7 524.1,469.7 480.8,469.7 436.6,469.7 
					393.2,469.7 348.8,469.7 305.6,469.7 286.7,469.7 				"/>
				<polyline class="st4" points="721.5,513.6 658.3,513.6 612.8,513.6 568.5,513.6 524.1,513.6 480.8,513.6 436.5,513.6 
					393.2,513.6 348.8,513.6 305.6,513.6 286.7,513.6 				"/>
			</g>
		</g>
		
			<use xlink:href="#SVGID_00000116924848729903553470000011217746927625106847_"  style="overflow:visible;fill:none;stroke:#091222;stroke-width:3;stroke-linecap:round;stroke-linejoin:round;stroke-miterlimit:10;"/>
	</g>
	<path class="st2" d="M387.6,489.2l10.3-10.3l9.1,6.2c0,0-1.8,7.6-2.6,10.5c-0.8,3-1.5,9.2-4.5,12.2c-3,2.9-7.9-1.6-7.9-1.6
		L387.6,489.2z"/>
	<path class="st2" d="M607.4,50.6c-49.2-39.2-82.7-39.9-120.5-40.6s-59.2,2.1-68.4,14.3c-9.3,12.1-8.6,21.4-8.6,21.4
		s-30.6-19.2-63.4,19.2S308,166,311.6,196s17.1,69.1,17.1,69.1s21.4,75.6,24.2,74.8c2.9-0.7,1.4-37.8,1.4-51.3
		c0-13.5-12.1-35.6,6.4-42.8c18.5-7.1,32.1-10.7,34.2-20c2.1-9.3-9.3-38.5,2.9-56.3c12.1-17.8,20-34.9,44.2-34.9
		c0,0,24.9-4.3,38.5,3.6c13.5,7.8,42.8,10.7,55.6,7.8c12.8-2.9,29.2,3.6,35.6,13.5c6.4,10,31.4,7.8,44.9,9.3
		c13.5,1.4,24.2,7.8,27.8,20c3.6,12.1,12.8,10,19.2,31.4c6.4,21.4,4.3,65.6,4.3,65.6s2.9-32.1,5-44.9c1.1-6.4,0.7-14.3,0.8-21.7
		c0.1-7.5,0.6-14.6,3.5-19.6c5.7-10,9.3-27.1,12.1-43.5l5.7-2.1C695,153.9,656.6,89.8,607.4,50.6z"/>
	<path class="st6" d="M521.4,308.7c0,0,8.6,27,9.2,45.4c0.6,18.4,0.6,18.4,0.6,18.4"/>
	<path class="st6" d="M562.2,304.1c0,0-1.7,28.7,1.7,45.4c3.4,16.7,3.4,19.5,3.4,19.5"/>
	<path class="st6" d="M512.7,380.6c0,0-6.3,14.4-2.9,22.4c3.4,8,14.4,10.3,14.4,10.3"/>
	<path class="st6" d="M581.3,374.8c0,0,14.4,9.8,3.4,31.6"/>
	<path class="st6" d="M537.1,405c0,0-3.1,2.6-7.4,2.8c-4.4,0.3-3.6-3.6,3.3-3.8c6.9-0.3,12.3,5.9,16.4,9.2c4.1,3.3,17,2.8,20.5-2.3
		c4.1-5.9,8.2-11.5,8.2-11.5s6-2.5,1,1.8c-2.8,2.4-3.4,2.2-3.4,2.2"/>
	<g>
		<path class="st0" d="M491.8,452.8c0,0,12.6-1,31.8-11c9.6-5,19,4.1,25.9,1.5c6.9-2.6,11.6-7.3,18.5-5.2c6.9,2.1,16.4,8.1,25.4,7.8
			c0,0-22.6,10.7-45.2,12C525.7,459.2,491.8,452.8,491.8,452.8z"/>
		<path class="st0" d="M499.5,456.7c0,0,15.3,11.8,20.4,16.5c6.7,6.2,30.9,2.8,42.2,1.5c11.3-1.3,20.6-15.9,24.2-21.1
			c3.4-4.8,4.6-6.7,4.6-6.7s-19,9.5-39.5,10.7c-23.3,1.5-55.6-4.1-55.6-4.1L499.5,456.7z"/>
	</g>
	<g>
		<path class="st6" d="M503,453.7c0,0,12.6-1,31.8-11c9.6-5,19,4.1,25.9,1.5c6.9-2.6,11.6-7.3,18.5-5.2c6.9,2.1,16.4,8.1,25.4,7.8
			c0,0-22.6,10.7-45.2,12C536.8,460.1,503,453.7,503,453.7z"/>
		<path class="st6" d="M510.7,457.5c0,0,15.3,11.8,20.4,16.5c6.7,6.2,30.9,2.8,42.2,1.5c11.3-1.3,20.6-15.9,24.2-21.1
			c3.4-4.8,4.6-6.7,4.6-6.7s-19,9.5-39.5,10.7c-23.3,1.5-55.6-4.1-55.6-4.1L510.7,457.5z"/>
	</g>
	<line class="st7" x1="527.1" y1="406.3" x2="534.4" y2="405.2"/>
	<path class="st8" d="M802.7,589.5c-22.3-41.5-27.1-57.3-83.5-76.5c-36.4-12.4-64.4-19.5-79.7-23c4.1,7.9,6.9,18.9,8.6,36.4
		c2.8,27.8-30.6,102.8-162.2,84.3c-122.3-17.2-124.5-104.9-124.2-117.2c-57.2,29.4-169.4,88.2-198.7,111.3
		c-39.8,31.5-52,34.1-69.5,78.7C76,728.1,65.9,774,65.9,774s101,75.2,251.4,81.8c150.4,6.6,132.5,14,243.1,1.3
		c110.6-12.7,229.1-32.8,277.2-79.6C837.6,777.5,825,631,802.7,589.5z"/>
	<path class="st9" d="M485.9,610.6c131.6,18.5,164.9-56.5,162.2-84.3c-1.7-17.4-4.5-28.4-8.6-36.4c-8.4-1.9-13-2.8-13-2.8
		s-4.1,7.6-5.6,8.9c-1.4,1.2-6.3,9-7.2,10.4c-0.1,0.1-0.2,0.2-0.2,0.2l-12.4,13.7l0.9,9.6c0,0-0.9,14-21,27.5
		c-20.1,13.6-51.2,21.9-105.4,7.9s-66-40.2-74.3-54.7c-0.6-1-1-1.9-1.5-2.9c-5.9-13.5,0.5-26.5,0.5-26.5l-4.7-5.2
		c0,0-13.4,6.8-33.9,17.3C361.4,505.7,363.6,593.4,485.9,610.6z"/>
	<path class="st2" d="M677.1,137.9c0,0-4.7,10.6,31.8,11.8c36.6,1.2,76.7,2.4,53.1,5.9c-23.6,3.5-77.8,4.7-84.9,17.7V137.9z"/>
	<g>
		<defs>
			<path id="SVGID_00000112616054307801155520000002473911141250123434_" d="M802.7,589.5c-22.3-41.5-27.1-57.3-83.5-76.5
				c-36.4-12.4-64.4-19.5-79.7-23c4.1,7.9,6.9,18.9,8.6,36.4c2.8,27.8-30.6,102.8-162.2,84.3c-122.3-17.2-124.5-104.9-124.2-117.2
				c-57.2,29.4-169.4,88.2-198.7,111.3c-39.8,31.5-52,34.1-69.5,78.7C76,728.1,65.9,774,65.9,774s101,75.2,251.4,81.8
				c150.4,6.6,132.5,14,243.1,1.3c110.6-12.7,229.1-32.8,277.2-79.6C837.6,777.5,825,631,802.7,589.5z"/>
		</defs>
		<clipPath id="SVGID_00000006682548385744172180000008472658518597827476_">
			<use xlink:href="#SVGID_00000112616054307801155520000002473911141250123434_"  style="overflow:visible;"/>
		</clipPath>
		<g style="clip-path:url(#SVGID_00000006682548385744172180000008472658518597827476_);">
			<g>
				<path class="st4" d="M108.8,290.8c119.5,187.3,0,780.8,0,780.8"/>
				<path class="st4" d="M187.6,290.8c93.2,167.5,0,780.8,0,780.8"/>
				<path class="st4" d="M266.4,290.8c66.9,147.7,0,780.8,0,780.8"/>
				<path class="st4" d="M345.2,290.8c40.7,128,0,780.8,0,780.8"/>
				<path class="st4" d="M424,290.8c14.4,108.2,0,780.8,0,780.8"/>
				<path class="st4" d="M502.7,290.8c-11.9,88.4,0,780.8,0,780.8"/>
				<path class="st4" d="M581.5,290.8c-38.2,68.7,0,780.8,0,780.8"/>
				<path class="st4" d="M660.3,290.8c-64.5,48.9,0,780.8,0,780.8"/>
				<path class="st4" d="M739.1,290.8c-90.7,29.1,0,780.8,0,780.8"/>
				<path class="st4" d="M817.9,290.8c-117,9.4,0,780.8,0,780.8"/>
			</g>
			<g>
				<polyline class="st4" points="853.8,326.7 738.2,326.7 658.6,326.7 578.9,326.7 499.2,326.7 421.5,326.7 343.8,326.7 
					264.2,326.7 184.5,326.7 73,326.7 				"/>
				<polyline class="st4" points="853.8,405.4 738.4,405.4 658.6,405.4 578.9,405.4 499.2,405.4 421.5,405.4 343.6,405.4 
					264.2,405.4 184.5,405.4 106.9,405.4 73,405.4 				"/>
				<polyline class="st4" points="853.8,484.2 738.7,484.2 658.6,484.2 578.9,484.2 499.2,484.2 421.5,484.2 343.4,484.2 
					264.2,484.2 184.5,484.2 106.9,484.2 73,484.2 				"/>
				<polyline class="st4" points="853.8,563 738.9,563 658.6,563 578.9,563 499.2,563 421.5,563 343.2,563 264.2,563 184.5,563 
					106.8,563 73,563 				"/>
				<polyline class="st4" points="853.8,641.8 739.1,641.8 658.6,641.8 578.9,641.8 499.2,641.8 421.5,641.8 343,641.8 264.2,641.8 
					184.5,641.8 106.8,641.8 73,641.8 				"/>
				<polyline class="st4" points="853.8,720.6 739.3,720.6 658.6,720.6 578.9,720.6 499.2,720.6 421.5,720.6 342.7,720.6 
					264.2,720.6 184.5,720.6 106.8,720.6 73,720.6 				"/>
				<polyline class="st4" points="853.8,799.4 739.6,799.4 658.6,799.4 578.9,799.4 499.2,799.4 421.5,799.4 342.5,799.4 
					264.2,799.4 184.5,799.4 106.8,799.4 73,799.4 				"/>
				<polyline class="st4" points="853.8,878.2 739.8,878.2 658.6,878.2 578.9,878.2 499.2,878.2 421.5,878.2 342.3,878.2 
					264.2,878.2 184.5,878.2 106.8,878.2 73,878.2 				"/>
				<polyline class="st4" points="853.8,957 740,957 658.6,957 578.9,957 499.2,957 421.5,957 342.1,957 264.2,957 184.5,957 
					106.8,957 73,957 				"/>
				<polyline class="st4" points="853.8,1035.7 740.2,1035.7 658.6,1035.7 578.9,1035.7 499.2,1035.7 421.5,1035.7 341.9,1035.7 
					264.2,1035.7 184.5,1035.7 106.8,1035.7 73,1035.7 				"/>
			</g>
		</g>
		
			<use xlink:href="#SVGID_00000112616054307801155520000002473911141250123434_"  style="overflow:visible;fill:none;stroke:#091222;stroke-width:3;stroke-miterlimit:10;"/>
	</g>
	<rect x="283.6" y="294.2" class="st11" width="65.1" height="45.5"/>
	<rect x="633.2" y="468.4" class="st12" width="65.1" height="45.5"/>
	<rect x="633.2" y="487.7" class="st13" width="19.3" height="26.2"/>
	<rect x="329.3" y="303.6" class="st13" width="19.3" height="26.2"/>
	<rect x="437.3" y="294" class="st11" width="44.9" height="87.9"/>
	<g>
		<path class="st6" d="M438.3,305c-10.2,5.3-16.8,12.3-16.8,12.3s13.1,6,21.9,8.8c-3.5-4.3-5.7-9.8-5.7-15.8
			C437.8,308.5,438,306.7,438.3,305z"/>
		<path class="st14" d="M416.2,307.7c0,0,22.2-14.5,43.9-15.3c21.8-0.8,38.2,7.3,38.2,7.3"/>
		<path class="st2" d="M626.7,249.7c0,0-18,7.3-34,16c-16,8.8-26.7,13-22.5,21.8s24.4-2.7,30.2-5c5.7-2.3,27.9-13.8,35.1-14.1
			c7.3-0.4,22.2-3.4,21.8-6.5C656.8,258.8,634.3,249.3,626.7,249.7z"/>
		<path class="st14" d="M611.8,281.8c0,0,20.2-5.7,30.6,6.9"/>
		<path class="st6" d="M487.6,302.8c-0.4-0.1-0.8-0.3-1.2-0.4c0.8,2.5,1.3,5.1,1.3,7.9c0,3.2-0.6,6.2-1.7,9c0.2-0.1,0.3-0.3,0.5-0.4
			c2.7-2.3,7.6-3.8,10.7-4.2c3.1-0.4,3.8-1.5,3.8-3.1C501,311.5,496.8,305.8,487.6,302.8z"/>
		<path class="st15" d="M486.4,302.4c-9.3-2.9-24.2-5.5-38.9-1.1c-3.3,1-6.4,2.3-9.2,3.8c-0.4,1.7-0.6,3.5-0.6,5.3
			c0,6,2.1,11.5,5.7,15.8c0.4,0.1,0.7,0.2,1,0.3c8.8,2.7,18.7,2.7,26,1.9c6.9-0.7,12.7-6.6,15.6-9.1c1.1-2.8,1.7-5.8,1.7-9
			C487.7,307.5,487.2,304.9,486.4,302.4z"/>
		<path class="st6" d="M570.5,305.8c1.9,3.8,8,0.8,11.1,1.5c0.4,0.1,1.1,0.3,1.9,0.7c-1.9-3.5-3.1-7.4-3.1-11.7
			C575,301.6,568.6,302,570.5,305.8z"/>
		<path class="st6" d="M638.3,292l-2-1.3c0,0-3-1.2-7.2-2.4c0.8,2.4,1.2,4.9,1.2,7.6c0,3.6-0.8,7-2.1,10.1
			C634.5,300,638,292.9,638.3,292z"/>
		<path class="st15" d="M629.1,288.3c-4.1-1.2-9.4-2.3-14.3-2.3c-9.9,0-29,5-34.4,10.3c0,0-0.1,0.1-0.1,0.1
			c0.1,4.2,1.2,8.2,3.1,11.7c5.2,2,17.9,7.4,29,5.8c6.4-0.9,11.6-4.1,15.6-7.9c1.4-3.1,2.1-6.5,2.1-10.1
			C630.3,293.2,629.9,290.7,629.1,288.3z"/>
		<path class="st16" d="M477.7,308.1c0-3.2-1-6.1-2.7-8.5c-9.2-1.1-19.5-1.1-24.1,0.8c-1.4,2.2-2.2,4.9-2.2,7.7
			c0,8,6.5,14.5,14.5,14.5C471.2,322.6,477.7,316.1,477.7,308.1z"/>
		<rect x="457.9" y="299.8" class="st2" width="12.2" height="12.2"/>
		<path class="st16" d="M621.1,294.9c0-3.3-1.1-6.3-3-8.6c0,0-7.5-0.5-11.8,0.3c-6.2,1.1-11.3,2.3-11.5,2.9c-1,2.5-1.1,3.5-1.1,5.4
			c0,7.6,6.1,13.7,13.7,13.7S621.1,302.5,621.1,294.9z"/>
		<path class="st2" d="M391.4,284.4c-3.4,3.4,13-0.4,18.3-1.5c5.3-1.1,23.7-6.5,30.2-6.1c0.6,0,1.7,0.2,3,0.5v-15.2
			C425.2,264.5,391.4,284.4,391.4,284.4z"/>
		<path class="st2" d="M512.9,284c-1.6-2.1-20.4-10-38.4-15.8v18.6c11.8,3.7,22.9,7.2,27,7.9C510.6,296.3,515.5,287.5,512.9,284z"/>
		<path class="st2" d="M446,257.4c-1,0-2,0.1-3.1,0.2v15.2c6.2,1.5,19.2,5.6,31.5,9.5v-18.6C463.2,260.1,452.3,257.4,446,257.4z"/>
		<rect x="602.6" y="286.7" class="st2" width="12.2" height="12.2"/>
	</g>
	<g>
		<path class="st11" d="M886.5,501.3v13.2H756.6c-19.1-5.3-39.8-10.4-57.6-13.2H886.5z"/>
		<path class="st13" d="M651.8,501.3H699c17.8,2.8,38.5,7.8,57.6,13.2H651.8V501.3z"/>
		<path class="st12" d="M860.2,670.3H634.2v-3.8c95.6-3.8,173.4-10.2,226.1-15.3V670.3z"/>
		<path class="st2" d="M860.2,641.2v10c-52.6,5.2-130.5,11.5-226.1,15.3v-25.3H860.2z"/>
		<g>
			<path class="st17" d="M171.8,721.9v8.8H56.1c1.8-2.7,3.5-5.7,4.7-8.8H171.8z"/>
			<path class="st12" d="M41.3,721.9h19.6c-1.3,3.1-2.9,6.1-4.7,8.8H41.3V721.9z"/>
		</g>
	</g>
	<g>
		<rect x="438.3" y="219.6" class="st18" width="183.1" height="15.4"/>
		<g>
			<line class="st19" x1="462.5" y1="219.6" x2="462.5" y2="236"/>
			<line class="st20" x1="470.1" y1="219.6" x2="470.1" y2="236"/>
		</g>
		<g>
			<line class="st19" x1="497.5" y1="219.6" x2="497.5" y2="236"/>
			<line class="st20" x1="505.2" y1="219.6" x2="505.2" y2="236"/>
		</g>
		<g>
			<line class="st19" x1="540.3" y1="219.6" x2="540.3" y2="236"/>
			<line class="st20" x1="548" y1="219.6" x2="548" y2="236"/>
		</g>
		<g>
			<line class="st19" x1="586.4" y1="219.6" x2="586.4" y2="236"/>
			<line class="st20" x1="594" y1="219.6" x2="594" y2="236"/>
		</g>
	</g>
	<g>
		<rect x="300.8" y="528.8" class="st18" width="183.1" height="15.4"/>
		<g>
			<line class="st19" x1="324.9" y1="528.8" x2="324.9" y2="545.2"/>
			<line class="st20" x1="332.6" y1="528.8" x2="332.6" y2="545.2"/>
		</g>
		<g>
			<line class="st19" x1="360" y1="528.8" x2="360" y2="545.2"/>
			<line class="st20" x1="367.6" y1="528.8" x2="367.6" y2="545.2"/>
		</g>
		<g>
			<line class="st19" x1="402.7" y1="528.8" x2="402.7" y2="545.2"/>
			<line class="st20" x1="410.4" y1="528.8" x2="410.4" y2="545.2"/>
		</g>
		<g>
			<line class="st19" x1="448.8" y1="528.8" x2="448.8" y2="545.2"/>
			<line class="st20" x1="456.5" y1="528.8" x2="456.5" y2="545.2"/>
		</g>
	</g>
	<g>
		<path class="st12" d="M253.6,571.5v-4.8H315v5.3C297,571.6,276.1,571.4,253.6,571.5z"/>
		<path class="st21" d="M292.7,534.3c0,0-6.1,4.4-12,12h-17.4L292.7,534.3z"/>
		<path class="st11" d="M200.5,566.4h-62.3v-20.1h125.2l-8.9,3.7C254.5,550,230.8,556.1,200.5,566.4z"/>
		<path class="st2" d="M280.8,546.3h37.3v20.1h-46.9c0.1-0.4,0.2-0.7,0.2-1.1C273.2,557.7,276.9,551.3,280.8,546.3z"/>
		<path class="st12" d="M245.7,566.4h-45.2c30.3-10.3,54-16.4,54-16.4S247.9,553.5,245.7,566.4z"/>
		<path class="st13" d="M254.5,550l8.9-3.7h17.4c-3.9,5-7.6,11.4-9.4,19c-0.1,0.4-0.2,0.7-0.2,1.1h-25.5
			C247.9,553.5,254.5,550,254.5,550z"/>
	</g>
</g>
</svg>
