<?xml version="1.0" encoding="UTF-8"?><svg id="Layer_2" xmlns="http://www.w3.org/2000/svg" xmlns:xlink="http://www.w3.org/1999/xlink" viewBox="0 0 878.62 899.45"><defs><style>.cls-1,.cls-2,.cls-3,.cls-4,.cls-5,.cls-6,.cls-7,.cls-8{fill:none;}.cls-1,.cls-2,.cls-9,.cls-10,.cls-11,.cls-12,.cls-7{stroke-width:3px;}.cls-1,.cls-13,.cls-3,.cls-4,.cls-5,.cls-6,.cls-10{stroke-miterlimit:10;}.cls-1,.cls-13,.cls-3,.cls-14,.cls-9,.cls-10,.cls-11,.cls-12,.cls-7,.cls-8{stroke:#0b1221;}.cls-2{stroke:#afff00;}.cls-2,.cls-14,.cls-9,.cls-11,.cls-12,.cls-7,.cls-8{stroke-linecap:round;stroke-linejoin:round;}.cls-15{clip-path:url(#clippath);}.cls-16,.cls-12{fill:#fff;}.cls-17{fill:#ff2f8a;}.cls-18,.cls-9{fill:#afff00;}.cls-19,.cls-13,.cls-10,.cls-11{fill:#e2ded8;}.cls-20,.cls-14{fill:#0b1221;}.cls-21{fill:#523aa0;}.cls-22{clip-path:url(#clippath-1);}.cls-23{clip-path:url(#clippath-2);}.cls-4{stroke:#b5b7bc;}.cls-5{stroke:#ff2f8a;}.cls-6{stroke:#523aa0;}.cls-14,.cls-8{stroke-width:1.1px;}</style><clipPath id="clippath"><path class="cls-13" d="M537,490.36c-2.17,15.21,3.04,41.73,3.04,41.73,7.39,45.21,53.9,80.42,53.9,80.42-20.87,26.08-46.08,49.56-139.1,55.21-93.02,5.65-133.45-50.42-133.45-50.42l11.3-41.73c11.3-41.73-1.74-86.07-1.74-86.07,0,0,27.25,8.44,30.13,8.44s32.62,2.88,68.13,2.88,47.5-.48,47.5-.48c0,0,27.83-.48,33.58-1.44s11.76-2.88,15.35-4.32c7.2-2.88,11.35-4.21,11.35-4.21Z"/></clipPath><clipPath id="clippath-1"><path class="cls-10" d="M604.33,289.4s-2.93-19.07-9.54-37.41c-6.6-18.34-19.17-64.38-20.96-78.04-1.79-13.66-14.26-44.47-22.33-57.68-8.07-13.21-45.48-52.09-66.76-55.76,0,0-30.81-22.74-71.89-20.54-41.08,2.2-102.71,33.75-115.91,88.03-13.2,54.29-16.14,70.43-14.67,104.17,1.47,33.75-2.2,76.3-8.8,90.97-6.6,14.67,3.67,61.62,4.4,78.5,.73,16.87,30.08,79.23,49.15,85.83,1.48,.51,2.92,1.01,4.34,1.51,16.86,5.86,30.05,10.29,55.08,10.96l37.53,.41s73.97,1.06,91.58-2.61c5.57-1.16,12.9-3.87,20.71-7.76,16.89-8.42,36.05-22.4,44.58-38.46,12.47-23.48,16.87-62.36,22.01-106.37,5.14-44.02,1.47-55.75,1.47-55.75Z"/></clipPath><clipPath id="clippath-2"><path class="cls-20" d="M774.65,668.41c-29.96-26.22-101.12-43.45-120.6-47.19-19.48-3.74-60.26-8.89-60.26-8.89h0c-20.87,26.08-46.08,49.56-139.1,55.21-93.03,5.65-133.45-50.42-133.45-50.42t4.7-17.37l-.36-.02s-24.34,11.3-48.69,18.26c-24.34,6.95-106.07,29.99-120.41,33.04-14.35,3.04-72.59,15.21-99.55,34.34C29.99,704.48,0,785.77,0,785.77c0,0,138.71,120.83,460.05,113.34,0,0,288.38-13.48,404.48-119.1,0,0-59.92-85.39-89.89-111.61Z"/></clipPath></defs><g id="background_black"><g><path class="cls-2" d="M787.24,656.73c-29.96-26.22-101.12-43.44-120.6-47.19-19.48-3.74-60.26-8.89-60.26-8.89,0,0-29.83-138.83-19.93-150.67,.12,5.02,.08-.1,.08-.1,2.69-3.23,5.07-6.57,6.9-10.03,12.47-23.48,16.87-62.36,22.01-106.37,5.14-44.02,1.47-55.75,1.47-55.75,0,0-.49-3.13-1.49-8.04l.76,1.44s4.4-38.88-.73-61.62c-5.14-22.74-19.81-71.89-24.94-90.97-5.14-19.07-19.81-41.82-43.28-61.62-21.7-18.31-50.89-22.2-55.2-22.68-4.68-7.67-13.45-16.72-29.9-22.8-33.75-12.47-142.32-28.61-200.27,58.69-57.95,87.3-62.36,159.19-77.03,205.41-14.67,46.22-19.81,122.51-44.75,185.6-24.94,63.09-29.96,99.97-25.68,124.71,5.14,29.68-17.61,51.35-16.14,71.89,0,0-1.77-3.18-28.72,15.94-26.95,19.13-56.95,100.42-56.95,100.42,0,0,138.71,120.83,460.05,113.34,0,0,288.38-13.48,404.48-119.1,0,0-59.92-85.39-89.88-111.61Z"/><path class="cls-20" d="M105.35,627.03s4.73-8.66-30.56-9.38c-39.34-.8-84.59-.21-59.22-4.01,25.38-3.81,85.86-7.41,93.47-21.36l-3.69,34.75Z"/><path class="cls-20" d="M582.9,519.36s-2.23,5.03,15.08,5.58,36.29,1.12,25.13,2.79c-11.17,1.68-36.85,2.23-40.2,8.38v-16.75Z"/><g><path class="cls-14" d="M574.06,463.8c-.08-.68-.15-1.37-.21-2.09-9.81,11.71-24.38,21.7-37.58,28.27l.58,.19c-2.17,15.21,3.04,41.73,3.04,41.73,7.39,45.21,53.9,80.42,53.9,80.42,0,0,9.18,1.16,20.91,2.78,3.49-21.73-9.55-46.55-19.39-64.91-9.97-18.61-15.95-40.54-21.27-86.39Z"/><path class="cls-14" d="M85.66,669.41l9.12-1.93c25.41-8.84,52.53-14.53,61.71-16.47,14.35-3.04,96.07-26.08,120.41-33.04,24.34-6.95,48.69-18.26,48.69-18.26l.36,.02c-.06,.24-.12,.44-.18,.67,1.62-5.96,3.8-14.04,6.78-25.03,11.3-41.73-1.74-86.07-1.74-86.07l.56-.32c-1.42-.49-2.86-.99-4.34-1.51-19.07-6.6-48.42-68.96-49.15-85.83-.73-16.87-11-63.82-4.4-78.5,6.6-14.67,10.27-57.22,8.8-90.97-1.47-33.75,1.47-49.89,14.67-104.17,13.2-54.29,74.83-85.83,115.91-88.03,41.08-2.2,71.89,20.54,71.89,20.54,21.27,3.67,58.69,42.55,66.76,55.76,8.07,13.2,20.54,44.02,22.33,57.68,1.79,13.66,14.35,59.7,20.96,78.04,3.9,10.83,6.51,21.89,8,29.15,6.27-19.8,2.02-55.08-1.2-70.49-3.31-15.8-20.53-80.4-43.35-117.56-28.18-45.88-78.3-48.1-78.3-48.1l4.64,14.19c-.86-5.33-5.96-25.32-35.04-36.07-33.75-12.47-142.32-28.61-200.27,58.69-57.95,87.3-62.36,159.19-77.03,205.41-14.67,46.22-19.81,122.51-44.75,185.6-24.94,63.09-29.96,99.97-25.68,124.71,5.14,29.68-17.61,51.35-16.14,71.89Z"/></g><g><path class="cls-19" d="M537,490.36c-2.17,15.21,3.04,41.73,3.04,41.73,7.39,45.21,53.9,80.42,53.9,80.42-20.87,26.08-46.08,49.56-139.1,55.21-93.02,5.65-133.45-50.42-133.45-50.42l11.3-41.73c11.3-41.73-1.74-86.07-1.74-86.07,0,0,27.25,8.44,30.13,8.44s32.62,2.88,68.13,2.88,47.5-.48,47.5-.48c0,0,27.83-.48,33.58-1.44s11.76-2.88,15.35-4.32c7.2-2.88,11.35-4.21,11.35-4.21Z"/><g class="cls-15"><g><g><line class="cls-3" x1="204.62" y1="405.91" x2="204.62" y2="897.6"/><line class="cls-3" x1="254.24" y1="405.91" x2="254.24" y2="897.6"/><line class="cls-3" x1="303.85" y1="405.91" x2="303.85" y2="897.6"/><line class="cls-3" x1="353.47" y1="405.91" x2="353.47" y2="897.6"/><line class="cls-3" x1="403.08" y1="405.91" x2="403.08" y2="897.6"/><line class="cls-3" x1="452.7" y1="405.91" x2="452.7" y2="897.6"/><line class="cls-3" x1="502.31" y1="405.91" x2="502.31" y2="897.6"/><line class="cls-3" x1="551.93" y1="405.91" x2="551.93" y2="897.6"/><line class="cls-3" x1="601.54" y1="405.91" x2="601.54" y2="897.6"/><line class="cls-3" x1="651.16" y1="405.91" x2="651.16" y2="897.6"/></g><g><polyline class="cls-3" points="673.74 428.48 600.99 428.48 550.81 428.48 500.64 428.48 450.47 428.48 401.55 428.48 352.63 428.48 302.46 428.48 252.28 428.48 182.04 428.48"/><polyline class="cls-3" points="673.74 478.1 601.13 478.1 550.81 478.1 500.64 478.1 450.47 478.1 401.55 478.1 352.49 478.1 302.46 478.1 252.28 478.1 203.32 478.1 182.04 478.1"/><polyline class="cls-3" points="673.74 527.72 601.27 527.72 550.81 527.72 500.64 527.72 450.47 527.72 401.55 527.72 352.35 527.72 302.46 527.72 252.28 527.72 203.33 527.72 182.04 527.72"/><polyline class="cls-3" points="673.74 577.33 601.4 577.33 550.81 577.33 500.64 577.33 450.47 577.33 401.55 577.33 352.21 577.33 302.46 577.33 252.28 577.33 203.33 577.33 182.04 577.33"/><polyline class="cls-3" points="673.74 626.95 601.54 626.95 550.81 626.95 500.64 626.95 450.47 626.95 401.55 626.95 352.07 626.95 302.46 626.95 252.28 626.95 203.34 626.95 182.04 626.95"/><polyline class="cls-3" points="673.74 676.56 601.68 676.56 550.81 676.56 500.64 676.56 450.47 676.56 401.55 676.56 351.93 676.56 302.46 676.56 252.28 676.56 203.34 676.56 182.04 676.56"/><polyline class="cls-3" points="673.74 726.18 601.82 726.18 550.81 726.18 500.64 726.18 450.47 726.18 401.55 726.18 351.79 726.18 302.46 726.18 252.28 726.18 203.35 726.18 182.04 726.18"/><polyline class="cls-3" points="673.74 775.79 601.96 775.79 550.81 775.79 500.64 775.79 450.47 775.79 401.55 775.79 351.65 775.79 302.46 775.79 252.28 775.79 203.35 775.79 182.04 775.79"/><polyline class="cls-3" points="673.74 825.41 602.1 825.41 550.81 825.41 500.64 825.41 450.47 825.41 401.55 825.41 351.52 825.41 302.46 825.41 252.28 825.41 203.36 825.41 182.04 825.41"/><polyline class="cls-3" points="673.74 875.02 602.24 875.02 550.81 875.02 500.64 875.02 450.47 875.02 401.55 875.02 351.38 875.02 302.46 875.02 252.28 875.02 203.37 875.02 182.04 875.02"/></g></g></g><path class="cls-3" d="M537,490.36c-2.17,15.21,3.04,41.73,3.04,41.73,7.39,45.21,53.9,80.42,53.9,80.42-20.87,26.08-46.08,49.56-139.1,55.21-93.02,5.65-133.45-50.42-133.45-50.42l11.3-41.73c11.3-41.73-1.74-86.07-1.74-86.07,0,0,27.25,8.44,30.13,8.44s32.62,2.88,68.13,2.88,47.5-.48,47.5-.48c0,0,27.83-.48,33.58-1.44s11.76-2.88,15.35-4.32c7.2-2.88,11.35-4.21,11.35-4.21Z"/></g><g><path class="cls-19" d="M604.33,289.4s-2.93-19.07-9.54-37.41c-6.6-18.34-19.17-64.38-20.96-78.04-1.79-13.66-14.26-44.47-22.33-57.68-8.07-13.21-45.48-52.09-66.76-55.76,0,0-30.81-22.74-71.89-20.54-41.08,2.2-102.71,33.75-115.91,88.03-13.2,54.29-16.14,70.43-14.67,104.17,1.47,33.75-2.2,76.3-8.8,90.97-6.6,14.67,3.67,61.62,4.4,78.5,.73,16.87,30.08,79.23,49.15,85.83,1.48,.51,2.92,1.01,4.34,1.51,16.86,5.86,30.05,10.29,55.08,10.96l37.53,.41s73.97,1.06,91.58-2.61c5.57-1.16,12.9-3.87,20.71-7.76,16.89-8.42,36.05-22.4,44.58-38.46,12.47-23.48,16.87-62.36,22.01-106.37,5.14-44.02,1.47-55.75,1.47-55.75Z"/><g class="cls-22"><g><g><line class="cls-3" x1="177.51" y1="24.54" x2="220.31" y2="500.54"/><line class="cls-3" x1="223.63" y1="24.54" x2="266.44" y2="500.54"/><line class="cls-3" x1="269.76" y1="24.54" x2="312.57" y2="500.54"/><line class="cls-3" x1="315.89" y1="24.54" x2="358.7" y2="500.54"/><line class="cls-3" x1="362.02" y1="24.54" x2="404.83" y2="500.54"/><line class="cls-3" x1="408.15" y1="24.54" x2="450.95" y2="500.54"/><line class="cls-3" x1="454.28" y1="24.54" x2="497.08" y2="500.54"/><line class="cls-3" x1="500.41" y1="24.54" x2="543.21" y2="500.54"/><line class="cls-3" x1="546.53" y1="24.54" x2="589.34" y2="500.54"/><line class="cls-3" x1="592.66" y1="24.54" x2="635.47" y2="500.54"/></g><g><polyline class="cls-3" points="656.46 64.39 588.82 64.39 542.17 64.39 512.92 69.73 466.27 69.73 420.79 69.73 357.92 64.39 311.27 64.39 264.63 64.39 199.32 64.39"/><polyline class="cls-3" points="656.46 110.52 589.21 110.52 586.81 110.52 543.14 108.84 520.45 111.68 514.16 112.7 471.54 112.7 467.8 112.7 422.58 112.7 392.83 113.05 357.79 110.52 311.27 110.52 264.63 110.52 219.1 110.52 199.32 110.52"/><polyline class="cls-3" points="656.46 156.64 589.59 156.64 587.21 156.64 544.1 153.29 521.67 154.78 515.41 155.68 473.04 155.68 469.32 155.68 424.37 155.68 394.15 158.86 357.66 156.64 311.27 156.64 264.63 156.64 219.11 156.64 199.32 156.64"/><polyline class="cls-3" points="656.46 202.77 589.98 202.77 587.6 202.77 545.07 197.74 522.89 197.88 516.65 198.65 474.54 198.65 470.85 198.65 426.16 198.65 395.47 204.68 357.53 202.77 311.27 202.77 264.63 202.77 219.11 202.77 199.32 202.77"/><polyline class="cls-3" points="656.46 248.9 590.37 248.9 588 248.9 546.03 242.2 524.1 240.98 517.9 241.62 476.04 241.62 472.38 241.62 427.95 241.62 396.8 250.49 357.4 248.9 311.27 248.9 264.63 248.9 219.12 248.9 199.32 248.9"/><polyline class="cls-3" points="656.46 295.03 590.75 295.03 588.4 295.03 546.99 286.65 525.32 284.09 519.14 284.6 477.54 284.6 473.9 284.6 429.74 284.6 398.12 296.3 357.27 295.03 311.27 295.03 264.63 295.03 219.13 295.03 199.32 295.03"/><polyline class="cls-3" points="656.46 341.16 591.14 341.16 588.8 341.16 547.96 331.1 526.54 327.19 520.39 327.57 479.04 327.57 475.43 327.57 431.53 327.57 399.44 342.11 357.14 341.16 311.27 341.16 264.63 341.16 219.13 341.16 199.32 341.16"/><polyline class="cls-3" points="656.46 387.29 591.53 387.29 589.19 387.29 548.92 375.55 527.76 370.29 521.63 370.55 480.55 370.55 476.95 370.55 433.32 370.55 400.76 387.92 357.01 387.29 311.27 387.29 264.63 387.29 219.14 387.29 199.32 387.29"/><polyline class="cls-3" points="656.46 433.42 591.91 433.42 589.59 433.42 549.89 420 528.98 413.39 522.88 413.52 482.05 413.52 478.48 413.52 435.11 413.52 402.08 433.73 356.88 433.42 311.27 433.42 264.63 433.42 219.14 433.42 199.32 433.42"/><polyline class="cls-3" points="656.46 479.54 589.99 479.54 530.2 456.49 483.55 456.49 436.9 456.49 403.4 479.54 356.75 479.54 311.27 479.54 264.63 479.54 219.15 479.54 199.32 479.54"/></g></g></g><path class="cls-1" d="M604.33,289.4s-2.93-19.07-9.54-37.41c-6.6-18.34-19.17-64.38-20.96-78.04-1.79-13.66-14.26-44.47-22.33-57.68-8.07-13.21-45.48-52.09-66.76-55.76,0,0-30.81-22.74-71.89-20.54-41.08,2.2-102.71,33.75-115.91,88.03-13.2,54.29-16.14,70.43-14.67,104.17,1.47,33.75-2.2,76.3-8.8,90.97-6.6,14.67,3.67,61.62,4.4,78.5,.73,16.87,30.08,79.23,49.15,85.83,1.48,.51,2.92,1.01,4.34,1.51,16.86,5.86,30.05,10.29,55.08,10.96l37.53,.41s73.97,1.06,91.58-2.61c5.57-1.16,12.9-3.87,20.71-7.76,16.89-8.42,36.05-22.4,44.58-38.46,12.47-23.48,16.87-62.36,22.01-106.37,5.14-44.02,1.47-55.75,1.47-55.75Z"/></g><g><path class="cls-20" d="M774.65,668.41c-29.96-26.22-101.12-43.45-120.6-47.19-19.48-3.74-60.26-8.89-60.26-8.89h0c-20.87,26.08-46.08,49.56-139.1,55.21-93.03,5.65-133.45-50.42-133.45-50.42t4.7-17.37l-.36-.02s-24.34,11.3-48.69,18.26c-24.34,6.95-106.07,29.99-120.41,33.04-14.35,3.04-72.59,15.21-99.55,34.34C29.99,704.48,0,785.77,0,785.77c0,0,138.71,120.83,460.05,113.34,0,0,288.38-13.48,404.48-119.1,0,0-59.92-85.39-89.89-111.61Z"/><g class="cls-23"><g><g><path class="cls-4" d="M-117.35,293.87S237.06,745.86,75.97,931.39"/><path class="cls-4" d="M9.25,299.24c-20.18,7.5,277.44,456.06,150.35,632.15"/><path class="cls-4" d="M135.85,304.61c-40.35,15.01,200.47,460.13,107.4,626.78"/><path class="cls-4" d="M262.45,309.98c-60.53,22.51,123.51,464.2,64.44,621.41"/><path class="cls-4" d="M389.04,315.35c-80.71,30.01,46.54,468.27,21.48,616.04"/><path class="cls-4" d="M515.64,320.72c-100.89,37.52-30.43,472.33-21.48,610.67"/><path class="cls-4" d="M642.24,326.09c-121.06,45.02-107.4,476.4-64.44,605.3"/><path class="cls-4" d="M768.84,331.45c-141.24,52.52-184.36,480.47-107.4,599.93"/><path class="cls-4" d="M895.43,336.82c-161.42,60.03-261.33,484.54-150.35,594.56"/><path class="cls-4" d="M1022.03,342.19c-181.6,67.53-338.3,488.61-193.31,589.19"/></g><g><polyline class="cls-4" points="923.91 309.01 666.3 309.01 599.73 309.01 533.17 309.01 466.6 309.01 401.7 309.01 336.8 309.01 270.24 309.01 203.68 309.01 -105.63 309.01"/><polyline class="cls-4" points="923.91 374.84 666.48 374.84 599.73 374.84 533.17 374.84 466.6 374.84 401.7 374.84 336.62 374.84 270.24 374.84 203.68 374.84 138.79 374.84 -105.63 374.84"/><polyline class="cls-4" points="923.91 440.66 666.67 440.66 599.73 440.66 533.17 440.66 466.6 440.66 401.7 440.66 336.43 440.66 270.24 440.66 203.68 440.66 138.79 440.66 -105.63 440.66"/><polyline class="cls-4" points="923.91 506.48 666.85 506.48 599.73 506.48 533.17 506.48 466.6 506.48 401.7 506.48 336.25 506.48 270.24 506.48 203.68 506.48 138.79 506.48 -105.63 506.48"/><polyline class="cls-4" points="923.91 572.31 667.04 572.31 599.73 572.31 533.17 572.31 466.6 572.31 401.7 572.31 336.06 572.31 270.24 572.31 203.68 572.31 138.79 572.31 -105.63 572.31"/><polyline class="cls-4" points="923.91 638.13 667.22 638.13 599.73 638.13 533.17 638.13 466.6 638.13 401.7 638.13 335.88 638.13 270.24 638.13 203.68 638.13 138.78 638.13 -105.63 638.13"/><polyline class="cls-4" points="923.91 703.96 667.41 703.96 599.73 703.96 533.17 703.96 466.6 703.96 401.7 703.96 335.69 703.96 270.24 703.96 203.68 703.96 138.78 703.96 -105.63 703.96"/><polyline class="cls-4" points="923.91 769.78 667.59 769.78 599.73 769.78 533.17 769.78 466.6 769.78 401.7 769.78 335.51 769.78 270.24 769.78 203.68 769.78 138.78 769.78 -105.63 769.78"/><polyline class="cls-4" points="923.91 835.61 667.78 835.61 599.73 835.61 533.17 835.61 466.6 835.61 401.7 835.61 335.32 835.61 270.24 835.61 203.68 835.61 138.78 835.61 -105.63 835.61"/></g></g></g></g><g><path class="cls-18" d="M531.82,608.67v14.16h139.74c20.59-5.74,42.83-11.18,61.99-14.16h-201.73Z"/><path class="cls-21" d="M784.27,608.67h-50.73c-19.16,2.98-41.4,8.42-61.99,14.16h112.72v-14.16Z"/><path class="cls-18" d="M374.75,704.98h95.56v-12.54c-40.39-12.6-73.3-33.36-95.56-50.33v62.88Z"/><path class="cls-18" d="M384.72,614.55v18.11c12.33,9.4,30.56,20.9,52.94,27.88v-45.99h-52.94Z"/><path class="cls-16" d="M650.97,660.58v9.44h124.4c-1.95-2.9-3.75-6.08-5.11-9.44h-119.3Z"/><path class="cls-17" d="M791.35,660.58h-21.09c1.36,3.35,3.16,6.54,5.11,9.44h15.98v-9.44Z"/></g><rect class="cls-20" x="823.23" y="705.13" width="23.03" height="23.03"/><path class="cls-20" d="M577.01,137.45s-5.08,11.42,34.26,12.69c39.33,1.27,82.47,2.54,57.1,6.34-25.38,3.81-83.74,5.08-91.35,19.03v-38.06Z"/><path class="cls-20" d="M590.65,168.1s-8.04,7.5,31.29,8.77c39.33,1.27,82.47,2.54,57.1,6.34-25.38,3.81-83.4-2.8-91.02,11.16l2.63-26.27Z"/><path class="cls-20" d="M198.57,240.26s13.38-7.76-25.95-9.03c-39.33-1.27-82.47-2.54-57.1-6.34,25.38-3.81,87.24-4.88,94.85-18.84l-11.8,34.21Z"/><path class="cls-20" d="M199.22,252.49s.27-7.22-17.04-7.78c-17.31-.56-36.29-1.12-25.13-2.79,11.17-1.68,48.64-3.97,51.99-10.12l-9.82,20.68Z"/><path class="cls-20" d="M540.07,141.72s-41.95,7.67-46.04,11.26c-4.09,3.58,4.6,28.65,7.16,29.67,2.56,1.02,33.77-17.91,40.42-18.93,6.65-1.02,32.23,10.23,32.23,10.23l-4.6-16.88s-24.56-15.86-29.16-15.35Z"/><path class="cls-7" d="M432.66,301.88s-7.34,24.21,0,33.01c7.34,8.8,22.01,5.14,22.01,5.14"/><path class="cls-7" d="M522.16,335.62c8.8-2.93,12.47-19.81,11.74-25.68-.73-5.87-20.54-27.88-20.54-27.88"/><path class="cls-20" d="M484.25,317.6s-4.78-4.78-15.21-.43c-10.43,4.35-8.26,14.78-5.65,15.21,2.61,.43,10-1.74,10.87-6.52,.87-4.78,3.91-5.22,5.22-5.22s5.22,.87,4.78-3.04Z"/><path class="cls-20" d="M513.38,309.78s-10.43,3.48-9.56,6.09c.87,2.61,3.04,1.74,4.78,3.91s3.04,5.65,6.52,5.22c3.48-.43,5.22-13.91-1.74-15.21Z"/><line class="cls-7" x1="471.63" y1="218.78" x2="492.93" y2="278.77"/><path class="cls-11" d="M278.64,408.02s-20-2.17-25.65-14.34c0,0,.3-46.86,.85-66.35,.56-19.49,16.97-43.19,16.97-43.19,3.48,0,8.69,7.39,8.69,7.39,0,0-.05,14.64-2.83,22.44-2.78,7.8-7.24,20.6-5.57,32.86,1.67,12.25,7.53,61.2,7.53,61.2Z"/><path class="cls-7" d="M254.3,366.72s2.17-2.61,4.35,2.61c2.17,5.22,10.43,1.74,6.52-7.82-3.91-9.56-9.13-24.34-6.52-30.86"/><path class="cls-8" d="M564.11,216.93s-1.17-1.85-3.11-4.46c-.68,2.86-1.82,5.54-3.37,7.94,4.04-1.86,6.48-3.48,6.48-3.48Z"/><g><path class="cls-2" d="M414.36,403.09s10.43-2.17,21.73-12.17c11.3-10,28.26-25.65,36.95-23.47,8.69,2.17,9.56,4.78,16.52,.43,6.96-4.35,10.43-6.52,15.65-2.17,5.22,4.35,24.78,29.12,24.78,29.12,0,0-21.73-2.17-34.78-3.04-13.04-.87-31.3,3.04-51.73,8.69-20.43,5.65-29.12,2.61-29.12,2.61Z"/><path class="cls-2" d="M527.82,400.05s-7.39,13.04-25.21,16.08c-17.82,3.04-43.9,3.04-53.47,.87-9.56-2.17-34.78-13.91-34.78-13.91,0,0,16.52,2.17,46.51-7.39,0,0,21.73-3.91,28.69-3.91s40.43,3.04,40.43,3.04l-2.17,5.22Z"/></g><g><path class="cls-7" d="M431.22,402.37s10.43-2.17,21.73-12.17c11.3-10,28.26-25.65,36.95-23.47,8.69,2.17,9.56,4.78,16.52,.43,6.96-4.35,10.43-6.52,15.65-2.17,5.22,4.35,24.78,29.12,24.78,29.12,0,0-21.73-2.17-34.78-3.04-13.04-.87-31.3,3.04-51.73,8.69-20.43,5.65-29.12,2.61-29.12,2.61Z"/><path class="cls-7" d="M544.67,399.33s-7.39,13.04-25.21,16.08c-17.82,3.04-43.9,3.04-53.47,.87-9.56-2.17-34.78-13.91-34.78-13.91,0,0,16.52,2.17,46.51-7.39,0,0,21.73-3.91,28.69-3.91s40.43,3.04,40.43,3.04l-2.17,5.22Z"/></g><path class="cls-20" d="M411.65,158.6c-3.53-3.26-22.32-3.92-40.18-3.83l2.94,25.24c9.18,1.45,17.25,3.11,21.89,4.17,11.26,2.56,20.46,2.56,19.95-4.09,0,0,2.05-15.35-4.6-21.49Z"/><path class="cls-20" d="M309.33,171.9c-8.7,10.74-16.88,15.35-11.26,18.42,5.02,2.74,15.35-7.94,30.95-11.73l-1.66-20.44c-6,2.64-12.77,7.24-18.04,13.75Z"/><path class="cls-20" d="M337.47,148.14c-2.62,0-6.2,.91-10.1,2.62l1.66,20.44c1.89-.46,3.84-.84,5.88-1.06,11.11-1.2,26.44,.42,39.5,2.48l-2.03-24.87c-15.81,.08-31.78,.38-34.91,.38Z"/><path class="cls-20" d="M188.47,260.78s13.38-3-25.95-3.49c-39.33-.49-82.47-.98-57.1-2.45,25.38-1.47,87.24-1.89,94.85-7.28l-11.8,13.23Z"/><path class="cls-20" d="M214.39,272.74s13.38-3-25.95-3.49c-39.33-.49-82.47-.98-57.1-2.45,25.38-1.47,87.24-1.89,94.85-7.28l-11.8,13.23Z"/><g><g><rect class="cls-19" x="336.98" y="584.52" width="197.01" height="16.52"/><g><line class="cls-6" x1="362.93" y1="584.52" x2="362.93" y2="602.22"/><line class="cls-5" x1="371.19" y1="584.52" x2="371.19" y2="602.22"/></g><g><line class="cls-6" x1="400.68" y1="584.52" x2="400.68" y2="602.22"/><line class="cls-5" x1="408.94" y1="584.52" x2="408.94" y2="602.22"/></g><g><line class="cls-6" x1="446.69" y1="584.52" x2="446.69" y2="602.22"/><line class="cls-5" x1="454.95" y1="584.52" x2="454.95" y2="602.22"/></g><g><line class="cls-6" x1="496.24" y1="584.52" x2="496.24" y2="602.22"/><line class="cls-5" x1="504.49" y1="584.52" x2="504.49" y2="602.22"/></g></g><g><rect class="cls-19" x="230.39" y="600.7" width="197.01" height="16.52"/><g><line class="cls-6" x1="256.34" y1="600.7" x2="256.34" y2="618.39"/><line class="cls-5" x1="264.6" y1="600.7" x2="264.6" y2="618.39"/></g><g><line class="cls-6" x1="294.09" y1="600.7" x2="294.09" y2="618.39"/><line class="cls-5" x1="302.35" y1="600.7" x2="302.35" y2="618.39"/></g><g><line class="cls-6" x1="340.1" y1="600.7" x2="340.1" y2="618.39"/><line class="cls-5" x1="348.35" y1="600.7" x2="348.35" y2="618.39"/></g><g><line class="cls-6" x1="389.64" y1="600.7" x2="389.64" y2="618.39"/><line class="cls-5" x1="397.9" y1="600.7" x2="397.9" y2="618.39"/></g></g><g><rect class="cls-19" x="289.56" y="266.85" width="197.01" height="16.52"/><g><line class="cls-6" x1="315.52" y1="266.85" x2="315.52" y2="284.54"/><line class="cls-5" x1="323.77" y1="266.85" x2="323.77" y2="284.54"/></g><g><line class="cls-6" x1="353.27" y1="266.85" x2="353.27" y2="284.54"/><line class="cls-5" x1="361.52" y1="266.85" x2="361.52" y2="284.54"/></g><g><line class="cls-6" x1="399.27" y1="266.85" x2="399.27" y2="284.54"/><line class="cls-5" x1="407.53" y1="266.85" x2="407.53" y2="284.54"/></g><g><line class="cls-6" x1="448.82" y1="266.85" x2="448.82" y2="284.54"/><line class="cls-5" x1="457.08" y1="266.85" x2="457.08" y2="284.54"/></g></g></g><rect class="cls-18" x="517.95" y="189.59" width="44.03" height="68.76"/><rect class="cls-18" x="291.66" y="209.28" width="85.64" height="15.43"/><path class="cls-7" d="M500.16,207.72s16.37-17.39,35.81-19.44c19.44-2.05,33.25,15.35,33.25,15.35"/><path class="cls-7" d="M510.58,208.21c-.92,1.39-1.68,2.77-2.23,4.11-3.58,8.7-8.7,13.3-5.12,14.33,3.58,1.02,10.74-.51,13.3-.51,.61,0,1.71,.06,3.2,.12-5.25-4.37-8.69-10.8-9.15-18.04Z"/><path class="cls-12" d="M542.62,225.11c5.96-.99,11.19-2.95,15-4.7,1.55-2.4,2.7-5.08,3.37-7.94-4.82-6.48-14.53-17.83-24-18.56-11.25-.87-21.39,6.69-26.42,14.31,.46,7.24,3.9,13.68,9.15,18.04,4.77,.2,13.53,.42,22.9-1.14Z"/><path class="cls-9" d="M553.44,206.77c0-1.01-.09-2-.26-2.96-6.27-8.96-17.89-12.1-26.1-8.46-2.85,2.91-4.62,6.95-4.62,11.42,0,8.85,6.93,16.03,15.49,16.03s15.49-7.18,15.49-16.03Z"/><polygon class="cls-20" points="548.17 211.94 532.78 211.94 532.78 196.55 543.23 196.55 548.17 199.79 548.17 211.94"/><path class="cls-7" d="M334.4,233.3s18.93-20.98,37.86-27.12c18.93-6.14,33.77,3.58,33.77,3.58"/><path class="cls-7" d="M363.33,215.52c-4.86,3.82-8.05,8.46-10.51,12.15-5.12,7.67-4.84,7.6-4.84,7.6,0,0,7.4,.59,18.65,2.63,.81,.15,1.55,.25,2.32,.37-3.94-4.5-6.34-10.38-6.34-16.83,0-2.05,.27-4.02,.72-5.93Z"/><path class="cls-7" d="M417.28,232.28s-1.34-2.82-3.85-6.5c-.73,4.26-2.5,8.16-5.06,11.43,5.47-2.1,8.91-4.93,8.91-4.93Z"/><path class="cls-12" d="M396.82,239.44c4.37,0,8.32-.99,11.56-2.23,2.56-3.27,4.33-7.17,5.06-11.43-4.86-7.12-14.2-17.55-27.36-17.55-10.35,0-17.51,3.17-22.74,7.29-.45,1.91-.72,3.88-.72,5.93,0,6.45,2.4,12.33,6.34,16.83,9.95,1.57,16.94,1.16,27.87,1.16Z"/><path class="cls-9" d="M405.82,219.78c0-1.14-.12-2.25-.33-3.32-8.14-8.06-18.54-9.27-28.68-7.31-2.43,2.87-3.89,6.58-3.89,10.63,0,9.09,7.37,16.46,16.46,16.46s16.46-7.37,16.46-16.46Z"/><rect class="cls-20" x="384.21" y="210.56" width="15.39" height="15.39"/></g></g></svg>