<?xml version="1.0" encoding="UTF-8"?><svg id="Layer_2" xmlns="http://www.w3.org/2000/svg" xmlns:xlink="http://www.w3.org/1999/xlink" viewBox="0 0 858.1 894.74"><defs><style>.cls-1,.cls-2,.cls-3,.cls-4,.cls-5,.cls-6,.cls-7,.cls-8,.cls-9,.cls-10,.cls-11{stroke-miterlimit:10;}.cls-1,.cls-2,.cls-3,.cls-4,.cls-5,.cls-6,.cls-12{fill:none;}.cls-1,.cls-2,.cls-3,.cls-7,.cls-8,.cls-9,.cls-10,.cls-11,.cls-12{stroke-width:3px;}.cls-1,.cls-5{stroke:#ff2f8a;}.cls-2,.cls-4,.cls-7,.cls-8,.cls-9,.cls-10,.cls-11,.cls-12{stroke:#0b1221;}.cls-3{stroke:#afff00;}.cls-13{clip-path:url(#clippath);}.cls-14{fill:#ff2f8a;}.cls-15{fill:#ff82b9;}.cls-16{fill:#9789c6;}.cls-17,.cls-7{fill:#858890;}.cls-18,.cls-9{fill:#afff00;}.cls-19{fill:#cfff66;}.cls-20,.cls-8{fill:#e2ded8;}.cls-21,.cls-11{fill:#0b1221;}.cls-22{fill:#291d50;}.cls-23{fill:#523aa0;}.cls-24{clip-path:url(#clippath-1);}.cls-25{clip-path:url(#clippath-2);}.cls-6{stroke:#523aa0;}.cls-10{fill:#545963;}.cls-12{stroke-linecap:round;stroke-linejoin:round;}</style><clipPath id="clippath"><path class="cls-20" d="M295.88,555.39c-3.11,11.4,12.44,57.52,38.34,81.35,25.91,23.84,87.05,52.34,160.63,20.21,63.43-27.7,68.71-86.19,65.31-107.78,0,0,1.74-14.47-17.69-19.91,0-27.98,.83-72.59,.83-72.59-11.66,16.32-40.36,42.23-49.74,45.86-34.2,13.21-141.14,8.14-149.23,.78-25.65-23.32-41.97-59.07-41.97-59.07,0,0,10.1,67.62,7,92.49l-8.27,7.42c-5.63,6.44-4.59,9-5.2,11.24Z"/></clipPath><clipPath id="clippath-1"><path class="cls-20" d="M344.9,76.01s-46.11,21.61-56.68,73.01c-10.57,51.4-16.81,136.89-16.33,139.78s7.2,60.52,7.2,60.52c0,0,22.58,95.11,29.3,105.67,6.72,10.57,26.48,43.11,37.98,49.18,11.5,6.06,95.56,5.1,107.09,5.58s37.47-3.36,44.67-8.65c7.2-5.28,37.95-26.42,49.47-54.76,11.53-28.34,13.45-52.36,13.45-52.36l12.01-73.97s4.32-76.37,0-94.63c-4.32-18.25-38.43-131.61-38.43-131.61l-51.88-8.17-58.6-24.02-79.25,14.41Z"/></clipPath><clipPath id="clippath-2"><path class="cls-7" d="M770.53,625.86c-75.53-58.41-185.8-75.72-191.96-76.65,14.72,44.5-22.18,147.12-151.59,147.12s-153.9-105.19-150.79-132.65c.62-5.51,2.34-10.32,4.68-14.51h-1.05s-114.52,16.58-192.24,76.69C9.85,685.97,1.55,762.14,1.55,762.14c0,0,97.42,131.1,415.58,131.1h23.84c318.16,0,415.58-131.1,415.58-131.1,0,0-8.29-76.17-86.02-136.28Z"/></clipPath></defs><g id="background_black"><g><path class="cls-3" d="M565.44,410.15s3.56,3.56,9.34,2.22c5.78-1.33,22.24-44.04,26.25-60.06,4-16.02,9.79-35.59,10.68-42.71s-.89-28.03-19.57-23.13"/><path class="cls-3" d="M270.17,318.58s-7.51-11.23-10.07-21.03c-3.2-12.25-6.21-19.21-4.89-47.16,.48-10.12-.23-39.33-.23-39.33l-5.44,1.55c1.55-3.11,3.89-29.54,3.11-50.52s3.49-32.25,3.49-32.25c29.78-85.21,96.77-101.44,96.77-101.44,6.64-13.55,42.75-44.3,107.26-13.99,64.51,30.31,49.74,83.17,49.74,83.17-52.08,11.66-66.07,2.33-66.07,2.33,13.99-36.53-23.32-33.42-42.75-30.31-19.43,3.11-35.75-7-35.75-7l-17.88,3.11c-31.09,7-62.18,55.96-64.51,87.05-2.33,31.09-.78,30.31-5.44,61.4s-6.22,38.09-8.55,75.39c-2.33,37.31,17.88,108.82,17.88,108.82,0,0-3.11,7.77-13.99,1.55-10.88-6.22-24.1-51.3-27.98-59.85-3.89-8.55-11.66-42.75-9.33-52.85,2.33-10.1,10.2-16.31,19.53-10.09"/><g><path class="cls-20" d="M295.88,555.39c-3.11,11.4,12.44,57.52,38.34,81.35,25.91,23.84,87.05,52.34,160.63,20.21,63.43-27.7,68.71-86.19,65.31-107.78,0,0,1.74-14.47-17.69-19.91,0-27.98,.83-72.59,.83-72.59-11.66,16.32-40.36,42.23-49.74,45.86-34.2,13.21-141.14,8.14-149.23,.78-25.65-23.32-41.97-59.07-41.97-59.07,0,0,10.1,67.62,7,92.49l-8.27,7.42c-5.63,6.44-4.59,9-5.2,11.24Z"/><g class="cls-13"><g><g><line class="cls-4" x1="206.02" y1="461.42" x2="206.02" y2="918.45"/><line class="cls-4" x1="252.13" y1="461.42" x2="252.13" y2="918.45"/><line class="cls-4" x1="298.25" y1="461.42" x2="298.25" y2="918.45"/><line class="cls-4" x1="344.37" y1="461.42" x2="344.37" y2="918.45"/><line class="cls-4" x1="390.49" y1="461.42" x2="390.49" y2="918.45"/><line class="cls-4" x1="436.6" y1="461.42" x2="436.6" y2="918.45"/><line class="cls-4" x1="482.72" y1="461.42" x2="482.72" y2="918.45"/><line class="cls-4" x1="528.84" y1="461.42" x2="528.84" y2="918.45"/><line class="cls-4" x1="574.96" y1="461.42" x2="574.96" y2="918.45"/><line class="cls-4" x1="621.07" y1="461.42" x2="621.07" y2="918.45"/></g><g><polyline class="cls-4" points="642.06 482.41 574.44 463.94 527.8 482.41 481.17 482.41 434.53 482.41 389.06 482.41 343.59 482.41 296.96 465.04 250.32 482.41 185.03 482.41"/><polyline class="cls-4" points="642.06 528.52 617.23 523.76 569.26 494.83 525.75 518.1 482.38 524.48 454.84 528.52 437.28 528.52 417.41 528.52 390.37 528.52 380.92 528.52 343.46 528.52 296.96 495.81 252.36 521.72 221.64 528.52 196.12 528.52 185.03 528.52"/><polyline class="cls-4" points="642.06 574.64 612.03 570.47 564.07 525.71 523.69 553.79 483.59 566.55 458.13 574.64 440.03 574.64 419.55 574.64 391.67 574.64 381.93 574.64 343.33 574.64 296.96 526.57 254.4 561.03 225.22 574.64 197.21 574.64 185.03 574.64"/><polyline class="cls-4" points="642.06 620.76 606.82 617.19 558.89 556.6 521.63 589.48 484.81 608.61 461.42 620.76 442.79 620.76 421.69 620.76 392.98 620.76 382.95 620.76 343.2 620.76 296.96 557.33 256.44 600.34 228.81 620.76 198.3 620.76 185.03 620.76"/><polyline class="cls-4" points="642.06 666.88 601.62 663.9 553.71 587.48 519.58 625.17 486.02 650.68 464.71 666.88 445.54 666.88 423.83 666.88 394.29 666.88 383.97 666.88 343.07 666.88 296.96 588.09 258.48 639.65 232.39 666.88 199.4 666.88 185.03 666.88"/><polyline class="cls-4" points="642.06 712.99 596.42 710.61 548.53 618.37 517.52 660.86 487.23 692.75 468 712.99 448.29 712.99 425.97 712.99 395.59 712.99 384.99 712.99 342.94 712.99 296.96 618.86 260.52 678.96 235.98 712.99 200.49 712.99 185.03 712.99"/><polyline class="cls-4" points="642.06 759.11 591.21 757.33 543.35 649.25 515.47 696.55 488.45 734.82 471.29 759.11 451.04 759.11 428.11 759.11 396.9 759.11 386.01 759.11 342.81 759.11 296.96 649.62 262.56 718.27 239.56 759.11 201.58 759.11 185.03 759.11"/><polyline class="cls-4" points="642.06 805.23 586.01 804.04 538.17 680.13 513.41 732.24 489.66 776.89 474.59 805.23 453.79 805.23 430.25 805.23 398.21 805.23 387.02 805.23 342.68 805.23 296.96 680.38 264.61 757.58 243.15 805.23 202.67 805.23 185.03 805.23"/><polyline class="cls-4" points="642.06 851.35 580.81 850.75 532.98 711.02 511.36 767.93 490.88 818.96 477.88 851.35 456.54 851.35 432.39 851.35 399.52 851.35 388.04 851.35 342.55 851.35 296.96 711.14 266.65 796.89 246.73 851.35 203.76 851.35 185.03 851.35"/><polyline class="cls-4" points="642.06 897.46 575.6 897.46 527.8 741.9 481.17 897.46 434.53 897.46 389.06 897.46 342.43 897.46 296.96 741.9 250.32 897.46 204.85 897.46 185.03 897.46"/></g></g></g></g><g><path class="cls-20" d="M344.9,76.01s-46.11,21.61-56.68,73.01c-10.57,51.4-16.81,136.89-16.33,139.78s7.2,60.52,7.2,60.52c0,0,22.58,95.11,29.3,105.67,6.72,10.57,26.48,43.11,37.98,49.18,11.5,6.06,95.56,5.1,107.09,5.58s37.47-3.36,44.67-8.65c7.2-5.28,37.95-26.42,49.47-54.76,11.53-28.34,13.45-52.36,13.45-52.36l12.01-73.97s4.32-76.37,0-94.63c-4.32-18.25-38.43-131.61-38.43-131.61l-51.88-8.17-58.6-24.02-79.25,14.41Z"/><g class="cls-24"><g><g><line class="cls-4" x1="191.68" y1="66.82" x2="191.68" y2="523.85"/><line class="cls-4" x1="237.79" y1="66.82" x2="237.79" y2="523.85"/><line class="cls-4" x1="283.91" y1="66.82" x2="283.91" y2="523.85"/><line class="cls-4" x1="330.03" y1="66.82" x2="330.03" y2="523.85"/><line class="cls-4" x1="376.15" y1="66.82" x2="376.15" y2="523.85"/><line class="cls-4" x1="422.26" y1="66.82" x2="422.26" y2="523.85"/><line class="cls-4" x1="468.38" y1="66.82" x2="468.38" y2="523.85"/><line class="cls-4" x1="514.5" y1="66.82" x2="514.5" y2="523.85"/><line class="cls-4" x1="560.62" y1="66.82" x2="560.62" y2="523.85"/><line class="cls-4" x1="606.73" y1="66.82" x2="606.73" y2="523.85"/></g><g><polyline class="cls-4" points="627.72 87.81 560.1 100.73 513.46 87.81 466.83 115.38 420.19 115.38 374.72 115.38 329.25 87.81 282.62 100.73 235.98 87.81 170.69 87.81"/><polyline class="cls-4" points="627.72 133.93 560.23 146.84 513.46 133.93 468.79 159.32 466.55 160.49 421.28 160.49 420.06 160.49 374.72 160.49 329.12 133.93 282.62 146.84 235.98 133.93 190.47 133.93 170.69 133.93"/><polyline class="cls-4" points="627.72 180.04 560.36 192.96 513.46 180.04 468.55 204.57 466.28 205.59 421.14 205.59 419.93 205.59 374.72 205.59 328.99 180.04 282.62 192.96 235.98 180.04 190.48 180.04 170.69 180.04"/><polyline class="cls-4" points="627.72 226.16 560.49 239.08 513.46 226.16 468.3 249.82 466 250.69 421.01 250.69 419.81 250.69 374.72 250.69 328.86 226.16 282.62 239.08 235.98 226.16 190.48 226.16 170.69 226.16"/><polyline class="cls-4" points="627.72 272.28 560.62 285.2 513.46 272.28 468.05 295.06 465.73 295.79 420.87 295.79 419.68 295.79 374.72 295.79 328.73 272.28 282.62 285.2 235.98 272.28 190.49 272.28 170.69 272.28"/><polyline class="cls-4" points="627.72 318.4 560.75 331.31 513.46 318.4 467.81 340.31 465.46 340.89 420.73 340.89 419.55 340.89 374.72 340.89 328.6 318.4 282.62 331.31 235.98 318.4 190.49 318.4 170.69 318.4"/><polyline class="cls-4" points="627.72 364.51 560.88 377.43 513.46 364.51 467.56 385.56 465.18 385.99 420.6 385.99 419.42 385.99 374.72 385.99 328.47 364.51 282.62 377.43 235.98 364.51 190.5 364.51 170.69 364.51"/><polyline class="cls-4" points="627.72 410.63 561.01 423.55 513.46 410.63 467.32 430.81 464.91 431.1 420.46 431.1 419.29 431.1 374.72 431.1 328.35 410.63 282.62 423.55 235.98 410.63 190.5 410.63 170.69 410.63"/><polyline class="cls-4" points="627.72 456.75 561.14 469.67 513.46 456.75 467.07 476.05 464.63 476.2 420.33 476.2 419.16 476.2 374.72 476.2 328.22 456.75 282.62 469.67 235.98 456.75 190.51 456.75 170.69 456.75"/><polyline class="cls-4" points="627.72 502.87 561.26 515.78 513.46 502.87 466.83 521.3 420.19 521.3 374.72 521.3 328.09 502.87 282.62 515.78 235.98 502.87 190.51 502.87 170.69 502.87"/></g></g></g></g><rect class="cls-18" x="330.18" y="261.69" width="45.24" height="35.19"/><rect class="cls-18" x="468.19" y="230.96" width="46.01" height="51.49"/><path class="cls-10" d="M309.35,525.85s-30.05,10.36-33.16,37.83c-3.11,27.46,16.58,132.65,150.79,132.65,118.44,0,159.39-85.96,154.2-134.65-1.25-11.74-7.44-22.48-17.22-29.09-5.78-3.9-12.81-7.76-21.48-7.76v6.44s8.45-1.21,15.29,9.25c5.98,9.15,10.67,84.3-62.91,116.42-73.58,32.13-134.73,3.63-160.63-20.21-25.91-23.84-41.45-69.95-38.34-81.35,3.11-11.4,13.99-18.65,13.99-18.65l-.52-10.88Z"/><path class="cls-20" d="M265.16,290.24s-15.64-13.08-23.43,7.87c-7.79,20.95,19.11,80.99,19.11,80.99,0,0,12.49,30.74,21.13,32.66s11.05,.48,9.13-7.69c-1.92-8.17-16.81-81.18-17.29-85.5-.48-4.32-1.92-21.61-1.92-21.61l-6.72-6.72Z"/><path class="cls-20" d="M578.34,288.8s9.61-4.32,17.29-1.92,12.49,12.97,7.2,33.62c-5.28,20.65-15.85,58.12-19.69,64.84-3.84,6.72-9.94,25.2-14.34,26.29-4.4,1.09-9.2-1.31-8.72-8.04,.48-6.72,10.09-73.01,12.97-83.58,2.88-10.57,5.28-31.22,5.28-31.22Z"/><path class="cls-2" d="M276.36,329.46s-7.51-11.23-10.07-21.03c-3.2-12.25-6.21-19.21-4.89-47.16,.48-10.12-.23-39.33-.23-39.33l-5.44,1.55c1.55-3.11,3.89-29.54,3.11-50.52s3.49-32.25,3.49-32.25c29.78-85.21,96.77-101.44,96.77-101.44,6.64-13.55,42.75-44.3,107.26-13.99s49.74,83.17,49.74,83.17c-52.08,11.66-66.07,2.33-66.07,2.33,13.99-36.53-23.32-33.42-42.75-30.31s-35.75-7-35.75-7l-17.88,3.11c-31.09,7-62.18,55.96-64.51,87.05-2.33,31.09-.78,30.31-5.44,61.4s-6.22,38.09-8.55,75.39c-2.33,37.31,17.88,108.82,17.88,108.82,0,0-3.11,7.77-13.99,1.55-10.88-6.22-24.1-51.3-27.98-59.85-3.89-8.55-11.66-42.75-9.33-52.85,2.33-10.1,10.2-16.31,19.53-10.09"/><path class="cls-2" d="M245.82,300.42s8.9-8.01,14.24,5.34"/><path class="cls-2" d="M257.84,355.58s-4.89-9.79-1.78-19.57c3.11-9.79,.44-30.25-2.22-36.48"/><path class="cls-2" d="M275.19,337.34s-5.34,8.01-.89,19.57c4.45,11.57,7.56,21.8,.44,21.8s-8.9-9.79-8.9-9.79"/><path class="cls-2" d="M293.03,409.26l10.05,36.33c2.44,8.82,6.67,17.04,12.44,24.15,10.73,13.23,23.95,30.62,30.85,34.43,3.97,2.19,53,8.18,83.69,6.85,30.7-1.33,58.22-6.4,64.45-8.18,6.23-1.78,43.15-36.48,46.71-44.04,3.56-7.56,15.13-26.69,18.24-49.38,3.11-22.69,12.9-85.42,13.79-93.42s-5.78-68.07-7.56-80.52c-1.78-12.46-9.79-56.5-14.68-72.07-4.89-15.57-11.33-58.89-34.91-54.94"/><path class="cls-2" d="M511.86,67.75s52.15,16.72,68.16,81.68c16.02,64.95,7.91,126.97,3.91,147.88-4,20.91-9.34,32.92-12.9,34.7"/><path class="cls-2" d="M559.46,409.41s3.56,3.56,9.34,2.22c5.78-1.33,22.24-44.04,26.25-60.06,4-16.02,9.79-35.59,10.68-42.71s-.89-28.03-19.57-23.13"/><path class="cls-2" d="M599.5,300.86s-4.89-7.12-9.79-.44l-4.89,6.67"/><path class="cls-2" d="M595.05,302.64s-8.01,13.79-12.9,21.35c-4.89,7.56-2.67,11.57-4.89,18.68-2.22,7.12-6.67,19.13-7.56,25.8-.89,6.67,1.78,7.12,4,4.89s8.45-4.45,8.45-4.45"/><path class="cls-2" d="M591.49,329.78s-3.56,7.12-5.78,16.02c-2.22,8.9-3.56,11.12-3.56,11.12"/><path class="cls-12" d="M377.95,342.24s-20.93,44.74-29.22,54.07c-4.39,4.94-5.18,18.14-5.18,18.14"/><path class="cls-12" d="M474.08,342.24s20.93,44.74,29.22,54.07c4.39,4.94,5.18,18.14,5.18,18.14"/><path class="cls-12" d="M388.05,319.07l-3.77,11.7c-.29,.89-.43,1.81-.43,2.74v5.77c0,2.21,.81,4.33,2.29,5.97l5.44,6.07"/><path class="cls-12" d="M462.05,319.07l3.77,11.7c.29,.89,.43,1.81,.43,2.74v5.77c0,2.21-.81,4.33-2.29,5.97l-5.44,6.07"/><path class="cls-2" d="M305.66,268.04c9.12-3.27,16.63-15.79,17.28-16.58,6.05-7.47,15.25-11.69,24.86-11.69h10.3c4.67,0,9.29,1.01,13.53,2.97,1.63,.76,3.57,1.67,5.83,2.77,8.62,4.2,13.03,14.36,13.03,14.36,0,0-.44,1.77-5.08,1.33-2.64-.25-8.62-.88-11.71,1.1-1.37,.88-2.69,1.71-3.74,2.37-1.45,.91-3.12,1.38-4.83,1.38h-27.2c-1.6,0-3.18-.42-4.57-1.23l-13.9-8.27"/><path class="cls-8" d="M375.61,252.91c0,3.08-.88,6.51-2,9.17-2.37,1.96-4.63,3.17-6.95,3.69-3.86,.87-7.98,.14-13.75,.14-8.08,0-13.3,.23-15.88,0-.91-.08-1.72-.58-2.2-1.36-2.08-3.38-3.79-7.52-3.79-11.64,0-3.42,.77-6.65,2.14-9.54,3.18-2.49,10.41-3.6,19.3-3.6s13.89,.2,21.17,4.01c1.25,2.79,1.95,5.88,1.95,9.13Z"/><path class="cls-9" d="M368.26,252.91c0,5.57-3.04,10.42-7.56,12.99l-14.91-.1c-4.42-2.59-7.39-7.39-7.39-12.89s3.2-10.52,7.62-13.12h13.35c5.36,2.27,8.89,6.93,8.89,13.12Z"/><circle class="cls-11" cx="353.33" cy="252.91" r="4.89"/><path class="cls-12" d="M441.95,230.93l-1.27,3.58c-2.23,6.26-3.37,12.85-3.37,19.49v33.74c0,5.83,.88,11.63,2.6,17.2l2.26,7.28"/><path class="cls-12" d="M400.42,230.93l1.27,3.58c2.23,6.26,3.37,12.85,3.37,19.49v33.74c0,5.83-.88,11.63-2.6,17.2l-2.26,7.28"/><path class="cls-21" d="M454.84,197.35l29.68-1.31c3.62-.16,7.24,.1,10.8,.76h0c6.33,1.19,12.35,3.64,17.69,7.24,5.87,3.96,13.39,9.58,18.49,15.39,9.5,10.82,11.71,14.36,10.82,15.24s-2.65,1.55-7.07-.44-41.53-15.24-44.84-15.9-12.81-.66-17.01-.22-23.19,2.65-24.08,2.43-.22-7.07-.44-9.94,1.1-7.51,1.99-10.16c.88-2.65,1.99-2.65,3.98-3.09Z"/><path class="cls-12" d="M416.74,343.16s-4.29-7.15-12.43-6.39c-6.94,.65-4.17,6.22-.2,6.22,5.86,0,5.75-3.21,9.62-3.18"/><path class="cls-12" d="M432.42,343.07s3.61-7.23,11.8-6.3c6.91,.78,4.17,6.22,.2,6.22-5.86,0-5.75-3.21-9.62-3.18"/><path class="cls-2" d="M417.42,350.56h0c4.23,3.31,10.18,3.28,14.38-.07l.05-.04"/><path class="cls-2" d="M535.05,268.04c-9.12-3.27-16.63-15.79-17.28-16.58-6.05-7.47-15.25-11.69-24.86-11.69h-10.3c-4.67,0-9.29,1.01-13.53,2.97-1.63,.76-3.57,1.67-5.83,2.77-8.62,4.2-13.03,14.36-13.03,14.36,0,0,.44,1.77,5.08,1.33,2.64-.25,8.62-.88,11.71,1.1,1.37,.88,2.69,1.71,3.74,2.37,1.45,.91,3.12,1.38,4.83,1.38h27.2c1.6,0,3.18-.42,4.57-1.23l13.9-8.27"/><path class="cls-8" d="M465.1,252.91c0,3.08,.88,6.51,2,9.17,2.37,1.96,4.63,3.17,6.95,3.69,3.86,.87,7.98,.14,13.75,.14,8.08,0,13.3,.23,15.88,0,.91-.08,1.72-.58,2.2-1.36,2.08-3.38,3.79-7.52,3.79-11.64,0-3.42-.77-6.65-2.14-9.54-3.18-2.49-10.41-3.6-19.3-3.6-9.05,0-13.89,.2-21.17,4.01-1.25,2.79-1.95,5.88-1.95,9.13Z"/><path class="cls-9" d="M472.45,252.91c0,5.57,3.04,10.42,7.56,12.99l14.91-.1c4.42-2.59,7.39-7.39,7.39-12.89,0-5.5-3.2-10.52-7.62-13.12h-13.35c-5.36,2.27-8.89,6.93-8.89,13.12Z"/><circle class="cls-11" cx="487.38" cy="252.91" r="4.89"/><path class="cls-21" d="M506,57.16s-30.31-39.64-76.17-43.53c-45.86-3.89-66.84,15.55-70.73,25.65,0,0-62.18,24.1-84.72,74.62,0,0-16.32,23.32-15.55,59.07,.78,35.75-3.11,50.52-3.11,50.52l5.44-1.55,.78,51.3s.15,24.51,4.35,35.19c4.2,10.67,8.86,16.89,8.86,16.89,0,0-.78-12.44,.78-31.87,1.55-19.43,6.22-74.62,8.55-83.17,2.33-8.55,5.44-61.4,7-65.29,1.55-3.89,28.76-52.85,43.53-60.63,14.77-7.77,36.53-10.88,36.53-10.88,0,0,10.1,9.33,30.31,7,20.21-2.33,37.31-3.11,42.75,1.55s11.66,13.99,5.44,28.76c0,0,30.31,10.1,66.07-3.11,7.77-24.1-10.1-50.52-10.1-50.52Z"/><path class="cls-21" d="M511.86,67.75l4.24,39.93s34.52,19.41,38.86,82.39c6.22,90.16,18.7,115.03,18.29,125.92-.41,10.88-3.52,24.1-3.52,24.1,0,0,13.62-31.15,14.2-42.78,.57-11.63,6.79-59.82,5.24-88.58-1.55-28.76-11.66-87.05-29.54-104.15s-31.8-33.23-47.77-36.83Z"/><path class="cls-21" d="M410.72,337.38s-1.72-1.83-6.41-.61c-4.69,1.23-5.26,4.34-2.98,5.17s3.7,1.04,7.11-.21c3.41-1.24,5.12-2.9,2.28-4.36Z"/><path class="cls-21" d="M444.22,336.77s-5.9-.22-7.32,1.23-.57,3.53,1.99,3.94,8.25,.83,8.82-.83-.15-3.29-3.49-4.34Z"/><rect class="cls-21" x="479.89" y="246.33" width="14.91" height="13.41"/><rect class="cls-21" x="346.2" y="246.33" width="14.91" height="13.41"/><path class="cls-2" d="M302.1,441.91s7.77,66.33,8.29,98.97l.52,32.64"/><path class="cls-1" d="M320.23,595.68l-.52-32.64c-.52-32.64-8.29-98.97-8.29-98.97"/><path class="cls-2" d="M544.08,452.79s-2.59,22.8-2.07,58.04,1.55,53.37,2.59,57"/><g><path class="cls-17" d="M770.53,625.86c-75.53-58.41-185.8-75.72-191.96-76.65,14.72,44.5-22.18,147.12-151.59,147.12s-153.9-105.19-150.79-132.65c.62-5.51,2.34-10.32,4.68-14.51h-1.05s-114.52,16.58-192.24,76.69C9.85,685.97,1.55,762.14,1.55,762.14c0,0,97.42,131.1,415.58,131.1h23.84c318.16,0,415.58-131.1,415.58-131.1,0,0-8.29-76.17-86.02-136.28Z"/><g class="cls-25"><g><g><path class="cls-4" d="M35.26,522.09c-163.25,0,181.78,457.03,181.78,457.03"/><path class="cls-4" d="M121.18,522.09c-116.8,0,141.99,457.03,141.99,457.03"/><path class="cls-4" d="M207.09,522.09c-70.35,0,102.19,457.03,102.19,457.03"/><path class="cls-4" d="M293,522.09c-23.9,0,62.4,457.03,62.4,457.03"/><path class="cls-4" d="M378.92,522.09c22.55,0,22.6,457.03,22.6,457.03"/><path class="cls-4" d="M464.83,522.09c69,0-17.2,457.03-17.2,457.03"/><path class="cls-4" d="M550.74,522.09c115.45,0-56.99,457.03-56.99,457.03"/><path class="cls-4" d="M636.66,522.09c161.9,0-96.79,457.03-96.79,457.03"/><path class="cls-4" d="M722.57,522.09c208.35,0-136.59,457.03-136.59,457.03"/><path class="cls-4" d="M808.49,522.09c254.8,0-176.38,457.03-176.38,457.03"/></g><g><polyline class="cls-4" points="875.77 543.07 585.47 543.07 538.83 543.07 492.2 543.07 445.56 543.07 400.09 543.07 354.62 543.07 307.99 543.07 261.35 543.07 -54.08 543.07"/><polyline class="cls-4" points="876.38 589.19 585.6 589.19 538.83 589.19 492.2 589.19 445.56 589.19 400.09 589.19 354.49 589.19 307.99 589.19 261.35 589.19 215.75 589.19 -53.96 589.19"/><polyline class="cls-4" points="877 635.31 585.73 635.31 538.83 635.31 492.2 635.31 445.56 635.31 400.09 635.31 354.36 635.31 307.99 635.31 261.35 635.31 215.76 635.31 -53.84 635.31"/><polyline class="cls-4" points="877.61 681.43 585.86 681.43 538.83 681.43 492.2 681.43 445.56 681.43 400.09 681.43 354.23 681.43 307.99 681.43 261.35 681.43 215.78 681.43 -53.72 681.43"/><polyline class="cls-4" points="878.22 727.54 585.99 727.54 538.83 727.54 492.2 727.54 445.56 727.54 400.09 727.54 354.1 727.54 307.99 727.54 261.35 727.54 215.8 727.54 -53.59 727.54"/><polyline class="cls-4" points="878.84 773.66 586.12 773.66 538.83 773.66 492.2 773.66 445.56 773.66 400.09 773.66 353.97 773.66 307.99 773.66 261.35 773.66 215.81 773.66 -53.47 773.66"/><polyline class="cls-4" points="879.45 819.78 586.25 819.78 538.83 819.78 492.2 819.78 445.56 819.78 400.09 819.78 353.84 819.78 307.99 819.78 261.35 819.78 215.83 819.78 -53.35 819.78"/><polyline class="cls-4" points="880.06 865.9 586.38 865.9 538.83 865.9 492.2 865.9 445.56 865.9 400.09 865.9 353.71 865.9 307.99 865.9 261.35 865.9 215.85 865.9 -53.23 865.9"/></g></g></g><path class="cls-2" d="M770.53,625.86c-75.53-58.41-185.8-75.72-191.96-76.65,14.72,44.5-22.18,147.12-151.59,147.12s-153.9-105.19-150.79-132.65c.62-5.51,2.34-10.32,4.68-14.51h-1.05s-114.52,16.58-192.24,76.69C9.85,685.97,1.55,762.14,1.55,762.14c0,0,97.42,131.1,415.58,131.1h23.84c318.16,0,415.58-131.1,415.58-131.1,0,0-8.29-76.17-86.02-136.28Z"/></g><path class="cls-14" d="M273.72,173.32h-28.59c-.17,27.35-3.2,38.9-3.2,38.9l5.44-1.55,.4,26.61h18.28c1.67-17.59,3.46-33.93,4.64-38.27,.94-3.43,2-14,3.03-25.68Z"/><path class="cls-18" d="M292.53,184.6h-28.59c-.17,27.35-3.2,38.9-3.2,38.9l5.44-1.55,.4,26.61h18.28c1.67-17.59,3.46-33.93,4.64-38.27,.94-3.43,2-14,3.03-25.68Z"/><path class="cls-23" d="M255.67,273.24s.15,24.51,4.35,35.19c4.2,10.67,8.86,16.89,8.86,16.89,0,0-.78-12.44,.78-31.87,.77-9.57,2.29-27.82,3.91-44.9h-18.28l.37,24.69Z"/><path class="cls-21" d="M584.68,169.55s-5.02,11.29,33.86,12.54c38.87,1.25,81.51,2.51,56.43,6.27-25.08,3.76-82.76,5.02-90.28,18.81v-37.62Z"/><path class="cls-21" d="M322.31,92.99s5.02-11.29-33.86-12.54-81.51-2.51-56.43-6.27c25.08-3.76,82.76-5.02,90.28-18.81v37.62Z"/><path class="cls-21" d="M290.95,103.41s2.21-4.97-14.9-5.52c-17.11-.55-35.87-1.1-24.83-2.76,11.04-1.66,36.42-2.21,39.73-8.28v16.56Z"/><path class="cls-21" d="M309.6,518.47s2.21-4.97-14.9-5.52c-17.11-.55-35.87-1.1-24.83-2.76,11.04-1.66,36.42-2.21,39.73-8.28v16.56Z"/><path class="cls-21" d="M605.93,293.22s-2.21,4.97,14.9,5.52,35.87,1.1,24.83,2.76c-11.04,1.66-36.42,2.21-39.73,8.28v-16.56Z"/><path class="cls-21" d="M389.38,210.61c.22-2.87-1.1-7.51-1.99-10.16-.88-2.65-1.99-2.65-3.98-3.09l-29.68-1.31c-3.62-.16-7.24,.1-10.8,.76-4.47,.84-8.78,2.32-12.81,4.38v23.08c8.63-3.04,16.3-5.65,17.72-5.94,3.31-.66,12.81-.66,17.01-.22,4.2,.44,23.19,2.65,24.08,2.43,.88-.22,.22-7.07,.44-9.94Z"/><path class="cls-21" d="M325.25,189.01c-5.87,3.96-13.39,9.58-18.49,15.39-9.5,10.82-11.71,14.36-10.82,15.24s2.65,1.55,7.07-.44c2.52-1.13,15.67-5.93,27.12-9.97v-23.08c-1.68,.86-3.31,1.8-4.88,2.86Z"/><path class="cls-18" d="M41.97,545.28v13.99H180.07c20.35-5.67,42.33-11.04,61.27-13.99H41.97Z"/><path class="cls-23" d="M291.47,545.28h-50.13c-18.94,2.95-40.91,8.32-61.27,13.99h111.4v-13.99Z"/><rect class="cls-16" x="603.93" y="228.16" width="85.11" height="15.16"/><path class="cls-16" d="M228.51,383.22v15.16h41.48c-2.74-4.79-5.56-10.26-7.99-15.16h-33.49Z"/><polygon class="cls-19" points="313.63 383.22 306.05 398.38 313.63 398.38 313.63 383.22"/><path class="cls-14" d="M262.01,383.22c2.43,4.9,5.26,10.36,7.99,15.16h20.77l-3.88-15.16h-24.88Z"/><polygon class="cls-15" points="313.63 383.22 286.89 383.22 290.77 398.38 306.05 398.38 313.63 383.22"/><path class="cls-18" d="M775.32,554.61h-94.44v12.4c39.92,12.46,72.45,32.97,94.44,49.74v-62.14Z"/><path class="cls-14" d="M775.32,649.05v-32.3c-21.99-16.78-54.52-37.28-94.44-49.74v82.04h94.44Z"/><rect class="cls-14" x="197.04" y="752.81" width="83.94" height="9.33"/><polygon class="cls-14" points="593.44 674.7 509.49 674.7 565.46 670.03 593.44 665.37 593.44 674.7"/><rect class="cls-20" x="332.28" y="565.1" width="194.7" height="16.32"/><g><line class="cls-6" x1="357.93" y1="565.1" x2="357.93" y2="582.59"/><line class="cls-5" x1="366.09" y1="565.1" x2="366.09" y2="582.59"/></g><g><line class="cls-6" x1="395.24" y1="565.1" x2="395.24" y2="582.59"/><line class="cls-5" x1="403.4" y1="565.1" x2="403.4" y2="582.59"/></g><g><line class="cls-6" x1="440.71" y1="565.1" x2="440.71" y2="582.59"/><line class="cls-5" x1="448.87" y1="565.1" x2="448.87" y2="582.59"/></g><g><line class="cls-6" x1="489.67" y1="565.1" x2="489.67" y2="582.59"/><line class="cls-5" x1="497.84" y1="565.1" x2="497.84" y2="582.59"/></g><path class="cls-22" d="M159.73,596.58v9.33h122.95c-1.93-2.86-3.7-6.01-5.05-9.33h-117.9Z"/><path class="cls-14" d="M298.47,596.58h-20.84c1.35,3.32,3.12,6.46,5.05,9.33h15.79v-9.33Z"/><g><path class="cls-3" d="M471.37,412.66s-17.31-2.2-25.32-7.54c-8.01-5.34-21.73-5.93-31.07,2.97h0c-9.34-8.9-22.6-7.38-30.61-2.04-8.01,5.34-28.22,5.14-28.22,5.14,0,0,14.31,6.82,26.73,7.54s21.15,.19,31.31-.25c10.16-.44,20.7,.06,23.86,0,12.67-.25,25.11-3.09,33.31-5.82Z"/><path class="cls-3" d="M382.07,431.95c12.81,1.1,26.73,0,37.33,0s28.28-.88,33.8-1.33,15.59-14.39,17.92-17.71c0,0-15.91,4.22-19.94,4.35-7.46,.25-26.98,1-34.5,1.22-7.51,.22-37.36-.52-42-.75s-17.78-5.55-17.78-5.55c0,0,12.35,18.66,25.16,19.76Z"/></g><g><path class="cls-12" d="M479.82,403.6s-17.31-2.2-25.32-7.54c-8.01-5.34-21.73-5.93-31.07,2.97h0c-9.34-8.9-22.6-7.38-30.61-2.04-8.01,5.34-28.22,5.14-28.22,5.14,0,0,14.31,6.82,26.73,7.54s21.15,.19,31.31-.25c10.16-.44,20.7,.06,23.86,0,12.67-.25,25.11-3.09,33.31-5.82Z"/><path class="cls-12" d="M390.52,422.89c12.81,1.1,26.73,0,37.33,0s28.28-.88,33.8-1.33,15.59-14.39,17.92-17.71c0,0-15.91,4.22-19.94,4.35-7.46,.25-26.98,1-34.5,1.22-7.51,.22-37.36-.52-42-.75s-17.78-5.55-17.78-5.55c0,0,12.35,18.66,25.16,19.76Z"/></g></g></g></svg>