<?xml version="1.0" encoding="UTF-8"?><svg id="Layer_2" xmlns="http://www.w3.org/2000/svg" xmlns:xlink="http://www.w3.org/1999/xlink" viewBox="0 0 927.73 866.52"><defs><style>.cls-1,.cls-2,.cls-3,.cls-4,.cls-5,.cls-6,.cls-7,.cls-8,.cls-9{fill:none;}.cls-2,.cls-3,.cls-4,.cls-10,.cls-11,.cls-12,.cls-13,.cls-14,.cls-15,.cls-8{stroke-width:3px;}.cls-2,.cls-3,.cls-5,.cls-6,.cls-7,.cls-12,.cls-14{stroke-miterlimit:10;}.cls-2,.cls-16,.cls-10,.cls-5,.cls-11,.cls-12,.cls-13,.cls-14,.cls-15,.cls-17,.cls-8,.cls-9{stroke:#0b1221;}.cls-3,.cls-4{stroke:#afff00;}.cls-4,.cls-16,.cls-10,.cls-11,.cls-13,.cls-15,.cls-17,.cls-8,.cls-9{stroke-linecap:round;stroke-linejoin:round;}.cls-18{clip-path:url(#clippath);}.cls-16{fill:#3e2c78;stroke-width:1.18px;}.cls-19,.cls-14{fill:#ff9dc8;}.cls-20{fill:#ff2f8a;}.cls-21,.cls-11{fill:#afff00;}.cls-22{fill:#aaacb2;}.cls-23,.cls-12,.cls-13,.cls-17{fill:#e2ded8;}.cls-24{fill:#0b1221;}.cls-25{fill:#291d50;}.cls-26{fill:#60656e;}.cls-27,.cls-10{fill:#523aa0;}.cls-28{clip-path:url(#clippath-1);}.cls-29{clip-path:url(#clippath-2);}.cls-6{stroke:#ff2f8a;}.cls-7{stroke:#523aa0;}.cls-15{fill:#fff;}.cls-17,.cls-9{stroke-width:1.06px;}</style><clipPath id="clippath"><path class="cls-1" d="M595.9,251.47c-2.66,11.98-6.12,25.8-6.12,25.8,0,0-8.2-28.69-7.61-40.99,.59-12.3,2.34-73.2-9.37-98.96-11.71-25.77-27.52-52.12-53.87-55.63-26.35-3.51-33.38,4.1-55.63,1.76-22.25-2.34-42.75,8.2-67.93,7.03-25.18-1.17-59.14,27.52-69.68,32.79-10.54,5.27-12.19,5.92-12.19,5.92,0,0-12.13,38.98-12.13,66.71s.87,59.78-2.6,67.57l-3.47,7.8s-2.46-10.97-5.17-23.71l-.07,3.46s-10.91-13.19-19.55,2.27c-8.64,15.46,8.64,61.38,11.82,73.66,3.18,12.28,9.09,20.46,19.55,18.19,0,0,8.98,67.56,11.26,73.93,.33,.92,1.74,3.26,3.93,6.56,12.87,19.45,53.45,73.42,69.39,82.74,18.64,10.91,16.82,14.55,48.2,14.55s34.1,2.73,54.56-12.28c14.63-10.73,44.13-42.84,60.92-62.1,6.69-7.68,11.37-13.32,12.28-14.74,3.18-5,7.27-16.37,11.37-43.65,4.09-27.28,5.46-41.83,5.46-41.83,0,0,10.91,5,17.73-7.73,6.82-12.73,18.19-66.84,20.01-74.57,1.79-7.61-5.68-23.57-21.09-14.53Z"/></clipPath><clipPath id="clippath-1"><path class="cls-14" d="M869.82,750.05s2.57-12.91-15.25-66.37c-14.17-42.54-58.29-83.41-95.96-100.45-37.67-17.04-172.19-68.16-172.19-68.16l-.17,.65c2.53,2.42,4.6,5.43,5.55,9.21,3.59,14.35,11.99,71.73-42.86,111.57-56.78,41.26-150.97,44.84-206.47,5.91-63.07-44.25-71.75-122.87-68.16-137.22,.47-1.89,1.48-3.76,2.86-5.59l-.17-.69s-121.14,94.97-158.8,112.01c-37.67,17.04-69.03,41.94-101.69,101.69-24.38,44.6-11.73,86.05-11.73,86.05,0,0,216.63,60.78,456.08,66.16,239.46,5.38,409.13-114.53,409.13-114.53l-.17-.27Z"/></clipPath><clipPath id="clippath-2"><path class="cls-12" d="M489.22,510.62c-20.46,15-23.19,12.28-54.56,12.28s-29.56-3.64-48.2-14.55c-15.94-9.33-56.52-63.29-69.39-82.74,.5,7.43,1.44,31.68-5.55,51.99,.29-.12,.46-.19,.46-.19,0,0-1.17,2.75-2.8,6.15-.7,1.57-1.48,3.08-2.3,4.56-1.94,3.65-4.07,7.08-5.66,8.12,0,0,3.34,60.01,35.69,93.55,32.34,33.54,85.05,43.6,104.22,44.56,137.94,6.92,126.45-128.25,126.45-128.25l.9,.9s-15.92-16.62-18.33-58.48c-16.79,19.26-46.29,51.37-60.92,62.1Z"/></clipPath></defs><g id="background_black"><g><path class="cls-13" d="M595.9,251.47c-2.66,11.98-6.12,25.8-6.12,25.8,0,0-8.2-28.69-7.61-40.99,.59-12.3,2.34-73.2-9.37-98.96-11.71-25.77-27.52-52.12-53.87-55.63-26.35-3.51-33.38,4.1-55.63,1.76-22.25-2.34-42.75,8.2-67.93,7.03-25.18-1.17-59.14,27.52-69.68,32.79-10.54,5.27-12.19,5.92-12.19,5.92,0,0-12.13,38.98-12.13,66.71s.87,59.78-2.6,67.57l-3.47,7.8s-2.46-10.97-5.17-23.71l-.07,3.46s-10.91-13.19-19.55,2.27c-8.64,15.46,8.64,61.38,11.82,73.66,3.18,12.28,9.09,20.46,19.55,18.19,0,0,8.98,67.56,11.26,73.93,.33,.92,1.74,3.26,3.93,6.56,12.87,19.45,53.45,73.42,69.39,82.74,18.64,10.91,16.82,14.55,48.2,14.55s34.1,2.73,54.56-12.28c14.63-10.73,44.13-42.84,60.92-62.1,6.69-7.68,11.37-13.32,12.28-14.74,3.18-5,7.27-16.37,11.37-43.65,4.09-27.28,5.46-41.83,5.46-41.83,0,0,10.91,5,17.73-7.73,6.82-12.73,18.19-66.84,20.01-74.57,1.79-7.61-5.68-23.57-21.09-14.53Z"/><rect class="cls-21" x="331.21" y="236.99" width="43.19" height="67.45"/><path class="cls-3" d="M883.65,746.58s2.57-12.91-15.25-66.37c-14.17-42.54-58.29-83.41-95.96-100.45-37.67-17.04-172.19-68.16-172.19-68.16l-.17,.65c-7.07-6.76-17.77-8.73-17.77-8.73h0s-15.92-16.62-18.33-58.48c6.69-7.68,11.37-13.32,12.28-14.74,3.18-5,7.27-16.37,11.37-43.65,4.09-27.28,5.46-41.83,5.46-41.83,0,0,10.91,5,17.73-7.73,6.82-12.73,18.19-66.84,20.01-74.57,1.79-7.61-5.68-23.57-21.09-14.53,.8-3.62,1.54-7.07,2.08-9.92,2.34-12.3,15.81-66.76,4.1-122.39-11.71-55.63-38.06-73.78-38.06-73.78,0,0-2.93-.59-6.44-.59s-5.86-10.54-5.86-10.54c-10.54-8.78-103.65-38.65-154.01-26.35-50.36,12.3-89.41,49.37-89.41,49.37-14.73,13.86-22.52,38.12-27.72,56.31-5.2,18.19,1.73,86.63,2.6,97.03,.46,5.54,3.87,22.39,6.96,36.93l-.07,3.46s-10.91-13.19-19.55,2.27,8.64,61.38,11.82,73.66c3.18,12.28,9.09,20.46,19.55,18.19,0,0,8.98,67.56,11.26,73.93,.33,.92,1.74,3.26,3.93,6.56,.5,7.43,1.44,31.68-5.55,51.99-3.45,1.41-25.94,10.9-34.35,22.03,0,0,0,0,0,0l-.17-.69s-121.14,94.97-158.8,112.01c-37.67,17.04-69.03,41.94-101.69,101.69-24.38,44.6-11.73,86.05-11.73,86.05,0,0,216.63,60.78,456.08,66.16,239.46,5.38,409.13-114.53,409.13-114.53l-.17-.27Z"/><path class="cls-26" d="M439.22,375.91s-6.92-5.03-22.65-1.89c-15.73,3.15-38.38,16.36-40.9,18.25s-15.73,18.25-11.95,21.39c3.78,3.15,20.76-8.18,29.57-9.44,8.81-1.26,33.35-7.55,39.64-7.55s8.18-3.78,8.81-9.44c.63-5.66,0-10.7-2.52-11.33Z"/><path class="cls-26" d="M445.7,375.91s6.92-5.03,22.65-1.89c15.73,3.15,38.38,16.36,40.9,18.25,2.52,1.89,15.73,18.25,11.95,21.39-3.78,3.15-20.76-8.18-29.57-9.44-8.81-1.26-33.35-7.55-39.64-7.55-6.29,0-8.18-3.78-8.81-9.44s0-10.7,2.52-11.33Z"/><path class="cls-22" d="M454.53,521.83c-2.27,0-4.76-.04-7.56-.08-3.57-.05-7.62-.12-12.31-.12-24.99,0-28.44-2.23-38.67-8.85-2.48-1.6-5.29-3.42-8.89-5.53-15.36-8.99-55.82-62.47-68.98-82.35-3.02-4.57-3.66-5.92-3.79-6.3-1.76-4.94-8.09-50.35-11.19-73.67l-.7-5.57c3.22,.69,8.51,2.39,10.17,5.43,.52,.95,2.42,5.1,5.05,10.85,10.88,23.75,36.35,79.36,47.44,90.82,4.05,4.18,7.8,8.68,11.44,13.02,8.76,10.48,16.32,19.53,24.79,20.54,6.83,.82,15.39,.99,21.37,.99h1.84c3.37-.02,6.39-1.77,8.09-4.69,1.69-2.89,1.73-6.36,.1-9.27l-.15-.28c-1.87-3.23-4.23-7.77-3.12-9.95,.6-1.19,2.4-1.95,5.34-2.26l8.64-.91h2.74c.61,.26,1.88,.59,4.72,.91,2.95,.33,4.75,1.1,5.35,2.29,1.09,2.15-1.09,6.43-3.12,9.92l-.16,.28c-1.62,2.92-1.58,6.38,.1,9.28,1.7,2.91,4.73,4.66,8.09,4.68h1.84c5.98,0,14.54-.17,21.37-.99,8.46-1.01,16.03-10.07,24.79-20.55,3.63-4.34,7.38-8.83,11.43-13.02,11.09-11.46,36.56-67.08,47.44-90.83,2.63-5.74,4.53-9.89,5.05-10.84,1.54-2.82,4.06-4,5.67-4.48l-.75,7.85c-.01,.15-1.41,14.84-5.45,41.77-3.33,22.21-7.09,36.73-11.18,43.16-.75,1.18-4.8,6.15-12.17,14.6-15.61,17.91-45.97,51.09-60.72,61.91-15.04,11.03-20.17,12.23-33.95,12.23h0Z"/><g class="cls-18"><g><g><line class="cls-5" x1="243.61" y1="78.96" x2="243.61" y2="527.71"/><line class="cls-5" x1="287.51" y1="78.96" x2="287.51" y2="527.71"/><line class="cls-5" x1="331.42" y1="78.96" x2="331.42" y2="527.71"/><line class="cls-5" x1="375.33" y1="78.96" x2="375.33" y2="527.71"/><line class="cls-5" x1="419.24" y1="78.96" x2="419.24" y2="527.71"/><line class="cls-5" x1="463.14" y1="78.96" x2="463.14" y2="527.71"/><line class="cls-5" x1="507.05" y1="78.96" x2="507.05" y2="527.71"/><line class="cls-5" x1="550.96" y1="78.96" x2="550.96" y2="527.71"/><line class="cls-5" x1="594.87" y1="78.96" x2="594.87" y2="527.71"/><line class="cls-5" x1="638.78" y1="78.96" x2="638.78" y2="527.71"/></g><g><polyline class="cls-5" points="658.76 98.94 594.37 98.94 549.97 83.69 505.57 98.94 461.17 105.24 417.88 105.24 374.59 98.94 330.19 83.69 285.79 98.94 223.63 98.94"/><polyline class="cls-5" points="658.76 142.85 594.5 142.85 549.97 127.6 505.91 143.98 502.6 144.61 461.38 149.18 459.59 149.15 417.88 149.15 374.47 144.19 330.19 127.6 285.79 142.85 242.46 142.85 223.63 142.85"/><polyline class="cls-5" points="658.76 186.76 594.62 186.76 549.97 171.51 506.24 189.02 502.97 189.8 461.58 193.11 459.79 193.06 417.88 193.06 374.34 189.43 330.19 171.51 285.79 186.76 242.46 186.76 223.63 186.76"/><polyline class="cls-5" points="658.76 230.66 594.74 230.66 549.97 215.42 506.57 234.07 503.34 235 461.79 237.05 459.99 236.97 417.88 236.97 374.22 234.68 330.19 215.42 285.79 230.66 242.47 230.66 223.63 230.66"/><polyline class="cls-5" points="658.76 274.57 594.87 274.57 549.97 259.33 506.91 279.11 503.71 280.19 461.99 280.98 460.18 280.87 417.88 280.87 374.1 279.93 330.19 259.33 285.79 274.57 242.47 274.57 223.63 274.57"/><polyline class="cls-5" points="658.76 318.48 594.99 318.48 549.97 303.23 507.24 324.15 504.09 325.38 462.19 324.91 460.38 324.78 417.88 324.78 373.97 325.17 330.19 303.23 285.79 318.48 242.48 318.48 223.63 318.48"/><polyline class="cls-5" points="658.76 362.39 595.11 362.39 549.97 347.14 507.57 369.19 504.46 370.58 462.4 368.85 460.58 368.69 417.88 368.69 373.85 370.42 330.19 347.14 285.79 362.39 242.48 362.39 223.63 362.39"/><polyline class="cls-5" points="658.76 406.3 595.24 406.3 549.97 391.05 507.9 414.23 504.83 415.77 462.6 412.78 460.78 412.6 417.88 412.6 373.73 415.67 330.19 391.05 285.79 406.3 242.49 406.3 223.63 406.3"/><polyline class="cls-5" points="658.76 450.2 595.36 450.2 549.97 434.96 508.24 459.27 505.2 460.97 462.81 456.72 460.97 456.51 417.88 456.51 373.6 460.91 330.19 434.96 285.79 450.2 242.49 450.2 223.63 450.2"/><polyline class="cls-5" points="658.76 494.11 595.48 494.11 549.97 478.86 505.57 506.16 461.17 500.41 417.88 500.41 373.48 506.16 330.19 478.86 285.79 494.11 242.5 494.11 223.63 494.11"/></g></g></g><g><path class="cls-19" d="M869.82,750.05s2.57-12.91-15.25-66.37c-14.17-42.54-58.29-83.41-95.96-100.45-37.67-17.04-172.19-68.16-172.19-68.16l-.17,.65c2.53,2.42,4.6,5.43,5.55,9.21,3.59,14.35,11.99,71.73-42.86,111.57-56.78,41.26-150.97,44.84-206.47,5.91-63.07-44.25-71.75-122.87-68.16-137.22,.47-1.89,1.48-3.76,2.86-5.59l-.17-.69s-121.14,94.97-158.8,112.01c-37.67,17.04-69.03,41.94-101.69,101.69-24.38,44.6-11.73,86.05-11.73,86.05,0,0,216.63,60.78,456.08,66.16,239.46,5.38,409.13-114.53,409.13-114.53l-.17-.27Z"/><g class="cls-28"><g><g><path class="cls-5" d="M-114.13,280.61S233.52,724,75.5,905.99"/><path class="cls-5" d="M10.05,285.88c-19.79,7.36,272.16,447.37,147.49,620.11"/><path class="cls-5" d="M134.24,291.15c-39.59,14.72,196.65,451.37,105.35,614.84"/><path class="cls-5" d="M258.42,296.42c-59.38,22.08,121.15,455.36,63.21,609.57"/><path class="cls-5" d="M382.61,301.68c-79.17,29.44,45.65,459.35,21.07,604.31"/><path class="cls-5" d="M506.8,306.95c-98.97,36.8-29.85,463.34-21.07,599.04"/><path class="cls-5" d="M630.98,312.22c-118.76,44.16-105.35,467.33-63.21,593.77"/><path class="cls-5" d="M755.17,317.49c-138.55,51.52-180.85,471.32-105.35,588.5"/><path class="cls-5" d="M879.35,322.75c-158.35,58.88-256.35,475.31-147.49,583.24"/><path class="cls-5" d="M1003.54,328.02c-178.14,66.25-331.85,479.3-189.63,577.97"/></g><g><polyline class="cls-5" points="907.29 295.47 654.58 295.47 589.29 295.47 523.99 295.47 458.69 295.47 395.03 295.47 331.37 295.47 266.07 295.47 200.77 295.47 -102.64 295.47"/><polyline class="cls-5" points="907.29 360.04 654.76 360.04 589.29 360.04 523.99 360.04 458.69 360.04 395.03 360.04 331.18 360.04 266.07 360.04 200.77 360.04 137.13 360.04 -102.64 360.04"/><polyline class="cls-5" points="907.29 424.61 654.95 424.61 589.29 424.61 523.99 424.61 458.69 424.61 395.03 424.61 331 424.61 266.07 424.61 200.77 424.61 137.13 424.61 -102.64 424.61"/><polyline class="cls-5" points="907.29 489.18 655.13 489.18 589.29 489.18 523.99 489.18 458.69 489.18 395.03 489.18 330.82 489.18 266.07 489.18 200.77 489.18 137.12 489.18 -102.64 489.18"/><polyline class="cls-5" points="907.29 553.75 655.31 553.75 589.29 553.75 523.99 553.75 458.69 553.75 395.03 553.75 330.64 553.75 266.07 553.75 200.77 553.75 137.12 553.75 -102.64 553.75"/><polyline class="cls-5" points="907.29 618.32 655.49 618.32 589.29 618.32 523.99 618.32 458.69 618.32 395.03 618.32 330.46 618.32 266.07 618.32 200.77 618.32 137.12 618.32 -102.64 618.32"/><polyline class="cls-5" points="907.29 682.89 655.67 682.89 589.29 682.89 523.99 682.89 458.69 682.89 395.03 682.89 330.28 682.89 266.07 682.89 200.77 682.89 137.12 682.89 -102.64 682.89"/><polyline class="cls-5" points="907.29 747.46 655.85 747.46 589.29 747.46 523.99 747.46 458.69 747.46 395.03 747.46 330.1 747.46 266.07 747.46 200.77 747.46 137.11 747.46 -102.64 747.46"/><polyline class="cls-5" points="907.29 812.04 656.03 812.04 589.29 812.04 523.99 812.04 458.69 812.04 395.03 812.04 329.91 812.04 266.07 812.04 200.77 812.04 137.11 812.04 -102.64 812.04"/></g></g></g><path class="cls-2" d="M869.82,750.05s2.57-12.91-15.25-66.37c-14.17-42.54-58.29-83.41-95.96-100.45-37.67-17.04-172.19-68.16-172.19-68.16l-.17,.65c2.53,2.42,4.6,5.43,5.55,9.21,3.59,14.35,11.99,71.73-42.86,111.57-56.78,41.26-150.97,44.84-206.47,5.91-63.07-44.25-71.75-122.87-68.16-137.22,.47-1.89,1.48-3.76,2.86-5.59l-.17-.69s-121.14,94.97-158.8,112.01c-37.67,17.04-69.03,41.94-101.69,101.69-24.38,44.6-11.73,86.05-11.73,86.05,0,0,216.63,60.78,456.08,66.16,239.46,5.38,409.13-114.53,409.13-114.53l-.17-.27Z"/></g><path class="cls-24" d="M478.69,231.63s-4.34,11.35-3.34,14.69c1,3.34,14.36,0,22.71-1.67,8.35-1.67,32.06-6.01,37.4-5.01,5.34,1,23.71,12.69,31.39,13.69,7.68,1-4.34-20.04-12.69-26.72-8.35-6.68-17.37-6.35-29.39-5.01-12.02,1.34-42.75,8.01-46.09,10.02Z"/><path class="cls-8" d="M463.66,265.03s9.68-14.03,24.04-17.7"/><path class="cls-9" d="M509.74,242.65s24.38-2,37.74,13.36"/><path class="cls-8" d="M420.62,265.03s-9.68-14.03-24.04-17.7"/><path class="cls-8" d="M374.54,242.65s-24.38-2-37.74,13.36"/><path class="cls-8" d="M472.4,332.38s10,9.55,9.55,19.1c-.45,9.55-6.82,14.55-6.82,14.55"/><path class="cls-8" d="M410.12,332.38s-10,9.55-9.55,19.1c.45,9.55,6.82,14.55,6.82,14.55"/><path class="cls-8" d="M436.48,366.03s-5.46-.45-8.64-4.09c-3.18-3.64-8.18-6.82-11.37-3.64-3.18,3.18,7.73,1.36,7.73,1.36"/><path class="cls-8" d="M446.81,366.03s5.46-.45,8.64-4.09c3.18-3.64,8.18-6.82,11.37-3.64,3.18,3.18-7.73,1.36-7.73,1.36"/><path class="cls-8" d="M460.12,269.63s-3.64,15.46-2.73,31.37c.91,15.91,1.82,28.65,1.82,28.65"/><path class="cls-8" d="M423.15,269.63s3.64,15.46,2.73,31.37c-.91,15.91-1.82,28.65-1.82,28.65"/><path class="cls-8" d="M285.07,271.91s.45-15-5.46-15.91-5.91,18.19-2.27,29.55"/><path class="cls-8" d="M290.98,282.82s-9.09,28.19-3.64,27.28c5.46-.91,6.82-3.64,6.82-3.64"/><path class="cls-8" d="M293.25,316.47s.91,10.46-2.27,8.64-3.64-6.37-3.64-6.37"/><path class="cls-8" d="M596.53,270.54s2.27-10.91,9.09-11.37c6.82-.45,5.46,13.64,5.46,13.64"/><path class="cls-8" d="M591.08,289.64s5,13.64,6.37,17.73c1.36,4.09,2.27,11.82-3.18,11.37l-5.46-.45"/><path class="cls-8" d="M584.71,332.38s2.27,7.73,6.37,.45"/><g><path class="cls-4" d="M379.05,417.77c9.1,2.89,27.96-5.33,34.51-5.33s14.34,3.69,17.62,4.92c3.28,1.23,5.74,0,5.74,0,0,0,10.91-6.08,15.57-5.74,16.07,1.17,22.92,9.04,32.96,6.15,0,0-10.42,4.91-23.12,6.14-12.7,1.23-12.7,.41-18.44,2.05-5.74,1.64-15.98,2.87-21.72,.82-5.74-2.05-10.24-3.28-19.67-2.05-9.42,1.23-31.57-9.54-23.45-6.96Z"/><path class="cls-4" d="M484.6,418.62s-16.13,21.22-35.8,22.45c-19.67,1.23-34.89,1.08-38.93,0-14.35-3.84-30.4-22.45-30.4-22.45"/></g><g><path class="cls-8" d="M388.18,413.85c9.1,2.89,27.96-5.33,34.51-5.33s14.34,3.69,17.62,4.92c3.28,1.23,5.74,0,5.74,0,0,0,10.91-6.08,15.57-5.74,16.07,1.17,22.92,9.04,32.96,6.15,0,0-10.42,4.91-23.12,6.14-12.7,1.23-12.7,.41-18.44,2.05s-15.98,2.87-21.72,.82c-5.74-2.05-10.24-3.28-19.67-2.05-9.42,1.23-31.57-9.54-23.45-6.96Z"/><path class="cls-8" d="M493.73,414.71s-16.13,21.22-35.8,22.45c-19.67,1.23-34.89,1.08-38.93,0-14.35-3.84-30.4-22.45-30.4-22.45"/></g><path class="cls-8" d="M602.85,284.65s12.22-1.39,11.65,6.06c-.47,6.06-4.43,6.75-4.43,6.75"/><g><path class="cls-23" d="M489.22,510.62c-20.46,15-23.19,12.28-54.56,12.28s-29.56-3.64-48.2-14.55c-15.94-9.33-56.52-63.29-69.39-82.74,.5,7.43,1.44,31.68-5.55,51.99,.29-.12,.46-.19,.46-.19,0,0-1.17,2.75-2.8,6.15-.7,1.57-1.48,3.08-2.3,4.56-1.94,3.65-4.07,7.08-5.66,8.12,0,0,3.34,60.01,35.69,93.55,32.34,33.54,85.05,43.6,104.22,44.56,137.94,6.92,126.45-128.25,126.45-128.25l.9,.9s-15.92-16.62-18.33-58.48c-16.79,19.26-46.29,51.37-60.92,62.1Z"/><g class="cls-29"><g><g><line class="cls-5" x1="243.61" y1="277.21" x2="243.61" y2="725.96"/><line class="cls-5" x1="287.51" y1="277.21" x2="287.51" y2="725.96"/><line class="cls-5" x1="331.42" y1="277.21" x2="331.42" y2="725.96"/><line class="cls-5" x1="375.33" y1="277.21" x2="375.33" y2="725.96"/><line class="cls-5" x1="419.24" y1="277.21" x2="419.24" y2="725.96"/><line class="cls-5" x1="463.14" y1="277.21" x2="463.14" y2="725.96"/><line class="cls-5" x1="507.05" y1="277.21" x2="507.05" y2="725.96"/><line class="cls-5" x1="550.96" y1="277.21" x2="550.96" y2="725.96"/><line class="cls-5" x1="594.87" y1="277.21" x2="594.87" y2="725.96"/><line class="cls-5" x1="638.78" y1="277.21" x2="638.78" y2="725.96"/></g><g><polyline class="cls-5" points="658.76 297.19 594.37 297.19 549.97 281.94 505.57 321.61 461.17 339.41 417.88 339.41 374.59 321.61 330.19 281.94 285.79 297.19 223.63 297.19"/><polyline class="cls-5" points="658.76 341.1 594.5 341.1 549.97 325.85 506.12 366.23 499.48 369.3 461.57 383.27 458.05 383.32 418.19 383.32 415.64 382.4 374.47 366.86 330.55 326.28 326.14 327.24 286.09 341 283.39 341.1 241.73 341.1 223.63 341.1"/><polyline class="cls-5" points="658.76 385.01 594.62 385.01 549.97 369.76 506.66 410.84 500.24 414.24 461.96 427.12 458.44 427.22 418.5 427.22 415.92 426.42 374.34 412.11 330.91 370.62 326.65 370.98 286.39 384.8 283.69 385.01 241.83 385.01 223.63 385.01"/><polyline class="cls-5" points="658.76 428.92 594.74 428.92 549.97 413.67 507.21 455.45 501.01 459.18 462.36 470.98 458.83 471.13 418.81 471.13 416.2 470.44 374.22 457.35 331.27 414.96 327.15 414.71 286.69 428.61 283.99 428.92 241.92 428.92 223.63 428.92"/><polyline class="cls-5" points="658.76 472.82 594.87 472.82 549.97 457.58 507.75 500.06 501.77 504.13 462.75 514.84 459.22 515.04 419.12 515.04 416.48 514.46 374.1 502.6 331.64 459.3 327.66 458.44 286.98 472.41 284.29 472.82 242.02 472.82 223.63 472.82"/><polyline class="cls-5" points="658.76 516.73 594.99 516.73 549.97 501.48 508.3 544.67 502.53 549.07 463.15 558.69 459.61 558.95 419.43 558.95 416.76 558.49 373.97 547.85 332 503.64 328.17 502.18 287.28 516.22 284.59 516.73 242.11 516.73 223.63 516.73"/><polyline class="cls-5" points="658.76 560.64 595.11 560.64 549.97 545.39 508.84 589.29 503.29 594.01 463.54 602.55 460 602.86 419.74 602.86 417.04 602.51 373.85 593.09 332.36 547.98 328.67 545.91 287.58 560.02 284.89 560.64 242.21 560.64 223.63 560.64"/><polyline class="cls-5" points="658.76 604.55 595.24 604.55 549.97 589.3 509.38 633.9 504.05 638.95 463.94 646.4 460.39 646.76 420.05 646.76 417.32 646.53 373.73 638.34 332.72 592.32 329.18 589.65 287.88 603.83 285.19 604.55 242.3 604.55 223.63 604.55"/><polyline class="cls-5" points="658.76 648.45 595.36 648.45 549.97 633.21 509.93 678.51 504.81 683.89 464.34 690.26 460.78 690.67 420.36 690.67 417.6 690.56 373.6 683.59 333.08 636.66 329.68 633.38 288.18 647.63 285.49 648.45 242.4 648.45 223.63 648.45"/><polyline class="cls-5" points="658.76 692.36 595.48 692.36 549.97 677.11 505.57 728.83 461.17 734.58 417.88 734.58 373.48 728.83 330.19 677.11 285.79 692.36 242.5 692.36 223.63 692.36"/></g></g></g><path class="cls-2" d="M489.22,510.62c-20.46,15-23.19,12.28-54.56,12.28s-29.56-3.64-48.2-14.55c-15.94-9.33-56.52-63.29-69.39-82.74,.5,7.43,1.44,31.68-5.55,51.99,.29-.12,.46-.19,.46-.19,0,0-1.17,2.75-2.8,6.15-.7,1.57-1.48,3.08-2.3,4.56-1.94,3.65-4.07,7.08-5.66,8.12,0,0,3.34,60.01,35.69,93.55,32.34,33.54,85.05,43.6,104.22,44.56,137.94,6.92,126.45-128.25,126.45-128.25l.9,.9s-15.92-16.62-18.33-58.48c-16.79,19.26-46.29,51.37-60.92,62.1Z"/></g><path class="cls-10" d="M568.48,507s19.73,3.59,23.32,17.94c3.59,14.35,11.99,71.73-42.86,111.57-56.78,41.25-150.97,44.84-206.47,5.91-63.07-44.25-71.75-122.87-68.16-137.22,3.59-14.35,37.67-27.8,37.67-27.8,0,0-6.92,16.32-10.76,18.83,0,0,3.34,60.01,35.69,93.55,32.34,33.54,85.05,43.6,104.22,44.56,137.94,6.92,126.45-128.25,126.45-128.25l.9,.9Z"/><path class="cls-24" d="M602.08,119.16c-11.71-55.63-38.06-73.78-38.06-73.78,0,0-2.93-.59-6.44-.59s-5.86-10.54-5.86-10.54c-10.54-8.78-103.65-38.65-154.01-26.35-50.36,12.3-89.41,49.37-89.41,49.37-14.73,13.86-22.52,38.12-27.72,56.31-5.2,18.19,1.73,86.63,2.6,97.03,.46,5.54,3.87,22.39,6.96,36.93,2.71,12.75,5.17,23.71,5.17,23.71l3.47-7.8c3.47-7.8,2.6-39.85,2.6-67.57s12.13-66.71,12.13-66.71c0,0,1.64-.65,12.19-5.92,10.54-5.27,44.5-33.96,69.68-32.79,25.18,1.17,45.68-9.37,67.93-7.03,22.25,2.34,29.28-5.27,55.63-1.76,26.35,3.51,42.16,29.87,53.87,55.63,11.71,25.77,9.96,86.67,9.37,98.96-.59,12.3,7.61,40.99,7.61,40.99,0,0,3.45-13.82,6.12-25.8,.8-3.62,1.54-7.07,2.08-9.92,2.34-12.3,15.81-66.76,4.1-122.39Z"/><path class="cls-17" d="M352.49,256.02c-4.6,2.91-7.86,5.8-7.67,6.34,.26,.79,7.26,7.89,13.81,11.45-3.87-3.99-6.27-9.42-6.27-15.42,0-.8,.05-1.59,.13-2.38Z"/><path class="cls-13" d="M398.92,257.68c-.7-.43-1.51-.88-2.37-1.33,.06,.67,.1,1.35,.1,2.04,0,4.64-1.43,8.93-3.86,12.49,3.03-.59,5.64-.56,8.13-.18,4.34,.67,7.35-.33,7.35-.33,1-1.34-2.34-8.35-9.35-12.69Z"/><path class="cls-15" d="M396.55,256.35c-7.8-4.07-21.67-8.46-30.69-6.35-4.6,1.07-9.46,3.55-13.36,6.02-.08,.78-.13,1.57-.13,2.38,0,6,2.39,11.43,6.27,15.42,1.7,.93,3.38,1.63,4.89,1.9,7.35,1.34,15.03,.67,21.71-2.34,2.85-1.28,5.31-2.05,7.56-2.49,2.43-3.56,3.86-7.85,3.86-12.49,0-.69-.04-1.37-.1-2.04Z"/><path class="cls-13" d="M487.4,256.53c-.73,.39-1.42,.78-2.03,1.15-7.01,4.34-10.35,11.35-9.35,12.69,0,0,3.01,1,7.35,.33,2.38-.37,4.88-.41,7.75,.1-2.4-3.54-3.81-7.81-3.81-12.42,0-.63,.04-1.25,.09-1.86Z"/><path class="cls-13" d="M539.47,262.36c.19-.56-3.24-3.59-8.04-6.58,.1,.86,.17,1.73,.17,2.61,0,6.18-2.54,11.77-6.63,15.79,6.74-3.42,14.23-11,14.5-11.82Z"/><path class="cls-15" d="M531.59,258.39c0-.88-.07-1.75-.17-2.61-3.84-2.39-8.54-4.74-13-5.78-9.15-2.14-23.3,2.42-31.03,6.53-.05,.62-.09,1.23-.09,1.86,0,4.6,1.41,8.88,3.81,12.42,2.35,.42,4.94,1.21,7.95,2.57,6.68,3.01,14.36,3.67,21.71,2.34,1.31-.24,2.74-.79,4.2-1.53,4.09-4.02,6.63-9.6,6.63-15.79Z"/><path class="cls-11" d="M524.1,258.35c0-2.81-.27-6.68-2.75-7.51-8.76-2.94-21.73,.36-23.95,1.5-1.79,.92-1.35,3.86-1.35,6.01,0,7.75,6.28,14.03,14.03,14.03s14.03-6.28,14.03-14.03Z"/><path class="cls-11" d="M360.18,258.35c0-2.81,.27-6.68,2.75-7.51,8.76-2.94,21.73,.36,23.95,1.5,1.79,.92,1.35,3.86,1.35,6.01,0,7.75-6.28,14.03-14.03,14.03-7.75,0-14.03-6.28-14.03-14.03Z"/><line class="cls-9" x1="295.31" y1="271.25" x2="301.89" y2="345.11"/><line class="cls-9" x1="589.79" y1="277.27" x2="579.25" y2="348.3"/><ellipse class="cls-9" cx="420.15" cy="358.36" rx="1.93" ry=".12"/><ellipse class="cls-9" cx="463.91" cy="358.23" rx="2.05" ry=".96"/><g><path class="cls-21" d="M56.07,525.7v13.89H193.15c20.2-5.63,42.01-10.96,60.81-13.89H56.07Z"/><path class="cls-27" d="M303.72,525.7h-49.76c-18.8,2.92-40.61,8.26-60.81,13.89h110.57v-13.89Z"/><path class="cls-21" d="M19.34,755.11H113.07v-12.31c-39.62-12.36-71.91-32.72-93.74-49.37v61.68Z"/><path class="cls-20" d="M19.34,661.37v32.06c21.83,16.65,54.11,37.01,93.74,49.37v-81.43H19.34Z"/><path class="cls-25" d="M172.95,576.61v9.26h122.04c-1.91-2.84-3.67-5.97-5.01-9.26h-117.03Z"/><path class="cls-20" d="M310.66,576.61h-20.68c1.34,3.29,3.1,6.41,5.01,9.26h15.67v-9.26Z"/></g><rect class="cls-24" x="367.74" y="253.2" width="12.88" height="12.88"/><rect class="cls-24" x="503.6" y="253.2" width="12.88" height="12.88"/><path class="cls-24" d="M567,46.99s-4.98,11.2,33.6,12.45c38.58,1.24,80.9,2.49,56.01,6.22-24.89,3.73-82.15,4.98-89.61,18.67V46.99Z"/><path class="cls-24" d="M313.58,476.4s4.64-8.5-29.98-9.2c-38.6-.78-82.98-.2-58.09-3.94,24.89-3.73,84.23-7.27,91.69-20.96l-3.62,34.09Z"/><path class="cls-24" d="M576.81,357.61s-2.19,4.93,14.79,5.48c16.98,.55,35.6,1.1,24.65,2.74-10.95,1.64-36.15,2.19-39.44,8.22v-16.43Z"/><path class="cls-24" d="M580.38,77.06s-7.89,7.36,30.7,8.6c38.58,1.24,80.9,2.49,56.01,6.22-24.89,3.73-81.81-2.74-89.28,10.95l2.58-25.77Z"/><path class="cls-24" d="M287.35,228.03s13.12-7.61-25.46-8.86c-38.58-1.24-80.9-2.49-56.01-6.22,24.89-3.73,85.58-4.79,93.05-18.48l-11.58,33.56Z"/><path class="cls-24" d="M287.99,240.03s.27-7.08-16.71-7.63c-16.98-.55-35.6-1.1-24.65-2.74,10.95-1.64,47.71-3.9,51-9.92l-9.64,20.29Z"/><g><rect class="cls-23" x="341.99" y="540.13" width="193.26" height="16.2"/><g><line class="cls-7" x1="367.45" y1="540.13" x2="367.45" y2="557.49"/><line class="cls-6" x1="375.55" y1="540.13" x2="375.55" y2="557.49"/></g><g><line class="cls-7" x1="404.48" y1="540.13" x2="404.48" y2="557.49"/><line class="cls-6" x1="412.58" y1="540.13" x2="412.58" y2="557.49"/></g><g><line class="cls-7" x1="449.61" y1="540.13" x2="449.61" y2="557.49"/><line class="cls-6" x1="457.71" y1="540.13" x2="457.71" y2="557.49"/></g><g><line class="cls-7" x1="498.21" y1="540.13" x2="498.21" y2="557.49"/><line class="cls-6" x1="506.31" y1="540.13" x2="506.31" y2="557.49"/></g></g><g><rect class="cls-23" x="379.87" y="565.06" width="193.26" height="16.2"/><g><line class="cls-7" x1="405.33" y1="565.06" x2="405.33" y2="582.42"/><line class="cls-6" x1="413.43" y1="565.06" x2="413.43" y2="582.42"/></g><g><line class="cls-7" x1="442.36" y1="565.06" x2="442.36" y2="582.42"/><line class="cls-6" x1="450.47" y1="565.06" x2="450.47" y2="582.42"/></g><g><line class="cls-7" x1="487.5" y1="565.06" x2="487.5" y2="582.42"/><line class="cls-6" x1="495.6" y1="565.06" x2="495.6" y2="582.42"/></g><g><line class="cls-7" x1="536.1" y1="565.06" x2="536.1" y2="582.42"/><line class="cls-6" x1="544.2" y1="565.06" x2="544.2" y2="582.42"/></g></g><g><path class="cls-20" d="M805.98,627.35v-5.02h-64.8v5.54c18.97-.38,41.09-.62,64.8-.52Z"/><path class="cls-16" d="M764.7,588.15s6.45,4.61,12.61,12.64h18.32l-30.93-12.64Z"/><path class="cls-21" d="M862.03,621.97h65.7v-21.18h-132.1l9.44,3.86s24.99,6.44,56.96,17.32Z"/><path class="cls-24" d="M777.31,600.79h-39.36v21.18h49.5c-.08-.4-.16-.79-.25-1.16-1.88-7.94-5.82-14.72-9.88-20.02Z"/><path class="cls-20" d="M814.36,621.97h47.66c-31.97-10.88-56.96-17.32-56.96-17.32,0,0,6.9,3.78,9.3,17.32Z"/><path class="cls-27" d="M805.07,604.65l-9.44-3.86h-18.32c4.07,5.3,8.01,12.08,9.88,20.02,.09,.37,.17,.76,.25,1.16h26.92c-2.4-13.54-9.3-17.32-9.3-17.32Z"/></g><path class="cls-24" d="M405.6,231.63c-2.34-1.41-18.15-5.11-31.53-7.66v18.43c4.92,.85,9.39,1.7,12.16,2.25,8.35,1.67,21.71,5.01,22.71,1.67,1-3.34-3.34-14.69-3.34-14.69Z"/><path class="cls-24" d="M330.12,226.62c-8.35,6.68-20.37,27.72-12.69,26.72,7.68-1,26.05-12.69,31.39-13.69,1.03-.19,2.76-.18,4.92-.04v-18.55c-9.24-.7-16.67,0-23.62,5.56Z"/><path class="cls-24" d="M359.51,215.57c-2-.22-3.92-.41-5.77-.55v18.55c5.31,.36,13.28,1.58,20.32,2.79v-18.43c-5.7-1.09-10.97-1.96-14.56-2.36Z"/><rect class="cls-24" x="261.43" y="84.03" width="22.59" height="22.59"/><g><path class="cls-27" d="M281.93,152.21h-18.84v34.72h20.78c-1.41-10.16-2.33-22.02-1.95-34.72Z"/><path class="cls-20" d="M297.81,152.21h-15.88c-.39,12.7,.54,24.55,1.95,34.72h13.94v-34.72Z"/></g></g></g></svg>