<?xml version="1.0" encoding="UTF-8"?><svg id="Layer_2" xmlns="http://www.w3.org/2000/svg" xmlns:xlink="http://www.w3.org/1999/xlink" viewBox="0 0 827.73 894.41"><defs><style>.cls-1,.cls-2,.cls-3,.cls-4,.cls-5,.cls-6,.cls-7,.cls-8{fill:none;}.cls-2,.cls-3{stroke:#afff00;}.cls-2,.cls-3,.cls-9,.cls-10,.cls-11,.cls-12,.cls-7{stroke-width:3px;}.cls-2,.cls-4,.cls-5,.cls-6{stroke-miterlimit:10;}.cls-3,.cls-9,.cls-10,.cls-11,.cls-13,.cls-12,.cls-7,.cls-8{stroke-linecap:round;stroke-linejoin:round;}.cls-14{clip-path:url(#clippath);}.cls-15{fill:#ff2f8a;}.cls-16,.cls-10,.cls-13{fill:#afff00;}.cls-17,.cls-11{fill:#e2ded8;}.cls-18{fill:#0b1221;}.cls-19{fill:#291d50;}.cls-20{fill:#523aa0;}.cls-21{clip-path:url(#clippath-1);}.cls-22{clip-path:url(#clippath-2);}.cls-4,.cls-9,.cls-10,.cls-11,.cls-13,.cls-12,.cls-7,.cls-8{stroke:#0b1221;}.cls-5{stroke:#ff2f8a;}.cls-6{stroke:#523aa0;}.cls-9{fill:#92bf2c;}.cls-13,.cls-8{stroke-width:1.1px;}.cls-12{fill:#fff;}</style><clipPath id="clippath"><path class="cls-1" d="M480.03,568.26c-5.26,1.27-49.48,3.93-49.48,3.93l-5.58-.4c-23.7-.71-37.86,1.36-64.86-17.36-18.17-12.6-38.65-35.6-53-52.36l-2.18-.42s.22,30.5-1.95,60.86l-.93-.69c-3.37,4.91-28.52,42.13-28.03,59.1,.52,18.2,24.99,89.65,153.13,88.07,128.15-1.58,153.35-99.67,151.81-104.53-1.3-4.1-17.87-21.07-23.02-26.27l-1.11,.04c-.1-.48-.19-.97-.29-1.45-.06-.06-.15-.15-.15-.15,0,0,.08,.03,.13,.06-5.62-28.02-8.03-61.54-8.37-66.58-2.02,2.58-4.16,5.28-6.54,8.24-25.02,31.09-54.33,48.65-59.59,49.91Z"/></clipPath><clipPath id="clippath-1"><path class="cls-1" d="M583.95,298.03c1.91-11.24,11.7-86.08-10.68-138.37-22.38-52.29-89.79-63.04-131.66-67.05,0,0-98.44-.9-130.94,35.82-32.5,36.72-34.83,85.25-35.3,121.05-.46,35.8-.95,44.76-3.53,59-2.57,14.24,.71,50.68,.71,50.68,0,0,1.55,24.15,2.56,30.25,1.01,6.1,.89,31.18,1.26,34.24,.37,3.05,5.62,50.27,15.11,60.31,3.1,3.28,8.64,9.97,15.62,18.12,14.35,16.76,34.83,39.76,53,52.36,27.01,18.73,41.16,16.65,64.86,17.36l5.58,.4s44.23-2.66,49.48-3.93c5.26-1.27,34.57-18.83,59.59-49.91,2.38-2.96,4.52-5.66,6.54-8.24,19.22-24.53,22.98-32.7,25.85-37.83,3.18-5.66,7.73-51.21,9.73-59.07,2-7.86,7.98-69.86,7.98-69.86,0,0-7.69-34.08-5.77-45.32Z"/></clipPath><clipPath id="clippath-2"><path class="cls-1" d="M791.45,682.39c-25.24-25.19-130.84-64.15-147.08-68.59-1.66-.46-3.96-1.22-6.69-2.2-8.06-2.9-20.15-7.82-32.64-13.06-10.39,69.42-60.34,126.3-155.38,131.18-100.22,5.14-188.88-12.85-197.87-83.52-3.71-29.16,.02-51.08,5.68-66.8-20.5,8.38-45.81,18.87-71.06,29.72-34.96,15.02-69.8,30.71-91.63,42.42-57.95,31.08-81.53,126.29-81.53,126.29,0,0,167.22,123.17,427.59,115.7,260.37-7.47,386.33-137.92,386.33-137.92,0,0-10.49-48.03-35.73-73.23Z"/></clipPath></defs><g id="background_black"><g><path class="cls-2" d="M779.89,673.71c-25.24-25.19-130.84-64.15-147.08-68.59-1.66-.46-3.96-1.22-6.69-2.2-8.06-2.9-20.15-7.82-32.64-13.06-17.64-7.41-36.03-15.45-45.02-19.41l-13.8-69.1c19.15-24.46,22.91-32.62,25.78-37.73,2.61-4.65,6.14-36.2,8.43-51.68,6.53,.11,11.94-6.27,18.29-12.67,6.35-6.41,7.82-20.46,15.17-35.61,7.35-15.15,6.49-34.12,7.78-43.5,1.29-9.38-.34-22.72-6.94-24.71-5.52-1.67-13.23,3.26-15.6,4.92,3.75-13.06,10.53-32.28,18.41-59.43,12.21-42.1,2.73-73.49,2.73-73.49,0,0,1.33-72.8-15.06-98.42-16.39-25.62-102.56-51.05-102.56-51.05l2.53,10.37s-16.9-17.41-34.23-23.62C442.07-1.5,417.51-.05,330.88,21.08c-86.63,21.13-76.93,99.13-76.93,99.13-16.97-19.64,2.87-56,2.87-56-28.28,27.65-8.38,71.82-8.38,71.82,0,0-13.83,11.58-15.3,38.46-1.47,26.88,6.14,54.78,12.46,67.28,6,11.85,1,23.64,1.78,48.31-5.1-3.46-7.8-.31-9.81,7.26-2.01,7.58,.83,28.95,1.57,35.34,.74,6.39,8.22,24.28,10.66,41.21,2.06,14.34,11.66,20.44,14.56,21.98,.19,8.46,.25,17.36,.45,19.1,.37,3.05,5.62,50.27,15.11,60.31,3.1,3.28,8.64,9.97,15.62,18.12l-2.18-.42h0s-6.65,61.27-6.65,61.27c-6.86,2.74-21.76,8.69-40.79,16.47-20.5,8.38-45.81,18.87-71.06,29.72-34.96,15.02-69.8,30.71-91.63,42.42C25.27,673.95,1.7,769.16,1.7,769.16c0,0,167.22,123.17,427.59,115.7,260.37-7.47,386.33-137.92,386.33-137.92,0,0-10.49-48.03-35.73-73.23Z"/><path class="cls-11" d="M276.77,404.97s-12.97-5.48-15.41-22.41c-2.44-16.93-9.92-34.82-10.66-41.21-.74-6.39-3.58-27.76-1.57-35.34,2.01-7.58,4.71-10.72,9.82-7.25l36.93,46.74-19.11,59.46"/><path class="cls-11" d="M580.41,420.61c6.54,.12,11.96-6.26,18.32-12.67,6.35-6.41,7.82-20.46,15.17-35.61,7.35-15.15,6.49-34.12,7.78-43.5,1.29-9.38-.34-22.72-6.94-24.71-6.59-1.99-16.34,5.45-16.34,5.45l-27.4,39.3-2.12,63.07,11.54,8.67"/><path class="cls-18" d="M248.56,198.37s12.93-2.9-25.09-3.37c-38.02-.47-79.73-.95-55.2-2.37,24.53-1.42,84.34-1.83,91.7-7.04l-11.41,12.79Z"/><path class="cls-18" d="M273.62,209.93s12.93-2.9-25.09-3.37c-38.02-.47-79.73-.95-55.2-2.37,24.53-1.42,84.34-1.83,91.7-7.04l-11.41,12.79Z"/><path class="cls-18" d="M279.4,300.52s12.93-2.9-25.09-3.37c-38.02-.47-79.73-.95-55.2-2.37,24.53-1.42,84.34-1.83,91.7-7.04l-11.41,12.79Z"/><path class="cls-18" d="M602.59,276.87s-12.93-7.5,25.09-8.73c38.02-1.23,79.73-2.45,55.2-6.13-24.53-3.68-84.34-4.72-91.7-18.21l11.41,33.08Z"/><path class="cls-18" d="M601.95,288.69s-.26-6.98,16.47-7.52c16.73-.54,35.09-1.08,24.29-2.7-10.8-1.62-47.02-3.84-50.26-9.78l9.5,19.99Z"/><rect class="cls-18" x="615.08" y="142.69" width="40.5" height="40.5"/><path class="cls-18" d="M300.1,566.93s4.57-8.37-29.55-9.06c-38.04-.77-81.78-.2-57.25-3.88,24.53-3.68,83.01-7.16,90.37-20.65l-3.57,33.6Z"/><path class="cls-1" d="M554.83,578.24l1.11-.04c-.73-.73-1.21-1.22-1.4-1.41,.1,.48,.19,.97,.29,1.45Z"/><path class="cls-8" d="M302.42,561.26s-.27,.11-.73,.29l.35,.26c.24-.35,.38-.55,.38-.55Z"/><path class="cls-8" d="M555.94,578.2l1.84-.07c-1.83-.81-2.95-1.3-3.26-1.44,0,.03,.01,.06,.02,.09,.19,.19,.68,.68,1.4,1.41Z"/><path class="cls-8" d="M554.54,576.78s-.01-.06-.02-.09c-.06-.03-.13-.06-.13-.06,0,0,.09,.09,.15,.15Z"/><path class="cls-11" d="M480.03,568.26c-5.26,1.27-49.48,3.93-49.48,3.93l-5.58-.4c-23.7-.71-37.86,1.36-64.86-17.36-18.17-12.6-38.65-35.6-53-52.36l-2.18-.42s.22,30.5-1.95,60.86l-.93-.69c-3.37,4.91-28.52,42.13-28.03,59.1,.52,18.2,24.99,89.65,153.13,88.07,128.15-1.58,153.35-99.67,151.81-104.53-1.3-4.1-17.87-21.07-23.02-26.27l-1.11,.04c-.1-.48-.19-.97-.29-1.45-.06-.06-.15-.15-.15-.15,0,0,.08,.03,.13,.06-5.62-28.02-8.03-61.54-8.37-66.58-2.02,2.58-4.16,5.28-6.54,8.24-25.02,31.09-54.33,48.65-59.59,49.91Z"/><g class="cls-14"><g><g><line class="cls-4" x1="229.55" y1="347.37" x2="229.55" y2="799.59"/><line class="cls-4" x1="275.18" y1="347.37" x2="275.18" y2="799.59"/><line class="cls-4" x1="320.81" y1="347.37" x2="320.81" y2="799.59"/><line class="cls-4" x1="366.44" y1="347.37" x2="366.44" y2="799.59"/><line class="cls-4" x1="412.07" y1="347.37" x2="412.07" y2="799.59"/><line class="cls-4" x1="457.71" y1="347.37" x2="457.71" y2="799.59"/><line class="cls-4" x1="503.34" y1="347.37" x2="503.34" y2="799.59"/><line class="cls-4" x1="548.97" y1="347.37" x2="548.97" y2="799.59"/><line class="cls-4" x1="594.6" y1="347.37" x2="594.6" y2="799.59"/><line class="cls-4" x1="640.23" y1="347.37" x2="640.23" y2="799.59"/></g><g><polyline class="cls-4" points="661 368.14 594.09 368.14 547.94 368.14 501.8 368.14 455.65 368.14 410.66 368.14 365.67 368.14 319.53 368.14 273.38 368.14 208.78 368.14"/><polyline class="cls-4" points="661 413.77 594.22 413.77 547.94 413.77 501.8 413.77 455.65 413.77 410.66 413.77 365.54 413.77 319.53 413.77 273.38 413.77 228.35 413.77 208.78 413.77"/><polyline class="cls-4" points="661 459.4 594.34 459.4 547.94 459.4 501.8 459.4 455.65 459.4 410.66 459.4 365.42 459.4 319.53 459.4 273.38 459.4 228.36 459.4 208.78 459.4"/><polyline class="cls-4" points="661 505.03 594.47 505.03 547.94 505.03 501.8 505.03 455.65 505.03 410.66 505.03 365.29 505.03 319.53 505.03 273.38 505.03 228.36 505.03 208.78 505.03"/><polyline class="cls-4" points="661 550.67 594.6 550.67 547.94 550.67 501.8 550.67 455.65 550.67 410.66 550.67 365.16 550.67 319.53 550.67 273.38 550.67 228.37 550.67 208.78 550.67"/><polyline class="cls-4" points="661 596.3 594.73 596.3 547.94 596.3 501.8 596.3 455.65 596.3 410.66 596.3 365.03 596.3 319.53 596.3 273.38 596.3 228.37 596.3 208.78 596.3"/><polyline class="cls-4" points="661 641.93 594.86 641.93 547.94 641.93 501.8 641.93 455.65 641.93 410.66 641.93 364.9 641.93 319.53 641.93 273.38 641.93 228.38 641.93 208.78 641.93"/><polyline class="cls-4" points="661 687.56 594.99 687.56 547.94 687.56 501.8 687.56 455.65 687.56 410.66 687.56 364.78 687.56 319.53 687.56 273.38 687.56 228.38 687.56 208.78 687.56"/><polyline class="cls-4" points="661 733.19 595.11 733.19 547.94 733.19 501.8 733.19 455.65 733.19 410.66 733.19 364.65 733.19 319.53 733.19 273.38 733.19 228.39 733.19 208.78 733.19"/><polyline class="cls-4" points="661 778.82 595.24 778.82 547.94 778.82 501.8 778.82 455.65 778.82 410.66 778.82 364.52 778.82 319.53 778.82 273.38 778.82 228.39 778.82 208.78 778.82"/></g></g></g><path class="cls-11" d="M583.95,298.03c1.91-11.24,11.7-86.08-10.68-138.37-22.38-52.29-89.79-63.04-131.66-67.05,0,0-98.44-.9-130.94,35.82-32.5,36.72-34.83,85.25-35.3,121.05-.46,35.8-.95,44.76-3.53,59-2.57,14.24,.71,50.68,.71,50.68,0,0,1.55,24.15,2.56,30.25,1.01,6.1,.89,31.18,1.26,34.24,.37,3.05,5.62,50.27,15.11,60.31,3.1,3.28,8.64,9.97,15.62,18.12,14.35,16.76,34.83,39.76,53,52.36,27.01,18.73,41.16,16.65,64.86,17.36l5.58,.4s44.23-2.66,49.48-3.93c5.26-1.27,34.57-18.83,59.59-49.91,2.38-2.96,4.52-5.66,6.54-8.24,19.22-24.53,22.98-32.7,25.85-37.83,3.18-5.66,7.73-51.21,9.73-59.07,2-7.86,7.98-69.86,7.98-69.86,0,0-7.69-34.08-5.77-45.32Z"/><path class="cls-7" d="M412.87,275.62s-1.21,54.04-3.3,76.67"/><path class="cls-7" d="M449.42,273.73s-3.91,54.95-.52,77.42"/><circle class="cls-18" cx="342.74" cy="364.67" r="4.01"/><circle class="cls-18" cx="350.43" cy="375.41" r="2.23"/><circle class="cls-18" cx="450.6" cy="361.81" r="2.23"/><path class="cls-7" d="M391.66,363.7s-6.57,10.17-5.85,19.04c.68,8.29,4.19,11.11,13.24,11"/><path class="cls-7" d="M463.64,363.7s6.57,10.17,5.85,19.04c-.68,8.29-4.19,11.11-13.24,11"/><path class="cls-7" d="M406.43,386.25s-15.14,1.49-13.54-1.3c1.61-2.79,7.97-1.49,9.66-1.33,1.69,.16,7.32,5.27,9.49,7.32,2.17,2.05,4.35,4.52,9.83,4.57"/><path class="cls-7" d="M445.28,385.14s15.2,.62,13.44-2.07c-1.76-2.69-8.04-1.03-9.72-.78-1.68,.26-7.01,5.69-9.06,7.85-2.05,2.17-4.08,4.76-9.56,5.13"/><g><path class="cls-3" d="M491.93,458.4c-20.24,1.97-46.32-10.98-51.77-11.31-9.47-.56-15.12,6-20.4,6.15-5.28,.15-11.27-4.96-17.97-6.16-6.71-1.2-14.12,2.07-22.63,6.21-8.5,4.14-24.35,4.31-24.35,4.31,0,0,20.69,3.86,33.23,4.89,12.54,1.03,24.28,2.92,31.49,2.43,7.22-.49,19.43-1.39,30.53-1.99s41.86-4.54,41.86-4.54Z"/><path class="cls-3" d="M477.63,463.82s-22.38,14.82-44.89,15.47c-28.62,.82-31.4,.9-38.13-1.13-6.73-2.03-35.88-19.55-35.88-19.55,0,0,46.87,5.33,49.67,5.81s13.08,.46,21.41-.06c8.33-.52,30.8-2.27,34.96-2.67,4.16-.4,21.34-2.56,21.34-2.56l-8.49,4.69Z"/></g><path class="cls-18" d="M441.71,92.61s-98.44-.9-130.94,35.82c-32.5,36.72-34.83,85.25-35.3,121.05-.46,35.8-.95,44.76-3.53,59-2.57,14.24,.71,50.68,.71,50.68,0,0-12.01-28.73-13.54-56.28-1.54-27.54,4.38-39.95-1.95-52.44-6.32-12.49-13.93-40.39-12.46-67.27,1.47-26.88,15.3-38.46,15.3-38.46,0,0-19.91-44.16,8.38-71.82,0,0-19.83,36.36-2.87,56,0,0-9.69-78.01,76.93-99.13,86.63-21.13,111.19-22.58,128.52-16.36,17.33,6.21,34.23,23.62,34.23,23.62l-2.53-10.37s86.17,25.42,102.56,51.05c16.39,25.63,15.06,98.42,15.06,98.42,0,0,9.48,31.39-2.73,73.49-12.21,42.1-21.83,65.24-21.53,75.67,.3,10.43-6.19,18.07-6.19,18.07,0,0-7.69-34.08-5.77-45.32,1.91-11.24,11.7-86.08-10.68-138.37-22.38-52.29-89.79-63.04-131.66-67.05Z"/><path class="cls-7" d="M251.73,309s8.19,3.67,9.23,10.88"/><path class="cls-7" d="M259.65,332.74s-2.24,9.26-1.53,14.53c.71,5.27,3.36,10.21,3.36,10.21"/><path class="cls-7" d="M269.35,369.79s-2.7,2.86-2.29,7.59c.41,4.72-.88,8.11-2.87,6.77"/><path class="cls-7" d="M600.54,330.06s4.3-12.89,10.17-14.3,10.35,2.51,11.02,4.35"/><path class="cls-7" d="M610.64,323.85s-2.35,5.05-1.34,18.41c1.01,13.36,1.62,34.82-8.1,43.2"/><path class="cls-7" d="M590.77,369.25s6.21-.49,3.89,5.49c-2.32,5.98-8.61,25.46,1.15,18.34"/><path class="cls-7" d="M304.91,501.65s.69,97.35-12.74,117.35"/><path class="cls-7" d="M546.11,509.44s5.17,82.51,20.45,102.39"/><path class="cls-8" d="M540.84,289.41c-.21,1.17-.47,2.33-.82,3.45,.83-.55,1.38-1.06,1.51-1.48,.14-.46-.13-1.15-.69-1.97Z"/><path class="cls-13" d="M791.45,682.39c-25.24-25.19-130.84-64.15-147.08-68.59-1.66-.46-3.96-1.22-6.69-2.2-8.06-2.9-20.15-7.82-32.64-13.06-10.39,69.42-60.34,126.3-155.38,131.18-100.22,5.14-188.88-12.85-197.87-83.52-3.71-29.16,.02-51.08,5.68-66.8-20.5,8.38-45.81,18.87-71.06,29.72-34.96,15.02-69.8,30.71-91.63,42.42-57.95,31.08-81.53,126.29-81.53,126.29,0,0,167.22,123.17,427.59,115.7,260.37-7.47,386.33-137.92,386.33-137.92,0,0-10.49-48.03-35.73-73.23Z"/><g class="cls-21"><g><g><line class="cls-4" x1="225.18" y1="94.97" x2="225.18" y2="594.79"/><line class="cls-4" x1="270.81" y1="94.97" x2="270.81" y2="594.79"/><line class="cls-4" x1="316.44" y1="94.97" x2="316.44" y2="594.79"/><line class="cls-4" x1="362.07" y1="94.97" x2="362.07" y2="594.79"/><line class="cls-4" x1="407.71" y1="94.97" x2="407.71" y2="594.79"/><line class="cls-4" x1="453.34" y1="94.97" x2="453.34" y2="594.79"/><line class="cls-4" x1="498.97" y1="94.97" x2="498.97" y2="594.79"/><line class="cls-4" x1="544.6" y1="94.97" x2="544.6" y2="594.79"/><line class="cls-4" x1="590.23" y1="94.97" x2="590.23" y2="594.79"/><line class="cls-4" x1="635.87" y1="94.97" x2="635.87" y2="594.79"/></g><g><polyline class="cls-4" points="656.63 132.23 589.72 132.23 543.58 137.85 497.43 137.85 448.79 129.73 403.8 129.73 361.31 141.71 315.16 141.71 269.02 132.23 204.41 132.23"/><polyline class="cls-4" points="656.63 181.15 590.84 181.15 589.73 181.16 543.58 186.77 497.43 186.77 448.79 178.65 403.8 178.65 361.18 190.62 315.16 190.62 269.02 181.15 223.99 181.15 204.41 181.15"/><polyline class="cls-4" points="656.63 230.06 590.85 230.06 589.74 230.09 543.58 235.68 497.43 235.68 448.79 227.57 403.8 227.57 361.05 239.54 315.16 239.54 269.02 230.06 223.99 230.06 204.41 230.06"/><polyline class="cls-4" points="656.63 278.98 590.85 278.98 589.75 279.02 543.58 284.6 497.43 284.6 448.79 276.48 403.8 276.48 360.92 288.45 315.16 288.45 269.02 278.98 224 278.98 204.41 278.98"/><polyline class="cls-4" points="656.63 327.89 590.85 327.89 589.76 327.95 543.58 333.51 497.43 333.51 448.79 325.4 403.8 325.4 360.79 337.37 315.16 337.37 269.02 327.89 224 327.89 204.41 327.89"/><polyline class="cls-4" points="656.63 376.81 590.86 376.81 589.77 376.88 543.58 382.43 497.43 382.43 448.79 374.31 403.8 374.31 360.66 386.28 315.16 386.28 269.02 376.81 224.01 376.81 204.41 376.81"/><polyline class="cls-4" points="656.63 425.72 590.86 425.72 589.78 425.81 543.58 431.34 497.43 431.34 448.79 423.23 403.8 423.23 360.54 435.2 315.16 435.2 269.02 425.72 224.01 425.72 204.41 425.72"/><polyline class="cls-4" points="656.63 474.64 590.87 474.64 589.79 474.74 543.58 480.26 497.43 480.26 448.79 472.14 403.8 472.14 360.41 484.11 315.16 484.11 269.02 474.64 224.02 474.64 204.41 474.64"/><polyline class="cls-4" points="656.63 523.56 590.87 523.56 589.79 523.67 543.58 529.17 497.43 529.17 448.79 521.06 403.8 521.06 360.28 533.03 315.16 533.03 269.02 523.56 224.02 523.56 204.41 523.56"/><polyline class="cls-4" points="656.63 572.47 590.87 572.47 543.58 578.09 497.43 578.09 448.79 569.97 403.8 569.97 360.15 581.94 315.16 581.94 269.02 572.47 224.03 572.47 204.41 572.47"/></g></g></g><g><path class="cls-7" d="M498.03,452.3c-20.24,1.97-46.32-10.98-51.77-11.31-9.47-.56-15.12,6-20.4,6.15-5.28,.15-11.27-4.96-17.97-6.16-6.71-1.2-14.12,2.07-22.63,6.21-8.5,4.14-24.35,4.31-24.35,4.31,0,0,20.69,3.86,33.23,4.89,12.54,1.03,24.28,2.92,31.49,2.43,7.22-.49,19.43-1.39,30.53-1.99,11.11-.6,41.86-4.54,41.86-4.54Z"/><path class="cls-7" d="M483.73,457.72s-22.38,14.82-44.89,15.47c-28.62,.82-31.4,.9-38.13-1.13-6.73-2.03-35.88-19.55-35.88-19.55,0,0,46.87,5.33,49.67,5.81,2.79,.48,13.08,.46,21.41-.06,8.33-.52,30.8-2.27,34.96-2.67,4.16-.4,21.34-2.56,21.34-2.56l-8.49,4.69Z"/></g><rect class="cls-16" x="316.96" y="243.33" width="45.42" height="93.56"/><rect class="cls-16" x="498.9" y="243.33" width="45.42" height="41.93"/><g><path class="cls-7" d="M388.44,279.12s-6.28-15.38-39.29-13.46c-33.01,1.92-39.05,11.82-39.05,11.82"/><path class="cls-7" d="M473.47,276.68s6.11-7.47,28.91-9.1c22.81-1.63,37.01,1.86,43.58,10.42"/><path class="cls-18" d="M454.03,243.52s-3.6,3.34-3.02,7.49,5.01,13.27,8.27,14.1c3.26,.83,49.75-12.79,59.48-12.14,9.73,.65,22.79,4.43,34.07,11.05,11.29,6.61,19.21,8.7,18.6,3.63-.61-5.07-24.77-25.19-38.8-30.79-14.03-5.61-25.14-5.75-39.38-2.57-14.24,3.18-39.22,9.25-39.22,9.25Z"/><path class="cls-7" d="M322.63,278.47c-3.05,1.3-5.29,2.76-6.28,4.27,0,0,2.68,6.08,6.73,8.97-.64-2.4-1.02-4.91-1.02-7.51,0-1.96,.2-3.88,.57-5.73Z"/><path class="cls-7" d="M386.53,288.32s-2.41-2.71-6.54-5.83c.03,.57,.09,1.13,.09,1.7,0,2.91-.44,5.71-1.23,8.35,.07,0,.14,0,.22-.01,8.44-.03,9.44-1.75,7.47-4.22Z"/><path class="cls-12" d="M379.99,282.5c-5.26-3.97-13.32-8.6-22.78-9.15-12.31-.72-26.41,1.64-34.58,5.13-.37,1.85-.57,3.77-.57,5.73,0,2.6,.37,5.11,1.02,7.51,.5,.36,1.03,.68,1.57,.92,4.91,2.18,13.23,5.32,27.8,5.74,14.44,.42,18.13-5.68,26.4-5.82,.79-2.65,1.23-5.45,1.23-8.35,0-.58-.05-1.14-.09-1.7Z"/><path class="cls-7" d="M483.39,282.67c-4.37,2.2-9.75,4.71-9.75,6.61,0,2.53,6.54,2.74,9.49,4,.45,.19,1.13,.49,1.96,.84-1.13-3.1-1.78-6.43-1.78-9.93,0-.52,.05-1.02,.08-1.53Z"/><path class="cls-12" d="M515.8,275.78c-13.7-2.11-24.67,2.32-28.67,4.86-.99,.62-2.31,1.31-3.74,2.03-.03,.51-.08,1.01-.08,1.53,0,3.49,.65,6.83,1.78,9.93,4.59,1.93,14.53,5.76,25.23,6.11,10.73,.36,25.06-4.29,29.69-7.38,.35-1.12,.61-2.27,.82-3.45-2.8-4.12-13.61-11.87-25.04-13.63Z"/><path class="cls-10" d="M523.46,285.03c0-3.25-1.49-5.76-3.29-8.19-8.19-2.61-18.72-1-23.47,.02-1.58,2.34-2.5,5.15-2.5,8.18,0,8.08,6.55,14.63,14.63,14.63,8.08,0,14.63-6.55,14.63-14.63Z"/><rect class="cls-18" x="502.14" y="279.11" width="12.69" height="12.69"/><path class="cls-18" d="M286.23,258.71c.98,1.65,6.06,.75,12.43-.96v-10.79c-8.01,4.94-13.59,9.8-12.43,11.75Z"/><path class="cls-18" d="M334.28,233.31v18.23c8.24,1.22,21.61,3.5,33.4,5.57v-21.05c-12.46-1.74-25.31-3.1-33.4-2.76Z"/><path class="cls-18" d="M402.05,253.28c.86-3.91,5.07-9.87,1.62-11.23,0,0-17.56-3.41-35.99-5.98v21.05c11.11,1.96,20.8,3.73,23.42,4.26,6.36,1.28,10.09-4.18,10.95-8.09Z"/><path class="cls-18" d="M330.73,227.83c-9.26,1.33-22.43,7.41-32.07,13.35v10.79c10.21-2.73,23.75-7.49,29.15-7.05,1.33,.11,3.59,.41,6.46,.83v-18.23c-1.31,.05-2.51,.15-3.55,.3Z"/><path class="cls-10" d="M367.15,283.19c-.11-3.86-1.88-6.52-4.48-8.98,0,0-6.08-1.22-9.94-1.1-4.19,.12-9.72,.66-9.72,.66-2.09,2.52-3.93,6.69-3.83,10.22,.22,7.72,6.66,13.81,14.39,13.58,7.72-.22,13.81-6.66,13.58-14.39Z"/><rect class="cls-18" x="347.13" y="277.67" width="12.69" height="12.69"/></g><path class="cls-15" d="M147.72,653.27h-46.01v-6.04c19.45-6.07,35.3-16.06,46.01-24.23v30.27Z"/><path class="cls-18" d="M147.72,607.27v15.74c-10.71,8.17-26.56,18.17-46.01,24.23v-39.97h46.01Z"/><g class="cls-22"><g><g><path class="cls-4" d="M68.11,349.64c44.28,147.5,0,776.67,0,776.67"/><path class="cls-4" d="M146.48,349.64c33.68,153.6,0,776.67,0,776.67"/><path class="cls-4" d="M224.85,349.64c23.09,159.71,0,776.67,0,776.67"/><path class="cls-4" d="M303.22,349.64c12.5,165.81,0,776.67,0,776.67"/><path class="cls-4" d="M381.59,349.64c1.9,171.91,0,776.67,0,776.67"/><path class="cls-4" d="M459.97,349.64c-8.69,178.02,0,776.67,0,776.67"/><path class="cls-4" d="M538.34,349.64c-19.29,184.12,0,776.67,0,776.67"/><path class="cls-4" d="M616.71,349.64c-29.88,190.22,0,776.67,0,776.67"/><path class="cls-4" d="M695.08,349.64c-40.47,196.33,0,776.67,0,776.67"/><path class="cls-4" d="M773.45,349.64c-51.07,202.43,0,776.67,0,776.67"/></g><g><polyline class="cls-4" points="809.12 385.3 694.2 385.3 614.95 385.3 535.7 385.3 456.44 385.3 379.17 385.3 301.9 385.3 222.65 385.3 143.4 385.3 -3.26 385.3"/><polyline class="cls-4" points="809.12 463.68 694.42 463.68 614.95 463.68 535.7 463.68 456.44 463.68 379.17 463.68 301.68 463.68 222.65 463.68 143.4 463.68 66.13 463.68 -3.26 463.68"/><polyline class="cls-4" points="809.12 542.05 694.64 542.05 614.95 542.05 535.7 542.05 456.44 542.05 379.17 542.05 301.46 542.05 222.65 542.05 143.4 542.05 66.13 542.05 -3.26 542.05"/><polyline class="cls-4" points="809.12 620.42 694.86 620.42 614.95 620.42 535.7 620.42 456.44 620.42 379.17 620.42 301.24 620.42 222.65 620.42 143.4 620.42 66.13 620.42 -3.26 620.42"/><polyline class="cls-4" points="809.12 698.79 695.08 698.79 614.95 698.79 535.7 698.79 456.44 698.79 379.17 698.79 301.02 698.79 222.65 698.79 143.4 698.79 66.13 698.79 -3.26 698.79"/><polyline class="cls-4" points="809.12 777.16 695.3 777.16 614.95 777.16 535.7 777.16 456.44 777.16 379.17 777.16 300.8 777.16 222.65 777.16 143.4 777.16 66.13 777.16 -3.26 777.16"/><polyline class="cls-4" points="809.12 855.54 695.52 855.54 614.95 855.54 535.7 855.54 456.44 855.54 379.17 855.54 300.58 855.54 222.65 855.54 143.4 855.54 66.13 855.54 -3.26 855.54"/></g></g></g><path class="cls-9" d="M251.79,646.19c8.99,70.67,97.65,95.08,197.87,89.94,95.04-4.87,152.9-69.38,155.38-137.6-19.25-8.09-39.44-16.95-47.27-20.4l-1.84,.07c5.14,5.2,21.72,22.16,23.02,26.27,1.54,4.86-23.66,102.95-151.81,104.53-128.15,1.58-148.37-62.8-145.8-91.07,3.16-34.76,17.32-51.19,20.69-56.11l-.35-.26c-3.61,1.43-20.78,8.26-44.22,17.84-5.66,15.71-9.39,37.64-5.68,66.8Z"/><g><path class="cls-15" d="M738.42,576.55v13.69h-135.09c-19.91-5.54-41.4-10.8-59.93-13.69h195.02Z"/><path class="cls-20" d="M494.36,576.55h49.04c18.52,2.88,40.02,8.14,59.93,13.69h-108.97v-13.69Z"/></g><g><path class="cls-19" d="M322.1,593.99v9.12h-120.27c1.88-2.8,3.62-5.88,4.94-9.12h115.33Z"/><path class="cls-15" d="M186.39,593.99h20.38c-1.32,3.24-3.05,6.32-4.94,9.12h-15.45v-9.12Z"/></g><g><g><rect class="cls-17" x="409.97" y="644.58" width="190.46" height="15.97"/><g><line class="cls-6" x1="435.06" y1="644.58" x2="435.06" y2="661.69"/><line class="cls-5" x1="443.05" y1="644.58" x2="443.05" y2="661.69"/></g><g><line class="cls-6" x1="471.56" y1="644.58" x2="471.56" y2="661.69"/><line class="cls-5" x1="479.54" y1="644.58" x2="479.54" y2="661.69"/></g><g><line class="cls-6" x1="516.04" y1="644.58" x2="516.04" y2="661.69"/><line class="cls-5" x1="524.02" y1="644.58" x2="524.02" y2="661.69"/></g><g><line class="cls-6" x1="563.94" y1="644.58" x2="563.94" y2="661.69"/><line class="cls-5" x1="571.92" y1="644.58" x2="571.92" y2="661.69"/></g></g><g><rect class="cls-17" x="337.7" y="604.11" width="190.46" height="15.97"/><g><line class="cls-6" x1="362.79" y1="604.11" x2="362.79" y2="621.22"/><line class="cls-5" x1="370.77" y1="604.11" x2="370.77" y2="621.22"/></g><g><line class="cls-6" x1="399.28" y1="604.11" x2="399.28" y2="621.22"/><line class="cls-5" x1="407.27" y1="604.11" x2="407.27" y2="621.22"/></g><g><line class="cls-6" x1="443.76" y1="604.11" x2="443.76" y2="621.22"/><line class="cls-5" x1="451.74" y1="604.11" x2="451.74" y2="621.22"/></g><g><line class="cls-6" x1="491.66" y1="604.11" x2="491.66" y2="621.22"/><line class="cls-5" x1="499.64" y1="604.11" x2="499.64" y2="621.22"/></g></g></g></g></g></svg>